<svg width="45" height="45" viewBox="0 0 45 45" fill="none" xmlns="http://www.w3.org/2000/svg">
<path fill-rule="evenodd" clip-rule="evenodd" d="M9.85055 32.3093C15.2909 39.2726 25.346 40.5073 32.3093 35.0669C39.2726 29.6266 40.5072 19.5715 35.0669 12.6082C29.6266 5.64487 19.5714 4.41026 12.6081 9.85058C5.64484 15.2909 4.41022 25.346 9.85055 32.3093ZM17.1909 20.3941L19.8814 23.8378C20.0265 24.0235 20.0991 24.1164 20.0864 24.2192C20.0738 24.3219 19.981 24.3945 19.7952 24.5396L12.9002 29.9266C12.1984 30.4749 11.8475 30.7491 11.9342 30.9303C12.021 31.1116 12.4546 31.0102 13.3219 30.8074L26.6058 27.7021C27.9772 27.3815 28.663 27.2212 28.8451 26.7046C29.0272 26.1881 28.5936 25.6332 27.7265 24.5233L25.036 21.0796C24.8909 20.8938 24.8183 20.801 24.831 20.6982C24.8436 20.5954 24.9364 20.5229 25.1222 20.3777L32.0172 14.9908C32.719 14.4424 33.0699 14.1683 32.9832 13.987C32.8964 13.8058 32.4628 13.9072 31.5955 14.1099L18.3116 17.2152C16.9402 17.5358 16.2544 17.6961 16.0723 18.2127C15.8902 18.7293 16.3238 19.2842 17.1909 20.3941Z" fill="#2EA539"/>
</svg>
