<svg width="51" height="51" viewBox="0 0 51 51" fill="none" xmlns="http://www.w3.org/2000/svg">
<path d="M43.3173 32.502V44.1521H7.68125V32.502H0.832031V47.5767C0.832031 49.4668 2.36315 50.9996 4.26175 50.9996H46.7368C48.6337 50.9996 50.1665 49.4685 50.1665 47.5767V32.502H43.3173Z" fill="white"/>
<path d="M24.8723 31.3472L15.0663 19.498C15.0663 19.498 13.5743 18.0894 15.1922 18.0894C16.8101 18.0894 20.7178 18.0894 20.7178 18.0894C20.7178 18.0894 20.7178 17.1418 20.7178 15.6804C20.7178 11.514 20.7178 3.93158 20.7178 0.840416C20.7178 0.840416 20.4984 0 21.7641 0C23.04 0 28.6286 0 29.5422 0C30.4541 0 30.4337 0.707719 30.4337 0.707719C30.4337 3.70532 30.4337 11.5498 30.4337 15.58C30.4337 16.8866 30.4337 17.7338 30.4337 17.7338C30.4337 17.7338 33.5674 17.7338 35.534 17.7338C37.4972 17.7338 36.0189 19.2088 36.0189 19.2088C36.0189 19.2088 27.6759 30.2839 26.5123 31.4459C25.6753 32.288 24.8723 31.3472 24.8723 31.3472Z" fill="white"/>
</svg>
