<svg width="146" height="144" viewBox="0 0 146 144" fill="none" xmlns="http://www.w3.org/2000/svg">
<path fill-rule="evenodd" clip-rule="evenodd" d="M1 56.2854C1 54.3708 1.91371 52.5712 3.4594 51.4414L65.9188 5.78814C70.1363 2.70543 75.8637 2.70543 80.0812 5.78814L142.541 51.4414C144.086 52.5712 145 54.3708 145 56.2854V137.874C145 141.188 142.314 143.874 139 143.874H7C3.68629 143.874 1 141.188 1 137.874V56.2854Z" fill="#E5E9F3"/>
<path fill-rule="evenodd" clip-rule="evenodd" d="M27.1818 9.66895V71.42L51.3113 81.1368C54.2797 82.3322 57.4499 82.9465 60.6499 82.9465H85.1572C88.3498 82.9465 91.5128 82.335 94.4753 81.1451L118.818 71.3673V9.66895L27.1818 9.66895Z" fill="white" stroke="#FF0035" stroke-linecap="round"/>
<rect x="36.7819" y="19.5488" width="13.0909" height="12.3501" fill="#FF0035" fill-opacity="0.7"/>
<rect x="36.7819" y="42.6025" width="46.2545" height="4.11672" fill="#FF0035"/>
<path d="M1 60.7168L51.2445 81.1115C54.2311 82.3238 57.4239 82.9471 60.6472 82.9471H85.2246C88.4403 82.9471 91.6259 82.3266 94.6066 81.1198L145 60.7168" stroke="#FF0035" stroke-linecap="round"/>
<path fill-rule="evenodd" clip-rule="evenodd" d="M121.605 133.994H96.4391H92.8402C92.6118 133.994 92.4584 133.76 92.55 133.551L92.7876 133.007C93.1014 132.29 93.1099 131.476 92.8112 130.753L92.7797 130.676C92.5083 130.019 92.5092 129.281 92.7821 128.624L92.9201 128.292C93.1466 127.747 93.1121 127.128 92.8263 126.611C92.5303 126.076 92.5044 125.433 92.7565 124.875L92.8446 124.681C93.1201 124.072 93.1163 123.373 92.834 122.767L92.7973 122.688C92.5191 122.091 92.5347 121.398 92.8398 120.814C93.119 120.279 93.1569 119.65 92.9439 119.086L92.534 117.999C92.4479 117.771 92.6165 117.527 92.8605 117.527H96.4391H121.605H125.184C125.428 117.527 125.596 117.771 125.51 117.999L125.1 119.086C124.887 119.65 124.925 120.279 125.205 120.814C125.51 121.398 125.525 122.091 125.247 122.688L125.21 122.767C124.928 123.373 124.924 124.072 125.2 124.681L125.288 124.875C125.54 125.433 125.514 126.076 125.218 126.611C124.932 127.128 124.898 127.747 125.124 128.292L125.262 128.624C125.535 129.281 125.536 130.019 125.265 130.676L125.233 130.753C124.934 131.476 124.943 132.29 125.257 133.007L125.494 133.551C125.586 133.76 125.432 133.994 125.204 133.994H121.605Z" fill="#FF0035"/>
<rect x="94.8818" y="120.497" width="26.9273" height="11.3501" stroke="white"/>
<path d="M55.9818 82.9463L1 119.997" stroke="#FF0035" stroke-linecap="round"/>
<path d="M90.0182 82.9463L145 119.997" stroke="#FF0035" stroke-linecap="round"/>
<path d="M35.9091 52.8951H103.982" stroke="#FF0035" stroke-linecap="round"/>
<path d="M35.9091 60.3042H72.5636" stroke="#FF0035" stroke-linecap="round"/>
<path d="M35.9091 66.8912H83.0363" stroke="#FF0035" stroke-linecap="round"/>
</svg>
