<svg width="151" height="151" viewBox="0 0 151 151" fill="none" xmlns="http://www.w3.org/2000/svg">
<path d="M81.6077 144.892C119.932 141.519 148.266 107.716 144.892 69.3919C141.519 31.0675 107.717 2.73402 69.3924 6.10719C31.068 9.48035 2.73449 43.2828 6.10766 81.6072C9.48082 119.932 43.2833 148.265 81.6077 144.892Z" fill="#8B939C"/>
<path d="M45.2007 75.8145L55.7201 59.5547L66.2435 75.8145H59.2144V119.714H52.2217V75.8145H45.2007Z" fill="#71B0E0" stroke="#2E3192" stroke-width="3.79" stroke-miterlimit="10"/>
<g style="mix-blend-mode:multiply">
<path d="M55.627 119.714L55.7199 59.5547L66.2433 75.8145H59.2142V119.714H55.627Z" fill="#71B0E0"/>
</g>
<path d="M65.0679 65.3908L75.5913 49.127L86.1147 65.3908H79.0856V119.717H72.0929V65.3908H65.0679Z" fill="#FFCA37" stroke="#2E3192" stroke-width="3.79" stroke-miterlimit="10"/>
<g style="mix-blend-mode:multiply">
<path d="M75.498 119.717L75.591 49.127L86.1144 65.3908H79.0853V119.717H75.498Z" fill="#FFCA37"/>
</g>
<path d="M84.3691 51.4317L94.8885 35.1719L105.412 51.4317H98.3829V119.715H91.3942V51.4317H84.3691Z" fill="#FF0035" stroke="#2E3192" stroke-width="3.79" stroke-miterlimit="10"/>
<g style="mix-blend-mode:multiply">
<path d="M94.7959 119.715L94.8888 35.1719L105.412 51.4317H98.3832V119.715H94.7959Z" fill="#D1D3D4"/>
</g>
<path d="M108.708 119.715H41.6938V29.9648" stroke="#2E3192" stroke-width="3.79" stroke-linecap="round" stroke-linejoin="round"/>
<path d="M41.694 27.7773L43.4432 31.4171L45.2004 35.065L41.694 32.6129L38.1875 35.065L39.9367 31.4171L41.694 27.7773Z" fill="#2E3192"/>
<path d="M112.821 119.712L109.177 121.461L105.533 123.214L107.981 119.712L105.533 116.201L109.177 117.954L112.821 119.712Z" fill="#2E3192"/>
</svg>
