<svg width="138" height="138" viewBox="0 0 138 138" fill="none" xmlns="http://www.w3.org/2000/svg">
<circle cx="69" cy="69" r="69" fill="#494A66"/>
<path d="M68.494 38.1855H68.42C56.0725 38.1855 46.8489 46.8209 45.8364 59.0337C45.3302 65.0414 45.2314 70.4817 55.1217 82.0653C57.1838 84.5326 57.7888 89.3437 58.0234 92.2057C58.1469 93.76 65.6788 94.7716 68.494 94.9813V38.2349V38.1855Z" fill="#FDB813"/>
<path d="M91.1518 59.0337C90.1393 46.7715 80.9281 38.1855 68.5806 38.1855H68.4941V94.9319C71.3094 94.7222 78.8413 93.6983 78.9648 92.1563C79.1994 89.2943 79.8045 84.4339 81.8788 82.016C91.7568 70.4816 91.658 65.0414 91.1518 59.0337Z" fill="#FD9B13"/>
<path d="M68.4937 95.9566C68.1049 95.9585 67.7247 95.8413 67.4046 95.6207C67.0845 95.4002 66.8397 95.0868 66.7034 94.7229L57.3193 67.9165C57.2308 67.6339 57.2095 67.3347 57.2573 67.0425C57.3051 66.7504 57.4206 66.4734 57.5945 66.2337C57.7684 65.9941 57.996 65.7983 58.259 65.6621C58.5221 65.5259 58.8134 65.453 59.1097 65.4492H77.8778C78.1741 65.453 78.4654 65.5259 78.7285 65.6621C78.9916 65.7983 79.2191 65.9941 79.3931 66.2337C79.567 66.4734 79.6825 66.7504 79.7302 67.0425C79.778 67.3347 79.7568 67.6339 79.6682 67.9165L70.2471 94.6859C70.119 95.0508 69.8825 95.368 69.5692 95.5951C69.2559 95.8221 68.8807 95.9482 68.4937 95.9566ZM61.7767 69.1501L68.4937 88.3205L75.1861 69.1501H61.7767Z" fill="#F12A3F"/>
<path d="M56.5044 87.2461V102.642C56.5044 102.913 56.8625 103.258 57.5416 103.629L65.728 108.181C66.5812 108.623 67.5325 108.844 68.4938 108.822V87.2461H56.5044Z" fill="#F12A3F"/>
<path d="M68.4941 87.2461V108.822C69.4592 108.842 70.4141 108.622 71.2723 108.181L79.4464 103.629C80.1255 103.258 80.4589 102.913 80.4836 102.642V87.2461H68.4941Z" fill="#FF0035"/>
<path d="M72.1366 29.427C72.1367 30.3979 71.7549 31.33 71.0735 32.0223C70.3921 32.7146 69.4657 33.1117 68.494 33.1278C67.5224 33.1117 66.596 32.7146 65.9146 32.0223C65.2332 31.33 64.8514 30.3979 64.8516 29.427V18.2134C64.8675 17.2532 65.2563 16.3367 65.936 15.6577C66.6157 14.9786 67.533 14.5901 68.494 14.5742C69.4551 14.5901 70.3724 14.9786 71.0521 15.6577C71.7318 16.3367 72.1207 17.2532 72.1366 18.2134V29.427Z" fill="#FDB813"/>
<path d="M47.5281 35.32C48.1958 36.0101 48.569 36.9323 48.569 37.8921C48.569 38.8519 48.1958 39.7741 47.5281 40.4642C46.8374 41.1313 45.9143 41.5041 44.9537 41.5041C43.993 41.5041 43.0699 41.1313 42.3792 40.4642L34.4398 32.532C34.0989 32.1958 33.8283 31.7953 33.6436 31.3538C33.4589 30.9123 33.3638 30.4385 33.3638 29.96C33.3638 29.4814 33.4589 29.0076 33.6436 28.5661C33.8283 28.1246 34.0989 27.7241 34.4398 27.3879C34.7769 27.0507 35.1773 26.7832 35.618 26.6007C36.0586 26.4182 36.531 26.3242 37.008 26.3242C37.4851 26.3242 37.9575 26.4182 38.3981 26.6007C38.8388 26.7832 39.2392 27.0507 39.5763 27.3879L47.5281 35.32Z" fill="#FDB813"/>
<path d="M89.4598 35.3236C88.7921 36.0137 88.4189 36.9359 88.4189 37.8957C88.4189 38.8555 88.7921 39.7777 89.4598 40.4678C90.1505 41.1349 91.0736 41.5077 92.0342 41.5077C92.9949 41.5077 93.918 41.1349 94.6087 40.4678L102.548 32.5356C103.216 31.8456 103.589 30.9233 103.589 29.9636C103.589 29.0038 103.216 28.0816 102.548 27.3915C101.857 26.7244 100.934 26.3516 99.9737 26.3516C99.013 26.3516 98.0899 26.7244 97.3992 27.3915L89.4598 35.3236Z" fill="#FDB813"/>
<path d="M36.23 52.2148C37.2017 52.231 38.1281 52.6281 38.8095 53.3203C39.4908 54.0126 39.8726 54.9448 39.8725 55.9157C39.8566 56.8759 39.4677 57.7923 38.788 58.4714C38.1084 59.1505 37.1911 59.539 36.23 59.5549H25.0061C24.0472 59.5358 23.133 59.1459 22.456 58.4672C21.7789 57.7885 21.3918 56.8738 21.376 55.9157C21.3758 54.9469 21.7559 54.0166 22.4346 53.3246C23.1133 52.6327 24.0366 52.2342 25.0061 52.2148H36.23Z" fill="#FDB813"/>
<path d="M111.982 52.2148C112.953 52.231 113.88 52.6281 114.561 53.3203C115.242 54.0126 115.624 54.9448 115.624 55.9157C115.608 56.8759 115.219 57.7923 114.54 58.4714C113.86 59.1505 112.943 59.539 111.982 59.5549H100.758C99.7966 59.539 98.8794 59.1505 98.1997 58.4714C97.52 57.7923 97.1311 56.8759 97.1152 55.9157C97.1151 54.9448 97.4969 54.0126 98.1783 53.3203C98.8597 52.6281 99.786 52.231 100.758 52.2148H111.982Z" fill="#FDB813"/>
<path d="M82.0147 93.4756C82.0147 93.0666 81.852 92.6744 81.5626 92.3852C81.2731 92.0961 80.8806 91.9336 80.4712 91.9336H68.4941V95.0176H80.4712C80.8806 95.0176 81.2731 94.8552 81.5626 94.566C81.852 94.2768 82.0147 93.8846 82.0147 93.4756Z" fill="#CEEFF6"/>
<path d="M56.5171 91.9102C56.1077 91.9102 55.7151 92.0726 55.4257 92.3618C55.1362 92.651 54.9736 93.0432 54.9736 93.4522C54.9736 93.8611 55.1362 94.2534 55.4257 94.5426C55.7151 94.8317 56.1077 94.9942 56.5171 94.9942H68.4941V91.9102H56.5171Z" fill="white"/>
<path d="M56.5171 98.3516C56.1077 98.3516 55.7151 98.514 55.4257 98.8032C55.1362 99.0924 54.9736 99.4846 54.9736 99.8936C54.9736 100.303 55.1362 100.695 55.4257 100.984C55.7151 101.273 56.1077 101.436 56.5171 101.436H68.4941V98.3516H56.5171Z" fill="white"/>
<path d="M80.4712 98.3516H68.4941V101.436H80.4712C80.8806 101.436 81.2731 101.273 81.5626 100.984C81.852 100.695 82.0147 100.303 82.0147 99.8936C82.0147 99.4846 81.852 99.0924 81.5626 98.8032C81.2731 98.514 80.8806 98.3516 80.4712 98.3516Z" fill="#CEEFF6"/>
</svg>
