<svg width="138" height="138" viewBox="0 0 138 138" fill="none" xmlns="http://www.w3.org/2000/svg">
<path d="M69 138C107.108 138 138 107.108 138 69C138 30.8923 107.108 0 69 0C30.8923 0 0 30.8923 0 69C0 107.108 30.8923 138 69 138Z" fill="#FF0035"/>
<path d="M82.5767 60.2852C81.7177 64.6321 80.4556 68.8895 78.8066 73.0022C79.6675 72.9584 81.3015 73.1178 82.1224 74.7597C83.2582 77.0353 85.4262 81.8575 86.8091 84.9581H88.0604V71.6114C88.0604 63.8201 84.0074 61.0304 82.5767 60.2852Z" fill="#71B0E0" stroke="#2E3192" stroke-width="3.79" stroke-miterlimit="10"/>
<path d="M55.8431 60.2852C56.7016 64.6327 57.9651 68.8903 59.6172 73.0022C58.7524 72.9584 57.1144 73.1178 56.2974 74.7597C55.1576 77.0353 52.9896 81.8575 51.6107 84.9581H50.3594V71.6114C50.3594 63.8201 54.4244 61.0304 55.8431 60.2852Z" fill="#71B0E0" stroke="#2E3192" stroke-width="3.79" stroke-miterlimit="10"/>
<g style="mix-blend-mode:multiply">
<path d="M55.8431 60.2852C56.7016 64.6327 57.9651 68.8903 59.6172 73.0022C58.7524 72.9584 57.1144 73.1178 56.2974 74.7597C55.1576 77.0353 52.9896 81.8575 51.6107 84.9581H50.3594V71.6114C50.3594 63.8201 54.4244 61.0304 55.8431 60.2852Z" fill="#71B0E0"/>
</g>
<path d="M66.5916 25.3619C62.5465 30.3953 54.9824 41.5262 54.9824 54.4305C54.9824 65.673 62.8534 80.9685 62.8534 80.9685H75.2915C75.2915 80.9685 83.1584 65.673 83.1584 54.4305C83.1584 41.5541 75.6222 30.4391 71.5732 25.3938C70.0906 23.5486 68.0661 23.5486 66.5916 25.3619Z" fill="white" stroke="#2E3192" stroke-width="3.79" stroke-miterlimit="10"/>
<path d="M75.5785 80.9629H62.8535V83.8722H75.5785V80.9629Z" fill="#71B0E0" stroke="#2E3192" stroke-width="3.79" stroke-miterlimit="10"/>
<path d="M75.5784 83.8691C75.5784 83.8691 81.9907 90.3851 79.6394 99.4317C79.6394 99.4317 78.1011 94.8167 76.0208 92.828C76.0208 92.828 78.3083 97.439 73.9484 103.776C69.5885 110.112 65.9779 113.548 68.2415 116.441C68.2415 116.441 59.0116 102.492 63.6265 93.1867C63.6265 93.1867 60.0119 98.9773 60.2789 102.779C60.2789 102.779 57.6446 91.4691 62.8534 83.8691H75.5784Z" fill="#FFCA37" stroke="#2E3192" stroke-width="3.79" stroke-miterlimit="10"/>
<g style="mix-blend-mode:multiply">
<path d="M69.0346 110.702V83.8691H62.8534C57.6446 91.4691 60.2789 102.779 60.2789 102.779C60.0119 98.9773 63.6265 93.1867 63.6265 93.1867C59.5934 101.329 66.1253 112.99 67.839 115.807C67.1456 114.365 67.7354 112.75 69.0346 110.702Z" fill="#FFCA37"/>
</g>
<path d="M64.9817 83.8691C64.9817 83.8691 62.3873 85.9813 63.1166 90.0822C63.1166 90.0822 63.5151 88.6953 65.3443 87.8464C65.3443 87.8464 64.3759 95.4504 67.3928 99.6708C67.3928 99.6708 67.5761 93.398 70.1825 92.4973C71.821 91.8461 73.1379 90.577 73.8491 88.9636C74.5604 87.3503 74.6089 85.522 73.9844 83.8731L64.9817 83.8691Z" fill="#F37435" stroke="#2E3192" stroke-width="3.79" stroke-miterlimit="10"/>
<g style="mix-blend-mode:multiply">
<path d="M69.0148 83.8691H64.9817C64.9817 83.8691 62.3873 85.9813 63.1166 90.0822C63.1166 90.0822 63.5151 88.6953 65.3443 87.8464C65.3443 87.8464 64.3759 95.4504 67.3928 99.6708C67.3928 99.6708 67.5163 95.4105 69.0148 93.406V83.8691Z" fill="#F37435"/>
</g>
<g style="mix-blend-mode:multiply">
<path d="M69.0704 24.002C68.6056 24.051 68.1564 24.1973 67.752 24.4314C67.3475 24.6656 66.9969 24.9823 66.723 25.3609C62.6341 30.3944 54.9824 41.5252 54.9824 54.4296C54.9824 65.6721 62.953 80.9676 62.953 80.9676H69.0823L69.0704 24.002Z" fill="#BCBEC0"/>
</g>
<path d="M69.0706 32.5769C71.3377 32.5861 73.5724 32.0387 75.5786 30.9828C74.3561 29.0393 73.0256 27.1659 71.5932 25.3715C70.1107 23.5183 68.0862 23.5104 66.6116 25.3396C65.1665 27.1457 63.8215 29.0296 62.5825 30.9828C64.5826 32.036 66.8102 32.5833 69.0706 32.5769Z" fill="#FFCA37" stroke="#2E3192" stroke-width="3.79" stroke-miterlimit="10"/>
<g style="mix-blend-mode:multiply">
<path d="M68.6838 24.0254H68.5961C68.5724 24.0213 68.5481 24.0213 68.5244 24.0254H68.4367L68.3649 24.0493H68.2813C68.2558 24.0617 68.2291 24.071 68.2015 24.0772L68.1258 24.1051L68.0501 24.137L67.9704 24.1729C67.9441 24.1824 67.9187 24.1944 67.8947 24.2088L67.815 24.2486L67.7433 24.2885L67.6635 24.3323L67.5878 24.3801C67.5641 24.3983 67.5387 24.4144 67.5121 24.4279C67.4882 24.4279 67.4683 24.4638 67.4404 24.4797L67.3646 24.5355L67.2929 24.5913L67.2172 24.6511L67.1494 24.7109L67.0777 24.7786L67.002 24.8424L66.9302 24.9142C66.9092 24.9396 66.8851 24.9624 66.8585 24.9819L66.7908 25.0656L66.723 25.1333L66.6313 25.2449L66.5915 25.2928C66.5397 25.3565 66.4879 25.4243 66.4321 25.488C66.4215 25.5062 66.4095 25.5235 66.3962 25.5398L66.2687 25.6953C66.2368 25.7311 66.2129 25.771 66.185 25.8069L66.0654 25.9543C66.0348 26 66.0015 26.0439 65.9658 26.0858C65.9299 26.1336 65.8941 26.1815 65.8502 26.2333L65.7426 26.3728C65.7068 26.4206 65.6669 26.4724 65.635 26.5202L65.5115 26.6796L65.4079 26.8191L65.2684 27.0025L65.1767 27.126C65.1169 27.2057 65.0612 27.2854 64.9974 27.3651C64.9336 27.4448 64.9575 27.4169 64.9416 27.4448L64.6985 27.7796L64.6586 27.8314C64.5949 27.927 64.5231 28.0227 64.4514 28.1223L64.3796 28.2219L64.2043 28.473C64.1724 28.5129 64.1525 28.5527 64.1246 28.5886C64.0967 28.6245 64.009 28.756 63.9493 28.8357L63.8695 28.9592C63.8097 29.0429 63.75 29.1266 63.6942 29.2183C63.6384 29.3099 63.6424 29.294 63.6145 29.3338L63.4232 29.6088L63.3555 29.7124C63.2837 29.82 63.2159 29.9276 63.1362 30.0353C63.1259 30.0586 63.1139 30.0812 63.1004 30.103C62.925 30.37 62.7417 30.649 62.5703 30.928C64.5311 31.9498 66.7078 32.4881 68.9189 32.4981V23.9258H68.7794L68.6838 24.0254Z" fill="#FFCA37"/>
</g>
<path d="M78.0693 52.4812C78.0693 54.261 77.5416 56.0008 76.5528 57.4806C75.564 58.9605 74.1585 60.1139 72.5142 60.795C70.8699 61.4761 69.0606 61.6543 67.315 61.307C65.5694 60.9598 63.966 60.1028 62.7075 58.8443C61.449 57.5858 60.5919 55.9823 60.2447 54.2368C59.8975 52.4912 60.0757 50.6818 60.7568 49.0375C61.4379 47.3932 62.5912 45.9878 64.0711 44.999C65.5509 44.0102 67.2908 43.4824 69.0705 43.4824C71.4572 43.4824 73.7461 44.4305 75.4337 46.1181C77.1213 47.8057 78.0693 50.0946 78.0693 52.4812Z" fill="#FFCA37" stroke="#2E3192" stroke-width="3.79" stroke-miterlimit="10"/>
<g style="mix-blend-mode:multiply">
<path d="M69.0945 43.4727H69.0705C66.6839 43.4727 64.395 44.4207 62.7075 46.1083C61.0199 47.7959 60.0718 50.0848 60.0718 52.4714C60.0718 54.858 61.0199 57.1469 62.7075 58.8345C64.395 60.5221 66.6839 61.4702 69.0705 61.4702H69.0945V43.4727Z" fill="#FFCA37"/>
</g>
<path d="M75.7377 52.48C75.7377 53.7996 75.3464 55.0896 74.6132 56.1868C73.88 57.284 72.8377 58.139 71.6185 58.6439C70.3992 59.1487 69.0576 59.2806 67.7634 59.0228C66.4692 58.7651 65.2805 58.1293 64.3476 57.1959C63.4148 56.2625 62.7797 55.0734 62.5227 53.779C62.2658 52.4846 62.3984 51.1431 62.904 49.9242C63.4095 48.7052 64.2653 47.6636 65.3629 46.931C66.4605 46.1984 67.7507 45.8078 69.0704 45.8086C70.839 45.8097 72.5349 46.513 73.7851 47.764C75.0354 49.015 75.7377 50.7113 75.7377 52.48Z" fill="#71B0E0" stroke="#2E3192" stroke-width="3.79" stroke-miterlimit="10"/>
<g style="mix-blend-mode:multiply">
<path d="M69.0942 45.8086H69.0703C67.3009 45.8086 65.6041 46.5115 64.3529 47.7626C63.1018 49.0137 62.3989 50.7106 62.3989 52.48C62.3989 54.2493 63.1018 55.9462 64.3529 57.1974C65.6041 58.4485 67.3009 59.1513 69.0703 59.1513H69.0942V45.8086Z" fill="#71B0E0"/>
</g>
<path d="M68.4848 87.3106C68.5525 87.7092 68.6242 88.1476 68.7039 88.562H69.7282C69.8039 88.1635 69.8756 87.7291 69.9473 87.3106C70.1346 86.1469 70.2742 84.9872 70.3897 83.8235C70.6089 81.4961 70.7045 79.1727 70.7045 76.8493C70.7045 74.5259 70.6089 72.2024 70.3897 69.875C70.2702 68.7153 70.1306 67.5516 69.9433 66.3919C69.8676 65.9097 69.78 65.4314 69.6883 64.9492H68.7438C68.6482 65.4314 68.5645 65.9097 68.4887 66.3919C68.3014 67.5516 68.1539 68.7153 68.0503 69.875C67.8271 72.2024 67.7275 74.5259 67.7275 76.8493C67.7275 79.1727 67.8192 81.4961 68.0424 83.8235C68.154 84.9992 68.2974 86.1589 68.4848 87.3106Z" fill="#71B0E0" stroke="#2E3192" stroke-width="3.79" stroke-miterlimit="10"/>
<g style="mix-blend-mode:multiply">
<path d="M69.0148 64.9609H68.7438C68.6482 65.4432 68.5645 65.9214 68.4887 66.4036C68.3014 67.5633 68.1539 68.727 68.0503 69.8867C67.8271 72.2141 67.7275 74.5376 67.7275 76.861C67.7275 79.1844 67.8192 81.5078 68.0424 83.8352C68.154 84.9989 68.2974 86.1587 68.4848 87.3224C68.5525 87.7209 68.6242 88.1593 68.7039 88.5737H69.0148V64.9609Z" fill="#71B0E0"/>
</g>
</svg>
