<svg width="140" height="140" viewBox="0 0 140 140" fill="none" xmlns="http://www.w3.org/2000/svg">
<path d="M140 69.9797C140.004 83.8246 135.902 97.3597 128.214 108.873C120.525 120.387 109.595 129.362 96.8057 134.664C84.0162 139.966 69.9417 141.356 56.3621 138.659C42.7825 135.961 30.3078 129.298 20.5155 119.51C10.7231 109.723 4.05297 97.2519 1.34853 83.6737C-1.35592 70.0956 0.0268159 56.0204 5.32186 43.2281C10.6169 30.4358 19.5864 19.501 31.0962 11.8064C42.6059 4.11188 56.1389 0.00321399 69.9838 1.88668e-06C88.5482 -0.00430519 106.354 7.36598 119.485 20.4896C132.615 33.6132 139.995 51.4152 140 69.9797Z" fill="#C54A69"/>
<path d="M28.0382 78.459L19.1562 86.8944V101.618H28.0382V78.459Z" fill="#FFCA37"/>
<path d="M36.9241 72.9277L33.981 72.9359L28.0381 78.4607V101.619H36.9241V72.9277Z" fill="white"/>
<path d="M45.8103 72.9277H36.9243V101.619H45.8103V72.9277Z" fill="#FFCA37"/>
<path d="M54.692 72.9277H45.8101V101.619H54.692V72.9277Z" fill="white"/>
<path d="M63.5738 65.9512L56.1614 72.9333L54.6919 72.9252V101.617H63.5738V65.9512Z" fill="#FFCA37"/>
<path d="M72.4561 58.9648H70.9907L63.5742 65.951V101.617H72.4561V58.9648Z" fill="white"/>
<path d="M81.338 58.9336H72.4561V101.614H81.338V58.9336Z" fill="#FFCA37"/>
<path d="M90.2239 58.9336H81.3379V101.614H90.2239V58.9336Z" fill="white"/>
<path d="M99.1101 53.377L93.159 58.9667H90.2241V101.619H99.1101V53.377Z" fill="#FFCA37"/>
<path d="M107.992 45.002L99.1099 53.3724V101.614H107.992V45.002Z" fill="white"/>
<path d="M112.583 40.7285L93.167 58.9714H70.9906L56.1617 72.9357H33.9812L16.0996 89.8105" stroke="#2E3192" stroke-width="3.92" stroke-miterlimit="10"/>
<path d="M102.532 42.4439L115.116 38.3398L110.001 49.6858L110.135 43.0812L102.532 42.4439Z" fill="#2E3192"/>
</svg>
