<svg width="138" height="138" viewBox="0 0 138 138" fill="none" xmlns="http://www.w3.org/2000/svg">
<path d="M138 68.984C138.003 82.6321 133.959 95.9746 126.378 107.324C118.798 118.673 108.022 127.52 95.4135 132.744C82.805 137.969 68.9302 139.337 55.5442 136.675C42.1581 134.014 29.862 127.442 20.2111 117.792C10.5601 108.141 3.98788 95.8457 1.32555 82.4597C-1.33677 69.0738 0.0304389 55.199 5.25425 42.5902C10.4781 29.9814 19.3238 19.2049 30.6728 11.6239C42.0217 4.04279 55.3639 -0.002373 69.012 1.04437e-06C87.3071 0.00318341 104.852 7.27202 117.789 20.2082C130.726 33.1444 137.996 50.6889 138 68.984Z" fill="#92B6B1"/>
<path d="M115.968 33.209H22.0479V90.697H115.968V33.209Z" fill="#71B0E0" stroke="#2E3192" stroke-width="3.79" stroke-miterlimit="10"/>
<path d="M87.5463 96.7475V90.6934H50.3334V96.7475C50.3334 99.6845 40.9941 101.685 40.9941 101.685H96.8856C96.8856 101.685 87.5463 99.5925 87.5463 96.7475Z" fill="#71B0E0" stroke="#2E3192" stroke-width="3.79" stroke-linecap="round" stroke-linejoin="round"/>
<path d="M97.0295 101.686H40.978V104.755H97.0295V101.686Z" fill="#71B0E0" stroke="#2E3192" stroke-width="3.79" stroke-linecap="round" stroke-linejoin="round"/>
<g style="mix-blend-mode:multiply">
<path d="M22.0479 33.2109V90.6949H50.3177V96.749C50.3177 99.686 40.9784 101.687 40.9784 101.687V104.756H68.7481V33.2109H22.0479Z" fill="#71B0E0"/>
</g>
<path d="M113.191 35.623H24.8286V82.2873H113.191V35.623Z" fill="white" stroke="#2E3192" stroke-width="3.79" stroke-linecap="round" stroke-linejoin="round"/>
<g style="mix-blend-mode:multiply">
<path d="M68.7479 35.623H24.8286V82.2873H68.7479V35.623Z" fill="#D1D3D4"/>
</g>
<path d="M73.4818 86.3223C73.4818 86.7796 73.3001 87.2183 72.9767 87.5417C72.6532 87.8652 72.2146 88.0469 71.7572 88.0469H66.2553C65.7986 88.0458 65.3609 87.8636 65.0384 87.5403C64.7158 87.217 64.5347 86.779 64.5347 86.3223C64.5347 85.8656 64.7158 85.4275 65.0384 85.1042C65.3609 84.7809 65.7986 84.5987 66.2553 84.5977H71.7572C72.2146 84.5977 72.6532 84.7794 72.9767 85.1028C73.3001 85.4262 73.4818 85.8649 73.4818 86.3223Z" fill="white" stroke="#2E3192" stroke-width="3.79" stroke-linecap="round" stroke-linejoin="round"/>
<g style="mix-blend-mode:multiply">
<path d="M66.2549 84.5977C65.7975 84.5977 65.3588 84.7794 65.0354 85.1028C64.712 85.4262 64.5303 85.8649 64.5303 86.3223C64.5303 86.7796 64.712 87.2183 65.0354 87.5417C65.3588 87.8652 65.7975 88.0469 66.2549 88.0469H68.7477V84.5977H66.2549Z" fill="#D1D3D4"/>
</g>
</svg>
