<svg width="145" height="19" viewBox="0 0 145 19" fill="none" xmlns="http://www.w3.org/2000/svg">
<path d="M8.42299 2.90663C7.59308 4.52615 6.88576 5.86041 6.861 5.90757C6.81267 5.95473 5.32259 6.19398 3.54015 6.45508C1.73414 6.71733 0.170966 7.02675 0.0247869 7.16937C-0.146148 7.33616 0.562348 8.17007 2.29527 9.81375L4.80978 12.1959L4.24865 15.5074C3.95629 17.3178 3.80893 18.8902 3.90678 18.9857C4.00462 19.0811 5.49352 18.4612 7.17812 17.6042L10.2785 16.0319L13.3789 17.6042C15.0635 18.4612 16.5524 19.1053 16.6503 18.9857C16.7481 18.8902 16.5772 17.3178 16.2601 15.4844L15.6989 12.1499L18.0425 9.98283C19.4347 8.71988 20.4108 7.62486 20.4108 7.36261C20.4108 7.12452 20.3625 6.91057 20.2882 6.91057C20.1173 6.91057 15.3323 6.21929 14.3562 6.07666C13.5994 5.93403 13.4768 5.76725 12.1105 2.95609C11.1815 1.04786 10.5473 0 10.3033 0C10.0593 0 9.37551 1.04786 8.42299 2.90663Z" fill="#FFD400"/>
<path d="M41.035 0.284975C40.8888 0.451757 40.1567 1.78602 39.3987 3.26292C38.1539 5.71635 37.9829 5.93029 37.2497 6.07407C36.8099 6.14539 35.3458 6.36048 34.0031 6.55027C32.6604 6.76421 31.4638 7.02646 31.3176 7.16909C31.1715 7.31172 31.9519 8.2411 33.5634 9.83647L36.0295 12.2658L35.4436 15.4818C35.0534 17.6258 34.9308 18.745 35.1018 18.9118C35.2727 19.0786 36.3467 18.6495 38.3979 17.6258L41.4499 16.0788L44.502 17.627C46.4554 18.6035 47.6272 19.0797 47.7734 18.9371C47.9443 18.7703 47.7981 17.5557 47.4315 15.4829L46.8456 12.2669L49.3353 9.83762C51.093 8.07432 51.7284 7.31287 51.5575 7.14609C51.4113 7.00346 49.8246 6.66989 48.0174 6.40764C46.2102 6.14539 44.7213 5.86013 44.6729 5.76466C44.1118 4.45455 41.7435 0.119343 41.5478 0.048027C41.4016 0.0238724 41.1576 0.118191 41.035 0.284975Z" fill="#FFD400"/>
<path d="M71.0111 2.90663C70.1812 4.52615 69.4727 5.86041 69.4491 5.90757C69.4008 5.95473 67.9107 6.19398 66.1283 6.45508C64.3211 6.71733 62.7591 7.02675 62.6129 7.16937C62.442 7.33616 63.1505 8.17007 64.8834 9.81375L67.4227 12.22L66.8615 15.5074C66.5444 17.3178 66.3735 18.8902 66.4949 18.9857C66.5928 19.0811 68.0817 18.4612 69.7663 17.6042L72.8667 16.0319L75.9671 17.6042C77.6517 18.4612 79.1406 19.1053 79.2384 18.9857C79.3363 18.8902 79.1653 17.3178 78.8482 15.4844L78.2871 12.1499L80.6306 9.98283C82.0217 8.71988 82.999 7.62486 82.999 7.36261C82.999 7.12452 82.9495 6.91057 82.8764 6.91057C82.7054 6.91057 77.9204 6.24344 76.9679 6.07666C76.2359 5.95703 76.0885 5.74309 74.7222 2.98024C73.7697 1.05016 73.1354 0.00230026 72.8914 0.00230026C72.6462 0 71.9625 1.04786 71.0111 2.90663Z" fill="#FFD400"/>
<path d="M102.963 0.524466C102.767 0.833876 102.083 2.14399 101.449 3.4541C100.814 4.76421 100.277 5.86037 100.253 5.88338C100.228 5.93054 98.7637 6.14563 96.9565 6.40788C95.174 6.67014 93.5873 7.0037 93.4411 7.14633C93.2702 7.31311 93.9056 8.07571 95.6633 9.83786L98.1542 12.2671L97.5436 15.4832C97.1534 17.6272 97.0307 18.7464 97.2017 18.9132C97.3726 19.0799 98.4466 18.6509 100.498 17.6272L103.55 16.079L106.602 17.6272C108.653 18.6521 109.727 19.0799 109.898 18.9132C110.069 18.7464 109.948 17.6272 109.556 15.4832L108.945 12.2671L111.436 9.83786C113.096 8.19419 113.828 7.31311 113.659 7.14633C113.536 7.02671 111.949 6.69429 110.143 6.43204C108.239 6.14563 106.799 5.81322 106.749 5.64643C106.383 4.66989 103.868 0.119585 103.624 0.0482693C103.477 -4.00543e-05 103.183 0.213903 102.963 0.524466Z" fill="#FFD400"/>
<path d="M132.866 2.97866C131.498 5.74151 131.352 5.9566 130.62 6.07507C130.18 6.14639 128.692 6.36148 127.276 6.55127C125.86 6.76521 124.615 7.02746 124.468 7.17009C124.322 7.31272 125.078 8.21795 126.763 9.81447L129.277 12.2207L128.716 15.5081C128.399 17.3186 128.228 18.8909 128.35 18.9864C128.448 19.0819 129.936 18.4619 131.621 17.605L134.721 16.0326L137.822 17.605C139.506 18.4619 140.995 19.0819 141.093 18.9864C141.216 18.8909 141.045 17.3186 140.727 15.5081L140.165 12.2449L142.68 9.81562C144.438 8.17194 145.146 7.33802 144.975 7.17124C144.829 7.02861 143.266 6.7192 141.46 6.45695C139.677 6.1947 138.164 5.9566 138.115 5.90944C138.066 5.86228 137.383 4.50386 136.577 2.90849C135.601 1.00256 134.965 0.00186348 134.721 0.00186348C134.453 0.000713348 133.817 1.00141 132.866 2.97866Z" fill="#FFD400"/>
</svg>
