<svg width="509" height="534" viewBox="0 0 509 534" fill="none" xmlns="http://www.w3.org/2000/svg">
<g clip-path="url(#clip0)">
<path d="M78.8602 306.796H77.3813V305.811H77.8743V305.318H78.8602V306.796Z" fill="#EBEBEB"/>
<path d="M75.4095 306.797H73.4377V305.812H75.4095V306.797ZM71.4659 306.797H69.4941V305.812H71.4659V306.797ZM67.5099 306.797H65.5381V305.812H67.5099V306.797ZM63.5663 306.797H61.5945V305.812H63.5663V306.797ZM59.6227 306.797H57.6385V305.812H59.6227V306.797ZM55.6667 306.797H53.6949V305.812H55.6667V306.797ZM51.7231 306.797H49.7513V305.812H51.7231V306.797ZM47.7671 306.797H45.7953V305.812H47.7671V306.797ZM43.8235 306.797H41.8517V305.812H43.8235V306.797ZM39.8799 306.797H37.8957V305.812H39.8799V306.797ZM35.9239 306.797H33.9521V305.812H35.9239V306.797ZM31.9803 306.797H30.0084V305.812H31.9803V306.797ZM28.0243 306.797H26.0525V305.812H28.0243V306.797ZM24.0807 306.797H22.1089V305.812H24.0807V306.797ZM20.137 306.797H18.1529V305.812H20.137V306.797ZM16.1811 306.797H14.2093V305.812H16.1811V306.797ZM12.2374 306.797H10.2656V305.812H12.2374V306.797Z" fill="#EBEBEB"/>
<path d="M8.2816 306.796H6.80273V305.318H7.78864V305.811H8.2816V306.796Z" fill="#EBEBEB"/>
<path d="M7.78864 303.348H6.80273V301.377H7.78864V303.348ZM7.78864 299.394H6.80273V297.423H7.78864V299.394ZM7.78864 295.452H6.80273V293.482H7.78864V295.452ZM7.78864 291.511H6.80273V289.528H7.78864V291.511ZM7.78864 287.557H6.80273V285.586H7.78864V287.557ZM7.78864 283.615H6.80273V281.645H7.78864V283.615ZM7.78864 279.662H6.80273V277.691H7.78864V279.662ZM7.78864 275.72H6.80273V273.749H7.78864V275.72ZM7.78864 271.779H6.80273V269.796H7.78864V271.779ZM7.78864 267.825H6.80273V265.854H7.78864V267.825ZM7.78864 263.883H6.80273V261.913H7.78864V263.883ZM7.78864 259.929H6.80273V257.959H7.78864V259.929ZM7.78864 255.988H6.80273V254.017H7.78864V255.988ZM7.78864 252.046H6.80273V250.063H7.78864V252.046ZM7.78864 248.093H6.80273V246.122H7.78864V248.093ZM7.78864 244.151H6.80273V242.131H7.78864V244.151ZM7.78864 240.197H6.80273V238.227H7.78864V240.197Z" fill="#EBEBEB"/>
<path d="M7.78864 236.256H6.80273V234.778H8.2816V235.764H7.78864V236.256Z" fill="#EBEBEB"/>
<path d="M75.4095 235.764H73.4377V234.741H75.4095V235.764ZM71.4659 235.764H69.4941V234.741H71.4659V235.764ZM67.5099 235.764H65.5381V234.741H67.5099V235.764ZM63.5663 235.764H61.5945V234.741H63.5663V235.764ZM59.6227 235.764H57.6385V234.741H59.6227V235.764ZM55.6667 235.764H53.6949V234.741H55.6667V235.764ZM51.7231 235.764H49.7513V234.741H51.7231V235.764ZM47.7671 235.764H45.7953V234.741H47.7671V235.764ZM43.8235 235.764H41.8517V234.741H43.8235V235.764ZM39.8799 235.764H37.8957V234.741H39.8799V235.764ZM35.9239 235.764H33.9521V234.741H35.9239V235.764ZM31.9803 235.764H30.0084V234.741H31.9803V235.764ZM28.0243 235.764H26.0525V234.741H28.0243V235.764ZM24.0807 235.764H22.1089V234.741H24.0807V235.764ZM20.137 235.764H18.1529V234.741H20.137V235.764ZM16.1811 235.764H14.2093V234.741H16.1811V235.764ZM12.2374 235.764H10.2656V234.741H12.2374V235.764Z" fill="#EBEBEB"/>
<path d="M78.8602 236.256H77.8743V235.764H77.3813V234.778H78.8602V236.256Z" fill="#EBEBEB"/>
<path d="M78.8727 303.348H77.8745V301.377H78.8727V303.348ZM78.8727 299.394H77.8745V297.423H78.8727V299.394ZM78.8727 295.452H77.8745V293.482H78.8727V295.452ZM78.8727 291.511H77.8745V289.528H78.8727V291.511ZM78.8727 287.557H77.8745V285.586H78.8727V287.557ZM78.8727 283.615H77.8745V281.645H78.8727V283.615ZM78.8727 279.662H77.8745V277.691H78.8727V279.662ZM78.8727 275.72H77.8745V273.749H78.8727V275.72ZM78.8727 271.779H77.8745V269.796H78.8727V271.779ZM78.8727 267.825H77.8745V265.854H78.8727V267.825ZM78.8727 263.883H77.8745V261.913H78.8727V263.883ZM78.8727 259.929H77.8745V257.959H78.8727V259.929ZM78.8727 255.988H77.8745V254.017H78.8727V255.988ZM78.8727 252.046H77.8745V250.063H78.8727V252.046ZM78.8727 248.093H77.8745V246.122H78.8727V248.093ZM78.8727 244.151H77.8745V242.131H78.8727V244.151ZM78.8727 240.21H77.8745V238.227H78.8727V240.21Z" fill="#EBEBEB"/>
<path d="M11.7324 301.87H2.87158V310.726H11.7324V301.87Z" fill="white"/>
<path d="M12.176 311.219H2.31689V301.365H12.176V311.219ZM3.31513 310.234H11.1901V302.375H3.36442L3.31513 310.234Z" fill="#EBEBEB"/>
<path d="M11.7691 266.359H2.9082V275.215H11.7691V266.359Z" fill="white"/>
<path d="M12.176 275.708H2.31689V265.854H12.176V275.708ZM3.31513 274.723H11.1901V266.852H3.36442L3.31513 274.723Z" fill="#EBEBEB"/>
<path d="M11.7691 230.837H2.9082V239.693H11.7691V230.837Z" fill="white"/>
<path d="M12.176 240.186H2.31689V230.332H12.176V240.186ZM3.31513 239.2H11.1901V231.342H3.36442L3.31513 239.2Z" fill="#EBEBEB"/>
<path d="M82.8408 301.87H73.98V310.726H82.8408V301.87Z" fill="white"/>
<path d="M83.2971 311.219H73.438V301.365H83.2971V311.219ZM74.4362 310.234H82.3112V302.375H74.4362V310.234Z" fill="#EBEBEB"/>
<path d="M82.8408 266.359H73.98V275.215H82.8408V266.359Z" fill="white"/>
<path d="M83.2971 275.708H73.438V265.854H83.2971V275.708ZM74.4362 274.723H82.3112V266.852H74.4362V274.723Z" fill="#EBEBEB"/>
<path d="M82.8408 230.837H73.98V239.693H82.8408V230.837Z" fill="white"/>
<path d="M83.2971 240.186H73.438V230.332H83.2971V240.186ZM74.4362 239.2H82.3112V231.342H74.4362V239.2Z" fill="#EBEBEB"/>
<path d="M47.2988 230.837H38.438V239.693H47.2988V230.837Z" fill="white"/>
<path d="M47.7551 240.186H37.896V230.332H47.7551V240.186ZM38.9066 239.2H46.7692V231.342H38.9066V239.2Z" fill="#EBEBEB"/>
<path d="M47.2622 301.87H38.4014V310.726H47.2622V301.87Z" fill="white"/>
<path d="M47.7551 311.219H37.896V301.365H47.7551V311.219ZM38.9066 310.234H46.7692V302.375H38.9066V310.234Z" fill="#EBEBEB"/>
<path d="M504.563 155.702H503.084V154.716H503.577V154.224H504.563V155.702Z" fill="#EBEBEB"/>
<path d="M501.125 155.714H499.141V154.68H501.125V155.714ZM497.169 155.714H495.197V154.68H497.169V155.714ZM493.225 155.714H491.254V154.68H493.225V155.714ZM489.269 155.714H487.298V154.68H489.269V155.714ZM485.326 155.714H483.354V154.68H485.326V155.714ZM481.382 155.714H479.398V154.68H481.382V155.714ZM477.426 155.714H475.454V154.68H477.426V155.714ZM473.483 155.714H471.511V154.68H473.483V155.714ZM469.527 155.714H467.555V154.68H469.527V155.714ZM465.583 155.714H463.611V154.68H465.583V155.714ZM461.639 155.714H459.655V154.68H461.639V155.714ZM457.683 155.714H455.712V154.68H457.683V155.714ZM453.74 155.714H451.768V154.68H453.74V155.714ZM449.784 155.714H447.812V154.68H449.784V155.714ZM445.84 155.714H443.868V154.68H445.84V155.714ZM441.897 155.714H439.912V154.68H441.897V155.714ZM437.941 155.714H435.969V154.68H437.941V155.714Z" fill="#EBEBEB"/>
<path d="M433.985 155.702H432.506V154.224H433.492V154.716H433.985V155.702Z" fill="#EBEBEB"/>
<path d="M433.504 152.216H432.518V150.245H433.504V152.216ZM433.504 148.275H432.518V146.304H433.504V148.275ZM433.504 144.321H432.518V142.362H433.504V144.321ZM433.504 140.379H432.518V138.409H433.504V140.379ZM433.504 136.438H432.518V134.455H433.504V136.438ZM433.504 132.484H432.518V130.513H433.504V132.484ZM433.504 128.542H432.518V126.572H433.504V128.542ZM433.504 124.589H432.518V122.655H433.504V124.589ZM433.504 120.647H432.518V118.676H433.504V120.647ZM433.504 116.706H432.518V114.723H433.504V116.706ZM433.504 112.752H432.518V110.781H433.504V112.752ZM433.504 108.81H432.518V106.84H433.504V108.81ZM433.504 104.869H432.518V102.947H433.504V104.869ZM433.504 100.915H432.518V98.9443H433.504V100.915ZM433.504 96.9735H432.518V95.0028H433.504V96.9735ZM433.504 93.0197H432.518V91.0489H433.504V93.0197ZM433.504 89.0782H432.518V87.1074H433.504V89.0782Z" fill="#EBEBEB"/>
<path d="M433.492 85.1607H432.506V83.6826H433.985V84.668H433.492V85.1607Z" fill="#EBEBEB"/>
<path d="M501.125 84.668H499.141V83.6826H501.125V84.668ZM497.169 84.668H495.197V83.6826H497.169V84.668ZM493.225 84.668H491.254V83.6826H493.225V84.668ZM489.269 84.668H487.298V83.6826H489.269V84.668ZM485.326 84.668H483.354V83.6826H485.326V84.668ZM481.382 84.668H479.398V83.6826H481.382V84.668ZM477.426 84.668H475.454V83.6826H477.426V84.668ZM473.483 84.668H471.511V83.6826H473.483V84.668ZM469.527 84.668H467.555V83.6826H469.527V84.668ZM465.583 84.668H463.611V83.6826H465.583V84.668ZM461.639 84.668H459.655V83.6826H461.639V84.668ZM457.683 84.668H455.712V83.6826H457.683V84.668ZM453.74 84.668H451.768V83.6826H453.74V84.668ZM449.784 84.668H447.812V83.6826H449.784V84.668ZM445.84 84.668H443.868V83.6826H445.84V84.668ZM441.897 84.668H439.912V83.6826H441.897V84.668ZM437.941 84.668H435.969V83.6826H437.941V84.668Z" fill="#EBEBEB"/>
<path d="M504.563 85.1607H503.577V84.668H503.084V83.6826H504.563V85.1607Z" fill="#EBEBEB"/>
<path d="M504.576 152.216H503.59V150.245H504.576V152.216ZM504.576 148.275H503.59V146.304H504.576V148.275ZM504.576 144.321H503.59V142.362H504.576V144.321ZM504.576 140.379H503.59V138.409H504.576V140.379ZM504.576 136.438H503.59V134.455H504.576V136.438ZM504.576 132.484H503.59V130.513H504.576V132.484ZM504.576 128.542H503.59V126.572H504.576V128.542ZM504.576 124.589H503.59V122.655H504.576V124.589ZM504.576 120.647H503.59V118.676H504.576V120.647ZM504.576 116.706H503.59V114.723H504.576V116.706ZM504.576 112.752H503.59V110.781H504.576V112.752ZM504.576 108.81H503.59V106.84H504.576V108.81ZM504.576 104.869H503.59V102.947H504.576V104.869ZM504.576 100.915H503.59V98.9443H504.576V100.915ZM504.576 96.9735H503.59V95.0028H504.576V96.9735ZM504.576 93.0197H503.59V91.0489H504.576V93.0197ZM504.576 89.0782H503.59V87.1074H504.576V89.0782Z" fill="#EBEBEB"/>
<path d="M437.436 150.787H428.575V159.643H437.436V150.787Z" fill="white"/>
<path d="M437.928 160.136H428.069V150.282H437.928V160.136ZM429.068 159.151H436.943V151.28H429.068V159.151Z" fill="#EBEBEB"/>
<path d="M437.472 115.265H428.611V124.121H437.472V115.265Z" fill="white"/>
<path d="M437.928 124.614H428.069V114.76H437.928V124.614ZM429.068 123.628H436.943V115.77H429.068V123.628Z" fill="#EBEBEB"/>
<path d="M437.472 79.7539H428.611V88.61H437.472V79.7539Z" fill="white"/>
<path d="M437.928 89.1028H428.069V79.249H437.928V89.1028ZM429.068 88.1174H436.943V80.2467H429.068V88.1174Z" fill="#EBEBEB"/>
<path d="M508.544 150.787H499.683V159.643H508.544V150.787Z" fill="white"/>
<path d="M509 160.136H499.141V150.282H509V160.136ZM500.152 159.151H508.014V151.28H500.201L500.152 159.151Z" fill="#EBEBEB"/>
<path d="M508.544 115.265H499.683V124.121H508.544V115.265Z" fill="white"/>
<path d="M509 124.614H499.141V114.76H509V124.614ZM500.152 123.628H508.014V115.77H500.201L500.152 123.628Z" fill="#EBEBEB"/>
<path d="M508.544 79.7539H499.683V88.61H508.544V79.7539Z" fill="white"/>
<path d="M509 89.1028H499.141V79.249H509V89.1028ZM500.201 88.1667H508.064V80.296H500.201V88.1667Z" fill="#EBEBEB"/>
<path d="M473.014 79.7539H464.153V88.61H473.014V79.7539Z" fill="white"/>
<path d="M473.47 89.1028H463.611V79.249H473.47V89.1028ZM464.61 88.1174H472.485V80.2467H464.61V88.1174Z" fill="#EBEBEB"/>
<path d="M472.965 150.787H464.104V159.643H472.965V150.787Z" fill="white"/>
<path d="M473.47 160.136H463.611V150.282H473.47V160.136ZM464.61 159.151H472.485V151.28H464.61V159.151Z" fill="#EBEBEB"/>
<path d="M174.013 106.716H17.9434V0H174.013V106.716ZM19.1757 105.485H172.78V1.23172H19.1757V105.485Z" fill="#EBEBEB"/>
<path d="M30.1443 6.87347C30.1443 7.48737 29.9622 8.08748 29.6209 8.59792C29.2797 9.10836 28.7947 9.5062 28.2272 9.74113C27.6597 9.97606 27.0353 10.0375 26.4328 9.91776C25.8304 9.798 25.277 9.50237 24.8427 9.06828C24.4084 8.63419 24.1126 8.08112 23.9928 7.47901C23.8729 6.87691 23.9345 6.25281 24.1695 5.68564C24.4046 5.11847 24.8026 4.63371 25.3133 4.29264C25.8241 3.95158 26.4245 3.76953 27.0387 3.76953C27.8624 3.76953 28.6523 4.09655 29.2347 4.67865C29.8171 5.26075 30.1443 6.05025 30.1443 6.87347V6.87347Z" fill="#A6A6A6"/>
<path d="M42.8255 6.87347C42.8255 7.48737 42.6433 8.08748 42.3021 8.59792C41.9608 9.10836 41.4758 9.5062 40.9083 9.74113C40.3409 9.97606 39.7164 10.0375 39.114 9.91776C38.5116 9.798 37.9582 9.50237 37.5239 9.06828C37.0895 8.63419 36.7938 8.08112 36.6739 7.47901C36.5541 6.87691 36.6156 6.25281 36.8507 5.68564C37.0857 5.11847 37.4838 4.63371 37.9945 4.29264C38.5052 3.95158 39.1056 3.76953 39.7199 3.76953C40.5435 3.76953 41.3335 4.09655 41.9159 4.67865C42.4983 5.26075 42.8255 6.05025 42.8255 6.87347V6.87347Z" fill="#EBEBEB"/>
<path d="M55.5188 6.87347C55.5188 7.48737 55.3367 8.08748 54.9955 8.59792C54.6542 9.10836 54.1692 9.5062 53.6017 9.74113C53.0342 9.97606 52.4098 10.0375 51.8074 9.91776C51.2049 9.798 50.6516 9.50237 50.2172 9.06828C49.7829 8.63419 49.4871 8.08112 49.3673 7.47901C49.2475 6.87691 49.309 6.25281 49.544 5.68564C49.7791 5.11847 50.1771 4.63371 50.6878 4.29264C51.1986 3.95158 51.799 3.76953 52.4132 3.76953C53.2369 3.76953 54.0268 4.09655 54.6092 4.67865C55.1916 5.26075 55.5188 6.05025 55.5188 6.87347Z" fill="#FF0035"/>
<path d="M173.397 12.3418H18.5596V13.5735H173.397V12.3418Z" fill="#EBEBEB"/>
<path d="M192.585 412.097H127.071V484.596H192.585V412.097Z" fill="#EBEBEB"/>
<path d="M93.2916 484.596H127.121L127.121 412.084H93.2916V484.596Z" fill="#DBDBDB"/>
<path d="M154.27 427.764H155.65H156.698L157.289 426.557L158.127 427.764L159.261 425.288L160.333 427.764H163.39H164.795L165.3 426.114L165.781 427.764H166.68V412.097H154.27V427.764Z" fill="white"/>
<path d="M95.584 479.62C98.0488 474.455 100.514 469.282 102.978 464.1L110.373 448.507L117.619 432.839C120.018 427.617 122.392 422.369 124.742 417.098C122.277 422.263 119.813 427.436 117.348 432.617L109.954 448.211L102.719 463.841C100.312 469.105 97.9337 474.364 95.584 479.62Z" fill="#EBEBEB"/>
<path d="M95.584 417.109C97.9337 422.365 100.312 427.608 102.719 432.838L109.966 448.506L117.36 464.1C119.825 469.297 122.29 474.471 124.755 479.619C122.405 474.364 120.026 469.117 117.619 463.878L110.373 448.21L102.978 432.617C100.563 427.435 98.0981 422.266 95.584 417.109Z" fill="#EBEBEB"/>
<path d="M210.146 339.708H144.633V412.207H210.146V339.708Z" fill="#EBEBEB"/>
<path d="M110.841 412.207H144.67V339.696H110.841V412.207Z" fill="#DBDBDB"/>
<path d="M171.832 355.375H173.212H174.259L174.851 354.168L175.689 355.375L176.81 352.9L177.883 355.375H180.951H182.356L182.861 353.725L183.342 355.375H184.242V339.708H171.832V355.375Z" fill="white"/>
<path d="M113.146 407.182C115.61 402.017 118.075 396.844 120.54 391.663L127.934 376.069L135.181 360.402C137.571 355.179 139.946 349.932 142.304 344.66C139.839 349.825 137.374 354.998 134.909 360.18L127.515 375.773L120.269 391.441C117.878 396.713 115.503 401.96 113.146 407.182Z" fill="#EBEBEB"/>
<path d="M113.146 344.709C115.503 349.981 117.882 355.228 120.281 360.45L127.527 376.118L134.922 391.711C137.387 396.893 139.851 402.066 142.316 407.231C139.966 401.959 137.588 396.712 135.181 391.49L127.934 375.822L120.54 360.229C118.133 355.047 115.668 349.874 113.146 344.709Z" fill="#EBEBEB"/>
<path d="M253.723 534C388.352 534 497.489 524.719 497.489 513.27C497.489 501.821 388.352 492.54 253.723 492.54C119.095 492.54 9.95752 501.821 9.95752 513.27C9.95752 524.719 119.095 534 253.723 534Z" fill="#EBEBEB"/>
<path d="M478.018 40.7578H29.417V354.76H478.018V40.7578Z" fill="white"/>
<path d="M478.351 355.093H29.0967V40.4375H478.351V355.093ZM29.7622 354.44H477.697V41.0903H29.7498L29.7622 354.44Z" fill="#DBDBDB"/>
<path d="M478.018 40.7578H29.417V51.6709H478.018V40.7578Z" fill="#FF0035"/>
<path d="M38.0563 46.2879C38.0563 46.8239 37.8973 47.3478 37.5994 47.7934C37.3014 48.239 36.878 48.5863 36.3826 48.7914C35.8872 48.9965 35.342 49.0502 34.8161 48.9456C34.2902 48.8411 33.8071 48.583 33.4279 48.204C33.0487 47.825 32.7905 47.3422 32.6859 46.8166C32.5813 46.2909 32.635 45.7461 32.8402 45.2509C33.0454 44.7558 33.3929 44.3326 33.8387 44.0348C34.2846 43.737 34.8088 43.5781 35.345 43.5781C36.0641 43.5781 36.7537 43.8636 37.2622 44.3718C37.7706 44.88 38.0563 45.5692 38.0563 46.2879Z" fill="#263238"/>
<path d="M49.1476 46.2879C49.1476 46.8239 48.9886 47.3478 48.6907 47.7934C48.3928 48.239 47.9693 48.5863 47.4739 48.7914C46.9785 48.9965 46.4333 49.0502 45.9074 48.9456C45.3815 48.8411 44.8984 48.583 44.5192 48.204C44.14 47.8251 43.8818 47.3422 43.7772 46.8166C43.6726 46.2909 43.7263 45.7461 43.9315 45.2509C44.1367 44.7558 44.4842 44.3326 44.9301 44.0348C45.3759 43.7371 45.9001 43.5782 46.4364 43.5782C46.7929 43.5765 47.1461 43.6455 47.4758 43.7811C47.8055 43.9167 48.105 44.1162 48.3571 44.3682C48.6092 44.6201 48.8089 44.9195 48.9445 45.249C49.0802 45.5785 49.1492 45.9316 49.1476 46.2879Z" fill="white"/>
<path d="M60.2389 46.2879C60.2389 46.8244 60.0796 47.3488 59.7811 47.7947C59.4826 48.2406 59.0585 48.5879 58.5623 48.7926C58.0662 48.9973 57.5204 49.0503 56.9942 48.9447C56.4679 48.8392 55.9848 48.5798 55.6061 48.1996C55.2275 47.8194 54.9702 47.3354 54.867 46.809C54.7638 46.2825 54.8192 45.7373 55.0263 45.2424C55.2334 44.7475 55.5829 44.3251 56.0303 44.0288C56.4778 43.7326 57.0032 43.5757 57.54 43.5782C57.8954 43.5781 58.2474 43.6483 58.5757 43.7847C58.9039 43.921 59.202 44.1208 59.4528 44.3726C59.7036 44.6244 59.9021 44.9232 60.037 45.2519C60.1719 45.5806 60.2405 45.9327 60.2389 46.2879Z" fill="#455A64"/>
<path d="M478.018 51.6709H29.417V88.1052H478.018V51.6709Z" fill="#494A66"/>
<path d="M170.871 61.8574H53.0791V77.9191H170.871V61.8574Z" fill="white"/>
<path d="M171.043 78.0915H52.9189V61.6973H171.043V78.0915ZM53.2517 77.7589H170.71V62.0298H53.2517V77.7589Z" fill="#C7C7C7"/>
<path d="M171.043 61.6973H154.64V78.0915H171.043V61.6973Z" fill="#FF0035"/>
<path d="M167.937 74.3957L166.458 75.5165L163.759 71.8953L162.761 70.565C162.968 70.4848 163.163 70.3771 163.34 70.2448C163.676 69.9855 163.936 69.641 164.092 69.2471L165.164 70.6636L167.937 74.3957Z" fill="white"/>
<path d="M164.992 65.848C164.504 65.2029 163.835 64.7174 163.071 64.4532C162.306 64.189 161.48 64.1581 160.698 64.3643C159.915 64.5705 159.212 65.0046 158.677 65.6113C158.142 66.218 157.8 66.97 157.694 67.7717C157.588 68.5733 157.723 69.3884 158.081 70.1133C158.44 70.8382 159.006 71.4401 159.708 71.8426C160.409 72.2451 161.215 72.4299 162.022 72.3736C162.829 72.3172 163.601 72.0223 164.24 71.5262C164.565 71.2865 164.848 70.9952 165.078 70.664C165.579 69.9569 165.841 69.1083 165.826 68.2419C165.81 67.3755 165.518 66.5367 164.992 65.848ZM163.254 70.2452C163.077 70.3775 162.882 70.4853 162.675 70.5655C162.147 70.7829 161.56 70.8104 161.015 70.6434C160.469 70.4764 159.998 70.1252 159.682 69.6498C159.367 69.1744 159.226 68.6043 159.284 68.0367C159.342 67.4692 159.596 66.9394 160.001 66.5379C160.407 66.1363 160.939 65.8879 161.508 65.835C162.076 65.7821 162.645 65.9281 163.118 66.2479C163.591 66.5678 163.937 67.0417 164.099 67.5887C164.261 68.1358 164.228 68.7221 164.006 69.2476C163.856 69.6386 163.605 69.9829 163.279 70.2452H163.254Z" fill="white"/>
<path d="M57.306 65.0225H56.4434V74.7654H57.306V65.0225Z" fill="#C7C7C7"/>
<path d="M454.516 61.6973H438.113V64.8997H454.516V61.6973Z" fill="#EBEBEB"/>
<path d="M454.516 68.2871H438.113V71.4896H454.516V68.2871Z" fill="#EBEBEB"/>
<path d="M454.516 74.8887H438.113V78.0911H454.516V74.8887Z" fill="#EBEBEB"/>
<path d="M267.502 333.021H355.174V267.037H267.502V333.021Z" fill="#FF0035"/>
<path opacity="0.2" d="M276.93 281.473C276.607 283.115 276.821 284.818 277.54 286.329C278.258 287.841 279.444 289.082 280.922 289.869C282.4 290.656 284.092 290.948 285.748 290.701C287.404 290.454 288.937 289.682 290.121 288.499C291.306 287.316 292.078 285.783 292.325 284.128C292.571 282.472 292.279 280.782 291.492 279.305C290.704 277.828 289.463 276.642 287.95 275.924C286.438 275.206 284.735 274.992 283.091 275.314C281.569 275.615 280.171 276.36 279.073 277.457C277.976 278.554 277.23 279.951 276.93 281.473Z" fill="black"/>
<path opacity="0.2" d="M292.322 318.794H355.691L324.006 283.296L292.322 318.794Z" fill="black"/>
<path d="M267.502 318.831H319.817L293.653 295.712L267.502 318.831Z" fill="#FF0035"/>
<path opacity="0.3" d="M267.502 318.831H319.817L293.653 295.712L267.502 318.831Z" fill="black"/>
<path d="M355.174 318.794H267.502V333.008H355.174V318.794Z" fill="#FF0035"/>
<path opacity="0.3" d="M355.174 318.794H267.502V333.008H355.174V318.794Z" fill="black"/>
<path d="M332.091 177.232H267.329V182.677H332.091V177.232Z" fill="#A6A6A6"/>
<path d="M454.738 189.857H267.329V195.302H454.738V189.857Z" fill="#EBEBEB"/>
<path d="M454.738 201.842H267.329V207.286H454.738V201.842Z" fill="#EBEBEB"/>
<path d="M454.738 213.827H267.329V219.271H454.738V213.827Z" fill="#EBEBEB"/>
<path d="M454.738 225.799H267.329V231.243H454.738V225.799Z" fill="#EBEBEB"/>
<path d="M429.474 267.013H364.712V272.457H429.474V267.013Z" fill="#A6A6A6"/>
<path d="M454.726 279.649H364.712V285.094H454.726V279.649Z" fill="#EBEBEB"/>
<path d="M454.726 291.622H364.712V297.066H454.726V291.622Z" fill="#EBEBEB"/>
<path d="M454.726 303.606H364.712V309.051H454.726V303.606Z" fill="#EBEBEB"/>
<path d="M454.726 315.592H364.712V321.036H454.726V315.592Z" fill="#EBEBEB"/>
<path d="M454.726 327.563H364.712V333.008H454.726V327.563Z" fill="#EBEBEB"/>
<path d="M454.738 239.828H267.329V254.683H454.738V239.828Z" fill="#455A64"/>
<path d="M117.471 278.997H52.709V284.441H117.471V278.997Z" fill="#A6A6A6"/>
<path d="M240.118 291.622H52.709V297.066H240.118V291.622Z" fill="#EBEBEB"/>
<path d="M240.118 303.606H52.709V309.051H240.118V303.606Z" fill="#EBEBEB"/>
<path d="M240.118 315.592H52.709V321.036H240.118V315.592Z" fill="#EBEBEB"/>
<path d="M240.118 327.563H52.709V333.008H240.118V327.563Z" fill="#EBEBEB"/>
<path d="M240.118 239.828H52.709V254.683H240.118V239.828Z" fill="#455A64"/>
<path d="M454.837 167.538H452.68V166.922H454.221V165.383H454.837V167.538Z" fill="#A6A6A6"/>
<path d="M448.934 167.539H445.237V166.923H448.934V167.539ZM441.441 167.539H437.744V166.923H441.441V167.539ZM433.96 167.539H430.263V166.923H433.96V167.539ZM426.467 167.539H422.77V166.923H426.467V167.539ZM418.974 167.539H415.277V166.923H418.974V167.539ZM411.482 167.539H407.784V166.923H411.482V167.539ZM404.001 167.539H400.304V166.923H404.001V167.539ZM396.508 167.539H392.811V166.923H396.508V167.539ZM389.015 167.539H385.318V166.923H389.015V167.539ZM381.522 167.539H377.825V166.923H381.522V167.539ZM374.042 167.539H370.344V166.923H374.042V167.539ZM366.549 167.539H362.852V166.923H366.549V167.539ZM359.056 167.539H355.359V166.923H359.056V167.539ZM351.563 167.539H347.866V166.923H351.563V167.539ZM344.082 167.539H340.385V166.923H344.082V167.539ZM336.589 167.539H332.892V166.923H336.589V167.539ZM329.096 167.539H325.399V166.923H329.096V167.539ZM321.604 167.539H317.906V166.923H321.604V167.539ZM314.123 167.539H310.426V166.923H314.123V167.539ZM306.63 167.539H302.933V166.923H306.63V167.539ZM299.137 167.539H295.44V166.923H299.137V167.539ZM291.644 167.539H287.947V166.923H291.644V167.539ZM284.164 167.539H280.467V166.923H284.164V167.539ZM276.671 167.539H272.974V166.923H276.671V167.539Z" fill="#A6A6A6"/>
<path d="M269.165 167.538H267.009V165.383H267.625V166.922H269.165V167.538Z" fill="#A6A6A6"/>
<path d="M267.637 161.811H267.021V158.252H267.637V161.811ZM267.637 154.68H267.021V151.12H267.637V154.68ZM267.637 147.548H267.021V143.988H267.637V147.548ZM267.637 140.416H267.021V136.857H267.637V140.416ZM267.637 133.285H267.021V129.725H267.637V133.285ZM267.637 126.153H267.021V122.655H267.637V126.153ZM267.637 119.021H267.021V115.462H267.637V119.021ZM267.637 111.89H267.021V108.33H267.637V111.89Z" fill="#A6A6A6"/>
<path d="M267.625 104.758H267.009V102.603H269.165V103.218H267.625V104.758Z" fill="#A6A6A6"/>
<path d="M448.934 103.218H445.237V102.603H448.934V103.218ZM441.441 103.218H437.744V102.603H441.441V103.218ZM433.96 103.218H430.263V102.603H433.96V103.218ZM426.467 103.218H422.77V102.603H426.467V103.218ZM418.974 103.218H415.277V102.603H418.974V103.218ZM411.482 103.218H407.784V102.603H411.482V103.218ZM404.001 103.218H400.304V102.603H404.001V103.218ZM396.508 103.218H392.811V102.603H396.508V103.218ZM389.015 103.218H385.318V102.603H389.015V103.218ZM381.522 103.218H377.825V102.603H381.522V103.218ZM374.042 103.218H370.344V102.603H374.042V103.218ZM366.549 103.218H362.852V102.603H366.549V103.218ZM359.056 103.218H355.359V102.603H359.056V103.218ZM351.563 103.218H347.866V102.603H351.563V103.218ZM344.082 103.218H340.385V102.603H344.082V103.218ZM336.589 103.218H332.892V102.603H336.589V103.218ZM329.096 103.218H325.399V102.603H329.096V103.218ZM321.604 103.218H317.906V102.603H321.604V103.218ZM314.123 103.218H310.426V102.603H314.123V103.218ZM306.63 103.218H302.933V102.603H306.63V103.218ZM299.137 103.218H295.44V102.603H299.137V103.218ZM291.644 103.218H287.947V102.603H291.644V103.218ZM284.164 103.218H280.467V102.603H284.164V103.218ZM276.671 103.218H272.974V102.603H276.671V103.218Z" fill="#A6A6A6"/>
<path d="M454.837 104.758H454.221V103.218H452.68V102.603H454.837V104.758Z" fill="#A6A6A6"/>
<path d="M454.837 161.811H454.221V158.252H454.837V161.811ZM454.837 154.68H454.221V151.12H454.837V154.68ZM454.837 147.548H454.221V143.988H454.837V147.548ZM454.837 140.416H454.221V136.857H454.837V140.416ZM454.837 133.285H454.221V129.725H454.837V133.285ZM454.837 126.153H454.221V122.655H454.837V126.153ZM454.837 119.021H454.221V115.462H454.837V119.021ZM454.837 111.89H454.221V108.33H454.837V111.89Z" fill="#A6A6A6"/>
<path d="M367.954 375.33H179.744V499.894H367.954V375.33Z" fill="#494A66"/>
<path d="M294.126 444.447C297.877 433.262 291.846 421.157 280.656 417.408C269.466 413.659 257.354 419.687 253.603 430.871C249.852 442.056 255.883 454.161 267.073 457.91C278.263 461.658 290.375 455.631 294.126 444.447Z" fill="#455A64"/>
<path d="M264.84 446.646L264.828 428.577L287.417 437.606L264.84 446.646Z" fill="white"/>
<path d="M367.966 490.163H179.756V499.894H367.966V490.163Z" fill="#EBEBEB"/>
<path d="M349.567 493.588H191.156V496.47H349.567V493.588Z" fill="#C7C7C7"/>
<path d="M187.606 491.974H181.457V498.12H187.606V491.974Z" fill="#C7C7C7"/>
<path d="M184.069 493.07H182.898V497.024H184.069V493.07Z" fill="#A6A6A6"/>
<path d="M186.177 493.07H185.006V497.024H186.177V493.07Z" fill="#A6A6A6"/>
<path d="M358.242 491.938H352.093V498.084H358.242V491.938Z" fill="#C7C7C7"/>
<path d="M354.225 494.265H353.017V495.755H354.225V494.265Z" fill="#A6A6A6"/>
<path d="M355.568 496.716L353.744 495.755V494.264L355.568 493.304V496.716Z" fill="#A6A6A6"/>
<path d="M356.468 493.883L356.739 493.6C357.046 493.906 357.245 494.304 357.306 494.733C357.354 495.038 357.329 495.35 357.232 495.643C357.136 495.937 356.971 496.203 356.751 496.42L356.468 496.149C356.618 496.001 356.736 495.825 356.817 495.63C356.897 495.435 356.938 495.227 356.936 495.016C356.939 494.805 356.899 494.596 356.819 494.401C356.738 494.206 356.619 494.03 356.468 493.883Z" fill="#A6A6A6"/>
<path d="M356.197 495.866L355.913 495.595C355.991 495.521 356.053 495.431 356.096 495.331C356.138 495.232 356.16 495.125 356.16 495.017C356.161 494.908 356.14 494.801 356.098 494.701C356.055 494.601 355.992 494.512 355.913 494.438L356.184 494.154C356.408 494.382 356.534 494.688 356.537 495.008C356.539 495.327 356.417 495.635 356.197 495.866Z" fill="#A6A6A6"/>
<path d="M365.588 491.938H359.438V498.084H365.588V491.938Z" fill="#C7C7C7"/>
<path d="M362.95 492.923H360.412V495.46H362.95V492.923Z" fill="#A6A6A6"/>
<path d="M364.638 494.672H362.1V497.209H364.638V494.672Z" fill="white"/>
<path d="M220.844 495.041C220.838 495.541 220.952 496.035 221.177 496.482H191.168V493.588H221.189C220.961 494.038 220.843 494.536 220.844 495.041Z" fill="#A6A6A6"/>
<path d="M227.437 495.041C227.437 495.913 227.09 496.75 226.473 497.367C225.856 497.983 225.019 498.33 224.147 498.33C223.529 498.334 222.923 498.163 222.399 497.836C221.875 497.509 221.456 497.039 221.189 496.482C220.965 496.035 220.851 495.541 220.856 495.041C220.855 494.536 220.973 494.038 221.201 493.588C221.467 493.033 221.885 492.565 222.406 492.238C222.928 491.911 223.531 491.738 224.147 491.74C224.763 491.742 225.367 491.915 225.889 492.242C226.412 492.569 226.833 493.035 227.104 493.588C227.317 494.043 227.43 494.539 227.437 495.041Z" fill="#A6A6A6"/>
<path d="M438.384 506.397V416.494H263.25V506.397H438.384Z" fill="white"/>
<path d="M438.705 506.706H262.954V416.187H438.705V506.706ZM263.583 506.09H438.089V416.802H263.583V506.09Z" fill="#DBDBDB"/>
<path d="M273.848 494.696H347.422V428.171H273.848V494.696Z" fill="#FF0035"/>
<path opacity="0.2" d="M283.301 442.73C282.967 444.387 283.175 446.108 283.895 447.637C284.615 449.167 285.808 450.424 287.299 451.223C288.789 452.022 290.497 452.32 292.171 452.073C293.844 451.826 295.393 451.047 296.589 449.852C297.785 448.657 298.564 447.109 298.811 445.436C299.058 443.764 298.76 442.057 297.96 440.567C297.161 439.077 295.903 437.884 294.373 437.165C292.842 436.445 291.121 436.237 289.463 436.571C287.944 436.879 286.55 437.628 285.454 438.723C284.358 439.818 283.609 441.212 283.301 442.73Z" fill="black"/>
<path opacity="0.2" d="M294.553 480.372H347.41L320.987 444.565L294.553 480.372Z" fill="black"/>
<path d="M273.849 480.408H317.487L295.662 457.092L273.849 480.408Z" fill="#FF0035"/>
<path opacity="0.3" d="M273.849 480.408H317.487L295.662 457.092L273.849 480.408Z" fill="black"/>
<path d="M347.422 480.371H273.849V494.708H347.422V480.371Z" fill="#FF0035"/>
<path opacity="0.3" d="M347.422 480.371H273.849V494.708H347.422V480.371Z" fill="black"/>
<path d="M422.4 428.171H359.733V432.728H422.4V428.171Z" fill="#EBEBEB"/>
<path d="M422.4 437.605H359.733V442.163H422.4V437.605Z" fill="#EBEBEB"/>
<path d="M422.4 447.041H359.733V451.598H422.4V447.041Z" fill="#EBEBEB"/>
<path d="M422.4 456.476H359.733V461.033H422.4V456.476Z" fill="#EBEBEB"/>
<path d="M422.4 465.911H359.733V470.468H422.4V465.911Z" fill="#EBEBEB"/>
<path d="M94.0923 179.437C103.951 186.605 128.957 202.765 139.691 202.839C152.113 202.839 186.977 185.694 193.312 175.421C196.331 170.494 169.391 160.641 163.131 162.882C154.171 166.023 143.03 173.5 137.25 174.054C134.256 174.35 112.097 166.824 96.8652 165.124C83.7526 163.634 82.5942 171.086 94.0923 179.437Z" fill="#F7A9A0"/>
<path d="M164.844 196.989L150.709 167.428C150.709 167.428 139.962 171.923 138.003 171.923C132.395 171.923 108.117 167.366 98.2089 164.878C88.3005 162.39 79.5875 168.204 91.6896 178.895C103.792 189.586 136.758 204.441 141.047 204.823C145.335 205.205 164.844 196.989 164.844 196.989Z" fill="#FF0035"/>
<path d="M140.874 199.182C140.047 199.479 139.266 199.894 138.557 200.414C139.432 200.334 140.291 200.131 141.108 199.81C141.935 199.513 142.716 199.098 143.425 198.578C142.55 198.657 141.691 198.86 140.874 199.182ZM115.795 184.524C114.967 184.822 114.187 185.237 113.478 185.756C115.257 185.592 116.959 184.954 118.408 183.909C117.511 183.986 116.631 184.194 115.795 184.524ZM139.728 182.677C138.9 182.974 138.12 183.389 137.411 183.909C138.286 183.826 139.145 183.619 139.962 183.293C140.792 183.001 141.573 182.586 142.279 182.061C141.404 182.145 140.545 182.352 139.728 182.677ZM130.115 191.299C129.812 190.474 129.398 189.695 128.883 188.983C129.047 190.761 129.685 192.463 130.731 193.91C130.649 193.031 130.441 192.169 130.115 191.348V191.299ZM151.633 175.952C151.336 175.125 150.921 174.345 150.4 173.636C150.48 174.51 150.683 175.369 151.004 176.186C151.297 177.015 151.712 177.796 152.236 178.501C152.153 177.644 151.95 176.802 151.633 176.001V175.952ZM108.881 172.909C108.584 172.082 108.169 171.303 107.649 170.594C107.743 171.474 107.963 172.337 108.302 173.156C108.599 173.983 109.014 174.763 109.534 175.471C109.443 174.606 109.222 173.759 108.881 172.959V172.909ZM151.435 191.311C150.654 190.946 149.824 190.693 148.971 190.56C149.645 191.122 150.396 191.587 151.201 191.939C151.983 192.305 152.813 192.558 153.666 192.691C152.991 192.128 152.24 191.664 151.435 191.311ZM100.427 184.537C99.7189 184.211 98.9741 183.971 98.2087 183.822C98.8988 184.29 99.6136 184.759 100.341 185.227C101.075 185.566 101.856 185.795 102.658 185.904C101.988 185.351 101.246 184.891 100.452 184.537H100.427ZM127.466 175.915C127.1 176.696 126.847 177.526 126.714 178.378C127.277 177.704 127.741 176.953 128.094 176.149C128.455 175.365 128.707 174.537 128.846 173.685C128.287 174.38 127.83 175.152 127.49 175.976L127.466 175.915ZM91.7264 173.538C91.3605 174.319 91.1074 175.148 90.9746 176.001C91.5375 175.327 92.0021 174.576 92.3549 173.772C92.7154 172.988 92.9682 172.159 93.1066 171.308C92.5675 172.008 92.1279 172.779 91.8003 173.599L91.7264 173.538Z" fill="white"/>
<path d="M157.671 198.751C155.823 194.083 153.691 189.55 151.608 184.98C149.525 180.411 147.442 175.866 145.126 171.431C145.112 171.416 145.094 171.405 145.073 171.4C145.053 171.395 145.032 171.397 145.012 171.405C144.993 171.414 144.977 171.428 144.966 171.446C144.956 171.464 144.951 171.484 144.953 171.505C146.678 176.223 148.65 180.817 150.758 185.387C152.865 189.956 154.911 194.526 157.339 198.936C157.363 198.98 157.404 199.012 157.453 199.026C157.501 199.04 157.553 199.034 157.597 199.01C157.641 198.985 157.674 198.944 157.688 198.896C157.702 198.847 157.696 198.795 157.671 198.751Z" fill="#263238"/>
<path d="M144.805 204.256C143.606 204.619 142.361 204.809 141.108 204.823C136.807 204.441 103.841 189.599 91.7387 178.895C80.9183 169.325 86.8091 163.671 95.214 164.373L144.805 204.256Z" fill="#263238"/>
<path d="M243.844 154.184L87.3638 177.613L102.887 281.178L259.367 257.749L243.844 154.184Z" fill="#FF0035"/>
<path opacity="0.2" d="M243.844 154.184L87.3638 177.613L102.887 281.178L259.367 257.749L243.844 154.184Z" fill="black"/>
<path d="M191.131 215.034C191.659 218.547 191.134 222.137 189.621 225.351C188.107 228.565 185.674 231.259 182.629 233.091C179.584 234.923 176.064 235.811 172.514 235.644C168.964 235.476 165.543 234.26 162.685 232.149C159.826 230.038 157.658 227.127 156.455 223.785C155.252 220.443 155.067 216.819 155.925 213.371C156.783 209.924 158.644 206.809 161.274 204.419C163.903 202.029 167.183 200.472 170.698 199.945C173.031 199.594 175.41 199.706 177.7 200.274C179.99 200.842 182.145 201.856 184.043 203.257C185.94 204.659 187.543 206.42 188.759 208.441C189.975 210.461 190.781 212.702 191.131 215.034Z" fill="#FF0035"/>
<path d="M169.465 227L168 212L181 216.692L169.465 227Z" fill="white"/>
<path d="M258.143 249.643L101.664 273.072L102.876 281.161L259.356 257.731L258.143 249.643Z" fill="#EBEBEB"/>
<path d="M243.289 254.784L111.575 274.505L111.934 276.905L243.649 257.183L243.289 254.784Z" fill="#C7C7C7"/>
<path d="M108.432 273.592L103.313 274.358L104.08 279.475L109.199 278.708L108.432 273.592Z" fill="#C7C7C7"/>
<path d="M105.588 274.946L104.625 275.09L105.118 278.379L106.081 278.235L105.588 274.946Z" fill="#A6A6A6"/>
<path d="M107.367 274.665L106.404 274.81L106.897 278.099L107.86 277.954L107.367 274.665Z" fill="#A6A6A6"/>
<path d="M250.297 252.339L245.178 253.105L245.945 258.222L251.063 257.455L250.297 252.339Z" fill="#C7C7C7"/>
<path d="M247.24 254.773L246.24 254.923L246.426 256.165L247.426 256.016L247.24 254.773Z" fill="#A6A6A6"/>
<path d="M248.658 256.653L247.032 256.087L246.847 254.843L248.239 253.82L248.658 256.653Z" fill="#A6A6A6"/>
<path d="M249.053 254.178L249.25 253.919C249.543 254.132 249.759 254.435 249.866 254.781C249.938 255.033 249.952 255.298 249.908 255.556C249.863 255.814 249.76 256.059 249.607 256.271L249.336 256.074C249.445 255.932 249.523 255.769 249.565 255.595C249.608 255.421 249.614 255.241 249.583 255.064C249.559 254.889 249.499 254.719 249.408 254.567C249.317 254.415 249.196 254.282 249.053 254.178Z" fill="#A6A6A6"/>
<path d="M249.077 255.877L248.794 255.68C248.906 255.532 248.954 255.346 248.929 255.163C248.897 254.98 248.795 254.817 248.646 254.707L248.843 254.448C248.953 254.527 249.045 254.626 249.116 254.74C249.187 254.854 249.235 254.981 249.257 255.114C249.279 255.247 249.274 255.383 249.243 255.513C249.212 255.644 249.156 255.768 249.077 255.877Z" fill="#A6A6A6"/>
<path d="M256.404 251.433L251.285 252.199L252.052 257.315L257.17 256.549L256.404 251.433Z" fill="#C7C7C7"/>
<path d="M254.325 252.579L252.217 252.895L252.533 255.002L254.641 254.686L254.325 252.579Z" fill="#A6A6A6"/>
<path d="M255.936 253.829L253.827 254.145L254.143 256.252L256.252 255.936L255.936 253.829Z" fill="white"/>
<path d="M136.437 272.013C136.496 272.429 136.652 272.826 136.893 273.17L111.937 276.866L111.58 274.402L136.536 270.707C136.403 271.129 136.369 271.576 136.437 272.013Z" fill="#A6A6A6"/>
<path d="M141.921 271.187C141.975 271.548 141.958 271.916 141.869 272.27C141.781 272.624 141.623 272.957 141.406 273.25C141.188 273.543 140.915 273.79 140.601 273.977C140.288 274.164 139.941 274.288 139.58 274.341C139.067 274.419 138.543 274.35 138.067 274.143C137.592 273.936 137.185 273.599 136.893 273.17C136.652 272.826 136.495 272.429 136.437 272.013C136.38 271.6 136.414 271.179 136.536 270.781C136.689 270.283 136.981 269.839 137.376 269.499C137.772 269.16 138.255 268.94 138.771 268.864C139.287 268.787 139.814 268.859 140.29 269.07C140.767 269.28 141.174 269.622 141.465 270.054C141.698 270.394 141.853 270.781 141.921 271.187Z" fill="#A6A6A6"/>
<path d="M50.9836 472.82C46.6456 470.788 40.9027 470.037 36.5894 472.377C36.4168 472.463 36.5894 472.709 36.7126 472.697C41.4233 472.428 46.1492 472.659 50.8111 473.387C50.8483 473.398 50.8874 473.402 50.9261 473.398C50.9649 473.394 51.0025 473.383 51.0368 473.365C51.0711 473.346 51.1015 473.322 51.1262 473.292C51.1509 473.261 51.1695 473.227 51.1808 473.19C51.1921 473.152 51.196 473.113 51.1922 473.075C51.1885 473.036 51.1771 472.998 51.1588 472.964C51.1405 472.93 51.1156 472.899 51.0855 472.875C51.0555 472.85 51.0209 472.831 50.9836 472.82Z" fill="#263238"/>
<path d="M53.7443 475.653C49.4186 473.621 43.6757 472.87 39.35 475.21C39.1898 475.296 39.35 475.53 39.4733 475.53C44.188 475.254 48.9188 475.485 53.5841 476.22C53.6566 476.233 53.7316 476.219 53.7943 476.18C53.857 476.141 53.9029 476.081 53.923 476.01C53.943 475.939 53.9358 475.863 53.9028 475.797C53.8697 475.731 53.8132 475.68 53.7443 475.653Z" fill="#263238"/>
<path d="M56.5417 478.486C52.216 476.454 46.4731 475.703 42.1474 478.043C41.9872 478.129 42.1474 478.363 42.2706 478.363C46.9854 478.081 51.7167 478.313 56.3815 479.053C56.454 479.066 56.529 479.052 56.5917 479.013C56.6544 478.974 56.7003 478.914 56.7203 478.843C56.7404 478.772 56.7332 478.696 56.7002 478.63C56.6671 478.564 56.6106 478.513 56.5417 478.486Z" fill="#263238"/>
<path d="M59.2898 481.307C54.9641 479.287 49.2089 478.536 44.8955 480.876C44.723 480.962 44.8955 481.196 45.0188 481.184C49.7298 480.912 54.4565 481.148 59.1172 481.886C59.1882 481.892 59.2593 481.874 59.3184 481.834C59.3775 481.795 59.4209 481.735 59.4412 481.667C59.4616 481.599 59.4576 481.526 59.43 481.46C59.4024 481.394 59.3528 481.34 59.2898 481.307Z" fill="#263238"/>
<path d="M6.42082 455.49C5.743 458.224 5.10216 460.922 4.49829 463.533C4.11625 465.171 3.75886 466.76 3.41379 468.3C1.1955 478.154 -0.283368 485.852 0.480712 486.603C2.64971 488.931 70.8869 506.89 73.4749 506.73C76.0629 506.569 75.7672 499.142 73.6721 496.346C72.4397 494.634 63.3817 487.108 56.505 481.479C52.0807 477.87 48.5438 475.025 48.5438 475.025L50.8483 467.068L60.9662 430.757L15.8732 418.994C15.8732 418.994 10.7218 437.704 6.42082 455.49Z" fill="#F7A9A0"/>
<path d="M73.9923 506.952C72.2916 507.063 43.0224 499.672 21.8501 493.76C16.9205 492.393 12.4839 491.099 8.89769 490.065C3.96814 488.55 0.653023 487.417 0.19704 486.924C-0.813516 485.84 2.37837 471.022 6.08785 455.466L50.9837 466.995L48.6791 474.927C48.6791 474.927 72.0205 493.588 74.1525 496.42C76.2845 499.253 76.605 506.755 73.9923 506.952Z" fill="#FF0035"/>
<path d="M73.7212 503.934C62.223 500.645 15.5772 488.476 3.98049 486.099C3.8819 486.099 3.86957 486.099 3.98049 486.16C15.2938 489.671 62.0382 501.471 73.6965 504.119C73.9184 504.168 73.9554 503.996 73.7212 503.934Z" fill="#263238"/>
<path d="M57.3922 465.073C57.8975 464.827 75.4836 397.599 81.6332 374.012C90.5064 339.992 99.0962 284.527 101.684 273.011C107 259.703 110.611 245.777 112.431 231.563H56.5049C56.5049 231.563 41.8395 259.597 49.4064 279.416C50.0965 281.226 39.6335 351.274 34.2234 362.618C29.5526 372.472 4.32568 450.785 4.32568 450.785L57.3922 465.073Z" fill="#494A66"/>
<path d="M56.8866 452.891C55.5433 452.337 54.0891 452.029 52.6965 451.659C51.3039 451.29 49.7511 450.785 48.2722 450.427C45.3022 449.627 42.3198 448.863 39.3497 448.099C33.4096 446.56 27.4326 445.094 21.4678 443.641C19.8411 443.234 18.202 442.852 16.5383 442.471C14.9275 442.002 13.2776 441.68 11.6087 441.51C11.5858 441.51 11.5639 441.519 11.5477 441.535C11.5315 441.551 11.5225 441.573 11.5225 441.596C11.5225 441.619 11.5315 441.641 11.5477 441.657C11.5639 441.673 11.5858 441.682 11.6087 441.682C12.9497 442.246 14.3346 442.699 15.7495 443.037L20.1861 444.269C23.1069 445.045 26.0276 445.845 28.9607 446.609C34.8515 448.136 40.7423 449.701 46.6701 451.142C48.3461 451.548 50.0222 451.967 51.7229 452.374C53.4236 452.78 55.0873 453.236 56.788 453.433C56.9605 453.31 57.1331 452.989 56.8866 452.891Z" fill="#263238"/>
<path d="M87.0432 269.574C85.9587 275.4 85.0714 281.251 84.1102 287.089C83.6172 290.07 82.964 293.014 82.4711 295.995C81.9781 298.975 81.5098 301.833 81.0415 304.764C79.1519 316.515 77.2745 328.274 75.4095 340.041C74.4729 345.879 73.5322 351.718 72.5873 357.556C71.7198 363.306 70.5432 369.004 69.0627 374.628C67.5222 380.244 65.7106 385.787 63.9976 391.354C62.2846 396.922 60.4853 402.76 58.7353 408.475C55.2477 419.819 51.6368 431.151 48.5065 442.606C48.1245 444.023 47.7301 445.452 47.2741 446.868C47.2689 446.901 47.2759 446.934 47.2937 446.962C47.3115 446.99 47.3389 447.011 47.3708 447.02C47.4026 447.029 47.4367 447.026 47.4666 447.012C47.4965 446.997 47.5201 446.972 47.5329 446.942C51.3903 435.696 54.9273 424.352 58.5505 413.02C62.1737 401.689 65.7353 390.468 69.0997 379.123C70.7579 373.605 72.0749 367.99 73.0433 362.31C74.0416 356.46 74.9166 350.597 75.8532 344.746C77.7675 332.995 79.6654 321.237 81.5468 309.47C82.4711 303.693 83.494 297.904 84.2087 292.102C84.9482 286.079 85.9834 280.105 86.883 274.107C87.1049 272.641 87.3144 271.175 87.5115 269.697C87.5608 269.389 87.1049 269.229 87.0432 269.574Z" fill="#263238"/>
<path d="M134.909 476.836C130.214 475.961 124.458 476.676 120.872 480.026C120.737 480.162 120.872 480.359 121.069 480.309C125.561 478.844 130.196 477.866 134.897 477.39C134.954 477.37 135.003 477.334 135.039 477.285C135.075 477.236 135.094 477.178 135.096 477.117C135.097 477.057 135.08 476.998 135.047 476.947C135.013 476.897 134.965 476.858 134.909 476.836Z" fill="#263238"/>
<path d="M138.311 478.881C133.603 478.006 127.86 478.721 124.261 482.071C124.126 482.206 124.261 482.391 124.471 482.354C128.959 480.902 133.591 479.936 138.286 479.472C138.325 479.474 138.364 479.468 138.4 479.454C138.437 479.441 138.47 479.42 138.499 479.394C138.527 479.368 138.551 479.336 138.567 479.301C138.583 479.266 138.592 479.228 138.594 479.189C138.596 479.15 138.59 479.111 138.576 479.075C138.563 479.038 138.543 479.005 138.516 478.976C138.49 478.947 138.458 478.924 138.423 478.908C138.388 478.892 138.35 478.882 138.311 478.881Z" fill="#263238"/>
<path d="M141.7 480.913C137.004 480.038 131.249 480.765 127.663 484.115C127.515 484.239 127.663 484.436 127.86 484.386C132.353 482.938 136.989 481.976 141.687 481.517C141.757 481.504 141.821 481.467 141.867 481.413C141.913 481.359 141.939 481.291 141.94 481.22C141.942 481.149 141.919 481.079 141.875 481.023C141.831 480.967 141.769 480.928 141.7 480.913Z" fill="#263238"/>
<path d="M145.089 482.958C140.393 482.083 134.638 482.81 131.052 486.16C130.916 486.283 131.052 486.481 131.249 486.431C135.744 484.986 140.378 484.02 145.076 483.549C145.115 483.55 145.154 483.543 145.19 483.529C145.226 483.515 145.259 483.494 145.287 483.467C145.315 483.44 145.338 483.408 145.353 483.372C145.369 483.337 145.377 483.298 145.378 483.26C145.379 483.221 145.372 483.182 145.358 483.146C145.344 483.11 145.323 483.077 145.296 483.049C145.269 483.021 145.237 482.998 145.201 482.983C145.166 482.967 145.127 482.959 145.089 482.958Z" fill="#263238"/>
<path d="M87.4128 471.232C87.4128 474.052 87.5114 476.824 87.5853 479.509C87.5853 481.184 87.6839 482.81 87.7455 484.436C88.0906 494.573 88.6328 502.345 89.5078 502.912C92.1944 504.611 162.761 504.821 165.226 504.008C167.69 503.195 165.534 496.1 162.761 493.908C161.097 492.59 150.437 487.564 142.402 483.845L133.085 479.595L133.307 471.318L133.948 433.64H87.3512C87.3512 433.64 87.1047 452.99 87.4128 471.232Z" fill="#F7A9A0"/>
<path d="M165.78 504.069C164.166 504.599 133.985 504.808 111.999 504.426C106.909 504.328 102.263 504.204 98.4428 504.057C93.2791 503.835 89.8161 503.564 89.2368 503.207C88.0045 502.406 87.3513 487.256 87.0186 471.281L133.381 471.133L133.159 479.484C133.159 479.484 160.456 491.678 163.229 493.883C166.002 496.087 168.257 503.256 165.78 504.069Z" fill="#FF0035"/>
<path d="M164.757 501.224C152.803 500.928 104.605 500.892 92.7737 501.507C92.6751 501.507 92.6751 501.581 92.7737 501.581C104.605 502.123 152.815 501.778 164.757 501.409C164.991 501.409 164.991 501.224 164.757 501.224Z" fill="#263238"/>
<path d="M79.0942 281.473C79.0942 281.473 87.0678 359.614 87.191 361.461C87.191 362.176 83.765 466.01 83.765 466.01H136.474C136.474 466.01 134.589 368.186 133.8 357.15C133.701 355.918 130.3 276.435 114.957 231.515H56.4307C56.4307 231.515 56.9359 257.935 68.9517 277.088C72.4119 278.359 75.798 279.823 79.0942 281.473Z" fill="#494A66"/>
<path d="M133.147 456.143C131.705 455.933 130.214 455.983 128.76 455.909C127.305 455.835 125.691 455.761 124.151 455.736C121.082 455.662 117.989 455.638 114.945 455.601C108.783 455.539 102.621 455.539 96.4588 455.601H91.4307C89.7379 455.533 88.0425 455.619 86.3656 455.86C86.3427 455.86 86.3207 455.869 86.3046 455.885C86.2884 455.901 86.2793 455.923 86.2793 455.946C86.2793 455.969 86.2884 455.991 86.3046 456.007C86.3207 456.023 86.3427 456.032 86.3656 456.032C87.8033 456.268 89.2591 456.375 90.7159 456.352C92.2564 456.414 93.7845 456.451 95.325 456.488C98.3444 456.549 101.376 456.623 104.395 456.66C110.496 456.734 116.584 456.833 122.684 456.82C124.409 456.82 126.135 456.82 127.86 456.746C129.585 456.672 131.335 456.746 133.048 456.562C133.307 456.537 133.406 456.18 133.147 456.143Z" fill="#263238"/>
<path d="M118.383 242.353C118.383 242.255 118.198 242.279 118.21 242.353C118.432 245.691 118.987 249.325 117.508 252.453C116.202 255.237 113.712 256.789 111.432 258.612C111.358 258.673 111.432 258.784 111.518 258.76C114.562 257.836 117.594 256.148 118.79 253.044C120.133 249.62 119.393 245.827 118.383 242.353Z" fill="#263238"/>
<path d="M92.9956 279.761C90.5568 279.683 88.1155 279.765 85.6875 280.007C83.3048 280.135 80.9159 280.089 78.5397 279.872C77.3457 279.753 76.1603 279.56 74.9904 279.293C73.758 279.009 72.6242 278.554 71.4288 278.221C70.3391 277.984 69.2073 278.027 68.1384 278.344C66.8731 278.629 65.5937 278.847 64.3056 278.997C61.3723 279.432 58.397 279.511 55.4448 279.231C55.3339 279.231 55.2846 279.379 55.4448 279.404C57.9241 279.931 60.4522 280.195 62.987 280.192C64.2831 280.163 65.5759 280.048 66.8567 279.847C68.0573 279.499 69.3041 279.337 70.5538 279.367C71.7551 279.71 72.936 280.121 74.0908 280.598C75.2724 280.925 76.4746 281.172 77.6894 281.337C80.1407 281.655 82.6176 281.73 85.0837 281.559C87.8444 281.496 90.5859 281.082 93.2421 280.327C93.3172 280.295 93.3763 280.234 93.4064 280.157C93.4364 280.081 93.435 279.996 93.4023 279.921C93.3696 279.846 93.3084 279.787 93.2321 279.757C93.1558 279.727 93.0708 279.728 92.9956 279.761Z" fill="#263238"/>
<path d="M87.3513 357.15C87.3274 357.141 87.3013 357.141 87.2774 357.15C87.2719 357.161 87.269 357.174 87.269 357.187C87.269 357.2 87.2719 357.212 87.2774 357.224V357.409C87.2886 357.415 87.3014 357.418 87.3143 357.418C87.3273 357.418 87.3401 357.415 87.3513 357.409V357.224C87.3598 357.2 87.3598 357.174 87.3513 357.15Z" fill="#263238"/>
<path d="M85.9342 343.7C85.4659 338.641 84.9689 333.579 84.443 328.513C83.3709 318.388 82.3726 308.251 81.3251 298.126C80.7336 292.386 80.3022 286.585 79.3656 280.882C79.3656 280.849 79.3526 280.818 79.3295 280.795C79.3064 280.772 79.2751 280.759 79.2424 280.759C79.2097 280.759 79.1783 280.772 79.1552 280.795C79.1321 280.818 79.1191 280.849 79.1191 280.882C79.2054 285.957 79.7477 291.031 80.179 296.094C80.6103 301.156 81.054 306.218 81.5346 311.293C82.4836 321.418 83.3832 331.555 84.5786 341.667C84.9155 344.533 85.2729 347.407 85.6508 350.289C86.0205 353.159 86.5258 356.029 86.8832 358.911C86.8832 359.022 87.0803 359.022 87.068 358.911C86.6367 353.837 86.3902 348.762 85.9342 343.7Z" fill="#263238"/>
<path d="M84.8866 164.447C85.2316 165.556 91.1348 172.49 96.2738 171.837C97.9375 171.628 97.2474 162.464 97.2474 162.464L97.3583 161.774L98.8002 152.13L87.1418 145.774L85.4658 144.937C85.4658 144.937 85.244 147.597 84.9975 150.923V151.391C84.9975 151.588 84.9975 151.76 84.9975 151.933C84.9975 152.425 84.9112 152.93 84.8866 153.435C84.8619 153.94 84.8866 154.199 84.8866 154.606C84.8866 155.012 84.8866 155.406 84.8866 155.837C84.6882 158.704 84.6882 161.58 84.8866 164.447Z" fill="#F7A9A0"/>
<path d="M84.8867 150.984C86.0316 153.577 87.7266 155.891 89.8545 157.765C91.9825 159.638 94.4924 161.027 97.2106 161.836L98.6525 152.191L86.9941 145.836L85.3181 144.998C85.3181 144.998 85.1825 147.646 84.8867 150.984Z" fill="#263238"/>
<path d="M112.221 136.081C115.832 152.808 106.293 157.02 102.608 157.624C99.3053 158.178 88.0906 160.309 82.7667 144.075C77.4428 127.841 84.0853 120.844 91.492 118.837C98.8986 116.829 108.61 119.354 112.221 136.081Z" fill="#F7A9A0"/>
<path d="M110.619 132.644C110.212 132.644 109.83 132.644 109.386 132.57C108.953 132.603 108.521 132.495 108.154 132.262C108.059 132.167 107.998 132.043 107.98 131.91C107.962 131.776 107.989 131.64 108.055 131.523C108.221 131.313 108.439 131.15 108.688 131.051C108.937 130.951 109.207 130.919 109.473 130.957C110.024 130.961 110.554 131.167 110.964 131.536C111.049 131.62 111.11 131.726 111.139 131.842C111.169 131.959 111.165 132.081 111.13 132.195C111.094 132.31 111.027 132.412 110.937 132.491C110.847 132.571 110.737 132.624 110.619 132.644Z" fill="#263238"/>
<path d="M99.7614 134.812C100.139 134.698 100.509 134.562 100.871 134.405C101.279 134.315 101.646 134.095 101.918 133.777C101.985 133.66 102.011 133.525 101.993 133.391C101.976 133.258 101.914 133.134 101.819 133.038C101.599 132.884 101.342 132.791 101.073 132.767C100.805 132.743 100.536 132.79 100.291 132.903C99.7761 133.067 99.3381 133.413 99.0589 133.876C99.004 133.984 98.9806 134.106 98.9913 134.227C99.002 134.349 99.0464 134.464 99.1194 134.562C99.1925 134.659 99.2913 134.734 99.4047 134.778C99.5181 134.822 99.6417 134.834 99.7614 134.812Z" fill="#263238"/>
<path d="M102.855 138.667C102.855 138.667 102.769 138.741 102.781 138.79C103.015 139.936 103.077 141.254 102.103 141.833C102.103 141.833 102.103 141.906 102.103 141.894C103.372 141.451 103.249 139.665 102.855 138.667Z" fill="#263238"/>
<path d="M101.622 137.596C99.7492 137.768 100.23 141.488 101.967 141.291C103.705 141.094 103.2 137.436 101.622 137.596Z" fill="#263238"/>
<path d="M100.908 137.879C100.612 138.137 100.341 138.556 99.9463 138.642C99.5519 138.729 99.1082 138.396 98.7139 138.064C98.8001 138.778 99.1575 139.48 99.9463 139.48C100.735 139.48 101.08 138.79 101.179 138.051C101.179 137.965 101.043 137.78 100.908 137.879Z" fill="#263238"/>
<path d="M108.992 137.189C108.992 137.189 109.078 137.189 109.091 137.276C109.189 138.433 109.497 139.739 110.594 140.01C109.288 140.047 108.893 138.298 108.992 137.189Z" fill="#263238"/>
<path d="M109.879 135.859C111.715 135.489 112.344 139.209 110.606 139.554C108.869 139.899 108.302 136.204 109.879 135.859Z" fill="#263238"/>
<path d="M110.693 135.97C111.013 136.13 111.358 136.438 111.716 136.401C112.073 136.364 112.369 135.92 112.566 135.489C112.702 136.204 112.566 136.98 111.925 137.226C111.284 137.472 110.767 136.906 110.483 136.228C110.483 136.13 110.557 135.908 110.693 135.97Z" fill="#263238"/>
<path d="M108.216 142.707C108.216 142.707 108.696 144.394 108.807 145.17C108.807 145.244 108.635 145.306 108.351 145.367C107.671 145.592 106.941 145.625 106.243 145.462C105.545 145.299 104.906 144.947 104.395 144.444C104.321 144.382 104.395 144.283 104.494 144.32C105.636 144.892 106.935 145.074 108.191 144.838C108.191 144.604 107.279 141.968 107.402 141.943C108.043 141.909 108.686 141.963 109.312 142.103C108.413 138.556 106.959 135.181 106.121 131.634C106.121 131.498 106.268 131.437 106.318 131.548C107.996 135.101 109.309 138.815 110.237 142.633C110.323 143.175 108.561 142.793 108.216 142.707Z" fill="#263238"/>
<path d="M108.203 144.826C107.884 145.58 107.375 146.238 106.724 146.735C106.365 146.995 105.935 147.137 105.492 147.142C104.518 147.142 104.26 146.304 104.26 145.54C104.247 145.126 104.288 144.712 104.383 144.309C105.568 144.885 106.907 145.066 108.203 144.826Z" fill="#263238"/>
<path d="M106.725 146.698C106.366 146.957 105.935 147.099 105.492 147.104C104.519 147.104 104.26 146.267 104.26 145.503C104.745 145.4 105.251 145.461 105.697 145.678C106.144 145.894 106.505 146.253 106.725 146.698Z" fill="#FF98B9"/>
<path d="M116.312 215.908L121.464 243.462C121.464 243.462 60.4113 244.312 46.0786 243.302C46.0786 243.302 61.0644 184.955 76.4816 168.229C84.1963 159.853 93.242 160.481 99.0096 166.332C100.476 167.81 117.89 190.818 119.726 199.588C121.328 207.373 116.312 215.908 116.312 215.908Z" fill="#FF0035"/>
<path d="M88.3124 173.599C87.9466 174.38 87.6935 175.21 87.5607 176.062C88.1235 175.388 88.5882 174.637 88.941 173.833C89.3015 173.049 89.5543 172.221 89.6927 171.369C89.1325 172.046 88.668 172.796 88.3124 173.599ZM79.5625 206.153C79.1967 206.935 78.9436 207.764 78.8108 208.617C79.374 207.945 79.835 207.194 80.1787 206.387C80.5432 205.604 80.8002 204.775 80.9428 203.924C80.3757 204.595 79.9107 205.346 79.5625 206.153ZM117.249 220.934C117.113 221.18 116.99 221.414 116.879 221.66C116.515 222.444 116.258 223.272 116.115 224.124C116.663 223.48 117.112 222.757 117.446 221.981L117.249 220.934ZM71.2562 240.728C70.8888 241.508 70.6357 242.338 70.5045 243.191C71.0653 242.513 71.526 241.758 71.8724 240.949C72.2439 240.169 72.5012 239.339 72.6365 238.486C72.0748 239.152 71.6101 239.894 71.2562 240.691V240.728ZM106.934 198.221C106.566 199.002 106.313 199.831 106.182 200.684C106.743 200.006 107.204 199.251 107.55 198.443C107.921 197.662 108.179 196.833 108.314 195.979C107.752 196.645 107.288 197.388 106.934 198.184V198.221ZM89.3846 236.158C89.0185 236.94 88.7614 237.769 88.6205 238.621C89.1852 237.944 89.65 237.189 90.0008 236.38C90.367 235.597 90.6241 234.768 90.7649 233.916C90.2032 234.582 89.7385 235.325 89.3846 236.121V236.158ZM53.9535 219.665C53.5877 220.447 53.3346 221.276 53.2018 222.129C53.7598 221.473 54.2243 220.744 54.5821 219.961C54.9425 219.177 55.1954 218.349 55.3338 217.497C54.7783 218.155 54.314 218.884 53.9535 219.665ZM64.0591 192.567C63.6933 193.349 63.4402 194.178 63.3073 195.031C64.4094 193.652 65.143 192.016 65.4394 190.276C64.8717 190.965 64.4068 191.733 64.0591 192.555V192.567ZM96.9638 184.549C96.1824 184.179 95.3526 183.922 94.499 183.785C95.8707 184.899 97.511 185.634 99.256 185.916C98.5601 185.351 97.7886 184.887 96.9638 184.536V184.549ZM104.358 213.211C103.577 212.844 102.747 212.591 101.893 212.46C102.574 213.02 103.329 213.484 104.136 213.839C104.918 214.206 105.748 214.459 106.601 214.59C105.909 214.023 105.142 213.555 104.321 213.199L104.358 213.211ZM104.161 243.216C104.341 243.374 104.531 243.522 104.728 243.659H105.837C105.287 243.438 104.711 243.285 104.124 243.203L104.161 243.216ZM71.2193 218.446C70.4385 218.074 69.6084 217.817 68.7545 217.682C69.4325 218.246 70.1878 218.711 70.9974 219.062C71.7802 219.428 72.6095 219.684 73.4622 219.825C72.7736 219.254 72.0056 218.785 71.1823 218.433L71.2193 218.446ZM118.161 204.133C117.861 203.307 117.446 202.528 116.928 201.817C117.103 203.574 117.741 205.253 118.777 206.683C118.693 205.808 118.486 204.95 118.161 204.133ZM117.508 237.205C117.21 236.378 116.795 235.598 116.275 234.889C116.355 235.763 116.558 236.622 116.879 237.439C117.177 238.266 117.592 239.046 118.112 239.754C118.033 238.88 117.83 238.021 117.508 237.205ZM79.7227 188.921C79.4302 188.092 79.0148 187.312 78.4903 186.606C78.5742 187.48 78.7816 188.339 79.1065 189.155C79.4035 189.983 79.8186 190.763 80.3389 191.471C80.2626 190.595 80.0548 189.736 79.7227 188.921ZM91.4181 218.483C91.1205 217.656 90.7054 216.876 90.1857 216.167C90.2654 217.041 90.4687 217.9 90.7895 218.717C91.0871 219.544 91.5022 220.323 92.0219 221.032C91.9401 220.17 91.7368 219.325 91.4181 218.52V218.483ZM60.3866 230.8C60.0864 229.974 59.6716 229.195 59.1542 228.484C59.3289 230.241 59.9668 231.92 61.0028 233.35C60.9134 232.496 60.7061 231.658 60.3866 230.861V230.8ZM81.1893 164.25L80.6593 164.595C80.9 165.115 81.1976 165.606 81.5466 166.061C81.4979 165.445 81.3779 164.838 81.1893 164.25ZM71.7985 177.282C70.9711 177.579 70.1908 177.994 69.4816 178.513C71.2379 178.333 72.9162 177.696 74.3495 176.666C73.491 176.754 72.649 176.961 71.8478 177.282H71.7985ZM103.902 228.792C103.072 229.084 102.292 229.5 101.585 230.024C102.46 229.94 103.319 229.733 104.136 229.408C104.966 229.116 105.747 228.7 106.453 228.176C105.595 228.265 104.753 228.472 103.951 228.792H103.902ZM62.001 206.917C61.1736 207.214 60.3933 207.629 59.6841 208.149C60.5587 208.069 61.4176 207.866 62.2352 207.545C63.0626 207.248 63.8428 206.833 64.552 206.313C63.6898 206.395 62.8434 206.598 62.038 206.917H62.001ZM78.3301 228.792C77.5005 229.084 76.7195 229.5 76.0132 230.024C76.8884 229.94 77.7473 229.733 78.5643 229.408C79.3939 229.116 80.1749 228.7 80.8812 228.176C80.0183 228.262 79.1719 228.47 78.3671 228.792H78.3301ZM50.6014 239.422C49.7791 239.722 49.0033 240.137 48.2969 240.654C50.0745 240.484 51.7754 239.846 53.2264 238.806C52.3389 238.887 51.4674 239.095 50.6384 239.422H50.6014ZM91.9726 198.516C91.1452 198.814 90.365 199.229 89.6558 199.748C90.5309 199.664 91.3898 199.457 92.2068 199.132C93.0345 198.836 93.8148 198.421 94.5237 197.901C93.66 197.982 92.813 198.189 92.0096 198.516H91.9726ZM112.073 184.598C111.314 184.912 110.601 185.326 109.953 185.83C110.797 185.75 111.627 185.555 112.418 185.251L112.073 184.598Z" fill="white"/>
<path d="M86.9572 177.491C87.3269 189.71 90.4942 224.482 96.8902 233.042C107.267 246.887 119.073 259.327 124.939 263.49C129.635 266.84 155.268 248.032 150.216 243.783C142.981 237.624 123.46 217.916 120.096 213.273C118.321 210.809 106.959 186.692 100.748 172.7C95.3991 160.605 86.5382 163.302 86.9572 177.491Z" fill="#F7A9A0"/>
<path d="M170.439 276.62C169.827 277.397 168.996 277.972 168.053 278.271C167.111 278.569 166.1 278.578 165.152 278.295C165.046 279.974 164.357 281.564 163.205 282.791C161.073 284.847 156.907 282.409 156.907 282.409C156.434 284.127 155.455 285.663 154.097 286.818C151.854 288.592 147.307 286.72 147.307 286.72C145.997 288.062 144.247 288.888 142.377 289.048C137.448 289.282 133.036 283 130.238 279.034C127.441 275.068 123.214 261.198 122.142 258.636L145.36 239.668C145.36 239.668 160.148 245.272 167.703 259.856C169.921 264.105 172.632 273.528 170.439 276.62Z" fill="#F7A9A0"/>
<path d="M165.435 277.851C164.203 272.69 161.467 268.182 159.014 263.526C159.014 263.428 158.805 263.526 158.854 263.613C161.319 268.219 162.896 273.257 165.201 277.938C165.263 278.048 165.46 277.962 165.435 277.851Z" fill="#263238"/>
<path d="M157.178 282.089C156.776 280.944 156.229 279.855 155.551 278.849C154.898 277.753 154.22 276.657 153.543 275.573C152.162 273.417 150.72 271.274 149.229 269.193C149.168 269.094 149.007 269.192 149.069 269.279C150.449 271.438 151.78 273.623 153.062 275.831C153.703 276.94 154.294 278.061 154.96 279.169C155.479 280.265 156.119 281.297 156.87 282.249C156.898 282.274 156.933 282.291 156.971 282.296C157.008 282.301 157.046 282.294 157.08 282.276C157.114 282.259 157.141 282.231 157.159 282.198C157.176 282.164 157.183 282.126 157.178 282.089Z" fill="#263238"/>
<path d="M147.245 286.633C146.874 285.604 146.328 284.645 145.631 283.8C144.978 282.827 144.398 281.842 143.696 280.869C142.464 278.911 141.145 276.94 139.937 274.944C139.937 274.846 139.715 274.944 139.777 275.031C141.009 277.063 142.242 279.132 143.474 281.189C144.078 282.187 144.706 283.172 145.31 284.17C145.788 285.125 146.43 285.988 147.208 286.72C147.217 286.717 147.225 286.713 147.231 286.707C147.238 286.701 147.243 286.693 147.247 286.685C147.25 286.677 147.252 286.668 147.252 286.659C147.251 286.65 147.249 286.641 147.245 286.633Z" fill="#263238"/>
<path d="M109.596 251.357L134.182 226.181C134.182 226.181 121.858 215.021 118.937 210.168C116.016 205.316 105.245 182.27 101.536 172.761C97.8264 163.252 88.0536 159.606 86.3282 175.619C84.6029 191.631 91.5782 227.142 93.7226 230.861C95.8669 234.581 109.596 251.357 109.596 251.357Z" fill="#FF0035"/>
<path d="M88.3128 173.599C87.947 174.38 87.6939 175.209 87.561 176.062C88.1239 175.388 88.5886 174.637 88.9413 173.833C89.3018 173.049 89.5547 172.22 89.6931 171.369C89.1328 172.045 88.6684 172.796 88.3128 173.599ZM116.879 221.636C116.515 222.419 116.258 223.247 116.115 224.099C116.68 223.426 117.145 222.675 117.496 221.87C117.86 221.087 118.117 220.258 118.26 219.406C117.711 220.077 117.263 220.824 116.929 221.623L116.879 221.636ZM106.934 198.233C106.567 199.014 106.314 199.843 106.182 200.696C106.743 200.018 107.204 199.263 107.55 198.455C107.922 197.674 108.179 196.845 108.314 195.991C107.754 196.654 107.289 197.392 106.934 198.184V198.233ZM96.9641 184.585C96.1827 184.216 95.3529 183.959 94.4994 183.822C95.871 184.936 97.5114 185.671 99.2564 185.953C98.5627 185.375 97.7911 184.898 96.9641 184.536V184.585ZM104.358 213.248C103.577 212.88 102.747 212.627 101.894 212.496C102.575 213.056 103.329 213.521 104.137 213.876C104.918 214.243 105.748 214.496 106.601 214.627C105.912 214.047 105.144 213.566 104.321 213.198L104.358 213.248ZM129.006 225.392C128.224 225.027 127.394 224.774 126.541 224.641C127.213 225.208 127.965 225.673 128.772 226.021C129.554 226.386 130.384 226.639 131.237 226.772C130.552 226.192 129.788 225.711 128.969 225.343L129.006 225.392ZM106.675 244.004C105.894 243.636 105.064 243.383 104.211 243.252C105.59 244.354 107.227 245.087 108.968 245.383C108.266 244.794 107.481 244.313 106.638 243.954L106.675 244.004ZM117.545 237.242C117.247 236.415 116.832 235.635 116.313 234.926C116.392 235.8 116.596 236.658 116.916 237.476C117.214 238.302 117.629 239.082 118.149 239.791C118.062 238.902 117.846 238.031 117.508 237.205L117.545 237.242ZM91.4184 218.519C91.1208 217.692 90.7058 216.913 90.186 216.204C90.2657 217.078 90.4691 217.936 90.7899 218.753C91.0875 219.58 91.5025 220.36 92.0223 221.069C91.9439 220.195 91.7405 219.336 91.4184 218.519ZM103.952 228.792C103.122 229.084 102.341 229.499 101.635 230.024C102.51 229.94 103.369 229.733 104.186 229.408C105.016 229.115 105.797 228.7 106.503 228.176C105.628 228.26 104.769 228.467 103.952 228.792ZM92.0099 198.516C91.1826 198.814 90.4023 199.228 89.6931 199.748C90.5683 199.664 91.4271 199.457 92.2441 199.132C93.0718 198.835 93.8521 198.42 94.561 197.9C93.6848 197.978 92.825 198.186 92.0099 198.516Z" fill="white"/>
<path d="M102.99 243.252C101.068 240.124 98.8127 237.167 96.6683 234.187C94.5291 231.412 92.9092 228.274 91.8867 224.924C90.9377 221.488 90.3462 217.928 89.73 214.417C89.1138 210.907 88.4976 207.113 87.9553 203.455C87.2652 199.243 86.649 195.006 86.2177 190.744C86.2177 190.645 86.0451 190.645 86.0575 190.744C86.3286 194.747 86.6367 198.75 87.0434 202.741C86.6737 201.411 86.3039 200.08 85.8973 198.762C85.8875 198.733 85.8664 198.709 85.8386 198.695C85.8109 198.681 85.7788 198.679 85.7494 198.688C85.72 198.698 85.6956 198.719 85.6818 198.747C85.6679 198.775 85.6656 198.807 85.6754 198.836C86.1437 200.585 86.6737 202.322 87.2036 204.059C87.5363 207.126 87.9184 210.217 88.436 213.247C89.0522 216.943 89.6684 220.564 90.5557 224.16C91.3903 227.558 92.8898 230.756 94.9676 233.571C97.4198 236.97 100.048 240.238 102.843 243.363C102.917 243.449 103.052 243.363 102.99 243.252Z" fill="#263238"/>
<path d="M127.761 223.016C124.064 226.428 120.626 230.061 117.138 233.67C113.65 237.279 110.15 240.863 106.848 244.632C106.836 244.651 106.831 244.673 106.834 244.695C106.836 244.717 106.846 244.738 106.862 244.754C106.878 244.769 106.898 244.779 106.92 244.782C106.942 244.784 106.964 244.779 106.983 244.768C110.754 241.455 114.303 237.895 117.803 234.311C121.303 230.726 124.803 227.13 128.02 223.225C128.028 223.191 128.026 223.156 128.015 223.123C128.004 223.09 127.983 223.061 127.956 223.039C127.929 223.017 127.897 223.004 127.862 222.999C127.828 222.995 127.793 223.001 127.761 223.016Z" fill="#263238"/>
<path d="M117.508 206.831C117.076 205.858 116.645 204.897 116.201 203.936C115.215 201.843 114.254 199.749 113.244 197.679C112.738 196.632 112.233 195.585 111.74 194.526C111.383 192.789 111.05 191.053 110.508 189.341C110.508 189.267 110.36 189.341 110.372 189.341C110.582 190.769 110.927 192.174 111.259 193.578C109.928 190.782 108.585 187.998 107.045 185.313C107.045 185.239 106.848 185.313 106.885 185.387C108.462 189.624 110.495 193.701 112.356 197.827C113.293 199.872 114.266 201.904 115.228 203.986C115.708 204.996 116.189 206.018 116.694 207.016C117.2 208.013 117.927 209.122 118.518 210.206C118.518 210.292 118.74 210.206 118.691 210.12C118.259 209.048 117.964 207.903 117.508 206.831Z" fill="#263238"/>
<path d="M96.7792 115.72C98.0116 116.065 105.529 114.981 108.203 120.647C110.237 124.946 107.821 128.037 103.668 129.466C99.0837 130.957 93.2546 129.208 93.2546 129.208C93.3408 134.048 93.4394 140.293 91.862 141.389C90.6296 142.276 88.4606 140.675 88.4606 140.675C87.5733 144.69 88.9289 152.992 89.7669 154.606C91.7387 158.498 96.4095 163.782 92.1208 169.386C90.8109 170.649 89.2052 171.563 87.4505 172.045C85.6959 172.527 83.8483 172.561 82.0768 172.145C77.1473 171.012 75.9888 167.354 74.0293 166.208C72.0698 165.063 66.635 165.765 64.6632 162.821C62.6914 159.877 62.7653 156.379 61.878 154.95C60.9907 153.522 58.7231 153.448 57.7742 150.295C56.8252 147.141 59.8815 145.688 60.6456 143.188C61.1755 141.438 59.8322 139.579 61.3358 137.029C63.4185 133.519 67.8674 134.984 70.172 131.4C71.9836 128.592 76.2353 118.245 84.3444 115.289C88.3941 113.852 92.8389 114.006 96.7792 115.72Z" fill="#263238"/>
<path d="M77.6277 120.327C75.9985 122.387 74.5121 124.556 73.1788 126.818C72.4394 127.902 71.7493 129.011 70.9482 130.021C70.563 130.522 70.1205 130.977 69.6295 131.376C69.525 131.474 69.404 131.553 69.2722 131.61C69.1485 131.684 69.016 131.741 68.8778 131.782L67.9042 132.028C66.5354 132.297 65.1819 132.638 63.8497 133.051C62.482 133.449 61.2801 134.278 60.4236 135.416C60.0215 135.998 59.7871 136.68 59.7458 137.386C59.7396 138.091 59.8737 138.791 60.1402 139.443C60.731 140.65 61.0266 141.98 61.0028 143.323C61.2062 141.981 61.0532 140.609 60.5592 139.345C60.3538 138.735 60.2701 138.09 60.3127 137.448C60.3876 136.845 60.6263 136.274 61.0028 135.798C61.8324 134.815 62.9344 134.099 64.1701 133.741C65.4879 133.362 66.8249 133.054 68.1753 132.817C68.5081 132.731 68.8531 132.644 69.1982 132.533C69.5677 132.416 69.9108 132.227 70.2088 131.979C70.7369 131.533 71.2087 131.024 71.6137 130.464C72.4048 129.402 73.1292 128.291 73.7827 127.139L75.6806 123.69C76.256 122.528 76.9065 121.405 77.6277 120.327Z" fill="#263238"/>
<path d="M60.7812 153.928C61.1135 154.791 61.2686 155.713 61.2372 156.638C61.2372 157.561 61.3605 158.497 61.4591 159.434C61.5601 160.383 61.7583 161.32 62.0506 162.23C62.3392 163.188 62.855 164.063 63.5541 164.779C65.1465 165.961 67.1303 166.489 69.0999 166.257C70.0365 166.257 70.9607 166.134 71.885 166.122C72.8042 166.04 73.7297 166.179 74.584 166.528C73.7758 166.025 72.849 165.745 71.8974 165.715C70.9484 165.641 70.0118 165.715 69.0999 165.617C67.3406 165.694 65.6059 165.183 64.1703 164.163C63.5654 163.546 63.1137 162.795 62.8517 161.971C62.5453 161.114 62.3144 160.232 62.1615 159.335C61.9767 158.436 61.8411 157.512 61.6932 156.588C61.6069 156.133 61.5207 155.664 61.4098 155.209C61.3197 154.733 61.1025 154.29 60.7812 153.928Z" fill="#263238"/>
<path d="M91.9727 128.197C94.137 129.51 96.5925 130.267 99.1205 130.402C99.7401 130.445 100.362 130.445 100.981 130.402L101.918 130.316L102.842 130.156C103.471 130.069 104.075 129.86 104.691 129.725C105.307 129.589 105.923 129.318 106.527 129.146C105.977 129.487 105.409 129.799 104.826 130.082C104.231 130.347 103.617 130.57 102.99 130.747C101.717 131.108 100.394 131.262 99.0712 131.203C97.7501 131.143 96.4492 130.856 95.2262 130.353C94.0057 129.864 92.8985 129.13 91.9727 128.197Z" fill="#263238"/>
<path d="M92.2808 127.175C93.4239 129.454 94.1303 131.927 94.3636 134.467C94.4971 135.754 94.4011 137.055 94.0801 138.31C93.9401 138.945 93.671 139.546 93.2894 140.073C92.9079 140.601 92.4219 141.044 91.8618 141.377C92.7454 140.52 93.3179 139.393 93.4886 138.174C93.6861 136.952 93.7192 135.71 93.5871 134.479C93.3231 132.017 92.8866 129.576 92.2808 127.175Z" fill="#263238"/>
<path d="M89.1015 141.931C89.1015 141.931 84.8991 136.943 82.6069 138.495C80.3146 140.047 83.8393 147.499 86.7354 148.287C87.1024 148.413 87.4911 148.463 87.8781 148.435C88.2651 148.407 88.6425 148.302 88.9877 148.125C89.3329 147.947 89.6388 147.703 89.8871 147.404C90.1353 147.106 90.3208 146.761 90.4325 146.39L89.1015 141.931Z" fill="#F7A9A0"/>
<path d="M83.6543 140.601C83.6543 140.601 83.6543 140.674 83.6543 140.687C84.6083 141.055 85.4736 141.621 86.1936 142.347C86.9136 143.073 87.4719 143.943 87.8321 144.899C87.7002 144.702 87.5259 144.537 87.3218 144.416C87.1177 144.295 86.8891 144.221 86.6527 144.2C86.4164 144.178 86.1782 144.21 85.9558 144.293C85.7334 144.376 85.5323 144.507 85.3673 144.678C85.3673 144.678 85.3673 144.801 85.3673 144.776C85.7071 144.634 86.0824 144.601 86.442 144.68C86.8015 144.759 87.1278 144.948 87.3761 145.22C87.7865 145.676 88.146 146.176 88.4483 146.71C88.5592 146.882 88.8673 146.71 88.781 146.562C88.6948 143.976 86.4025 140.613 83.6543 140.601Z" fill="#263238"/>
<path d="M143.77 167.6C148.441 163.745 153.432 155.751 157.634 154.138C158.655 153.703 159.789 153.608 160.868 153.868C161.946 154.127 162.913 154.727 163.624 155.579C163.624 155.579 164.684 150.713 168.738 149.876C170.833 149.445 173.347 152.401 173.347 152.401C173.347 152.401 174.37 148.545 178.018 148.016C180.926 147.609 183.022 150.627 183.022 150.627C183.022 150.627 185.733 147.375 188.826 147.905C195.124 148.977 201.298 173.426 193.238 179.474C189.541 182.295 188.308 176.235 188.308 176.235C188.308 176.235 187.902 185.362 182.898 186.753C177.895 188.145 176.823 180.201 176.823 180.201C176.823 180.201 176.354 189.032 171.018 189.956C165.46 190.929 165.756 182.787 165.756 182.787C165.756 182.787 163.439 189.155 159.187 188.946C152.163 188.564 157.45 172.934 154.812 167.834L144.805 169.879L143.77 167.6Z" fill="#F7A9A0"/>
<path d="M150.733 160.197C145.804 163.141 136.561 156.835 131.422 158.966C124.471 161.86 134.404 171.603 144.867 169.903L154.8 167.822L150.733 160.197Z" fill="#F7A9A0"/>
<path d="M183.478 151.058C183.474 151.051 183.471 151.043 183.47 151.035C183.469 151.026 183.47 151.018 183.472 151.01C183.474 151.002 183.478 150.994 183.483 150.988C183.489 150.981 183.495 150.976 183.502 150.972C183.51 150.968 183.518 150.965 183.526 150.964C183.534 150.963 183.543 150.964 183.551 150.966C183.559 150.969 183.566 150.972 183.573 150.978C183.579 150.983 183.585 150.989 183.589 150.996C187.749 158.836 189.429 167.752 188.407 176.567C188.407 176.838 187.89 176.9 187.877 176.567C187.655 167.896 186.172 159.303 183.478 151.058Z" fill="#263238"/>
<path d="M173.372 152.216C173.372 152.13 173.495 152.068 173.545 152.216C177.611 160.013 179.645 170.791 177.106 180.435C177.02 180.767 176.613 180.977 176.675 180.583C177.883 174.055 176.083 159.976 173.372 152.216Z" fill="#263238"/>
<path d="M165.337 183.428C167.419 174.091 166.298 165.038 163.809 155.887C163.809 155.776 163.944 155.739 163.993 155.887C166.458 160.037 167.419 166.024 167.789 170.753C168.207 175.135 167.476 179.55 165.67 183.563C165.596 183.662 165.3 183.625 165.337 183.428Z" fill="#263238"/>
</g>
<defs>
<clipPath id="clip0">
<rect width="509" height="534" fill="white"/>
</clipPath>
</defs>
</svg>
