<svg width="513" height="532" viewBox="0 0 513 532" fill="none" xmlns="http://www.w3.org/2000/svg">
<path d="M112.337 113.767L5.20898 113.609C5.20898 113.609 10.5403 106.693 16.4219 105.839C16.4219 105.839 27.8915 71.9417 46.9913 71.6856C64.8072 71.5636 71.8748 92.6655 71.8748 92.6655C71.8748 92.6655 80.1286 83.2246 87.991 87.5547C95.8535 91.8849 100.268 104.278 100.268 104.278C100.268 104.278 109.133 109.047 112.337 113.767Z" fill="#DADADA"/>
<path d="M375.393 73.9419L510.864 74.1492C510.864 74.1492 510.864 65.5133 492.217 63.8056C492.217 63.8056 475.232 25.993 449.212 31.0672C432.949 34.202 424.634 56.4383 424.634 56.4383C424.634 56.4383 412.406 38.9591 402.624 42.3256C392.842 45.6922 386.985 64.2814 386.985 64.2814C386.985 64.2814 376.872 69.0628 375.393 73.9419Z" fill="#DADADA"/>
<path d="M145.364 33.9704L237.476 34.1168C237.476 34.1168 228.794 26.0297 224.93 26.0297C221.066 26.0297 209.841 -1.09782 195.424 0.0365635C181.008 1.17094 173.341 21.3336 173.341 21.3336C173.341 21.3336 155.831 15.8325 145.364 33.9704Z" fill="#DADADA"/>
<path d="M359.081 145.006L437.852 145.128C437.852 145.128 433.94 140.029 429.623 139.395C429.623 139.395 421.272 114.438 407.21 114.243C394.138 114.06 388.868 129.551 388.868 129.551C388.868 129.551 382.827 122.586 377.031 125.758C371.235 128.929 367.958 138.029 367.958 138.029C367.958 138.029 361.441 141.517 359.081 145.006Z" fill="#EBEBEB"/>
<path d="M69.0135 361.099L95.6945 356.61L118.768 333.154L160.061 375.98L188.613 358.281L208.753 374.614L248.224 331.361L279.27 328.495L312.566 279.362L348.736 315.516L370.11 282.534L383.439 280.631L401.169 247.856L435.798 305.026L484.22 492.882H6.68848L69.0135 361.099Z" fill="#DBDBDB"/>
<path d="M73.7703 423.965L73.0244 423.002L113.18 391.751L171.788 386.738L171.886 386.775L223.573 400.436L268.803 361.27L268.987 361.245L332.351 352.17L379.575 320.481L401.463 270.666L402.575 271.153L380.553 321.286L380.406 321.395L332.804 353.329L332.669 353.353L269.341 362.428L223.891 401.778L223.573 401.705L171.678 387.982L113.657 392.935L73.7703 423.965Z" fill="#92B6B1"/>
<path d="M75.5554 423.246C75.5554 424.336 75.2312 425.402 74.6239 426.309C74.0166 427.215 73.1534 427.922 72.1435 428.339C71.1336 428.757 70.0223 428.866 68.9502 428.653C67.878 428.44 66.8932 427.915 66.1203 427.144C65.3473 426.373 64.8209 425.391 64.6077 424.321C64.3944 423.252 64.5039 422.143 64.9222 421.136C65.3405 420.128 66.0489 419.267 66.9578 418.662C67.8667 418.056 68.9353 417.732 70.0284 417.732C71.4943 417.732 72.9001 418.313 73.9366 419.347C74.9731 420.381 75.5554 421.784 75.5554 423.246Z" fill="#DBDBDB"/>
<path d="M70.0284 429.369C68.8192 429.369 67.6372 429.011 66.6317 428.341C65.6263 427.671 64.8427 426.719 64.3799 425.604C63.9172 424.49 63.7961 423.263 64.032 422.08C64.2679 420.897 64.8502 419.811 65.7053 418.958C66.5603 418.105 67.6497 417.524 68.8357 417.289C70.0217 417.053 71.251 417.174 72.3681 417.636C73.4853 418.097 74.4401 418.879 75.1119 419.882C75.7837 420.885 76.1423 422.064 76.1423 423.27C76.1423 424.888 75.4982 426.439 74.3516 427.583C73.205 428.727 71.6499 429.369 70.0284 429.369ZM70.0284 418.391C69.0611 418.391 68.1154 418.677 67.3111 419.213C66.5067 419.75 65.8798 420.512 65.5096 421.403C65.1394 422.295 65.0426 423.276 65.2313 424.222C65.42 425.169 65.8859 426.038 66.5699 426.72C67.2539 427.403 68.1255 427.867 69.0742 428.056C70.023 428.244 71.0065 428.147 71.9002 427.778C72.7939 427.409 73.5578 426.783 74.0952 425.981C74.6327 425.179 74.9195 424.235 74.9195 423.27C74.926 422.625 74.8043 421.986 74.5614 421.388C74.3185 420.791 73.9592 420.247 73.5044 419.789C73.0496 419.33 72.5082 418.967 71.9116 418.718C71.3149 418.47 70.6749 418.342 70.0284 418.342V418.391Z" fill="white"/>
<path d="M118.695 392.349C118.695 393.44 118.371 394.506 117.764 395.412C117.156 396.319 116.293 397.026 115.283 397.443C114.273 397.86 113.162 397.969 112.09 397.757C111.018 397.544 110.033 397.019 109.26 396.248C108.487 395.477 107.961 394.494 107.747 393.425C107.534 392.355 107.644 391.247 108.062 390.239C108.48 389.232 109.189 388.371 110.097 387.765C111.006 387.159 112.075 386.836 113.168 386.836C114.633 386.839 116.037 387.421 117.073 388.454C118.108 389.488 118.692 390.888 118.695 392.349Z" fill="#DBDBDB"/>
<path d="M113.168 398.473C111.959 398.473 110.777 398.115 109.771 397.445C108.766 396.775 107.982 395.822 107.52 394.708C107.057 393.593 106.936 392.367 107.172 391.184C107.408 390.001 107.99 388.914 108.845 388.061C109.7 387.208 110.789 386.627 111.975 386.392C113.161 386.157 114.391 386.278 115.508 386.739C116.625 387.201 117.58 387.982 118.252 388.985C118.923 389.988 119.282 391.168 119.282 392.374C119.282 393.991 118.638 395.543 117.491 396.686C116.345 397.83 114.79 398.473 113.168 398.473ZM113.168 387.495C112.201 387.495 111.255 387.781 110.451 388.317C109.646 388.853 109.019 389.615 108.649 390.507C108.279 391.398 108.182 392.379 108.371 393.326C108.56 394.272 109.026 395.141 109.71 395.824C110.394 396.506 111.265 396.971 112.214 397.159C113.163 397.347 114.146 397.251 115.04 396.881C115.934 396.512 116.697 395.887 117.235 395.084C117.772 394.282 118.059 393.339 118.059 392.374C118.066 391.729 117.944 391.089 117.701 390.492C117.458 389.894 117.099 389.35 116.644 388.892C116.189 388.434 115.648 388.07 115.051 387.822C114.455 387.574 113.815 387.446 113.168 387.446V387.495Z" fill="white"/>
<path d="M177.303 386.531C177.303 387.622 176.978 388.688 176.371 389.595C175.763 390.502 174.899 391.209 173.888 391.626C172.878 392.043 171.766 392.151 170.693 391.937C169.621 391.724 168.636 391.197 167.863 390.425C167.091 389.653 166.566 388.669 166.354 387.599C166.142 386.529 166.253 385.42 166.673 384.413C167.093 383.405 167.804 382.545 168.714 381.941C169.625 381.336 170.695 381.015 171.788 381.018C172.513 381.018 173.232 381.16 173.901 381.437C174.571 381.715 175.18 382.121 175.692 382.633C176.204 383.145 176.61 383.753 176.887 384.422C177.163 385.091 177.305 385.807 177.303 386.531Z" fill="#DBDBDB"/>
<path d="M171.739 392.654C170.53 392.654 169.348 392.297 168.342 391.626C167.337 390.956 166.553 390.004 166.09 388.889C165.628 387.775 165.507 386.549 165.742 385.366C165.978 384.182 166.561 383.096 167.416 382.243C168.271 381.39 169.36 380.809 170.546 380.574C171.732 380.338 172.961 380.459 174.079 380.921C175.196 381.382 176.151 382.164 176.822 383.167C177.494 384.17 177.853 385.349 177.853 386.555C177.853 388.173 177.209 389.724 176.062 390.868C174.915 392.012 173.36 392.654 171.739 392.654ZM171.739 381.676C170.772 381.676 169.826 381.962 169.022 382.499C168.217 383.035 167.59 383.797 167.22 384.688C166.85 385.58 166.753 386.561 166.942 387.507C167.13 388.454 167.596 389.323 168.28 390.005C168.964 390.688 169.836 391.152 170.785 391.341C171.733 391.529 172.717 391.432 173.611 391.063C174.504 390.694 175.268 390.068 175.806 389.266C176.343 388.464 176.63 387.52 176.63 386.555C176.636 385.911 176.515 385.271 176.272 384.673C176.029 384.076 175.67 383.532 175.215 383.074C174.76 382.616 174.219 382.252 173.622 382.004C173.025 381.755 172.385 381.627 171.739 381.628V381.676Z" fill="white"/>
<path d="M223.475 406.755C226.527 406.755 229.002 404.286 229.002 401.241C229.002 398.196 226.527 395.728 223.475 395.728C220.422 395.728 217.948 398.196 217.948 401.241C217.948 404.286 220.422 406.755 223.475 406.755Z" fill="#DBDBDB"/>
<path d="M223.487 407.365C222.278 407.365 221.096 407.007 220.09 406.337C219.085 405.667 218.301 404.714 217.838 403.6C217.376 402.485 217.255 401.259 217.491 400.076C217.726 398.893 218.309 397.806 219.164 396.953C220.019 396.1 221.108 395.52 222.294 395.284C223.48 395.049 224.709 395.17 225.827 395.631C226.944 396.093 227.899 396.875 228.57 397.877C229.242 398.88 229.601 400.06 229.601 401.266C229.601 402.883 228.957 404.435 227.81 405.578C226.664 406.722 225.108 407.365 223.487 407.365ZM223.487 396.387C222.52 396.387 221.574 396.673 220.77 397.209C219.965 397.745 219.338 398.507 218.968 399.399C218.598 400.29 218.501 401.271 218.69 402.218C218.879 403.164 219.344 404.034 220.028 404.716C220.712 405.398 221.584 405.863 222.533 406.051C223.482 406.239 224.465 406.143 225.359 405.773C226.252 405.404 227.016 404.779 227.554 403.976C228.091 403.174 228.378 402.231 228.378 401.266C228.385 400.621 228.263 399.981 228.02 399.384C227.777 398.786 227.418 398.242 226.963 397.784C226.508 397.326 225.967 396.962 225.37 396.714C224.773 396.466 224.133 396.338 223.487 396.338V396.387Z" fill="white"/>
<path d="M274.599 362.477C274.599 363.568 274.275 364.634 273.668 365.54C273.061 366.447 272.197 367.154 271.187 367.571C270.177 367.988 269.066 368.097 267.994 367.885C266.922 367.672 265.937 367.147 265.164 366.376C264.391 365.605 263.865 364.622 263.652 363.553C263.438 362.483 263.548 361.375 263.966 360.367C264.384 359.36 265.093 358.499 266.002 357.893C266.911 357.287 267.979 356.964 269.072 356.964C270.538 356.964 271.944 357.545 272.98 358.579C274.017 359.613 274.599 361.015 274.599 362.477Z" fill="#DBDBDB"/>
<path d="M269.072 368.601C267.863 368.601 266.681 368.243 265.676 367.573C264.67 366.903 263.887 365.95 263.424 364.836C262.961 363.721 262.84 362.495 263.076 361.312C263.312 360.129 263.894 359.042 264.749 358.189C265.604 357.336 266.694 356.755 267.88 356.52C269.066 356.285 270.295 356.405 271.412 356.867C272.529 357.329 273.484 358.11 274.156 359.113C274.828 360.116 275.186 361.295 275.186 362.502C275.186 364.119 274.542 365.67 273.396 366.814C272.249 367.958 270.694 368.601 269.072 368.601ZM269.072 357.623C268.105 357.623 267.159 357.909 266.355 358.445C265.551 358.981 264.924 359.743 264.554 360.635C264.183 361.526 264.087 362.507 264.275 363.454C264.464 364.4 264.93 365.269 265.614 365.952C266.298 366.634 267.169 367.099 268.118 367.287C269.067 367.475 270.05 367.379 270.944 367.009C271.838 366.64 272.602 366.015 273.139 365.212C273.677 364.41 273.963 363.467 273.963 362.502C273.97 361.857 273.848 361.217 273.605 360.62C273.362 360.022 273.003 359.478 272.548 359.02C272.094 358.562 271.552 358.198 270.955 357.95C270.359 357.702 269.719 357.574 269.072 357.574V357.623Z" fill="white"/>
<path d="M338.11 352.28C338.105 353.37 337.777 354.434 337.166 355.338C336.555 356.241 335.689 356.944 334.678 357.357C333.667 357.77 332.556 357.875 331.485 357.659C330.415 357.443 329.432 356.914 328.662 356.141C327.892 355.368 327.369 354.384 327.159 353.315C326.949 352.245 327.062 351.137 327.483 350.132C327.904 349.126 328.614 348.267 329.524 347.664C330.434 347.06 331.503 346.74 332.595 346.742C333.322 346.744 334.042 346.888 334.712 347.168C335.383 347.447 335.992 347.856 336.504 348.37C337.016 348.884 337.422 349.494 337.697 350.165C337.973 350.836 338.113 351.555 338.11 352.28Z" fill="#DBDBDB"/>
<path d="M332.595 358.403C331.386 358.403 330.204 358.046 329.199 357.375C328.193 356.705 327.41 355.753 326.947 354.638C326.484 353.524 326.363 352.298 326.599 351.115C326.835 349.932 327.417 348.845 328.272 347.992C329.127 347.139 330.217 346.558 331.403 346.323C332.589 346.087 333.818 346.208 334.935 346.67C336.052 347.131 337.007 347.913 337.679 348.916C338.351 349.919 338.709 351.098 338.709 352.304C338.709 353.922 338.065 355.473 336.919 356.617C335.772 357.761 334.217 358.403 332.595 358.403ZM332.595 347.425C331.628 347.425 330.682 347.712 329.878 348.248C329.074 348.784 328.447 349.546 328.077 350.437C327.706 351.329 327.61 352.31 327.798 353.256C327.987 354.203 328.453 355.072 329.137 355.754C329.821 356.437 330.692 356.901 331.641 357.09C332.59 357.278 333.573 357.181 334.467 356.812C335.361 356.443 336.125 355.817 336.662 355.015C337.2 354.213 337.486 353.269 337.486 352.304C337.491 351.661 337.368 351.022 337.125 350.426C336.881 349.83 336.522 349.288 336.067 348.831C335.612 348.374 335.071 348.011 334.476 347.764C333.88 347.516 333.241 347.389 332.595 347.389V347.425Z" fill="white"/>
<path d="M385.627 321.029C385.627 322.12 385.303 323.187 384.695 324.094C384.087 325.001 383.223 325.707 382.212 326.124C381.202 326.541 380.09 326.65 379.017 326.436C377.945 326.222 376.96 325.696 376.188 324.924C375.415 324.151 374.89 323.168 374.678 322.098C374.466 321.027 374.577 319.918 374.997 318.911C375.418 317.904 376.128 317.044 377.038 316.439C377.949 315.835 379.019 315.514 380.112 315.516C380.838 315.516 381.556 315.659 382.226 315.936C382.896 316.213 383.504 316.62 384.016 317.132C384.528 317.644 384.934 318.252 385.211 318.921C385.487 319.589 385.629 320.306 385.627 321.029Z" fill="#DBDBDB"/>
<path d="M380.112 327.153C378.903 327.153 377.721 326.795 376.716 326.125C375.71 325.455 374.927 324.502 374.464 323.388C374.001 322.273 373.88 321.047 374.116 319.864C374.352 318.681 374.934 317.594 375.789 316.741C376.644 315.888 377.734 315.308 378.92 315.072C380.106 314.837 381.335 314.958 382.452 315.419C383.569 315.881 384.524 316.663 385.196 317.666C385.868 318.669 386.226 319.848 386.226 321.054C386.226 322.671 385.582 324.223 384.436 325.366C383.289 326.51 381.734 327.153 380.112 327.153ZM380.112 316.175C379.145 316.175 378.199 316.461 377.395 316.997C376.591 317.533 375.964 318.295 375.594 319.187C375.223 320.078 375.127 321.059 375.315 322.006C375.504 322.952 375.97 323.822 376.654 324.504C377.338 325.186 378.209 325.651 379.158 325.839C380.107 326.027 381.09 325.931 381.984 325.562C382.878 325.192 383.642 324.567 384.179 323.765C384.717 322.962 385.004 322.019 385.004 321.054C385.01 320.409 384.888 319.769 384.645 319.172C384.402 318.574 384.043 318.031 383.588 317.572C383.134 317.114 382.592 316.75 381.996 316.502C381.399 316.254 380.759 316.126 380.112 316.126V316.175Z" fill="white"/>
<path d="M407.809 270.934C407.809 272.025 407.485 273.091 406.877 273.997C406.27 274.904 405.407 275.611 404.397 276.028C403.387 276.445 402.276 276.554 401.204 276.342C400.131 276.129 399.147 275.604 398.374 274.833C397.601 274.062 397.074 273.079 396.861 272.01C396.648 270.94 396.757 269.832 397.176 268.824C397.594 267.817 398.302 266.956 399.211 266.35C400.12 265.744 401.189 265.421 402.282 265.421C403.008 265.419 403.728 265.561 404.399 265.837C405.07 266.114 405.68 266.52 406.194 267.032C406.707 267.544 407.114 268.153 407.391 268.822C407.669 269.492 407.81 270.21 407.809 270.934Z" fill="#DBDBDB"/>
<path d="M402.294 277.045C401.085 277.045 399.903 276.687 398.897 276.017C397.892 275.347 397.108 274.394 396.646 273.28C396.183 272.165 396.062 270.939 396.298 269.756C396.534 268.573 397.116 267.486 397.971 266.633C398.826 265.781 399.915 265.2 401.101 264.964C402.287 264.729 403.517 264.85 404.634 265.311C405.751 265.773 406.706 266.555 407.378 267.558C408.049 268.561 408.408 269.74 408.408 270.946C408.408 272.563 407.764 274.115 406.617 275.258C405.471 276.402 403.916 277.045 402.294 277.045ZM402.294 266.067C401.327 266.067 400.381 266.353 399.577 266.889C398.772 267.425 398.145 268.187 397.775 269.079C397.405 269.97 397.308 270.951 397.497 271.898C397.686 272.844 398.151 273.714 398.836 274.396C399.52 275.078 400.391 275.543 401.34 275.731C402.289 275.92 403.272 275.823 404.166 275.454C405.06 275.084 405.823 274.459 406.361 273.657C406.898 272.854 407.185 271.911 407.185 270.946C407.19 270.302 407.067 269.664 406.823 269.068C406.58 268.471 406.22 267.929 405.766 267.472C405.311 267.015 404.77 266.653 404.174 266.405C403.579 266.158 402.939 266.03 402.294 266.03V266.067Z" fill="white"/>
<path d="M175.848 531.988C270.616 531.988 347.44 525.102 347.44 516.607C347.44 508.112 270.616 501.226 175.848 501.226C81.0799 501.226 4.25537 508.112 4.25537 516.607C4.25537 525.102 81.0799 531.988 175.848 531.988Z" fill="#EBEBEB"/>
<path d="M343.38 336.033H287.316V492.919H343.38V336.033Z" fill="#FF0035"/>
<g opacity="0.1">
<path opacity="0.1" d="M343.38 336.033H330.541V492.919H343.38V336.033Z" fill="black"/>
</g>
<path d="M417.236 276.74H361.172V492.919H417.236V276.74Z" fill="#FF0035"/>
<g opacity="0.1">
<path opacity="0.1" d="M417.236 276.74H404.397V492.919H417.236V276.74Z" fill="black"/>
</g>
<path d="M269.671 371.369H213.607V492.919H269.671V371.369Z" fill="#FF0035"/>
<g opacity="0.1">
<path opacity="0.1" d="M269.671 371.369H256.832V492.919H269.671V371.369Z" fill="black"/>
</g>
<path d="M491.092 197.785H435.027V492.919H491.092V197.785Z" fill="#FF0035"/>
<g opacity="0.1">
<path opacity="0.1" d="M491.092 197.785H478.253V492.919H491.092V197.785Z" fill="black"/>
</g>
<path d="M193.761 445.799V415.549C193.761 415.549 397.965 398.216 480.454 172.56L488.659 174.67C488.659 174.67 433.866 405.961 193.761 445.799Z" fill="#37474F"/>
<path d="M496.313 182.257L470.513 173.731L491.887 152.482L496.313 182.257Z" fill="#37474F"/>
<path d="M0 492.919L64.5015 492.626L129.003 492.516L258.006 492.321L386.997 492.516L451.498 492.626L516 492.919L451.498 493.224L386.997 493.334L258.006 493.529L129.003 493.322L64.5015 493.224L0 492.919Z" fill="#263238"/>
<path d="M314.755 75.9546C318.424 96.6906 306.196 119.232 279.49 127.587C255.218 135.186 227.755 122.586 221.714 106.632C215.319 89.7257 226.214 73.5151 239.872 72.1123C253.029 70.7096 263.496 77.9428 273.23 74.0152C277.889 72.1245 283.11 65.4768 289.872 62.3542C297.416 58.8779 312.42 62.6592 314.755 75.9546Z" fill="#263238"/>
<path d="M231.655 120.83C238.508 126.171 246.614 129.681 255.206 131.027C263.802 132.345 272.587 131.677 280.884 129.075C289.266 126.609 296.83 121.941 302.784 115.561C308.612 109.108 312.576 101.2 314.254 92.6777C312.227 101.01 308.102 108.689 302.271 114.987C299.327 118.073 295.979 120.748 292.317 122.94C288.649 125.111 284.727 126.823 280.64 128.039C276.553 129.281 272.349 130.099 268.094 130.478C259.543 131.231 250.933 129.978 242.954 126.819C238.941 125.324 235.143 123.31 231.655 120.83Z" fill="#263238"/>
<path d="M236.216 71.7463C238.76 70.9525 241.414 70.5655 244.079 70.5997C246.723 70.6068 249.358 70.922 251.929 71.5389C254.521 72.1732 257.138 72.7587 259.779 73.2222C262.442 73.7283 265.154 73.9247 267.862 73.8077C269.229 73.7363 270.588 73.5444 271.921 73.2344C273.25 72.8586 274.524 72.3133 275.712 71.6121C277.987 70.1865 280.172 68.6223 282.254 66.9282C284.331 65.2946 286.607 63.9298 289.028 62.8664C291.484 61.8387 294.107 61.2643 296.768 61.1709C294.073 61.0635 291.382 61.4777 288.845 62.3907C286.337 63.3838 283.966 64.6913 281.789 66.2817C279.588 67.8064 277.51 69.4897 275.235 70.7827C274.119 71.4451 272.918 71.9539 271.665 72.2952C270.395 72.5809 269.101 72.7483 267.801 72.7953C262.555 73.1246 257.321 71.7951 252.1 70.7827C249.458 70.2429 246.762 70.0177 244.067 70.1118C241.376 70.2118 238.722 70.7644 236.216 71.7463Z" fill="#263238"/>
<path d="M47.3217 114.438C49.9018 108.473 129.933 105.546 197.968 104.68H198.09C228.794 104.302 258.288 101.484 276.874 102.448C288.686 103.07 295.008 107.327 296.438 109.01C300.999 114.475 309.351 132.003 277.901 154.141C254.106 170.889 226.801 185.855 206.515 211.47C186.229 237.085 174.845 269.372 176.288 291.377C177.731 313.381 193.749 334.386 192.184 332.105C191.695 331.397 185.74 331.751 177.425 326.945C167.215 321.042 155.354 308.551 147.333 304.88C130.935 297.39 108.766 298.659 91.4518 281.143C73.0979 262.749 68.6347 230.242 59.9163 204.505C49.3515 173.243 25.006 165.949 47.3217 114.438Z" fill="#FF0035"/>
<g opacity="0.2">
<path opacity="0.2" d="M47.3217 114.438C49.9018 108.473 129.933 105.546 197.968 104.68H198.09C228.794 104.302 258.288 101.484 276.874 102.448C288.686 103.07 295.008 107.327 296.438 109.01C300.999 114.475 309.351 132.003 277.901 154.141C254.106 170.889 226.801 185.855 206.515 211.47C186.229 237.085 174.845 269.372 176.288 291.377C177.731 313.381 193.749 334.386 192.184 332.105C191.695 331.397 185.74 331.751 177.425 326.945C167.215 321.042 155.354 308.551 147.333 304.88C130.935 297.39 108.766 298.659 91.4518 281.143C73.0979 262.749 68.6347 230.242 59.9163 204.505C49.3515 173.243 25.006 165.949 47.3217 114.438Z" fill="black"/>
</g>
<path opacity="0.1" d="M63.5847 216.154C62.4231 212.178 61.2492 208.262 59.9164 204.506C57.3277 197.262 53.9791 190.311 49.9263 183.77C49.9263 183.77 121.667 165.961 142.588 174.633C154.07 179.366 120.456 182.355 63.5847 216.154Z" fill="black"/>
<path opacity="0.1" d="M159.927 313.882C155.244 310.039 150.83 306.563 147.222 304.941C143.01 303.118 138.649 301.657 134.188 300.574C138.797 270.848 143.97 250.32 156.87 236.707C165.075 227.974 144.361 278.094 159.927 313.882Z" fill="black"/>
<path opacity="0.1" d="M69.7963 238.354C68.7324 234.768 67.7175 231.145 66.7026 227.523C89.8498 218.204 109.5 204.737 109.659 207.884C109.903 211.349 84.9709 228.425 69.7963 238.354Z" fill="black"/>
<path d="M26.033 179.634C26.033 179.634 19.4178 150.36 39.5814 114.987C41.5378 111.547 75.6778 97.0075 98.4948 95.0925C121.312 93.1775 138.663 99.9715 165.748 103.887C192.832 107.802 264.927 99.1055 282.364 102.814C294.347 105.363 296.279 109.071 296.279 109.071C296.279 109.071 282.278 104.655 273.866 104.79C240.569 105.326 181.46 122.927 165.955 122.696C147.027 122.415 125.946 120.708 110.588 124.391C93.4203 128.404 36.0842 168.839 26.033 179.634Z" fill="#FF0035"/>
<path d="M213.399 399.997C211.577 397.984 182.108 330.47 182.634 327.165C182.805 325.945 245.962 306.563 245.962 306.563L263.276 350.401L223.328 359.013C223.328 359.013 223.01 389.897 222.105 393.447C221.2 396.996 215.209 402.01 213.399 399.997Z" fill="#EB9481"/>
<path d="M213.399 399.997C212.604 399.107 206.466 385.579 199.875 370.406C199.447 369.405 199.007 368.393 198.579 367.381C197.442 364.795 196.329 362.172 195.216 359.574C194.788 358.562 194.373 357.549 193.994 356.549C193.578 355.549 193.15 354.536 192.771 353.561C192.123 352.048 191.548 350.56 190.912 349.108C190.521 348.157 190.142 347.218 189.763 346.315L188.675 343.632C188.137 342.314 187.635 341.058 187.158 339.85C186.828 339.045 186.51 338.24 186.217 337.472C185.63 335.984 185.104 334.618 184.664 333.398C184.419 332.788 184.211 332.178 184.028 331.678C183.551 330.336 183.196 329.239 183.001 328.507C182.863 328.115 182.792 327.702 182.793 327.287C182.793 326.848 190.24 323.835 199.912 320.042C201.281 327.214 204.179 340.155 209.694 359.501C218.694 391.3 222.79 378.822 223.255 372.528C223.255 372.467 223.255 372.406 223.255 372.345C223.255 372.723 223.255 373.113 223.255 373.492V373.577C223.255 374.272 223.255 374.98 223.194 375.675C223.132 376.37 223.194 377.212 223.194 377.98C223.194 379.2 223.132 380.517 223.071 381.749C223.01 382.981 222.998 384.189 222.937 385.274C222.937 385.945 222.937 386.592 222.851 387.202C222.851 387.519 222.851 387.812 222.851 388.117C222.851 388.422 222.851 388.909 222.778 389.336C222.778 390.166 222.68 390.91 222.607 391.544C222.619 391.69 222.619 391.837 222.607 391.983C222.557 392.495 222.48 393.004 222.374 393.508C221.115 396.972 215.209 401.997 213.399 399.997Z" fill="#263238"/>
<path d="M237.048 362.77L219.843 311.893C219.843 311.893 285.091 286.681 286.203 282.399C286.644 280.728 243.908 218.362 235.959 194.284C230.677 178.256 243.736 160.545 243.736 160.545L290.777 173.133C290.777 173.133 288.331 186.55 289.908 189.222C304.79 213.849 346.474 281.838 342.561 305.465C338.82 328.079 237.048 362.77 237.048 362.77Z" fill="#263238"/>
<path d="M247.233 356.195C245.375 350.292 237.451 326.421 235.214 320.517C234.578 318.81 233.991 317.102 233.282 315.419C232.683 313.71 231.989 312.037 231.203 310.405C231.192 310.385 231.174 310.369 231.153 310.36C231.131 310.351 231.107 310.35 231.085 310.358C231.063 310.365 231.044 310.38 231.032 310.4C231.02 310.42 231.016 310.444 231.019 310.466C231.371 312.038 231.808 313.589 232.328 315.114C232.78 316.663 233.269 318.2 233.758 319.737C234.712 322.774 235.703 325.835 236.693 328.824C238.65 334.728 245.106 353.219 246.732 356.378C246.867 356.635 247.331 356.5 247.233 356.195Z" fill="#37474F"/>
<path d="M293.467 283.705C287.842 276.935 247.82 206.859 245.778 202.761C243.663 199.029 242.051 195.034 240.985 190.881C239.053 181.745 241.939 172.23 245.876 164.046C245.892 163.997 245.89 163.945 245.871 163.897C245.852 163.85 245.817 163.81 245.773 163.786C245.728 163.761 245.676 163.753 245.625 163.763C245.575 163.772 245.53 163.799 245.497 163.838C241.56 170.962 238.809 179.061 239.383 187.282C239.733 191.47 240.882 195.552 242.77 199.309C244.702 203.42 246.842 207.445 248.884 211.507C253.115 219.874 289.432 280.118 292.427 283.936C285.421 287.693 278.402 291.438 271.273 294.914C263.937 298.574 256.453 301.977 248.958 305.331C244.727 307.218 240.472 309.063 236.192 310.869C236.008 310.942 236.094 311.235 236.277 311.161C251.648 305.411 266.644 298.71 281.178 291.096C285.286 288.95 289.395 286.766 293.406 284.449C293.462 284.406 293.509 284.352 293.543 284.291C293.577 284.229 293.598 284.161 293.603 284.09C293.609 284.02 293.6 283.949 293.576 283.883C293.553 283.816 293.515 283.756 293.467 283.705Z" fill="#37474F"/>
<path d="M279.882 271.678C267.776 252.442 241.975 212.458 235.959 194.284C230.677 178.256 243.736 160.545 243.736 160.545L261.846 165.424L279.882 271.678Z" fill="#37474F"/>
<path d="M163.853 445.287C161.297 444.336 103.936 397.936 102.909 394.777C102.481 393.557 108.779 384.86 116.678 374.528L116.935 374.211C118.561 372.077 149.95 338.57 149.95 338.57L186.853 369.747L154.254 403.742L153.728 404.352C153.728 404.352 167.704 431.906 168.499 435.492C169.294 439.078 166.298 446.238 163.853 445.287Z" fill="#EB9481"/>
<path d="M112.716 379.676C106.748 387.641 102.493 393.788 102.848 394.789C103.936 397.972 161.235 444.323 163.852 445.287C166.469 446.251 169.306 439.066 168.511 435.529C168.034 433.345 162.654 422.258 158.521 413.927C161.138 419.794 163.155 431.687 140.179 408.853C125.86 394.728 117.387 385.201 112.716 379.676Z" fill="#263238"/>
<path d="M290.776 173.133C290.776 173.133 279.845 198.455 270.931 204.188C270.931 204.188 238.503 283.704 228.207 304.599C214.622 332.19 167.52 395.703 167.52 395.703L122.645 361.684C122.645 361.684 181.692 288.742 182.451 286.912C186.743 276.508 220.699 199.894 220.577 197.87C219.354 177.134 234.027 157.959 234.027 157.959L290.776 173.133Z" fill="#263238"/>
<path d="M270.687 204.237C270.234 204.802 269.894 205.448 269.684 206.14C269.403 206.774 269.134 207.36 268.865 208.055C268.327 209.275 267.776 210.616 267.251 211.909C266.162 214.581 265.05 217.24 263.937 219.911C262.824 222.582 261.711 225.254 260.648 227.937C259.584 230.621 258.532 233.17 257.701 235.853C257.701 235.951 257.823 236.012 257.872 235.853C259.315 233.414 260.538 230.742 261.736 228.132C262.934 225.522 264.096 222.863 265.196 220.204C266.297 217.545 267.385 214.849 268.449 212.166C268.95 210.946 269.415 209.653 269.892 208.396C270.136 207.75 270.369 207.091 270.601 206.433C270.924 205.785 271.115 205.08 271.164 204.359C271.151 204.31 271.125 204.266 271.09 204.231C271.054 204.195 271.01 204.17 270.961 204.158C270.912 204.145 270.861 204.146 270.813 204.16C270.765 204.174 270.721 204.201 270.687 204.237Z" fill="#37474F"/>
<path d="M290.312 176.915C286.705 182.818 283.257 188.807 279.307 194.504C278.475 195.723 277.607 197.431 276.274 198.163C276.004 198.322 275.696 198.405 275.382 198.405C275.068 198.405 274.76 198.322 274.489 198.163C273.731 197.638 274.11 196.589 274.428 195.931C275.186 194.357 276.14 192.857 276.984 191.32C277.827 189.783 278.757 188.063 279.649 186.441C281.63 182.782 283.391 179.122 285.384 175.463C285.445 175.353 285.286 175.256 285.225 175.366C283.159 178.927 280.884 182.367 278.806 185.929L275.602 191.381L274.11 193.991C273.625 194.727 273.239 195.522 272.961 196.358C272.846 196.665 272.796 196.993 272.816 197.321C272.835 197.649 272.923 197.969 273.074 198.261C273.225 198.552 273.435 198.809 273.692 199.015C273.948 199.221 274.245 199.371 274.563 199.456C275.236 199.571 275.928 199.496 276.561 199.239C277.194 198.983 277.743 198.555 278.145 198.004C279.269 196.591 280.302 195.108 281.239 193.564C282.303 191.942 283.354 190.308 284.345 188.685C286.636 184.918 288.654 180.993 290.385 176.939C290.422 176.902 290.349 176.854 290.312 176.915Z" fill="#37474F"/>
<path d="M274.294 198.712C273.401 199.456 270.002 203.908 269.794 204.152C269.586 204.396 270.283 204.701 270.381 204.603C271.956 202.779 273.406 200.852 274.722 198.834C274.746 198.76 274.367 198.638 274.294 198.712Z" fill="#37474F"/>
<path d="M277.962 202.627C274.909 202.849 271.882 203.334 268.913 204.079C267.434 204.396 265.966 204.725 264.499 205.103C262.925 205.424 261.377 205.856 259.865 206.396C259.846 206.403 259.83 206.416 259.818 206.432C259.807 206.448 259.801 206.468 259.801 206.488C259.801 206.508 259.807 206.527 259.818 206.544C259.83 206.56 259.846 206.572 259.865 206.579C261.458 206.489 263.043 206.289 264.609 205.982C266.052 205.774 267.483 205.53 268.913 205.25C271.996 204.788 275.032 204.057 277.986 203.066C278.045 203.063 278.099 203.037 278.138 202.993C278.177 202.95 278.197 202.893 278.194 202.835C278.191 202.776 278.164 202.722 278.121 202.683C278.077 202.644 278.02 202.624 277.962 202.627Z" fill="#37474F"/>
<path d="M171.189 384.457C166.298 380.64 146.208 365.466 140.999 361.867C139.507 360.831 138.015 359.769 136.511 358.757C135.045 357.692 133.523 356.706 131.95 355.805C131.929 355.795 131.905 355.793 131.883 355.799C131.86 355.805 131.84 355.818 131.827 355.837C131.814 355.857 131.808 355.88 131.81 355.903C131.812 355.926 131.823 355.948 131.84 355.964C133.004 357.06 134.229 358.09 135.508 359.05C136.731 360.062 138.052 361.05 139.323 362.05C141.769 364.014 144.374 365.941 146.905 367.869C151.881 371.626 167.692 383.25 170.834 384.884C171.189 385.019 171.47 384.653 171.189 384.457Z" fill="#37474F"/>
<path d="M239.824 162.241C236.039 167.263 233.201 172.93 231.448 178.964C230.598 181.936 230.009 184.977 229.687 188.051C229.32 191.503 229.552 195.053 228.464 198.395C227.22 201.81 225.804 205.161 224.221 208.433L219.733 218.679L210.893 239.025L193.089 279.875C191.671 283.156 190.277 286.449 188.626 289.633C187.01 292.711 185.145 295.652 183.05 298.428C178.685 304.319 174.014 309.991 169.514 315.773C160.429 327.397 151.294 338.948 142.417 350.755L139.067 355.22C138.993 355.317 139.067 355.452 139.201 355.354C148.58 343.913 157.738 332.3 166.909 320.676C171.499 314.87 176.068 309.048 180.617 303.209C182.671 300.574 184.713 297.915 186.535 295.11C188.436 292.138 190.108 289.027 191.536 285.803C197.65 272.386 203.373 258.712 209.279 245.173C215.185 231.633 221.152 217.935 227.046 204.298C228.558 201.32 229.601 198.128 230.139 194.833C230.494 191.454 230.506 188.076 231.093 184.709C232.224 178.343 234.419 172.212 237.586 166.571C238.368 165.168 239.224 163.802 240.117 162.473C240.264 162.278 239.958 162.058 239.824 162.241Z" fill="#37474F"/>
<path d="M137.046 204.191L117.681 258.322L207.255 290.21L226.621 236.078L137.046 204.191Z" fill="#455A64"/>
<path d="M137.05 204.194L127.931 229.686L217.505 261.574L226.625 236.082L137.05 204.194Z" fill="#37474F"/>
<path d="M128.757 220.73L222.57 254.126L231.607 228.864L137.795 195.468L128.757 220.73Z" fill="#455A64"/>
<path d="M170.088 190.722L164.94 205.14L171.727 207.555L174.662 199.358L200.572 208.58L197.637 216.776L204.436 219.204L209.596 204.786L170.088 190.722Z" fill="#263238"/>
<path d="M201.419 253.393L207.534 255.57L211.85 243.507L205.734 241.33L201.419 253.393Z" fill="#263238"/>
<path d="M139.456 231.346L145.571 233.523L149.886 221.461L143.771 219.284L139.456 231.346Z" fill="#263238"/>
<path d="M288.673 122.671C304.117 147.713 323.681 170.657 332.693 170.827C344.823 171.059 370.599 158.63 383.414 150.872C387.168 148.616 368.912 119.793 364.889 122.208C359.998 125.123 335.139 140.638 334.576 140.772C333.354 141.065 305.376 122.013 298.798 117.292C287.805 109.425 281.826 111.559 288.673 122.671Z" fill="#EB9481"/>
<path d="M402.013 138.333C397.378 143.956 383.365 151.751 379.269 152.336C375.173 152.922 361.086 129.624 362.615 125.66C364.143 121.696 381.25 103.985 388.538 102.484C395.826 100.984 406.818 132.503 402.013 138.333Z" fill="#EB9481"/>
<path d="M377.838 107.046C377.276 110.864 382.106 109.339 382.106 109.339C382.106 109.339 375.686 113.218 376.64 117.377C377.594 121.537 383.341 119.329 383.757 119.183C383.414 119.39 377.643 123.11 378.988 127.184C380.333 131.258 385.872 128.404 386.227 128.172C385.97 128.465 382.632 132.442 384.393 135.308C387.425 140.187 396.229 130.295 400.912 130.209C400.912 130.209 401.976 138.101 402.049 138.333C402.049 138.333 410.609 129.051 410.156 122.757C410.103 121.841 409.736 120.97 409.118 120.291C408.499 119.612 407.666 119.165 406.757 119.024C406.757 119.024 409.851 116.328 408.86 113.084C408.347 111.425 405.192 110.754 405.192 110.754C405.859 110.109 406.335 109.293 406.568 108.396C406.801 107.499 406.782 106.555 406.513 105.668C405.669 103.399 402.673 103.094 402.673 103.094C402.673 103.094 403.957 99.8617 402.343 97.8247C399.103 93.7141 379.061 98.8737 377.838 107.046Z" fill="#EB9481"/>
<path d="M402.196 102.972C402.27 102.972 402.27 102.862 402.196 102.862C394.892 102.927 387.779 105.202 381.8 109.388C381.617 109.534 381.8 109.888 381.996 109.778C388.361 106.54 395.166 104.248 402.196 102.972Z" fill="#263238"/>
<path d="M405.278 110.693C405.351 110.693 405.339 110.547 405.278 110.547C397.221 110.702 389.486 113.731 383.476 119.085C383.268 119.28 383.28 119.659 383.476 119.451C387.755 115.987 398.626 111.791 405.278 110.693Z" fill="#263238"/>
<path d="M385.909 128.709C391.839 123.549 398.834 120.793 406.427 118.951C406.525 118.951 406.427 118.792 406.427 118.792C402.477 118.658 397.757 120.305 394.199 121.903C390.864 123.312 387.959 125.571 385.774 128.453C385.64 128.624 385.786 128.819 385.909 128.709Z" fill="#263238"/>
<path d="M382.069 109.339C380.909 110.196 379.829 111.156 378.841 112.206C377.844 113.188 377.127 114.418 376.762 115.768C376.624 116.395 376.724 117.052 377.044 117.609C377.377 118.166 377.849 118.628 378.413 118.951C378.999 119.23 379.638 119.381 380.287 119.396C380.936 119.411 381.581 119.288 382.179 119.036L385.163 117.939L382.717 120C381.636 120.909 380.71 121.989 379.978 123.196C379.609 123.733 379.358 124.343 379.242 124.984C379.126 125.625 379.148 126.284 379.306 126.916C379.459 127.504 379.81 128.022 380.299 128.384C380.788 128.746 381.387 128.929 381.996 128.904C383.35 128.821 384.661 128.401 385.811 127.685L389.039 125.77L386.594 128.624C385.916 129.417 385.344 130.294 384.894 131.234C384.434 132.102 384.243 133.087 384.344 134.064C384.412 134.501 384.599 134.911 384.883 135.251C385.167 135.59 385.539 135.846 385.958 135.991C386.948 136.161 387.965 136.046 388.892 135.662C390.912 134.849 392.866 133.882 394.737 132.771C395.691 132.247 396.669 131.71 397.66 131.222C398.626 130.677 399.697 130.345 400.802 130.246C399.729 130.452 398.707 130.866 397.794 131.466C396.853 132.015 395.936 132.625 395.019 133.222C393.191 134.49 391.246 135.58 389.21 136.479C388.115 136.986 386.896 137.164 385.701 136.991C385.072 136.816 384.507 136.465 384.074 135.978C383.64 135.491 383.356 134.89 383.255 134.247C383.095 133.035 383.304 131.802 383.855 130.71C384.338 129.656 384.954 128.668 385.689 127.77L386.508 128.709C385.169 129.605 383.617 130.131 382.008 130.234C381.128 130.255 380.267 129.98 379.563 129.453C378.889 128.897 378.396 128.154 378.144 127.319C377.942 126.516 377.914 125.68 378.062 124.866C378.209 124.052 378.529 123.279 379 122.598C379.817 121.28 380.85 120.109 382.057 119.134L382.62 120.098C381.864 120.379 381.057 120.494 380.253 120.435C379.449 120.376 378.667 120.144 377.961 119.756C377.288 119.314 376.737 118.71 376.359 118C375.986 117.273 375.891 116.437 376.09 115.646C376.554 114.225 377.4 112.96 378.536 111.986C379.609 110.974 380.795 110.086 382.069 109.339Z" fill="#263238"/>
<path d="M364.999 122.135C364.999 122.135 373.681 92.47 383.646 101.533C386.606 104.229 395.532 118.817 392.634 120.659C388.88 123.098 384.013 117.658 381.494 113.779C381.494 113.779 379.966 124.294 372.323 125.404C370.919 125.587 369.491 125.378 368.198 124.801C366.905 124.224 365.798 123.301 364.999 122.135Z" fill="#EB9481"/>
<path d="M382.73 100.837C384.016 101.757 385.161 102.858 386.129 104.106C387.12 105.334 388.035 106.621 388.868 107.961C390.56 110.64 392.016 113.46 393.221 116.389C393.539 117.17 393.745 117.991 393.833 118.829C393.882 119.311 393.823 119.799 393.661 120.256C393.488 120.764 393.142 121.196 392.683 121.476C391.875 121.97 390.917 122.161 389.981 122.013C389.121 121.862 388.294 121.565 387.535 121.134C386.14 120.284 384.899 119.204 383.867 117.938C382.826 116.731 381.878 115.446 381.03 114.096L382.033 113.864C381.811 115.055 381.479 116.223 381.042 117.353C380.616 118.478 380.075 119.557 379.428 120.573C378.772 121.581 377.973 122.489 377.056 123.269C376.144 124.036 375.094 124.624 373.962 125.001C375.011 124.494 375.966 123.813 376.787 122.988C377.592 122.159 378.279 121.223 378.829 120.207C379.388 119.205 379.846 118.151 380.199 117.06C380.547 115.975 380.797 114.86 380.944 113.73L381.103 112.328L381.947 113.547C382.813 114.83 383.765 116.052 384.796 117.207C385.769 118.344 386.922 119.317 388.208 120.085C388.754 120.467 389.389 120.704 390.052 120.772C390.716 120.84 391.386 120.738 391.998 120.476C392.94 119.976 392.561 118.292 392.072 116.914C391.545 115.466 390.945 114.045 390.274 112.657C389.602 111.254 388.929 109.851 388.183 108.485C386.774 105.669 384.934 103.089 382.73 100.837Z" fill="#263238"/>
<path d="M346.914 132.588L361.453 165.095C361.453 165.095 337.903 173.377 330.224 170.669C322.544 167.961 300.877 145.127 290.544 127.428C280.212 109.73 286.301 107.412 303.359 119.378C320.417 131.344 333.929 139.748 334.43 139.528C334.931 139.309 346.914 132.588 346.914 132.588Z" fill="#EBEBEB"/>
<path d="M342.145 137.382C342.145 137.284 341.938 137.382 341.962 137.455C345.036 147.092 348.632 156.555 352.735 165.802C352.735 165.9 352.955 165.802 352.918 165.729C349.849 156.091 346.253 146.628 342.145 137.382Z" fill="#263238"/>
<path d="M317.213 160.655C308.042 151.751 297.037 138.565 290.544 127.428C282.193 113.108 284.589 108.851 294.861 114.109L317.213 160.655Z" fill="#C7C7C7"/>
<path d="M293.088 164.521L290.642 183.562C290.642 183.562 250.682 179.586 230.09 162.033C230.09 162.033 252.1 118.036 274.416 108.595C285.592 103.863 294.115 108.449 297.135 116.658C297.906 118.732 306.489 141.98 304.399 151.311C302.589 159.533 293.088 164.521 293.088 164.521Z" fill="#EBEBEB"/>
<path d="M292.244 120.61L292.171 120.269V120.135C292.171 120.135 292.244 120.074 292.256 120.135L292.342 120.293C292.428 120.513 292.513 120.732 292.587 120.952C292.733 121.391 292.856 121.842 292.978 122.294C293.222 123.184 293.442 124.099 293.65 125.001C294.066 126.819 294.347 128.661 294.604 130.503C295.107 134.204 295.275 137.944 295.105 141.676C294.972 145.436 294.296 149.158 293.1 152.727C291.948 156.348 289.88 159.612 287.096 162.204L287.182 162.07C286.057 165.424 284.883 168.754 283.697 172.084L281.887 177.061C281.264 178.708 280.664 180.379 279.882 181.94C280.591 180.318 281.105 178.634 281.692 176.963L283.355 171.938L286.558 161.85V161.777L286.619 161.716C289.131 159.062 290.986 155.858 292.036 152.361C293.093 148.858 293.725 145.242 293.919 141.59C294.111 137.931 294.053 134.264 293.748 130.612C293.601 128.783 293.357 126.953 293.112 125.123C292.99 124.209 292.843 123.294 292.684 122.379L292.403 121.025C292.403 120.793 292.305 120.574 292.244 120.354C292.183 120.135 292.244 120.244 292.244 120.196C292.244 120.147 292.244 120.281 292.244 120.317V120.61Z" fill="#263238"/>
<path d="M303.75 137.175L303.604 136.577C303.632 135.799 303.6 135.02 303.506 134.247C303.377 133.309 303.156 132.386 302.845 131.491C302.845 131.43 302.748 131.491 302.76 131.491C303.054 132.787 303.251 134.104 303.347 135.43C302.715 132.728 301.877 130.077 300.84 127.502C300.84 127.486 300.834 127.47 300.822 127.459C300.811 127.447 300.795 127.441 300.779 127.441C300.763 127.441 300.747 127.447 300.736 127.459C300.724 127.47 300.718 127.486 300.718 127.502C301.525 130.722 302.381 133.93 303.066 137.175C303.75 140.419 304.288 143.676 304.851 146.933C304.851 147.055 305.071 147.018 305.059 146.933C304.916 143.648 304.478 140.382 303.75 137.175Z" fill="#263238"/>
<path d="M291.95 129.893C291.963 130.136 291.901 130.378 291.775 130.586C291.648 130.795 291.462 130.96 291.239 131.062C291.017 131.164 290.77 131.197 290.529 131.157C290.288 131.117 290.064 131.006 289.887 130.838C289.71 130.67 289.587 130.453 289.535 130.215C289.482 129.977 289.503 129.728 289.593 129.502C289.684 129.276 289.84 129.081 290.042 128.944C290.245 128.808 290.483 128.734 290.728 128.734C291.042 128.733 291.344 128.854 291.571 129.069C291.799 129.285 291.935 129.58 291.95 129.893Z" fill="#263238"/>
<path d="M291.058 142.2C291.706 142.2 292.232 141.676 292.232 141.029C292.232 140.382 291.706 139.858 291.058 139.858C290.409 139.858 289.884 140.382 289.884 141.029C289.884 141.676 290.409 142.2 291.058 142.2Z" fill="#263238"/>
<path d="M284.516 161.704C285.164 161.704 285.69 161.18 285.69 160.533C285.69 159.887 285.164 159.362 284.516 159.362C283.868 159.362 283.342 159.887 283.342 160.533C283.342 161.18 283.868 161.704 284.516 161.704Z" fill="#263238"/>
<path d="M281.043 171.999C281.692 171.999 282.217 171.474 282.217 170.828C282.217 170.181 281.692 169.657 281.043 169.657C280.395 169.657 279.87 170.181 279.87 170.828C279.87 171.474 280.395 171.999 281.043 171.999Z" fill="#263238"/>
<path d="M289.603 152.19C290.251 152.19 290.776 151.665 290.776 151.019C290.776 150.372 290.251 149.848 289.603 149.848C288.954 149.848 288.429 150.372 288.429 151.019C288.429 151.665 288.954 152.19 289.603 152.19Z" fill="#263238"/>
<path d="M268.742 106.449C239.677 106.558 216.896 112.718 211.614 119.317C207.248 124.757 193.725 148.591 188.014 163.107C186.412 167.181 219.012 181.757 220.173 177.219C221.983 170.193 236.827 136.174 236.986 135.625C237.304 134.406 266.492 122.464 273.951 119.768C287.634 114.633 284.149 106.351 268.742 106.449Z" fill="#EB9481"/>
<path d="M198.946 215.276C197.889 215.128 196.902 214.661 196.12 213.937C195.337 213.213 194.795 212.267 194.568 211.226C192.94 212.021 191.083 212.22 189.323 211.787C186.266 210.897 186.327 205.688 186.327 205.688C184.466 206.159 182.506 206.061 180.702 205.408C177.853 204.249 177.18 199.004 177.18 199.004C175.23 198.498 173.528 197.307 172.387 195.65C169.514 191.112 173.096 183.72 175.322 179C177.547 174.28 188.295 162.96 190.117 160.606L220.687 174.597C220.687 174.597 216.737 198.602 213.35 203.786C210.391 208.152 202.981 215.678 198.946 215.276Z" fill="#EB9481"/>
<path d="M195.156 211.239C199.325 207.335 202.113 202.407 205.17 197.65C205.231 197.541 205.072 197.431 204.999 197.541C202.015 202.31 198.115 206.433 194.948 211.068C194.925 211.095 194.914 211.131 194.918 211.166C194.921 211.202 194.938 211.234 194.966 211.257C194.994 211.279 195.029 211.29 195.065 211.287C195.1 211.283 195.133 211.266 195.156 211.239Z" fill="#263238"/>
<path d="M186.779 205.786C187.64 204.808 188.368 203.721 188.944 202.554C189.629 201.334 190.289 200.114 190.937 198.894C192.233 196.455 193.48 194.015 194.605 191.478C194.605 191.368 194.495 191.271 194.434 191.381C193.138 193.82 191.817 196.26 190.411 198.589C189.714 199.809 189.005 200.956 188.296 202.139C187.54 203.203 186.909 204.348 186.413 205.554C186.382 205.603 186.372 205.662 186.384 205.718C186.397 205.774 186.431 205.822 186.48 205.853C186.529 205.884 186.587 205.894 186.644 205.881C186.7 205.869 186.749 205.835 186.779 205.786Z" fill="#263238"/>
<path d="M177.23 198.919C177.997 198.025 178.605 197.006 179.027 195.906C179.602 194.784 180.164 193.662 180.751 192.539C181.974 190.307 183.062 188.075 184.31 185.88C184.323 185.857 184.326 185.83 184.319 185.805C184.312 185.78 184.296 185.758 184.273 185.745C184.25 185.732 184.223 185.729 184.198 185.736C184.173 185.743 184.151 185.759 184.138 185.782C182.916 188.002 181.571 190.198 180.323 192.442C179.712 193.527 179.101 194.637 178.501 195.735C177.864 196.693 177.396 197.754 177.12 198.87C177.12 198.87 177.193 198.955 177.23 198.919Z" fill="#263238"/>
<path d="M227.779 161.204L194.936 145.042C194.936 145.042 205.831 120.537 212.446 115.768C219.061 110.998 247.222 106.01 267.728 106.205C288.576 106.412 289.432 114.621 269.843 121.732C250.254 128.844 237.659 135.321 237.549 135.869C237.439 136.418 227.779 161.204 227.779 161.204Z" fill="#EBEBEB"/>
<path d="M229.601 157.423C231.032 154.007 237.72 136.065 237.94 135.918C238.405 135.625 245.901 131.991 248.126 130.905C250.009 129.99 251.917 129.112 253.824 128.234C255.438 127.892 257.065 127.551 258.642 127.014C258.661 127.007 258.677 126.995 258.688 126.978C258.7 126.962 258.706 126.942 258.706 126.922C258.706 126.903 258.7 126.883 258.688 126.867C258.677 126.85 258.661 126.838 258.642 126.831C257.52 126.981 256.408 127.205 255.316 127.502L261.589 124.635C261.589 124.635 261.589 124.55 261.589 124.562C256.857 126.209 237.463 134.796 237.427 135.089C237.39 135.382 229.479 156.618 229.43 157.045C229.344 157.276 229.564 157.52 229.601 157.423Z" fill="#263238"/>
<path d="M227.779 152.324C227.889 152.324 227.962 152.19 227.865 152.141C218.945 147.333 209.769 143.017 200.376 139.211C200.266 139.211 200.193 139.333 200.291 139.394C209.214 144.195 218.39 148.511 227.779 152.324Z" fill="#263238"/>
<path d="M284.137 108.339C284.137 109.559 287.805 118.598 293.21 119.708C294.983 120.061 297.367 110.523 297.367 110.523L297.71 109.864L302.429 100.557L292.708 90.1894L291.278 88.7866C291.278 88.7866 290.165 91.4091 288.832 94.7025C288.771 94.8489 288.698 94.9952 288.637 95.166C288.575 95.3368 288.478 95.5197 288.404 95.7027C288.196 96.1906 287.976 96.6785 287.781 97.1908C287.585 97.7031 287.475 97.9349 287.328 98.4106L286.864 99.6303C285.765 102.471 284.854 105.38 284.137 108.339Z" fill="#EB9481"/>
<path d="M288.796 94.7025C289.089 97.7237 290.039 100.645 291.578 103.263C293.117 105.881 295.21 108.134 297.71 109.864L302.43 100.557L292.709 90.1894L291.278 88.7866C291.278 88.7866 290.165 91.4091 288.796 94.7025Z" fill="#263238"/>
<path d="M319.072 82.2975C322.74 100.216 312.395 104.436 308.531 105.217C305.01 105.936 292.941 107.925 287.426 90.4699C281.911 73.0151 289.113 65.6599 297.074 63.6351C305.034 61.6103 315.403 64.3791 319.072 82.2975Z" fill="#EB9481"/>
<path d="M313.031 92.2872C312.683 93.1235 312.127 93.8579 311.417 94.4218C311.014 94.7128 310.532 94.8745 310.035 94.8853C308.959 94.8853 308.678 93.9705 308.654 93.1289C308.643 92.6825 308.684 92.2363 308.776 91.7993C310.106 92.4092 311.597 92.5801 313.031 92.2872Z" fill="#263238"/>
<path d="M311.43 94.4217C311.027 94.7128 310.545 94.8745 310.048 94.8853C308.972 94.8853 308.69 93.9704 308.666 93.1288C309.205 92.9998 309.773 93.0575 310.275 93.2924C310.777 93.5273 311.184 93.9256 311.43 94.4217Z" fill="#FF9BBC"/>
<path d="M314.755 77.9181C314.348 77.9407 313.94 77.9407 313.532 77.9181C313.088 77.9774 312.636 77.8873 312.248 77.6619C312.137 77.5695 312.06 77.4416 312.031 77.2996C312.002 77.1575 312.023 77.0099 312.089 76.8813C312.251 76.6448 312.474 76.4564 312.735 76.3361C312.995 76.2158 313.284 76.1682 313.569 76.1982C314.161 76.1692 314.743 76.3556 315.208 76.7227C315.301 76.8191 315.364 76.9398 315.391 77.0708C315.418 77.2018 315.407 77.3378 315.36 77.4629C315.312 77.588 315.231 77.6972 315.124 77.7778C315.016 77.8583 314.889 77.907 314.755 77.9181Z" fill="#263238"/>
<path d="M303.249 81.9801C303.66 81.9609 304.068 81.912 304.472 81.8337C304.911 81.8372 305.339 81.7004 305.695 81.4434C305.792 81.3373 305.852 81.2024 305.865 81.0592C305.878 80.9161 305.844 80.7725 305.768 80.6505C305.578 80.4347 305.335 80.2726 305.062 80.1806C304.789 80.0885 304.497 80.0697 304.215 80.126C303.625 80.1652 303.069 80.4166 302.65 80.8335C302.559 80.9389 302.501 81.0693 302.485 81.2077C302.468 81.3462 302.494 81.4863 302.559 81.6099C302.624 81.7335 302.724 81.8349 302.847 81.9009C302.97 81.9669 303.11 81.9945 303.249 81.9801Z" fill="#263238"/>
<path d="M306.685 85.4565C306.685 85.4565 306.612 85.5419 306.624 85.5907C306.942 86.8105 307.101 88.2254 306.086 88.8841C306.086 88.8841 306.086 88.9573 306.086 88.9451C307.419 88.445 307.186 86.5543 306.685 85.4565Z" fill="#263238"/>
<path d="M305.316 84.4932C303.323 84.7859 304.093 88.738 305.915 88.4574C307.737 88.1769 306.979 84.1882 305.316 84.4932Z" fill="#263238"/>
<path d="M304.57 84.7975C304.264 85.0781 304.007 85.5416 303.592 85.6636C303.176 85.7855 302.674 85.4562 302.283 85.1147C302.405 85.8709 302.846 86.5906 303.689 86.554C304.533 86.5174 304.851 85.749 304.912 84.9439C304.851 84.8585 304.692 84.6756 304.57 84.7975Z" fill="#263238"/>
<path d="M313.349 83.7607C313.349 83.7607 313.459 83.7607 313.459 83.8461C313.642 85.0659 314.07 86.4686 315.244 86.676C313.862 86.7979 313.324 84.9561 313.349 83.7607Z" fill="#263238"/>
<path d="M314.254 82.2852C316.198 81.7729 317.066 85.7006 315.269 86.1641C313.471 86.6276 312.579 82.7 314.254 82.2852Z" fill="#263238"/>
<path d="M315.098 82.3584C315.452 82.4926 315.843 82.8097 316.222 82.7487C316.602 82.6877 316.883 82.1876 317.066 81.7241C317.066 81.7241 317.066 81.7241 317.14 81.7241C317.323 82.4682 317.25 83.3098 316.553 83.6148C315.856 83.9197 315.33 83.3464 314.951 82.639C314.89 82.5414 314.951 82.2974 315.098 82.3584Z" fill="#263238"/>
<path d="M308.226 95.4708C308.568 95.7147 308.923 96.0685 309.375 96.0441C309.833 95.9669 310.27 95.7967 310.659 95.544C310.659 95.544 310.732 95.544 310.72 95.544C310.574 95.8091 310.36 96.0311 310.1 96.1874C309.841 96.3438 309.544 96.429 309.241 96.4344C308.983 96.3985 308.741 96.2881 308.546 96.1168C308.35 95.9456 308.209 95.721 308.14 95.4708C308.153 95.4618 308.168 95.457 308.183 95.457C308.198 95.457 308.213 95.4618 308.226 95.4708Z" fill="#263238"/>
<path d="M312.799 89.6769C312.799 89.6769 313.423 91.4455 313.594 92.3116C313.594 92.3969 313.41 92.4701 313.117 92.5433C312.403 92.8263 311.625 92.9076 310.868 92.7785C310.111 92.6494 309.404 92.3148 308.825 91.8114C308.805 91.7985 308.792 91.7784 308.787 91.7555C308.783 91.7326 308.787 91.7089 308.8 91.6895C308.813 91.6701 308.834 91.6566 308.857 91.652C308.879 91.6474 308.903 91.6521 308.923 91.6651C310.173 92.1999 311.565 92.3113 312.885 91.9822C312.885 91.7383 311.723 88.9816 311.857 88.945C312.535 88.8549 313.222 88.8549 313.899 88.945C312.677 85.2857 310.94 81.7118 309.815 77.9671C309.815 77.833 309.974 77.7476 310.035 77.8574C312.047 81.5654 313.686 85.4633 314.927 89.4939C315.086 90.0428 313.178 89.75 312.799 89.6769Z" fill="#263238"/>
<path d="M289.028 92.6775C292.06 92.1164 291.082 85.7492 291.082 85.7492C291.082 85.7492 297.111 84.1635 296.805 75.0031C297.316 77.6367 297.048 80.3617 296.034 82.8462C296.034 82.8462 306.355 78.9186 308.458 68.8677C308.458 68.8677 307.883 73.8565 306.636 75.9057C309.112 74.3726 310.992 72.0458 311.967 69.3068C311.967 69.3068 315.195 73.9297 316.993 74.9543C316.993 74.9543 316.406 65.3426 311.283 61.7443C300.473 54.1696 290.006 66.5502 290.006 66.5502C290.006 66.5502 283.061 69.7581 282.058 75.9423C280.517 85.4809 289.028 92.6775 289.028 92.6775Z" fill="#263238"/>
<path d="M291.131 90.9577C291.131 90.9577 286.753 85.5298 284.259 87.1155C281.765 88.7012 285.323 96.776 288.441 97.6908C288.832 97.8384 289.249 97.9054 289.667 97.8877C290.085 97.87 290.494 97.7681 290.872 97.5879C291.249 97.4078 291.585 97.1533 291.861 96.8397C292.137 96.5261 292.346 96.1601 292.476 95.7636L291.131 90.9577Z" fill="#EB9481"/>
<path d="M285.335 89.3721V89.4453C287.536 90.1649 288.784 92.0677 289.713 94.056C289.573 93.8522 289.391 93.6808 289.179 93.5535C288.967 93.4262 288.73 93.3459 288.484 93.3181C288.238 93.2904 287.989 93.3157 287.754 93.3925C287.518 93.4693 287.303 93.5958 287.121 93.7632C287.114 93.7751 287.11 93.7887 287.11 93.8025C287.111 93.8163 287.115 93.8297 287.123 93.8411C287.13 93.8526 287.141 93.8617 287.154 93.8673C287.166 93.873 287.18 93.8749 287.194 93.873C287.562 93.7307 287.964 93.7047 288.347 93.7985C288.73 93.8923 289.074 94.1015 289.334 94.3975C289.757 94.9006 290.13 95.444 290.447 96.0198C290.557 96.2027 290.899 96.0198 290.813 95.8612C290.642 93.1411 288.27 89.4818 285.335 89.3721Z" fill="#263238"/>
<path d="M297.343 110.705L292.244 117.792L284.907 105.46L281.349 107.973C281.349 107.973 287.072 126.123 287.304 125.428L292.195 119.439L295.741 125.294L298.26 113.352L297.343 110.705Z" fill="#EBEBEB"/>
<path d="M297.306 119.463C297.649 117.475 298.064 115.487 298.321 113.487C298.321 113.487 298.223 113.365 298.187 113.487C297.331 115.28 296.034 122.879 295.594 124.672C295.448 124.416 292.256 119.451 292.195 119.512C291.229 120.415 287.634 124.769 287.365 125.184C286.46 122.293 282.89 111.767 281.679 108.937C281.679 108.864 281.52 108.937 281.545 108.937C282.229 111.925 286.913 126.087 287.035 126.087C288.863 124.062 290.585 121.945 292.195 119.744C293.274 121.898 294.5 123.977 295.863 125.965C296.455 123.824 296.937 121.654 297.306 119.463Z" fill="#263238"/>
<path d="M285.433 105.497C284.553 103.424 282.181 107.79 284.064 110.376C286.852 114.133 292.122 118.585 293.284 118.61C294.445 118.634 298.175 113.987 298.651 112.974C299.128 111.962 298.077 109.693 297.71 109.913C297.343 110.132 294.115 115.072 293.663 115.304C293.21 115.536 287.353 109.949 285.433 105.497Z" fill="#FF0035"/>
<path d="M109.525 497.944H54.2061V510.142H109.525V497.944Z" fill="#E1A100"/>
<g opacity="0.1">
<path opacity="0.1" d="M56.4923 499.054C57.3075 502.256 57.3075 505.61 56.4923 508.812C56.0536 507.224 55.8477 505.581 55.8809 503.933C55.8557 502.286 56.0614 500.644 56.4923 499.054Z" fill="black"/>
<path opacity="0.1" d="M60.6129 499.054C61.428 502.256 61.428 505.61 60.6129 508.812C59.7977 505.61 59.7977 502.256 60.6129 499.054Z" fill="black"/>
<path opacity="0.1" d="M62.6182 499.054C63.4334 502.256 63.4334 505.61 62.6182 508.812C61.803 505.61 61.803 502.256 62.6182 499.054Z" fill="black"/>
<path opacity="0.1" d="M73.6724 499.054C74.4876 502.256 74.4876 505.61 73.6724 508.812C72.8572 505.61 72.8572 502.256 73.6724 499.054Z" fill="black"/>
<path opacity="0.1" d="M76.6558 499.054C77.0867 500.644 77.2925 502.286 77.2672 503.933C77.3004 505.581 77.0945 507.224 76.6558 508.812C75.8406 505.61 75.8406 502.256 76.6558 499.054Z" fill="black"/>
<path opacity="0.1" d="M89.0182 499.054C89.443 500.645 89.6487 502.287 89.6296 503.933C89.6563 505.58 89.4505 507.223 89.0182 508.812C88.5795 507.224 88.3736 505.581 88.4068 503.933C88.3815 502.286 88.5873 500.644 89.0182 499.054Z" fill="black"/>
<path opacity="0.1" d="M91.8672 499.054C92.6824 502.256 92.6824 505.61 91.8672 508.812C91.0521 505.61 91.0521 502.256 91.8672 499.054Z" fill="black"/>
<path opacity="0.1" d="M97.1127 499.054C97.5436 500.644 97.7494 502.286 97.7241 503.933C97.7573 505.581 97.5514 507.224 97.1127 508.812C96.6804 507.223 96.4746 505.58 96.5013 503.933C96.4822 502.287 96.6879 500.645 97.1127 499.054Z" fill="black"/>
<path opacity="0.1" d="M86.6339 499.054C87.449 502.256 87.449 505.61 86.6339 508.812C85.8187 505.61 85.8187 502.256 86.6339 499.054Z" fill="black"/>
<path opacity="0.1" d="M66.2745 499.054C66.6994 500.645 66.9051 502.287 66.8859 503.933C66.9126 505.58 66.7068 507.223 66.2745 508.812C65.8358 507.224 65.6299 505.581 65.6631 503.933C65.6379 502.286 65.8437 500.644 66.2745 499.054Z" fill="black"/>
<path opacity="0.1" d="M80.5933 499.054C81.4085 502.256 81.4085 505.61 80.5933 508.812C79.7781 505.61 79.7781 502.256 80.5933 499.054Z" fill="black"/>
<path opacity="0.1" d="M82.6475 499.054C83.0784 500.644 83.2842 502.286 83.2589 503.933C83.2921 505.581 83.0862 507.224 82.6475 508.812C81.8323 505.61 81.8323 502.256 82.6475 499.054Z" fill="black"/>
<path opacity="0.1" d="M103.936 499.054C104.361 500.645 104.567 502.287 104.547 503.933C104.581 505.581 104.375 507.224 103.936 508.812C103.504 507.223 103.298 505.58 103.325 503.933C103.305 502.287 103.511 500.645 103.936 499.054Z" fill="black"/>
<path opacity="0.1" d="M107.042 499.054C107.857 502.256 107.857 505.61 107.042 508.812C106.227 505.61 106.227 502.256 107.042 499.054Z" fill="black"/>
<path opacity="0.1" d="M99.5464 499.054C99.9773 500.644 100.183 502.286 100.158 503.933C100.191 505.581 99.9851 507.224 99.5464 508.812C98.7313 505.61 98.7313 502.256 99.5464 499.054Z" fill="black"/>
<path opacity="0.1" d="M71.2881 499.054C72.1033 502.256 72.1033 505.61 71.2881 508.812C70.473 505.61 70.473 502.256 71.2881 499.054Z" fill="black"/>
</g>
<path opacity="0.1" d="M109.512 497.944V500.53L54.2061 502.275V497.944H109.512Z" fill="black"/>
<path d="M105.746 485.747H50.4272V497.945H105.746V485.747Z" fill="#E1A100"/>
<g opacity="0.1">
<path opacity="0.1" d="M52.7017 486.869C53.5169 490.071 53.5169 493.425 52.7017 496.627C51.8865 493.425 51.8865 490.071 52.7017 486.869Z" fill="black"/>
<path opacity="0.1" d="M56.8223 486.869C57.6375 490.071 57.6375 493.425 56.8223 496.627C56.0071 493.425 56.0071 490.071 56.8223 486.869Z" fill="black"/>
<path opacity="0.1" d="M58.8401 486.869C59.2657 488.46 59.4714 490.102 59.4515 491.748C59.4767 493.395 59.2709 495.037 58.8401 496.627C58.4032 495.038 58.1973 493.395 58.2287 491.748C58.2026 490.101 58.4084 488.459 58.8401 486.869Z" fill="black"/>
<path opacity="0.1" d="M69.8819 486.869C70.6971 490.071 70.6971 493.425 69.8819 496.627C69.0667 493.425 69.0667 490.071 69.8819 486.869Z" fill="black"/>
<path opacity="0.1" d="M72.8777 486.869C73.6929 490.071 73.6929 493.425 72.8777 496.627C72.4408 495.038 72.2349 493.395 72.2663 491.748C72.2402 490.101 72.446 488.459 72.8777 486.869Z" fill="black"/>
<path opacity="0.1" d="M85.2276 486.869C86.0428 490.071 86.0428 493.425 85.2276 496.627C84.4124 493.425 84.4124 490.071 85.2276 486.869Z" fill="black"/>
<path opacity="0.1" d="M88.0398 486.869C88.4654 488.46 88.6711 490.102 88.6512 491.748C88.6764 493.395 88.4706 495.037 88.0398 496.627C87.603 495.038 87.3971 493.395 87.4284 491.748C87.4085 490.102 87.6142 488.46 88.0398 486.869Z" fill="black"/>
<path opacity="0.1" d="M93.3345 486.869C94.1497 490.071 94.1497 493.425 93.3345 496.627C92.5193 493.425 92.5193 490.071 93.3345 486.869Z" fill="black"/>
<path opacity="0.1" d="M82.8433 486.869C83.6585 490.071 83.6585 493.425 82.8433 496.627C82.0281 493.425 82.0281 490.071 82.8433 486.869Z" fill="black"/>
<path opacity="0.1" d="M62.4962 486.869C63.2951 490.073 63.2951 493.423 62.4962 496.627C61.681 493.425 61.681 490.071 62.4962 486.869Z" fill="black"/>
<path opacity="0.1" d="M76.8028 486.869C77.618 490.071 77.618 493.425 76.8028 496.627C75.9876 493.425 75.9876 490.071 76.8028 486.869Z" fill="black"/>
<path opacity="0.1" d="M78.8694 486.869C79.6846 490.071 79.6846 493.425 78.8694 496.627C78.4325 495.038 78.2266 493.395 78.258 491.748C78.2319 490.101 78.4377 488.459 78.8694 486.869Z" fill="black"/>
<path opacity="0.1" d="M100.17 486.869C100.985 490.071 100.985 493.425 100.17 496.627C99.3548 493.425 99.3548 490.071 100.17 486.869Z" fill="black"/>
<path opacity="0.1" d="M103.252 486.869C104.067 490.071 104.067 493.425 103.252 496.627C102.436 493.425 102.436 490.071 103.252 486.869Z" fill="black"/>
<path opacity="0.1" d="M95.7678 486.869C96.583 490.071 96.583 493.425 95.7678 496.627C95.331 495.038 95.1251 493.395 95.1564 491.748C95.1304 490.101 95.3362 488.459 95.7678 486.869Z" fill="black"/>
<path opacity="0.1" d="M67.4971 486.869C67.9288 488.459 68.1346 490.101 68.1085 491.748C68.1399 493.395 67.934 495.038 67.4971 496.627C66.6819 493.425 66.6819 490.071 67.4971 486.869Z" fill="black"/>
</g>
<path opacity="0.1" d="M105.734 485.747V488.345L50.415 490.077V485.747H105.734Z" fill="black"/>
<path d="M114.281 461.461H58.9624V473.659H114.281V461.461Z" fill="#E1A100"/>
<g opacity="0.1">
<path opacity="0.1" d="M61.2491 462.62C62.0643 465.822 62.0643 469.176 61.2491 472.378C60.4339 469.176 60.4339 465.822 61.2491 462.62Z" fill="black"/>
<path opacity="0.1" d="M65.3697 462.62C65.8013 464.21 66.0071 465.852 65.9811 467.499C66.0124 469.146 65.8065 470.789 65.3697 472.378C64.5545 469.176 64.5545 465.822 65.3697 462.62Z" fill="black"/>
<path opacity="0.1" d="M67.3874 462.62C68.2026 465.822 68.2026 469.176 67.3874 472.378C66.9506 470.789 66.7447 469.146 66.7761 467.499C66.75 465.852 66.9558 464.21 67.3874 462.62Z" fill="black"/>
<path opacity="0.1" d="M78.4293 462.62C79.2445 465.822 79.2445 469.176 78.4293 472.378C77.6141 469.176 77.6141 465.822 78.4293 462.62Z" fill="black"/>
<path opacity="0.1" d="M81.4249 462.62C82.2401 465.822 82.2401 469.176 81.4249 472.378C80.6097 469.176 80.6097 465.822 81.4249 462.62Z" fill="black"/>
<path opacity="0.1" d="M93.775 462.62C94.5901 465.822 94.5901 469.176 93.775 472.378C92.9598 469.176 92.9598 465.822 93.775 462.62Z" fill="black"/>
<path opacity="0.1" d="M96.5994 462.62C97.4145 465.822 97.4145 469.176 96.5994 472.378C96.1625 470.789 95.9566 469.146 95.988 467.499C95.9619 465.852 96.1677 464.21 96.5994 462.62Z" fill="black"/>
<path opacity="0.1" d="M101.882 462.62C102.697 465.822 102.697 469.176 101.882 472.378C101.067 469.176 101.067 465.822 101.882 462.62Z" fill="black"/>
<path opacity="0.1" d="M91.3903 462.62C91.822 464.21 92.0278 465.852 92.0017 467.499C92.0331 469.146 91.8272 470.789 91.3903 472.378C90.9595 470.788 90.7537 469.146 90.7789 467.499C90.759 465.853 90.9647 464.211 91.3903 462.62Z" fill="black"/>
<path opacity="0.1" d="M71.0313 462.62C71.8465 465.822 71.8465 469.176 71.0313 472.378C70.2161 469.176 70.2161 465.822 71.0313 462.62Z" fill="black"/>
<path opacity="0.1" d="M85.3502 462.62C86.1653 465.822 86.1653 469.176 85.3502 472.378C84.535 469.176 84.535 465.822 85.3502 462.62Z" fill="black"/>
<path opacity="0.1" d="M87.4166 462.62C88.2318 465.822 88.2318 469.176 87.4166 472.378C86.6014 469.176 86.6014 465.822 87.4166 462.62Z" fill="black"/>
<path opacity="0.1" d="M108.717 462.62C109.516 465.824 109.516 469.174 108.717 472.378C107.902 469.176 107.902 465.822 108.717 462.62Z" fill="black"/>
<path opacity="0.1" d="M111.799 462.62C112.231 464.21 112.436 465.852 112.41 467.499C112.442 469.146 112.236 470.789 111.799 472.378C110.984 469.176 110.984 465.822 111.799 462.62Z" fill="black"/>
<path opacity="0.1" d="M104.315 462.62C105.131 465.822 105.131 469.176 104.315 472.378C103.5 469.176 103.5 465.822 104.315 462.62Z" fill="black"/>
<path opacity="0.1" d="M76.0447 462.62C76.4703 464.211 76.676 465.853 76.6561 467.499C76.6874 469.146 76.4815 470.789 76.0447 472.378C75.6078 470.789 75.4019 469.146 75.4333 467.499C75.4134 465.853 75.6191 464.211 76.0447 462.62Z" fill="black"/>
</g>
<path opacity="0.1" d="M114.281 461.461V464.047L58.9624 465.792V461.461H114.281Z" fill="black"/>
<path d="M112.887 449.264H57.5684V461.461H112.887V449.264Z" fill="#E1A100"/>
<g opacity="0.1">
<path opacity="0.1" d="M110.405 460.18C109.978 458.59 109.772 456.948 109.793 455.301C109.762 453.654 109.968 452.011 110.405 450.422C110.835 452.012 111.041 453.655 111.016 455.301C111.037 456.948 110.831 458.59 110.405 460.18Z" fill="black"/>
<path opacity="0.1" d="M106.284 460.18C105.857 458.59 105.652 456.948 105.672 455.301C105.647 453.655 105.853 452.012 106.284 450.422C106.721 452.011 106.927 453.654 106.895 455.301C106.922 456.948 106.716 458.591 106.284 460.18Z" fill="black"/>
<path opacity="0.1" d="M104.266 460.18C103.467 456.977 103.467 453.626 104.266 450.422C105.081 453.624 105.081 456.979 104.266 460.18Z" fill="black"/>
<path opacity="0.1" d="M93.2248 460.18C92.7984 458.59 92.5927 456.948 92.6134 455.301C92.5881 453.655 92.7939 452.012 93.2248 450.422C93.6616 452.011 93.8675 453.654 93.8362 455.301C93.8569 456.948 93.6512 458.59 93.2248 460.18Z" fill="black"/>
<path opacity="0.1" d="M90.2413 460.18C89.4261 456.979 89.4261 453.624 90.2413 450.422C91.0565 453.624 91.0565 456.979 90.2413 460.18Z" fill="black"/>
<path opacity="0.1" d="M77.8787 460.18C77.4523 458.59 77.2466 456.948 77.2673 455.301C77.2359 453.654 77.4418 452.011 77.8787 450.422C78.3095 452.012 78.5153 453.655 78.49 455.301C78.5107 456.948 78.305 458.59 77.8787 460.18Z" fill="black"/>
<path opacity="0.1" d="M75.0176 460.18C74.2025 456.979 74.2025 453.624 75.0176 450.422C75.8328 453.624 75.8328 456.979 75.0176 460.18Z" fill="black"/>
<path opacity="0.1" d="M69.7842 460.18C68.9691 456.979 68.9691 453.624 69.7842 450.422C70.5994 453.624 70.5994 456.979 69.7842 460.18Z" fill="black"/>
<path opacity="0.1" d="M80.2632 460.18C79.4481 456.979 79.4481 453.624 80.2632 450.422C80.7001 452.011 80.906 453.654 80.8746 455.301C80.9013 456.948 80.6955 458.591 80.2632 460.18Z" fill="black"/>
<path opacity="0.1" d="M100.622 460.18C100.19 458.591 99.9842 456.948 100.011 455.301C99.9796 453.654 100.185 452.011 100.622 450.422C101.053 452.012 101.259 453.655 101.234 455.301C101.254 456.948 101.049 458.59 100.622 460.18Z" fill="black"/>
<path opacity="0.1" d="M86.3039 460.18C85.8775 458.59 85.6718 456.948 85.6925 455.301C85.6672 453.655 85.873 452.012 86.3039 450.422C86.7407 452.011 86.9466 453.654 86.9153 455.301C86.936 456.948 86.7302 458.59 86.3039 460.18Z" fill="black"/>
<path opacity="0.1" d="M84.2496 460.18C83.4344 456.979 83.4344 453.624 84.2496 450.422C85.0648 453.624 85.0648 456.979 84.2496 460.18Z" fill="black"/>
<path opacity="0.1" d="M62.9488 460.18C62.1336 456.979 62.1336 453.624 62.9488 450.422C63.764 453.624 63.764 456.979 62.9488 460.18Z" fill="black"/>
<path opacity="0.1" d="M59.9162 460.18C59.4898 458.59 59.2841 456.948 59.3048 455.301C59.2796 453.655 59.4853 452.012 59.9162 450.422C60.353 452.011 60.5589 453.654 60.5276 455.301C60.5543 456.948 60.3485 458.591 59.9162 460.18Z" fill="black"/>
<path opacity="0.1" d="M67.3507 460.18C66.5355 456.979 66.5355 453.624 67.3507 450.422C68.1658 453.624 68.1658 456.979 67.3507 460.18Z" fill="black"/>
<path opacity="0.1" d="M95.6089 460.18C94.7938 456.979 94.7938 453.624 95.6089 450.422C96.4241 453.624 96.4241 456.979 95.6089 460.18Z" fill="black"/>
</g>
<path opacity="0.1" d="M112.887 449.276V451.862L57.5684 453.606V449.276H112.887Z" fill="black"/>
<path d="M109.525 437.078H54.2061V449.276H109.525V437.078Z" fill="#E1A100"/>
<g opacity="0.1">
<path opacity="0.1" d="M56.4924 438.225C56.9188 439.815 57.1245 441.457 57.1038 443.104C57.1291 444.751 56.9233 446.393 56.4924 447.983C56.0556 446.394 55.8497 444.751 55.881 443.104C55.8543 441.457 56.0601 439.814 56.4924 438.225Z" fill="black"/>
<path opacity="0.1" d="M60.613 438.225C61.4282 441.427 61.4282 444.781 60.613 447.983C60.1762 446.394 59.9703 444.751 60.0016 443.104C59.9749 441.457 60.1808 439.814 60.613 438.225Z" fill="black"/>
<path opacity="0.1" d="M62.6187 438.225C63.4339 441.427 63.4339 444.781 62.6187 447.983C61.8035 444.781 61.8035 441.427 62.6187 438.225Z" fill="black"/>
<path opacity="0.1" d="M73.6726 438.225C74.099 439.815 74.3047 441.457 74.284 443.104C74.3093 444.751 74.1035 446.393 73.6726 447.983C73.2358 446.394 73.0299 444.751 73.0612 443.104C73.0345 441.457 73.2403 439.814 73.6726 438.225Z" fill="black"/>
<path opacity="0.1" d="M76.6558 438.225C77.471 441.427 77.471 444.781 76.6558 447.983C75.8406 444.781 75.8406 441.427 76.6558 438.225Z" fill="black"/>
<path opacity="0.1" d="M89.0183 438.225C89.4447 439.815 89.6504 441.457 89.6297 443.104C89.6549 444.751 89.4492 446.393 89.0183 447.983C88.5815 446.394 88.3756 444.751 88.4069 443.104C88.3862 441.457 88.5919 439.815 89.0183 438.225Z" fill="black"/>
<path opacity="0.1" d="M91.8673 438.225C92.6825 441.427 92.6825 444.781 91.8673 447.983C91.0683 444.779 91.0683 441.429 91.8673 438.225Z" fill="black"/>
<path opacity="0.1" d="M97.1133 438.225C97.9285 441.427 97.9285 444.781 97.1133 447.983C96.2982 444.781 96.2982 441.427 97.1133 438.225Z" fill="black"/>
<path opacity="0.1" d="M86.6339 438.225C87.449 441.427 87.449 444.781 86.6339 447.983C85.8187 444.781 85.8187 441.427 86.6339 438.225Z" fill="black"/>
<path opacity="0.1" d="M66.2746 438.225C66.701 439.815 66.9067 441.457 66.886 443.104C66.9173 444.751 66.7114 446.394 66.2746 447.983C65.8437 446.393 65.638 444.751 65.6632 443.104C65.6425 441.457 65.8482 439.815 66.2746 438.225Z" fill="black"/>
<path opacity="0.1" d="M80.5935 438.225C81.0199 439.815 81.2256 441.457 81.2049 443.104C81.2301 444.751 81.0243 446.393 80.5935 447.983C80.1567 446.394 79.9508 444.751 79.9821 443.104C79.9554 441.457 80.1612 439.814 80.5935 438.225Z" fill="black"/>
<path opacity="0.1" d="M82.6475 438.225C83.4627 441.427 83.4627 444.781 82.6475 447.983C81.8323 444.781 81.8323 441.427 82.6475 438.225Z" fill="black"/>
<path opacity="0.1" d="M103.936 438.225C104.368 439.814 104.574 441.457 104.547 443.104C104.579 444.751 104.373 446.394 103.936 447.983C103.121 444.781 103.121 441.427 103.936 438.225Z" fill="black"/>
<path opacity="0.1" d="M107.042 438.225C107.857 441.427 107.857 444.781 107.042 447.983C106.605 446.394 106.399 444.751 106.431 443.104C106.404 441.457 106.61 439.814 107.042 438.225Z" fill="black"/>
<path opacity="0.1" d="M99.5464 438.225C100.362 441.427 100.362 444.781 99.5464 447.983C98.7313 444.781 98.7313 441.427 99.5464 438.225Z" fill="black"/>
<path opacity="0.1" d="M71.2881 438.225C72.1033 441.427 72.1033 444.781 71.2881 447.983C70.473 444.781 70.473 441.427 71.2881 438.225Z" fill="black"/>
</g>
<path opacity="0.1" d="M109.512 437.078V439.664L54.2061 441.408V437.078H109.512Z" fill="black"/>
<path d="M109.525 473.659H54.2061V485.857H109.525V473.659Z" fill="#E1A100"/>
<g opacity="0.1">
<path opacity="0.1" d="M107.042 484.576C106.225 481.374 106.225 478.019 107.042 474.818C107.859 478.019 107.859 481.374 107.042 484.576Z" fill="black"/>
<path opacity="0.1" d="M102.921 484.576C102.489 482.986 102.283 481.344 102.31 479.697C102.276 478.05 102.482 476.406 102.921 474.818C103.354 476.407 103.56 478.05 103.532 479.697C103.553 481.344 103.347 482.985 102.921 484.576Z" fill="black"/>
<path opacity="0.1" d="M100.903 484.576C100.086 481.374 100.086 478.019 100.903 474.818C101.721 478.019 101.721 481.374 100.903 484.576Z" fill="black"/>
<path opacity="0.1" d="M89.8619 484.576C89.4296 482.986 89.2238 481.344 89.2505 479.697C89.2173 478.05 89.4232 476.406 89.8619 474.818C90.6792 478.019 90.6792 481.374 89.8619 484.576Z" fill="black"/>
<path opacity="0.1" d="M86.817 484.576C85.9998 481.374 85.9998 478.019 86.817 474.818C87.6343 478.019 87.6343 481.374 86.817 484.576Z" fill="black"/>
<path opacity="0.1" d="M74.5163 484.576C73.699 481.374 73.699 478.019 74.5163 474.818C75.3335 478.019 75.3335 481.374 74.5163 484.576Z" fill="black"/>
<path opacity="0.1" d="M71.6549 484.576C70.8377 481.374 70.8377 478.019 71.6549 474.818C72.0936 476.406 72.2995 478.05 72.2663 479.697C72.293 481.344 72.0872 482.986 71.6549 484.576Z" fill="black"/>
<path opacity="0.1" d="M66.4088 484.576C65.5916 481.374 65.5916 478.019 66.4088 474.818C67.2261 478.019 67.2261 481.374 66.4088 484.576Z" fill="black"/>
<path opacity="0.1" d="M76.9005 484.576C76.4741 482.985 76.2684 481.344 76.2891 479.697C76.2559 478.05 76.4618 476.406 76.9005 474.818C77.3332 476.407 77.5391 478.05 77.5119 479.697C77.5326 481.344 77.3269 482.985 76.9005 484.576Z" fill="black"/>
<path opacity="0.1" d="M97.2599 484.576C96.4427 481.374 96.4427 478.019 97.2599 474.818C98.0772 478.019 98.0772 481.374 97.2599 484.576Z" fill="black"/>
<path opacity="0.1" d="M82.941 484.576C82.5087 482.986 82.3029 481.344 82.3296 479.697C82.2964 478.05 82.5023 476.406 82.941 474.818C83.7583 478.019 83.7583 481.374 82.941 484.576Z" fill="black"/>
<path opacity="0.1" d="M80.8747 484.576C80.0574 481.374 80.0574 478.019 80.8747 474.818C81.6919 478.019 81.6919 481.374 80.8747 484.576Z" fill="black"/>
<path opacity="0.1" d="M59.5861 484.576C58.7688 481.374 58.7688 478.019 59.5861 474.818C60.4033 478.019 60.4033 481.374 59.5861 484.576Z" fill="black"/>
<path opacity="0.1" d="M56.4923 484.576C56.06 482.986 55.8542 481.344 55.8809 479.697C55.8477 478.05 56.0536 476.406 56.4923 474.818C56.9251 476.407 57.1309 478.05 57.1037 479.697C57.1244 481.344 56.9187 482.985 56.4923 484.576Z" fill="black"/>
<path opacity="0.1" d="M63.9757 484.576C63.1585 481.374 63.1585 478.019 63.9757 474.818C64.793 478.019 64.793 481.374 63.9757 484.576Z" fill="black"/>
<path opacity="0.1" d="M92.2461 484.576C91.8197 482.985 91.614 481.344 91.6347 479.697C91.6075 478.05 91.8133 476.407 92.2461 474.818C92.6848 476.406 92.8907 478.05 92.8575 479.697C92.8782 481.344 92.6725 482.985 92.2461 484.576Z" fill="black"/>
</g>
<path opacity="0.1" d="M109.512 473.659V476.245L54.2061 477.989V473.659H109.512Z" fill="black"/>
<path d="M164.843 511.203H109.524V523.401H164.843V511.203Z" fill="#E1A100"/>
<g opacity="0.1">
<path opacity="0.1" d="M111.811 512.326C112.628 515.527 112.628 518.882 111.811 522.084C110.993 518.882 110.993 515.527 111.811 512.326Z" fill="black"/>
<path opacity="0.1" d="M115.931 512.326C116.749 515.527 116.749 518.882 115.931 522.084C115.114 518.882 115.114 515.527 115.931 512.326Z" fill="black"/>
<path opacity="0.1" d="M117.937 512.326C118.369 513.915 118.575 515.558 118.548 517.205C118.581 518.852 118.375 520.495 117.937 522.084C117.119 518.882 117.119 515.527 117.937 512.326Z" fill="black"/>
<path opacity="0.1" d="M128.991 512.326C129.808 515.527 129.808 518.882 128.991 522.084C128.174 518.882 128.174 515.527 128.991 512.326Z" fill="black"/>
<path opacity="0.1" d="M131.975 512.326C132.407 513.915 132.613 515.558 132.586 517.205C132.619 518.852 132.413 520.495 131.975 522.084C131.542 520.494 131.336 518.852 131.363 517.205C131.342 515.558 131.548 513.916 131.975 512.326Z" fill="black"/>
<path opacity="0.1" d="M144.288 512.326C145.105 515.527 145.105 518.882 144.288 522.084C143.47 518.882 143.47 515.527 144.288 512.326Z" fill="black"/>
<path opacity="0.1" d="M147.186 512.326C148.003 515.527 148.003 518.882 147.186 522.084C146.368 518.882 146.368 515.527 147.186 512.326Z" fill="black"/>
<path opacity="0.1" d="M152.432 512.326C152.858 513.916 153.064 515.558 153.043 517.205C153.076 518.852 152.87 520.495 152.432 522.084C151.999 520.494 151.793 518.852 151.82 517.205C151.799 515.558 152.005 513.916 152.432 512.326Z" fill="black"/>
<path opacity="0.1" d="M141.952 512.326C142.753 515.529 142.753 518.88 141.952 522.084C141.135 518.882 141.135 515.527 141.952 512.326Z" fill="black"/>
<path opacity="0.1" d="M121.593 512.326C122.41 515.527 122.41 518.882 121.593 522.084C121.154 520.495 120.948 518.852 120.981 517.205C120.954 515.558 121.16 513.915 121.593 512.326Z" fill="black"/>
<path opacity="0.1" d="M135.912 512.326C136.729 515.527 136.729 518.882 135.912 522.084C135.095 518.882 135.095 515.527 135.912 512.326Z" fill="black"/>
<path opacity="0.1" d="M137.966 512.326C138.399 513.915 138.604 515.558 138.577 517.205C138.61 518.852 138.404 520.495 137.966 522.084C137.533 520.494 137.328 518.852 137.354 517.205C137.333 515.558 137.539 513.916 137.966 512.326Z" fill="black"/>
<path opacity="0.1" d="M159.267 512.326C159.693 513.916 159.899 515.558 159.878 517.205C159.905 518.852 159.699 520.494 159.267 522.084C158.828 520.495 158.622 518.852 158.655 517.205C158.628 515.558 158.834 513.915 159.267 512.326Z" fill="black"/>
<path opacity="0.1" d="M162.361 512.326C163.178 515.527 163.178 518.882 162.361 522.084C161.543 518.882 161.543 515.527 162.361 512.326Z" fill="black"/>
<path opacity="0.1" d="M154.865 512.326C155.297 513.915 155.503 515.558 155.476 517.205C155.509 518.852 155.303 520.495 154.865 522.084C154.432 520.494 154.227 518.852 154.253 517.205C154.232 515.558 154.438 513.916 154.865 512.326Z" fill="black"/>
<path opacity="0.1" d="M126.594 512.326C127.411 515.527 127.411 518.882 126.594 522.084C125.777 518.882 125.777 515.527 126.594 512.326Z" fill="black"/>
</g>
<path opacity="0.1" d="M164.831 511.203V513.789L109.524 515.533V511.203H164.831Z" fill="black"/>
<path d="M174.099 499.005H118.781V511.203H174.099V499.005Z" fill="#E1A100"/>
<g opacity="0.1">
<path opacity="0.1" d="M121.055 500.128C121.87 503.33 121.87 506.684 121.055 509.886C120.24 506.684 120.24 503.33 121.055 500.128Z" fill="black"/>
<path opacity="0.1" d="M125.188 500.128C126.003 503.33 126.003 506.684 125.188 509.886C124.373 506.684 124.373 503.33 125.188 500.128Z" fill="black"/>
<path opacity="0.1" d="M127.169 500.128C127.595 501.719 127.801 503.36 127.781 505.007C127.807 506.654 127.601 508.296 127.169 509.886C126.732 508.297 126.526 506.654 126.558 505.007C126.532 503.36 126.738 501.718 127.169 500.128Z" fill="black"/>
<path opacity="0.1" d="M138.248 500.128C139.063 503.33 139.063 506.684 138.248 509.886C137.432 506.684 137.432 503.33 138.248 500.128Z" fill="black"/>
<path opacity="0.1" d="M141.243 500.128C142.058 503.33 142.058 506.684 141.243 509.886C140.428 506.684 140.428 503.33 141.243 500.128Z" fill="black"/>
<path opacity="0.1" d="M153.593 500.128C154.409 503.33 154.409 506.684 153.593 509.886C152.778 506.684 152.778 503.33 153.593 500.128Z" fill="black"/>
<path opacity="0.1" d="M156.516 500.128C156.942 501.719 157.147 503.36 157.127 505.007C157.153 506.654 156.948 508.296 156.516 509.886C156.078 508.297 155.873 506.654 155.905 505.007C155.879 503.36 156.084 501.718 156.516 500.128Z" fill="black"/>
<path opacity="0.1" d="M161.7 500.128C162.515 503.33 162.515 506.684 161.7 509.886C160.885 506.684 160.885 503.33 161.7 500.128Z" fill="black"/>
<path opacity="0.1" d="M151.209 500.128C151.641 501.718 151.846 503.36 151.82 505.007C151.852 506.654 151.647 508.297 151.209 509.886C150.394 506.684 150.394 503.33 151.209 500.128Z" fill="black"/>
<path opacity="0.1" d="M130.837 500.128C131.653 503.33 131.653 506.684 130.837 509.886C130.022 506.684 130.022 503.33 130.837 500.128Z" fill="black"/>
<path opacity="0.1" d="M145.169 500.128C145.984 503.33 145.984 506.684 145.169 509.886C144.353 506.684 144.353 503.33 145.169 500.128Z" fill="black"/>
<path opacity="0.1" d="M147.235 500.128C148.05 503.33 148.05 506.684 147.235 509.886C146.42 506.684 146.42 503.33 147.235 500.128Z" fill="black"/>
<path opacity="0.1" d="M168.536 500.128C169.351 503.33 169.351 506.684 168.536 509.886C167.721 506.684 167.721 503.33 168.536 500.128Z" fill="black"/>
<path opacity="0.1" d="M171.617 500.128C172.432 503.33 172.432 506.684 171.617 509.886C170.802 506.684 170.802 503.33 171.617 500.128Z" fill="black"/>
<path opacity="0.1" d="M164.134 500.128C164.949 503.33 164.949 506.684 164.134 509.886C163.319 506.684 163.319 503.33 164.134 500.128Z" fill="black"/>
<path opacity="0.1" d="M135.863 500.128C136.295 501.718 136.501 503.36 136.474 505.007C136.507 506.654 136.301 508.297 135.863 509.886C135.431 508.296 135.226 506.654 135.252 505.007C135.232 503.36 135.437 501.719 135.863 500.128Z" fill="black"/>
</g>
<path opacity="0.1" d="M174.099 499.005V501.604L118.781 503.336V499.005H174.099Z" fill="black"/>
<path d="M169.477 486.918H114.159V499.116H169.477V486.918Z" fill="#E1A100"/>
<g opacity="0.1">
<path opacity="0.1" d="M166.995 497.785C166.178 494.584 166.178 491.229 166.995 488.027C167.813 491.229 167.813 494.584 166.995 497.785Z" fill="black"/>
<path opacity="0.1" d="M162.874 497.785C162.441 496.196 162.236 494.553 162.263 492.906C162.23 491.259 162.435 489.616 162.874 488.027C163.691 491.229 163.691 494.584 162.874 497.785Z" fill="black"/>
<path opacity="0.1" d="M160.857 497.785C160.039 494.584 160.039 491.229 160.857 488.027C161.295 489.616 161.501 491.259 161.468 492.906C161.495 494.553 161.289 496.196 160.857 497.785Z" fill="black"/>
<path opacity="0.1" d="M149.815 497.785C148.998 494.584 148.998 491.229 149.815 488.027C150.632 491.229 150.632 494.584 149.815 497.785Z" fill="black"/>
<path opacity="0.1" d="M146.819 497.785C146.002 494.584 146.002 491.229 146.819 488.027C147.636 491.229 147.636 494.584 146.819 497.785Z" fill="black"/>
<path opacity="0.1" d="M134.506 497.785C133.689 494.584 133.689 491.229 134.506 488.027C135.323 491.229 135.323 494.584 134.506 497.785Z" fill="black"/>
<path opacity="0.1" d="M131.608 497.785C131.181 496.195 130.975 494.553 130.996 492.906C130.97 491.259 131.176 489.617 131.608 488.027C132.047 489.616 132.252 491.259 132.219 492.906C132.246 494.553 132.041 496.196 131.608 497.785Z" fill="black"/>
<path opacity="0.1" d="M126.362 497.785C125.545 494.584 125.545 491.229 126.362 488.027C127.179 491.229 127.179 494.584 126.362 497.785Z" fill="black"/>
<path opacity="0.1" d="M136.854 497.785C136.421 496.196 136.215 494.553 136.242 492.906C136.209 491.259 136.415 489.616 136.854 488.027C137.286 489.617 137.492 491.259 137.465 492.906C137.486 494.553 137.28 496.195 136.854 497.785Z" fill="black"/>
<path opacity="0.1" d="M157.213 497.785C156.396 494.584 156.396 491.229 157.213 488.027C158.03 491.229 158.03 494.584 157.213 497.785Z" fill="black"/>
<path opacity="0.1" d="M142.894 497.785C142.077 494.584 142.077 491.229 142.894 488.027C143.711 491.229 143.711 494.584 142.894 497.785Z" fill="black"/>
<path opacity="0.1" d="M140.828 497.785C140.011 494.584 140.011 491.229 140.828 488.027C141.645 491.229 141.645 494.584 140.828 497.785Z" fill="black"/>
<path opacity="0.1" d="M119.527 497.785C118.71 494.584 118.71 491.229 119.527 488.027C120.344 491.229 120.344 494.584 119.527 497.785Z" fill="black"/>
<path opacity="0.1" d="M116.445 497.785C116.013 496.196 115.807 494.553 115.834 492.906C115.801 491.259 116.007 489.616 116.445 488.027C117.263 491.229 117.263 494.584 116.445 497.785Z" fill="black"/>
<path opacity="0.1" d="M123.929 497.785C123.112 494.584 123.112 491.229 123.929 488.027C124.746 491.229 124.746 494.584 123.929 497.785Z" fill="black"/>
<path opacity="0.1" d="M152.199 497.785C151.773 496.195 151.567 494.553 151.588 492.906C151.555 491.259 151.761 489.616 152.199 488.027C152.632 489.617 152.837 491.259 152.811 492.906C152.832 494.553 152.626 496.195 152.199 497.785Z" fill="black"/>
</g>
<path opacity="0.1" d="M169.465 486.918V489.504L114.159 491.248V486.918H169.465Z" fill="black"/>
<path d="M49.5961 467.597C86.0104 474.11 76.3872 527.914 39.9239 521.388C3.46069 514.863 13.1206 461.071 49.5961 467.597Z" fill="#E1A100"/>
<path opacity="0.1" d="M49.5961 467.597C86.0104 474.11 76.3872 527.914 39.9239 521.388C3.46069 514.863 13.1206 461.071 49.5961 467.597Z" fill="black"/>
<path d="M46.1722 466.987C80.8746 473.195 71.2636 526.999 36.5 520.778C1.73642 514.557 11.4208 460.766 46.1722 466.987Z" fill="#E1A100"/>
<path opacity="0.1" d="M19.332 495.151C19.5154 504.726 25.1158 514.021 37.3313 516.204C66.1644 521.364 74.1614 476.708 45.3527 471.561L44.7903 471.463C71.8014 476.855 64.0612 519.12 36.561 514.155C25.3359 512.191 19.9312 503.909 19.332 495.151Z" fill="black"/>
<g opacity="0.1">
<path opacity="0.1" d="M44.3381 477.135C44.5718 477.198 44.772 477.349 44.8973 477.556C45.0225 477.762 45.0631 478.009 45.0106 478.245L44.6316 479.697C46.994 480.473 49.0656 481.944 50.5743 483.917C50.7054 484.039 50.8025 484.194 50.8561 484.365C50.9096 484.536 50.9179 484.718 50.88 484.893C50.8493 485.021 50.7925 485.141 50.713 485.245C50.6336 485.35 50.5333 485.437 50.4184 485.501C50.3036 485.566 50.1766 485.605 50.0456 485.618C49.9146 485.631 49.7824 485.617 49.6572 485.576C49.5304 485.553 49.4102 485.503 49.3046 485.429C49.1991 485.356 49.1108 485.26 49.0458 485.149C47.8179 483.445 46.118 482.135 44.1547 481.38L41.5746 491.736C46.9059 494.309 48.7523 497.005 47.8475 500.628C46.8692 504.543 42.883 506.495 38.212 505.507L37.4905 508.385C37.4326 508.619 37.2845 508.821 37.0785 508.947C36.8724 509.072 36.6251 509.112 36.39 509.056C36.1547 508.996 35.9525 508.846 35.8268 508.638C35.7011 508.431 35.6618 508.182 35.7175 507.946L36.4512 505.031C33.4105 504.029 30.7934 502.041 29.0167 499.384C28.8826 499.23 28.8005 499.039 28.7822 498.836C28.7639 498.634 28.8104 498.431 28.9149 498.256C29.0194 498.081 29.1766 497.944 29.364 497.864C29.5514 497.784 29.7594 497.765 29.9582 497.81C30.0822 497.836 30.1995 497.888 30.3026 497.961C30.4058 498.034 30.4925 498.128 30.5574 498.237C32.0375 500.626 34.2885 502.441 36.9403 503.384L39.5693 492.87C34.3235 490.272 32.5383 487.662 33.4554 483.978C34.3725 480.294 38.3465 478.209 42.9074 479.233L43.2498 477.818C43.308 477.586 43.4536 477.386 43.6564 477.259C43.8592 477.131 44.1034 477.087 44.3381 477.135ZM40.0217 490.955L42.5406 480.916C38.8723 480.099 36.0232 481.648 35.3629 484.307C34.7026 486.966 35.5341 488.625 40.0217 490.955ZM41.0855 493.614L38.5299 503.811C42.1982 504.653 45.194 503.116 45.8666 500.311C46.5269 497.761 45.622 495.883 41.0855 493.614Z" fill="black"/>
</g>
</svg>
