<svg width="503" height="575" viewBox="0 0 503 575" fill="none" xmlns="http://www.w3.org/2000/svg">
<g clip-path="url(#clip0)">
<path opacity="0.5" d="M96.3347 343.518C104.298 343.518 110.754 337.071 110.754 329.118C110.754 321.165 104.298 314.718 96.3347 314.718C88.3712 314.718 81.9155 321.165 81.9155 329.118C81.9155 337.071 88.3712 343.518 96.3347 343.518Z" fill="#EBEBEB"/>
<path d="M86.7983 329.118C86.7957 327.231 87.3539 325.385 88.4022 323.814C89.4505 322.244 90.9418 321.019 92.6874 320.296C94.433 319.572 96.3542 319.382 98.208 319.75C100.062 320.118 101.765 321.026 103.101 322.361C104.437 323.695 105.347 325.396 105.715 327.247C106.083 329.099 105.893 331.017 105.169 332.761C104.444 334.504 103.218 335.993 101.645 337.04C100.073 338.087 98.2247 338.645 96.3347 338.642C93.8055 338.642 91.3799 337.639 89.5915 335.853C87.8031 334.066 86.7983 331.644 86.7983 329.118Z" fill="#EBEBEB"/>
<path opacity="0.5" d="M242.011 125.022C249.975 125.022 256.43 118.575 256.43 110.622C256.43 102.669 249.975 96.2217 242.011 96.2217C234.048 96.2217 227.592 102.669 227.592 110.622C227.592 118.575 234.048 125.022 242.011 125.022Z" fill="#EBEBEB"/>
<path d="M242.011 120.16C247.285 120.16 251.561 115.89 251.561 110.622C251.561 105.355 247.285 101.085 242.011 101.085C236.737 101.085 232.461 105.355 232.461 110.622C232.461 115.89 236.737 120.16 242.011 120.16Z" fill="#EBEBEB"/>
<path opacity="0.5" d="M424.497 189.588C432.46 189.588 438.916 183.14 438.916 175.187C438.916 167.234 432.46 160.787 424.497 160.787C416.533 160.787 410.078 167.234 410.078 175.187C410.078 183.14 416.533 189.588 424.497 189.588Z" fill="#EBEBEB"/>
<path d="M424.497 184.725C429.771 184.725 434.047 180.455 434.047 175.188C434.047 169.92 429.771 165.65 424.497 165.65C419.222 165.65 414.947 169.92 414.947 175.188C414.947 180.455 419.222 184.725 424.497 184.725Z" fill="#EBEBEB"/>
<path opacity="0.5" d="M427.437 379.849C435.401 379.849 441.856 373.402 441.856 365.449C441.856 357.496 435.401 351.049 427.437 351.049C419.474 351.049 413.018 357.496 413.018 365.449C413.018 373.402 419.474 379.849 427.437 379.849Z" fill="#EBEBEB"/>
<path d="M417.888 365.448C417.888 363.562 418.448 361.718 419.497 360.15C420.547 358.581 422.038 357.359 423.783 356.637C425.528 355.915 427.448 355.726 429.301 356.094C431.153 356.462 432.855 357.371 434.19 358.705C435.526 360.038 436.435 361.738 436.804 363.588C437.172 365.438 436.983 367.356 436.26 369.098C435.538 370.841 434.314 372.33 432.743 373.378C431.173 374.426 429.326 374.986 427.438 374.986C424.905 374.986 422.476 373.981 420.685 372.192C418.894 370.404 417.888 367.978 417.888 365.448Z" fill="#EBEBEB"/>
<path opacity="0.5" d="M105.898 146.09C112.238 146.09 117.377 140.958 117.377 134.627C117.377 128.296 112.238 123.163 105.898 123.163C99.5586 123.163 94.4194 128.296 94.4194 134.627C94.4194 140.958 99.5586 146.09 105.898 146.09Z" fill="#EBEBEB"/>
<path d="M105.898 142.211C110.092 142.211 113.492 138.816 113.492 134.627C113.492 130.438 110.092 127.043 105.898 127.043C101.704 127.043 98.3042 130.438 98.3042 134.627C98.3042 138.816 101.704 142.211 105.898 142.211Z" fill="#EBEBEB"/>
<path opacity="0.5" d="M466.406 323.716C470.6 323.716 474 320.32 474 316.132C474 311.943 470.6 308.548 466.406 308.548C462.211 308.548 458.812 311.943 458.812 316.132C458.812 320.32 462.211 323.716 466.406 323.716Z" fill="#EBEBEB"/>
<path d="M461.388 316.132C461.388 315.138 461.683 314.167 462.236 313.341C462.788 312.514 463.574 311.87 464.494 311.49C465.413 311.11 466.425 311.01 467.4 311.204C468.376 311.398 469.273 311.876 469.977 312.579C470.68 313.282 471.159 314.177 471.353 315.152C471.548 316.126 471.448 317.137 471.067 318.055C470.686 318.973 470.041 319.758 469.214 320.31C468.387 320.862 467.414 321.157 466.419 321.157C465.085 321.157 463.805 320.627 462.861 319.685C461.918 318.743 461.388 317.465 461.388 316.132Z" fill="#EBEBEB"/>
<path opacity="0.5" d="M107.584 204.164C107.582 202.66 108.026 201.189 108.861 199.938C109.696 198.686 110.884 197.71 112.274 197.134C113.665 196.557 115.196 196.405 116.673 196.698C118.15 196.991 119.507 197.715 120.571 198.778C121.636 199.841 122.361 201.196 122.654 202.671C122.947 204.146 122.795 205.675 122.218 207.064C121.64 208.453 120.663 209.639 119.41 210.473C118.157 211.307 116.684 211.75 115.179 211.748C113.164 211.748 111.233 210.949 109.809 209.526C108.385 208.104 107.584 206.175 107.584 204.164Z" fill="#EBEBEB"/>
<path d="M110.282 204.163C110.282 203.169 110.578 202.197 111.131 201.37C111.685 200.544 112.471 199.9 113.391 199.52C114.311 199.14 115.324 199.041 116.3 199.236C117.276 199.431 118.173 199.911 118.876 200.615C119.579 201.319 120.057 202.216 120.25 203.191C120.442 204.167 120.341 205.178 119.958 206.095C119.575 207.013 118.928 207.797 118.099 208.348C117.27 208.898 116.296 209.191 115.3 209.188C114.64 209.188 113.986 209.058 113.377 208.805C112.767 208.552 112.213 208.182 111.747 207.715C111.281 207.249 110.912 206.695 110.66 206.085C110.409 205.476 110.28 204.822 110.282 204.163Z" fill="#EBEBEB"/>
<path opacity="0.5" d="M220.523 342.064C220.523 340.564 220.969 339.097 221.803 337.85C222.638 336.603 223.824 335.631 225.211 335.057C226.599 334.483 228.126 334.333 229.599 334.625C231.072 334.918 232.425 335.64 233.487 336.701C234.549 337.761 235.273 339.113 235.566 340.584C235.859 342.055 235.708 343.58 235.133 344.966C234.559 346.352 233.585 347.536 232.336 348.369C231.088 349.203 229.619 349.648 228.117 349.648C226.104 349.644 224.175 348.844 222.752 347.422C221.328 346.001 220.527 344.074 220.523 342.064Z" fill="#EBEBEB"/>
<path d="M223.086 342.064C223.086 341.07 223.381 340.098 223.934 339.272C224.487 338.446 225.273 337.802 226.192 337.422C227.112 337.041 228.123 336.942 229.099 337.136C230.075 337.329 230.972 337.808 231.675 338.511C232.379 339.213 232.858 340.109 233.052 341.083C233.246 342.058 233.147 343.068 232.766 343.987C232.385 344.905 231.74 345.689 230.913 346.242C230.085 346.794 229.113 347.088 228.118 347.088C226.783 347.088 225.504 346.559 224.56 345.617C223.616 344.674 223.086 343.396 223.086 342.064Z" fill="#EBEBEB"/>
<path opacity="0.5" d="M200.304 194.047C200.307 192.548 200.755 191.083 201.591 189.837C202.427 188.592 203.614 187.622 205.001 187.05C206.389 186.478 207.916 186.33 209.388 186.624C210.86 186.918 212.212 187.641 213.273 188.703C214.333 189.764 215.055 191.115 215.347 192.586C215.639 194.057 215.488 195.581 214.913 196.966C214.338 198.351 213.364 199.535 212.116 200.367C210.867 201.2 209.4 201.645 207.898 201.645C206.9 201.645 205.911 201.448 204.989 201.066C204.067 200.684 203.229 200.124 202.524 199.419C201.818 198.713 201.259 197.875 200.878 196.954C200.498 196.032 200.302 195.044 200.304 194.047Z" fill="#EBEBEB"/>
<path d="M202.867 194.047C202.867 193.053 203.162 192.082 203.715 191.256C204.268 190.429 205.054 189.785 205.973 189.405C206.892 189.025 207.904 188.925 208.88 189.119C209.856 189.313 210.752 189.791 211.456 190.494C212.16 191.197 212.639 192.092 212.833 193.067C213.027 194.041 212.927 195.052 212.547 195.97C212.166 196.888 211.521 197.673 210.694 198.225C209.866 198.777 208.893 199.072 207.898 199.072C206.564 199.072 205.284 198.542 204.341 197.6C203.397 196.658 202.867 195.38 202.867 194.047Z" fill="#EBEBEB"/>
<path opacity="0.5" d="M333.112 48.8723C333.115 47.3729 333.563 45.908 334.399 44.6625C335.235 43.4171 336.422 42.4472 337.81 41.8752C339.197 41.3032 340.724 41.155 342.196 41.4491C343.668 41.7433 345.02 42.4667 346.081 43.5278C347.142 44.589 347.863 45.9404 348.155 47.4112C348.447 48.882 348.296 50.4062 347.721 51.7912C347.146 53.1762 346.172 54.3599 344.924 55.1926C343.675 56.0254 342.208 56.4699 340.706 56.4699C339.708 56.4699 338.719 56.2732 337.797 55.8913C336.875 55.5093 336.037 54.9494 335.332 54.2438C334.626 53.5381 334.067 52.7005 333.686 51.7788C333.306 50.8571 333.111 49.8694 333.112 48.8723Z" fill="#EBEBEB"/>
<path d="M335.675 48.8723C335.675 47.8785 335.97 46.907 336.523 46.0807C337.076 45.2544 337.861 44.6104 338.781 44.2301C339.7 43.8498 340.712 43.7503 341.688 43.9442C342.663 44.1381 343.56 44.6166 344.264 45.3193C344.967 46.022 345.446 46.9173 345.641 47.892C345.835 48.8667 345.735 49.877 345.354 50.7951C344.973 51.7132 344.329 52.4979 343.501 53.0501C342.674 53.6022 341.701 53.8969 340.706 53.8969C340.045 53.8969 339.391 53.7669 338.781 53.5144C338.17 53.2619 337.616 52.8918 337.148 52.4252C336.681 51.9586 336.311 51.4047 336.058 50.7951C335.805 50.1855 335.675 49.5321 335.675 48.8723Z" fill="#EBEBEB"/>
<path opacity="0.5" d="M436.502 107.874C440.696 107.874 444.096 104.479 444.096 100.29C444.096 96.1015 440.696 92.7061 436.502 92.7061C432.308 92.7061 428.908 96.1015 428.908 100.29C428.908 104.479 432.308 107.874 436.502 107.874Z" fill="#EBEBEB"/>
<path d="M431.47 100.33C431.47 99.3365 431.765 98.365 432.318 97.5388C432.871 96.7125 433.657 96.0684 434.576 95.6881C435.495 95.3078 436.507 95.2083 437.483 95.4022C438.459 95.5961 439.355 96.0746 440.059 96.7773C440.763 97.48 441.242 98.3753 441.436 99.35C441.63 100.325 441.53 101.335 441.15 102.253C440.769 103.171 440.124 103.956 439.297 104.508C438.469 105.06 437.497 105.355 436.501 105.355C435.841 105.355 435.186 105.225 434.576 104.972C433.966 104.72 433.411 104.35 432.944 103.883C432.477 103.417 432.106 102.863 431.853 102.253C431.6 101.643 431.47 100.99 431.47 100.33Z" fill="#EBEBEB"/>
<path opacity="0.5" d="M273.776 396.889C273.776 395.387 274.223 393.918 275.058 392.669C275.894 391.419 277.083 390.445 278.473 389.87C279.863 389.295 281.392 389.145 282.868 389.438C284.344 389.731 285.699 390.455 286.763 391.517C287.827 392.58 288.552 393.934 288.845 395.407C289.139 396.881 288.988 398.409 288.412 399.797C287.837 401.185 286.861 402.372 285.61 403.207C284.359 404.041 282.889 404.487 281.384 404.487C279.366 404.487 277.431 403.687 276.005 402.262C274.578 400.837 273.776 398.904 273.776 396.889Z" fill="#EBEBEB"/>
<path d="M276.353 396.89C276.353 395.896 276.648 394.925 277.2 394.098C277.753 393.272 278.539 392.628 279.458 392.248C280.378 391.867 281.389 391.768 282.365 391.962C283.341 392.156 284.238 392.634 284.941 393.337C285.645 394.04 286.124 394.935 286.318 395.91C286.512 396.884 286.413 397.895 286.032 398.813C285.651 399.731 285.006 400.516 284.179 401.068C283.352 401.62 282.379 401.914 281.384 401.914C280.049 401.914 278.77 401.385 277.826 400.443C276.883 399.5 276.353 398.222 276.353 396.89Z" fill="#EBEBEB"/>
<path opacity="0.5" d="M205.335 432.129C205.335 430.629 205.781 429.163 206.615 427.915C207.45 426.668 208.636 425.696 210.023 425.122C211.411 424.548 212.938 424.398 214.411 424.691C215.884 424.983 217.237 425.706 218.299 426.766C219.361 427.827 220.085 429.178 220.378 430.649C220.671 432.121 220.52 433.645 219.945 435.031C219.371 436.417 218.397 437.602 217.148 438.435C215.9 439.268 214.431 439.713 212.929 439.713C210.917 439.709 208.987 438.909 207.564 437.488C206.14 436.066 205.339 434.139 205.335 432.129Z" fill="#EBEBEB"/>
<path d="M207.898 432.129C207.888 431.133 208.174 430.157 208.72 429.323C209.266 428.49 210.048 427.837 210.966 427.449C211.885 427.06 212.898 426.953 213.878 427.141C214.857 427.329 215.759 427.803 216.468 428.503C217.177 429.204 217.661 430.099 217.86 431.075C218.058 432.051 217.962 433.064 217.583 433.986C217.203 434.907 216.559 435.695 215.73 436.249C214.902 436.804 213.927 437.1 212.929 437.1C211.604 437.1 210.333 436.578 209.391 435.647C208.449 434.717 207.912 433.453 207.898 432.129Z" fill="#EBEBEB"/>
<path d="M143.855 302.392C143.855 301.688 144.064 301 144.456 300.415C144.848 299.83 145.405 299.374 146.056 299.105C146.708 298.837 147.425 298.767 148.116 298.905C148.807 299.044 149.441 299.384 149.939 299.882C150.436 300.381 150.774 301.016 150.91 301.707C151.046 302.397 150.974 303.113 150.702 303.762C150.43 304.412 149.972 304.967 149.385 305.356C148.797 305.745 148.107 305.951 147.402 305.948C146.935 305.948 146.473 305.856 146.042 305.677C145.611 305.499 145.219 305.236 144.889 304.906C144.56 304.576 144.299 304.183 144.121 303.752C143.944 303.321 143.853 302.859 143.855 302.392Z" fill="#EBEBEB"/>
<path d="M389.157 103.846C391.124 103.846 392.718 102.254 392.718 100.29C392.718 98.3256 391.124 96.7334 389.157 96.7334C387.191 96.7334 385.596 98.3256 385.596 100.29C385.596 102.254 387.191 103.846 389.157 103.846Z" fill="#EBEBEB"/>
<path d="M389.17 396.889C389.17 396.186 389.379 395.498 389.771 394.914C390.162 394.329 390.718 393.873 391.369 393.604C392.019 393.335 392.735 393.264 393.426 393.401C394.117 393.539 394.751 393.877 395.249 394.375C395.747 394.872 396.086 395.506 396.224 396.195C396.361 396.885 396.291 397.6 396.021 398.25C395.752 398.9 395.295 399.455 394.71 399.846C394.124 400.237 393.436 400.446 392.731 400.446C391.787 400.446 390.881 400.071 390.213 399.404C389.546 398.737 389.17 397.832 389.17 396.889Z" fill="#EBEBEB"/>
<path d="M436.501 264.809C436.499 264.105 436.705 263.416 437.095 262.83C437.485 262.243 438.04 261.785 438.69 261.514C439.341 261.243 440.057 261.17 440.749 261.306C441.44 261.442 442.076 261.779 442.576 262.276C443.075 262.773 443.415 263.407 443.554 264.097C443.692 264.787 443.623 265.503 443.354 266.153C443.085 266.804 442.628 267.36 442.042 267.752C441.456 268.143 440.767 268.352 440.062 268.352C439.12 268.352 438.217 267.979 437.549 267.315C436.882 266.651 436.505 265.75 436.501 264.809Z" fill="#EBEBEB"/>
<path d="M57.0698 229.879C57.0672 229.175 57.2738 228.486 57.6634 227.9C58.0531 227.313 58.6083 226.855 59.2587 226.584C59.9092 226.313 60.6256 226.241 61.3172 226.376C62.0089 226.512 62.6446 226.85 63.144 227.346C63.6433 227.843 63.9838 228.477 64.1223 229.167C64.2608 229.857 64.1911 230.573 63.922 231.224C63.6529 231.874 63.1965 232.43 62.6106 232.822C62.0247 233.213 61.3357 233.422 60.6308 233.422C59.6887 233.422 58.785 233.049 58.1176 232.385C57.4502 231.721 57.0734 230.82 57.0698 229.879Z" fill="#EBEBEB"/>
<path d="M354.734 211.411C354.734 210.707 354.943 210.02 355.335 209.435C355.726 208.85 356.282 208.394 356.933 208.125C357.583 207.856 358.299 207.786 358.99 207.923C359.681 208.06 360.315 208.399 360.813 208.896C361.311 209.393 361.65 210.027 361.788 210.717C361.925 211.407 361.855 212.122 361.585 212.772C361.316 213.422 360.859 213.977 360.274 214.368C359.688 214.758 359 214.967 358.295 214.967C357.351 214.967 356.445 214.592 355.777 213.925C355.11 213.259 354.734 212.354 354.734 211.411Z" fill="#EBEBEB"/>
<path d="M481.216 196.404C481.216 195.7 481.425 195.012 481.817 194.427C482.209 193.842 482.766 193.386 483.417 193.117C484.069 192.848 484.785 192.779 485.476 192.917C486.168 193.055 486.802 193.395 487.3 193.894C487.797 194.393 488.135 195.028 488.271 195.718C488.407 196.409 488.334 197.125 488.063 197.774C487.791 198.424 487.333 198.978 486.745 199.367C486.158 199.757 485.468 199.963 484.763 199.96C484.296 199.96 483.834 199.868 483.403 199.689C482.971 199.51 482.58 199.248 482.25 198.918C481.92 198.587 481.659 198.195 481.482 197.764C481.305 197.332 481.214 196.87 481.216 196.404Z" fill="#EBEBEB"/>
<path d="M140.294 64.9157C140.294 64.2123 140.503 63.5247 140.894 62.9399C141.285 62.3551 141.842 61.8992 142.492 61.6301C143.143 61.3609 143.859 61.2905 144.55 61.4277C145.24 61.5649 145.875 61.9036 146.373 62.401C146.871 62.8983 147.21 63.532 147.347 64.2219C147.485 64.9117 147.414 65.6268 147.145 66.2766C146.875 66.9264 146.419 67.4818 145.833 67.8726C145.248 68.2634 144.559 68.4719 143.855 68.4719C142.91 68.4719 142.005 68.0973 141.337 67.4303C140.669 66.7634 140.294 65.8588 140.294 64.9157Z" fill="#EBEBEB"/>
<path d="M268.974 151.897C268.971 151.193 269.178 150.504 269.568 149.917C269.957 149.331 270.513 148.873 271.163 148.602C271.813 148.331 272.53 148.258 273.222 148.394C273.913 148.53 274.549 148.867 275.048 149.364C275.548 149.861 275.888 150.494 276.027 151.185C276.165 151.875 276.095 152.591 275.826 153.241C275.557 153.892 275.101 154.448 274.515 154.839C273.929 155.231 273.24 155.44 272.535 155.44C271.593 155.44 270.689 155.067 270.022 154.403C269.354 153.739 268.978 152.838 268.974 151.897Z" fill="#EBEBEB"/>
<path d="M279.684 23.4124C281.651 23.4124 283.245 21.8202 283.245 19.8561C283.245 17.892 281.651 16.2998 279.684 16.2998C277.717 16.2998 276.123 17.892 276.123 19.8561C276.123 21.8202 277.717 23.4124 279.684 23.4124Z" fill="#EBEBEB"/>
<path d="M314.093 336.217C316.06 336.217 317.654 334.625 317.654 332.661C317.654 330.697 316.06 329.104 314.093 329.104C312.127 329.104 310.532 330.697 310.532 332.661C310.532 334.625 312.127 336.217 314.093 336.217Z" fill="#EBEBEB"/>
<path d="M309.413 441.37C309.413 440.666 309.622 439.978 310.014 439.393C310.406 438.807 310.963 438.352 311.614 438.083C312.266 437.814 312.983 437.744 313.674 437.883C314.365 438.021 314.999 438.361 315.497 438.86C315.994 439.359 316.332 439.994 316.468 440.684C316.604 441.375 316.532 442.09 316.26 442.74C315.988 443.39 315.53 443.944 314.943 444.333C314.355 444.722 313.665 444.929 312.961 444.926C312.018 444.922 311.116 444.546 310.451 443.88C309.786 443.213 309.413 442.311 309.413 441.37Z" fill="#EBEBEB"/>
<path d="M145.608 385.75C145.608 385.046 145.818 384.358 146.209 383.772C146.601 383.187 147.158 382.732 147.81 382.463C148.461 382.194 149.178 382.124 149.869 382.263C150.56 382.401 151.195 382.741 151.692 383.24C152.19 383.738 152.528 384.373 152.664 385.064C152.799 385.755 152.727 386.47 152.455 387.12C152.184 387.77 151.725 388.324 151.138 388.713C150.551 389.102 149.861 389.309 149.156 389.306C148.689 389.306 148.226 389.214 147.795 389.035C147.364 388.856 146.972 388.594 146.643 388.263C146.313 387.933 146.052 387.541 145.875 387.11C145.697 386.678 145.607 386.216 145.608 385.75Z" fill="#EBEBEB"/>
<path d="M340.625 48.4277L340.706 48.522L389.265 100.182L484.858 196.35V196.431L466.568 316.2L427.586 365.516L392.853 396.984L312.947 441.545L312.866 441.438L281.276 396.984L228.118 342.306L149.129 385.911L149.048 385.817L96.2001 329.132L60.4556 229.825L105.763 134.506H105.844L241.93 110.501L340.625 48.4277ZM484.534 196.458L389.063 100.398L340.571 48.8319L242.105 110.797L106.006 134.775L60.7928 229.879L96.4834 329.024L149.196 385.601L228.145 341.956L228.226 342.037L281.492 396.822L313.014 441.141L392.597 396.688L427.276 365.274L466.217 315.998L484.534 196.458Z" fill="#EBEBEB"/>
<path d="M143.788 64.7139H143.923L242.119 110.514L272.616 151.762L358.174 211.155L389.103 99.8322L389.279 100.209L424.632 175.147L440.198 264.809L392.812 397.024H392.678L293.065 374.245L281.451 397.038H281.357L149.008 385.911V385.776L148.064 341.121L96.3081 329.334V329.024L147.861 334.116L147.2 302.379L207.548 194.33L115.03 204.433V204.285L105.683 134.695L143.788 64.7139ZM241.917 110.744L143.923 65.118L106.06 134.654L115.367 203.988L208.182 193.858L208.033 194.128L147.564 302.392L148.225 334.075L228.131 341.956L314.363 332.526L314.242 332.796L293.227 374.03L392.624 396.688L439.901 264.768L424.349 175.228L389.279 100.735L358.444 211.667L358.268 211.545L272.468 151.991L241.917 110.744ZM147.929 334.358L98.7765 329.509L148.05 340.784L147.929 334.358ZM292.917 373.909L313.824 332.85L228.131 342.279L148.239 334.399L148.374 340.865L292.917 373.909ZM292.768 374.191L148.441 341.175L149.385 385.628L281.29 396.688L292.768 374.191Z" fill="#EBEBEB"/>
<path d="M149.25 385.628L213.011 431.994L212.822 432.25L149.062 385.884L149.25 385.628Z" fill="#EBEBEB"/>
<path d="M279.698 19.6807L340.625 48.4677L341.731 48.3734L340.976 48.6563L436.623 100.182L484.804 196.242L485.37 196.444L484.777 196.512L440.265 264.768L466.662 316.172L466.5 316.24L384.584 351.991L392.988 397.24L392.65 396.97L353.952 365.354L313.756 382.866L313.149 441.464H312.974L212.404 432.169L212.876 431.913L281.33 396.687L313.446 382.678L313.972 332.27L314.228 332.472L354.006 364.964L384.234 351.776L358.106 211.275H358.268L484.008 196.35L424.443 175.349L272.562 152.058L207.817 194.275L207.736 194.127L167.177 112.333L106.033 134.748L102.337 210.063L115.151 204.028L115.286 204.311L102.324 210.413L99.761 262.37L147.686 302.392L147.483 302.5L96.227 329.374L99.4912 262.505L60.3745 229.838L60.6038 229.73L102.067 210.211L105.79 134.519H105.885L167.096 112.09L143.612 64.7808H143.814L279.698 19.6807ZM340.005 48.5216L279.671 20.0174L145.136 64.6461L340.005 48.5216ZM436.38 100.411L340.612 48.791L167.487 112.225L207.952 193.817L272.481 151.735H272.549L424.564 175.026L484.426 196.134L436.38 100.411ZM167.352 111.942L339.452 48.8718L144.098 65.0368L167.352 111.942ZM466.203 316.051L439.874 264.862V264.781L484.386 196.673L358.471 211.558L384.49 351.654L466.203 316.051ZM99.4912 262.114L102.027 210.562L60.9141 229.906L99.4912 262.114ZM147.133 302.392L99.761 262.761L96.5102 328.848L147.133 302.392ZM353.655 365.246L314.255 333.065L313.729 382.664L353.655 365.246ZM392.489 396.566L384.261 352.22L354.249 365.327L392.489 396.566ZM312.812 441.141L313.419 383.028L281.438 396.984L213.469 432.008L312.812 441.141Z" fill="#EBEBEB"/>
<path d="M207.049 575C321.398 575 414.097 563.873 414.097 550.146C414.097 536.42 321.398 525.293 207.049 525.293C92.6988 525.293 0 536.42 0 550.146C0 563.873 92.6988 575 207.049 575Z" fill="#EBEBEB"/>
<path d="M286.442 559.685C283.529 560.614 200.547 559.55 197.418 557.502C196.218 556.735 195.678 544.651 195.435 530.036C195.435 529.874 195.435 529.726 195.435 529.578C195.435 526.56 195.341 523.462 195.341 520.31C195.341 519.879 195.341 519.447 195.341 518.963L199.387 475.964L254.906 476.516L249.43 519.111L249.362 520.795L249.025 529.618V530.52C249.025 530.52 280.602 545.123 283.812 547.736C287.022 550.349 289.356 558.755 286.442 559.685Z" fill="#F7A9A0"/>
<path d="M286.442 559.684C283.529 560.614 200.547 559.549 197.418 557.502C196.218 556.734 195.678 544.651 195.435 530.035C195.435 529.873 195.435 529.725 195.435 529.577C195.435 526.559 195.341 523.461 195.341 520.309C195.341 519.878 195.341 519.447 195.341 518.962L249.403 519.11L249.335 520.794L248.998 529.617V530.52C248.998 530.52 280.575 545.122 283.785 547.736C286.995 550.349 289.356 558.755 286.442 559.684Z" fill="#EBEBEB"/>
<path d="M286.456 559.685C284.958 560.169 262.406 560.116 240.365 559.685C235.941 559.604 231.53 559.496 227.322 559.388C211.608 558.957 198.618 558.311 197.418 557.516C196.217 556.721 195.678 545.015 195.435 530.668C195.435 530.466 195.435 530.264 195.435 530.062C195.435 529.86 195.435 529.739 195.435 529.591L248.917 529.685V530.601C248.917 530.601 280.507 545.19 283.704 547.803C286.901 550.417 289.356 558.755 286.456 559.685Z" fill="#FF0035"/>
<path d="M285.552 556.451C271.564 555.925 215.101 555.104 201.235 555.669C201.127 555.669 201.127 555.75 201.235 555.764C215.088 556.585 271.551 556.922 285.538 556.68C285.835 556.68 285.835 556.464 285.552 556.451Z" fill="#263238"/>
<path d="M254.919 529.901C249.429 528.796 242.685 529.564 238.423 533.417C238.261 533.565 238.423 533.807 238.652 533.753C243.919 532.125 249.345 531.064 254.838 530.588C254.922 530.584 255.001 530.551 255.062 530.495C255.124 530.438 255.163 530.362 255.172 530.279C255.182 530.196 255.162 530.113 255.116 530.043C255.069 529.974 255 529.923 254.919 529.901Z" fill="#263238"/>
<path d="M258.858 532.339C253.368 531.248 246.624 532.002 242.375 535.868C242.2 536.017 242.375 536.246 242.604 536.192C247.871 534.566 253.298 533.509 258.791 533.04C258.884 533.048 258.976 533.02 259.048 532.961C259.121 532.901 259.166 532.816 259.175 532.723C259.184 532.63 259.156 532.537 259.096 532.465C259.037 532.393 258.951 532.348 258.858 532.339Z" fill="#263238"/>
<path d="M262.81 534.791C257.307 533.686 250.576 534.44 246.314 538.307C246.152 538.455 246.314 538.684 246.543 538.63C251.812 537.011 257.238 535.954 262.73 535.478C262.813 535.474 262.892 535.441 262.954 535.385C263.015 535.328 263.054 535.251 263.063 535.169C263.073 535.086 263.053 535.002 263.007 534.933C262.96 534.864 262.891 534.813 262.81 534.791Z" fill="#263238"/>
<path d="M240.365 559.685C235.941 559.604 231.53 559.496 227.322 559.388C211.608 558.957 198.618 558.311 197.418 557.516C196.217 556.721 195.678 545.015 195.435 530.668C195.435 530.466 195.435 530.264 195.435 530.062C195.435 529.86 195.435 529.739 195.435 529.591C202.8 534.696 228.617 551.858 240.365 559.685Z" fill="#263238"/>
<path d="M252.599 529.86H192.832C192.832 529.86 204.864 390.438 204.405 388C203.798 384.888 200.278 370.771 195.584 352.343C194.1 346.564 192.522 340.38 190.863 333.968C186.411 316.618 181.502 297.665 177.226 281.176C170.792 256.458 165.774 237.262 165.774 237.262H216.437C216.437 237.262 222.345 255.959 229.777 280.274C241.917 319.797 258.103 374.179 259.708 387.407C262.298 408.812 252.599 529.86 252.599 529.86Z" fill="#232A3F"/>
<path d="M249.956 519.663C240.824 519.474 243.454 519.407 234.322 519.313C229.858 519.313 200.493 519.016 196.325 519.703C196.231 519.703 196.231 519.878 196.325 519.892C200.493 520.579 229.858 520.336 234.322 520.283C243.454 520.202 240.824 520.121 249.956 519.932C249.973 519.932 249.991 519.929 250.007 519.922C250.024 519.915 250.038 519.905 250.051 519.893C250.063 519.88 250.073 519.865 250.08 519.849C250.087 519.833 250.09 519.815 250.09 519.798C250.09 519.78 250.087 519.762 250.08 519.746C250.073 519.73 250.063 519.715 250.051 519.702C250.038 519.69 250.024 519.68 250.007 519.673C249.991 519.666 249.973 519.663 249.956 519.663Z" fill="#37474F"/>
<path d="M215.641 379.486C213.685 370.851 210.758 362.392 208.209 353.892C203.029 336.703 197.814 319.537 192.562 302.393C189.945 293.798 187.315 285.204 184.671 276.61C183.331 272.29 181.983 267.957 180.625 263.61C179.276 259.381 177.779 255.178 176.578 250.907C176.093 249.156 175.823 250.113 176.443 252.322C177.711 256.781 178.952 261.24 180.247 265.671C182.819 274.472 185.409 283.264 188.016 292.047C193.214 309.532 198.443 327.008 203.704 344.475C206.338 353.231 208.973 361.987 211.608 370.743C212.949 374.907 214.03 379.149 214.845 383.446C215.546 387.942 215.722 392.503 215.371 397.038C214.805 406.172 213.739 415.291 212.889 424.398C212.039 433.504 211.203 442.664 210.353 451.797C208.672 469.974 207.004 488.146 205.349 506.313C205.147 508.617 204.944 510.92 204.769 513.224C204.702 513.992 205.875 513.938 205.956 513.224C207.925 495.254 209.436 477.23 211.122 459.233C212.808 441.236 214.481 423.414 216.153 405.512C216.585 401.012 217.057 396.513 217.057 392.041C217.07 387.815 216.594 383.603 215.641 379.486Z" fill="#37474F"/>
<path d="M210.691 237.262C207.17 264.432 200.466 315.392 195.584 352.343C184.145 307.552 165.774 237.262 165.774 237.262H210.691Z" fill="#232A3F"/>
<path d="M223.127 560.479C220.214 561.422 137.219 560.654 134.103 558.62C132.889 557.865 132.296 545.782 131.999 531.166V530.708C131.931 527.691 131.877 524.593 131.864 521.441C131.864 521.009 131.864 520.578 131.864 520.093C131.662 498.985 133.213 477.095 133.213 477.095L187.464 477.445L185.953 520.04V521.737L185.643 530.547V531.463C185.643 531.463 217.273 545.944 220.497 548.544C223.721 551.144 226.041 559.536 223.127 560.479Z" fill="#F7A9A0"/>
<path d="M223.127 560.479C220.214 561.422 137.219 560.654 134.103 558.62C132.889 557.866 132.295 545.783 131.999 531.167V530.709C131.931 527.691 131.877 524.593 131.864 521.441C131.864 521.01 131.864 520.579 131.864 520.094H185.926V521.791L185.615 530.601V531.517C185.615 531.517 217.246 545.998 220.47 548.598C223.694 551.198 226.041 559.536 223.127 560.479Z" fill="#EBEBEB"/>
<path d="M223.127 560.479C220.213 561.422 137.219 560.654 134.103 558.62C132.889 557.865 132.295 545.782 131.999 531.166V530.708L185.548 530.601V531.517C185.548 531.517 217.178 545.998 220.402 548.598C223.626 551.197 226.04 559.536 223.127 560.479Z" fill="#FF0035"/>
<path d="M222.237 557.259C208.249 556.788 151.786 556.195 137.92 556.788C137.812 556.788 137.812 556.869 137.92 556.869C151.773 557.65 208.236 557.771 222.223 557.488C222.507 557.475 222.507 557.259 222.237 557.259Z" fill="#263238"/>
<path d="M191.497 530.816C185.993 529.738 179.263 530.52 175.014 534.399C174.852 534.547 175.014 534.776 175.243 534.723C180.509 533.081 185.935 532.002 191.429 531.503C191.512 531.497 191.589 531.462 191.649 531.404C191.708 531.347 191.745 531.27 191.753 531.188C191.761 531.106 191.739 531.023 191.693 530.955C191.646 530.887 191.576 530.838 191.497 530.816Z" fill="#263238"/>
<path d="M195.449 533.241C189.945 532.163 183.215 532.945 178.966 536.824C178.804 536.972 178.966 537.201 179.195 537.147C184.46 535.504 189.887 534.429 195.381 533.941C195.474 533.95 195.567 533.922 195.639 533.863C195.711 533.803 195.757 533.718 195.766 533.625C195.775 533.532 195.746 533.439 195.687 533.367C195.627 533.295 195.542 533.25 195.449 533.241Z" fill="#263238"/>
<path d="M199.401 535.666C193.898 534.588 187.167 535.369 182.918 539.249C182.756 539.397 182.918 539.626 183.147 539.572C188.412 537.929 193.839 536.854 199.333 536.366C199.38 536.371 199.426 536.366 199.47 536.352C199.514 536.339 199.556 536.317 199.591 536.287C199.627 536.258 199.657 536.222 199.678 536.181C199.7 536.14 199.713 536.096 199.718 536.05C199.722 536.004 199.718 535.957 199.704 535.913C199.691 535.869 199.668 535.828 199.639 535.792C199.61 535.756 199.573 535.727 199.533 535.705C199.492 535.684 199.447 535.67 199.401 535.666Z" fill="#263238"/>
<path d="M214.791 237.262C214.791 237.262 213.631 261.509 208.047 280.638C207.602 282.227 207.116 283.79 206.59 285.285C201.507 287.332 196.621 289.839 191.996 292.775C191.996 292.775 191.416 312.254 190.822 333.968C190.175 358.216 189.473 385.332 189.649 391.071C190.148 412.557 186.951 530.723 186.951 530.723L127.197 530.965C127.197 530.965 137.988 398.951 137.988 391.138C137.88 378.476 140.888 322.559 143.208 281.769C144.637 256.633 145.797 237.316 145.797 237.316L214.791 237.262Z" fill="#232A3F"/>
<path d="M184.941 520.107C175.823 519.959 178.44 519.879 169.308 519.825C164.843 519.825 135.479 519.676 131.311 520.377C131.286 520.377 131.262 520.387 131.244 520.405C131.226 520.422 131.216 520.446 131.216 520.471C131.216 520.496 131.226 520.52 131.244 520.538C131.262 520.556 131.286 520.565 131.311 520.565C135.492 521.239 164.843 520.862 169.308 520.795C178.44 520.673 175.823 520.606 184.955 520.377C185.116 520.377 185.116 520.121 184.941 520.107Z" fill="#37474F"/>
<path d="M150.748 245.91C149.655 279.21 148.482 312.509 146.998 345.796C145.514 379.082 143.491 412.57 140.685 445.884C139.121 464.487 137.65 490.674 135.641 509.196C135.641 509.331 135.816 509.371 135.829 509.196C140.186 476.166 142.574 435.323 144.745 402.09C146.917 368.858 148.333 335.558 149.48 302.285C150.114 283.426 150.599 264.567 151.166 245.802C151.22 245.627 150.748 245.654 150.748 245.91Z" fill="#37474F"/>
<path d="M209.113 283.843C203.171 286.318 197.457 289.306 192.036 292.774C192.002 292.803 191.979 292.843 191.97 292.887C191.961 292.931 191.968 292.977 191.988 293.017C192.008 293.057 192.041 293.09 192.081 293.109C192.122 293.128 192.168 293.134 192.212 293.124C197.985 290.322 203.866 287.628 209.463 284.53C209.538 284.475 209.591 284.395 209.613 284.305C209.634 284.215 209.623 284.12 209.581 284.037C209.538 283.955 209.468 283.89 209.382 283.854C209.297 283.819 209.201 283.815 209.113 283.843Z" fill="#37474F"/>
<path d="M209.45 263.327C209.059 265.455 208.546 267.557 208.101 269.658C207.656 271.76 207.345 273.7 206.833 275.612C206.404 277.505 205.439 279.235 204.054 280.597C203.272 281.324 202.422 281.944 201.586 282.617C201.141 282.981 200.655 283.318 200.237 283.681C200.237 283.399 200.345 283.116 200.399 282.819L200.804 280.408C201.114 278.63 201.397 276.838 201.667 275.02C202.206 271.504 202.705 267.948 203.447 264.459C203.439 264.435 203.423 264.414 203.403 264.4C203.382 264.385 203.358 264.377 203.333 264.377C203.307 264.377 203.283 264.385 203.262 264.4C203.242 264.414 203.226 264.435 203.218 264.459C202.341 267.907 201.37 271.329 200.615 274.804C200.237 276.515 198.902 284.948 198.834 285.581C198.767 286.214 198.726 286.82 198.699 287.44C198.626 288.066 198.626 288.699 198.699 289.326C198.709 289.356 198.728 289.382 198.753 289.401C198.779 289.42 198.809 289.43 198.841 289.43C198.873 289.43 198.903 289.42 198.929 289.401C198.954 289.382 198.973 289.356 198.983 289.326C199.243 288.742 199.425 288.126 199.522 287.494C199.67 286.887 199.805 286.281 199.913 285.662C199.913 285.446 199.994 285.217 200.021 284.988C200.857 284.49 201.626 283.816 202.409 283.264C203.191 282.712 204.095 282.065 204.891 281.391C206.355 280.156 207.413 278.508 207.925 276.663C208.436 274.676 208.765 272.647 208.91 270.601C209.18 268.204 209.382 265.806 209.719 263.408C209.692 263.219 209.477 263.152 209.45 263.327Z" fill="#37474F"/>
<path d="M182.621 174.81C190.876 188.537 226.094 218.186 238.504 218.887C247.474 219.399 278.619 194.801 286.981 186.166C295.075 177.814 265.778 155.183 260.706 159.71C253.53 166.162 237.87 184.752 234.403 185.304C231.962 185.722 216.99 178.717 193.749 165.475C180.894 158.255 177.725 166.62 182.621 174.81Z" fill="#F7A9A0"/>
<path d="M271.187 146.671C276.177 143.869 281.681 140.245 287.616 139.315C293.551 138.386 299.836 145.337 300.227 147.56C300.619 149.782 300.821 164.115 294.913 165.152C289.005 166.19 290.691 154.861 290.246 153.675C289.801 152.49 289.315 150.981 288.223 151.264C287.13 151.547 269.217 164.25 269.217 164.25L271.187 146.671Z" fill="#F7A9A0"/>
<path d="M271.699 147.479C272.036 147.479 286.793 138.399 292.728 137.483C298.663 136.567 304.948 143.491 305.34 145.727C305.731 147.964 305.947 162.283 300.025 163.32C294.104 164.358 295.803 153.029 295.372 151.843C294.94 150.658 294.427 149.149 293.335 149.432C292.242 149.715 274.329 162.418 274.329 162.418L271.699 147.479Z" fill="#F7A9A0"/>
<path d="M297.88 162.862C297.079 161.929 296.531 160.807 296.289 159.602C295.938 158.363 295.788 157.076 295.843 155.79C295.98 154.673 296.03 153.547 295.992 152.422C295.796 151.329 295.332 150.302 294.643 149.431C294.036 148.691 293.227 149.122 292.525 149.512C291.496 150.125 290.505 150.8 289.558 151.533C288.533 152.287 287.508 153.069 286.496 153.85C285.41 154.609 284.373 155.437 283.394 156.329C283.313 156.396 283.394 156.531 283.488 156.477C284.445 155.906 285.368 155.28 286.253 154.604C287.292 153.89 288.317 153.163 289.369 152.462C290.421 151.762 291.284 151.115 292.269 150.469C292.62 150.24 293.308 149.701 293.753 149.728C294.198 149.755 294.643 150.819 294.805 151.156C295.237 152.176 295.359 153.3 295.156 154.389C295.048 155.5 295.048 156.619 295.156 157.729C295.232 158.779 295.497 159.805 295.938 160.76C296.463 161.601 297.088 162.374 297.799 163.064C297.772 163.118 297.988 162.956 297.88 162.862Z" fill="#263238"/>
<path d="M255.661 166.216C255.661 166.216 269.446 148.421 272.333 144.865C278.133 137.726 304.908 120.914 308.846 119.782C312.785 118.651 315.685 126.626 297.61 138.642C288.088 144.946 287.292 151.169 288.061 154.402C288.829 157.635 293.024 163.185 298.501 162.081C303.977 160.976 306.149 152.314 311.058 150.536C315.968 148.758 314.242 158.619 311.611 164.573C308.775 170.401 304.341 175.306 298.824 178.717C294.373 181.33 280.75 190.262 280.75 190.262L255.661 166.216Z" fill="#F7A9A0"/>
<path d="M304.665 156.976C302.871 158.942 300.888 161.434 298.177 162.014C295.466 162.593 293.213 161.098 291.5 159.037C289.665 157.031 288.67 154.398 288.722 151.681C288.943 149.193 289.88 146.821 291.419 144.852C293.296 142.454 295.514 140.344 298.002 138.588C298.11 138.507 298.002 138.359 297.867 138.426C295.533 140.002 288.209 144.609 287.858 151.83C287.819 154.604 288.853 157.287 290.745 159.319C292.35 161.286 294.495 163.091 297.206 162.835C300.511 162.539 302.844 159.4 304.841 157.016C304.921 156.908 304.76 156.908 304.665 156.976Z" fill="#263238"/>
<path d="M260.112 160.222L282.8 201.105C282.8 201.105 248.863 221.083 237.91 219.965C226.958 218.846 195.003 193.023 182.513 176.05C174.906 165.745 180.247 157.016 195.084 164.748C210.313 172.682 231.692 183.607 233.216 183.863C234.741 184.119 260.112 160.222 260.112 160.222Z" fill="#38405F"/>
<path d="M238.086 192.646C238.506 193.529 238.797 194.469 238.949 195.435C238.311 194.691 237.788 193.855 237.398 192.956C236.973 192.073 236.678 191.134 236.521 190.168C237.159 190.914 237.686 191.749 238.086 192.646ZM266.978 181.021C267.139 181.987 267.435 182.925 267.855 183.809C268.245 184.709 268.768 185.544 269.406 186.288C269.076 184.349 268.238 182.533 266.978 181.021ZM204.796 174.42C204.951 175.386 205.241 176.325 205.66 177.209C206.063 178.097 206.584 178.926 207.211 179.674C207.063 178.707 206.772 177.767 206.348 176.885C205.949 175.995 205.427 175.165 204.796 174.42ZM238.909 212.219C239.876 212.061 240.816 211.766 241.701 211.344C242.595 210.951 243.427 210.429 244.169 209.795C243.204 209.954 242.264 210.244 241.377 210.657C240.483 211.072 239.652 211.611 238.909 212.26V212.219ZM272.374 200.54C274.312 200.207 276.129 199.376 277.648 198.129C276.68 198.281 275.74 198.571 274.856 198.991C273.958 199.403 273.123 199.938 272.374 200.581V200.54ZM257.199 168.493C258.168 168.357 259.113 168.085 260.005 167.685C260.905 167.296 261.742 166.773 262.487 166.136C261.519 166.286 260.578 166.576 259.695 166.998C258.796 167.375 257.955 167.879 257.199 168.493ZM219.634 186.288C219.067 187.084 218.613 187.954 218.285 188.874C217.93 189.785 217.712 190.743 217.637 191.717C218.207 190.923 218.661 190.052 218.986 189.13C219.341 188.22 219.559 187.262 219.634 186.288ZM255.055 192.821C253.931 194.416 253.235 196.271 253.031 198.21C253.611 197.427 254.066 196.559 254.38 195.637C254.732 194.733 254.959 193.786 255.055 192.821ZM192.293 176.131C191.72 176.924 191.266 177.795 190.944 178.717C190.591 179.629 190.369 180.586 190.283 181.56C190.858 180.769 191.312 179.897 191.632 178.973C191.984 178.062 192.207 177.105 192.293 176.131ZM203.812 195.327C203.018 194.755 202.146 194.302 201.222 193.98C200.304 193.629 199.341 193.407 198.362 193.32C199.156 193.891 200.028 194.345 200.952 194.667C201.87 195.018 202.833 195.24 203.812 195.327ZM251.116 180.725C250.319 180.158 249.448 179.705 248.526 179.377C247.614 179.023 246.655 178.805 245.68 178.731C246.475 179.3 247.347 179.753 248.27 180.078C249.182 180.432 250.141 180.65 251.116 180.725ZM228.078 203.625C227.285 203.059 226.418 202.605 225.501 202.278C224.583 201.927 223.621 201.705 222.642 201.618C223.432 202.194 224.305 202.648 225.231 202.965C226.145 203.311 227.103 203.525 228.078 203.598V203.625ZM263.741 209.444C262.949 208.878 262.082 208.425 261.165 208.097C260.248 207.744 259.285 207.527 258.305 207.451C259.102 208.017 259.974 208.47 260.895 208.798C261.808 209.149 262.766 209.367 263.741 209.444Z" fill="white"/>
<path d="M262.392 186.638C260.908 183.539 255.054 171.079 253.84 167.873C253.84 167.873 253.84 167.779 253.935 167.873C255.688 170.702 261.826 182.826 263.377 185.937C266.512 192.066 269.308 198.362 271.753 204.796C271.753 204.904 271.632 205.025 271.551 204.904C268.098 198.99 265.319 192.767 262.392 186.638Z" fill="#263238"/>
<path d="M182.513 176.077C192.643 189.803 215.533 209.417 229.723 216.934L186.33 161.865C178.467 161.218 176.686 168.183 182.513 176.077Z" fill="#263238"/>
<path d="M139.539 273.228C139.768 273.444 227.322 267.449 228.05 266.493C229.075 265.146 201.37 176.239 194.423 163.226C191.469 157.662 177.306 156.868 171.709 162.121C157.694 175.282 147.942 217.836 145.892 230.593C142.493 251.634 138.756 272.46 139.539 273.228Z" fill="#38405F"/>
<path d="M182.85 190.006C183.27 190.894 183.561 191.837 183.713 192.808C183.075 192.064 182.552 191.228 182.162 190.329C181.744 189.445 181.453 188.506 181.299 187.541C181.925 188.289 182.447 189.118 182.85 190.006ZM191.321 223.683C191.655 225.618 192.487 227.433 193.735 228.95C193.402 227.015 192.57 225.2 191.321 223.683ZM201.248 263.018C201.405 263.984 201.7 264.923 202.125 265.806C202.515 266.705 203.038 267.541 203.676 268.285C203.346 266.346 202.508 264.529 201.248 263.018ZM160.783 215.048C160.937 216.014 161.228 216.953 161.646 217.837C162.041 218.733 162.564 219.568 163.197 220.315C162.871 218.378 162.038 216.561 160.783 215.048ZM148.05 240.71C148.208 241.676 148.504 242.615 148.927 243.498C149.32 244.392 149.843 245.222 150.478 245.964C150.15 244.028 149.312 242.215 148.05 240.71ZM182.54 254.975C182.69 255.942 182.981 256.881 183.403 257.764C183.803 258.661 184.33 259.496 184.968 260.243C184.809 259.276 184.514 258.337 184.091 257.454C183.684 256.555 183.148 255.72 182.499 254.975H182.54ZM208.505 208.42C208.836 210.353 209.668 212.164 210.92 213.674C210.589 211.742 209.757 209.93 208.505 208.42ZM170.872 203.8C171.839 203.646 172.779 203.356 173.664 202.938C174.547 202.527 175.368 201.996 176.106 201.362C175.133 201.507 174.187 201.798 173.3 202.224C172.407 202.63 171.576 203.161 170.832 203.8H170.872ZM162.887 235.766C163.859 235.614 164.804 235.324 165.693 234.904C166.582 234.502 167.412 233.98 168.161 233.355C167.193 233.503 166.252 233.793 165.369 234.217C164.473 234.615 163.638 235.136 162.887 235.766ZM167.096 271.41L168.647 271.316L169.24 271.06C170.132 270.655 170.967 270.134 171.722 269.51C170.753 269.656 169.812 269.947 168.93 270.373C168.287 270.66 167.673 271.007 167.096 271.41ZM199.832 241.262C200.8 241.104 201.74 240.809 202.624 240.387C203.523 239.994 204.359 239.472 205.106 238.837C204.135 238.99 203.19 239.28 202.301 239.7C201.406 240.115 200.575 240.654 199.832 241.303V241.262ZM170.832 176.131C171.799 175.977 172.739 175.687 173.624 175.269C174.522 174.875 175.358 174.353 176.106 173.72C175.138 173.87 174.197 174.16 173.314 174.582C172.414 174.989 171.578 175.524 170.832 176.171V176.131ZM162.982 180.778C162.415 181.574 161.961 182.445 161.633 183.365C161.278 184.275 161.06 185.233 160.985 186.207C161.555 185.413 162.009 184.542 162.334 183.621C162.685 182.723 162.903 181.779 162.982 180.819V180.778ZM151.247 221.608C150.677 222.403 150.223 223.273 149.898 224.195C149.54 225.11 149.318 226.072 149.237 227.051C149.809 226.258 150.263 225.387 150.586 224.464C150.933 223.56 151.156 222.613 151.247 221.649V221.608ZM152.245 258.384C151.68 259.181 151.226 260.051 150.896 260.97C150.543 261.886 150.325 262.848 150.248 263.826C150.816 263.03 151.269 262.16 151.597 261.239C151.947 260.337 152.165 259.389 152.245 258.424V258.384ZM193.911 204.393C193.339 205.185 192.884 206.056 192.562 206.979C192.203 207.889 191.98 208.847 191.901 209.821C192.476 209.03 192.93 208.159 193.25 207.235C193.602 206.323 193.825 205.366 193.911 204.393ZM181.137 237.423C180.57 238.219 180.116 239.089 179.788 240.009C179.435 240.925 179.217 241.887 179.141 242.865C179.708 242.069 180.162 241.199 180.49 240.279C180.843 239.363 181.061 238.401 181.137 237.423ZM215.803 250.894C215.236 251.69 214.782 252.56 214.454 253.48C214.101 254.396 213.882 255.358 213.806 256.336C214.373 255.54 214.827 254.67 215.155 253.75C215.508 252.834 215.726 251.872 215.803 250.894ZM192.292 176.131C191.72 176.924 191.266 177.795 190.943 178.717C190.591 179.629 190.368 180.586 190.282 181.56C190.857 180.769 191.312 179.897 191.631 178.973C191.984 178.062 192.206 177.105 192.292 176.131ZM203.811 195.327C203.018 194.755 202.145 194.302 201.221 193.98C200.303 193.629 199.341 193.407 198.362 193.32C199.156 193.891 200.028 194.345 200.952 194.667C201.87 195.018 202.832 195.24 203.811 195.327ZM168.498 252.914C167.702 252.348 166.83 251.895 165.909 251.567C164.996 251.215 164.038 250.993 163.063 250.907C163.851 251.486 164.725 251.941 165.652 252.254C166.563 252.613 167.522 252.835 168.498 252.914ZM214.993 228.222C213.397 227.1 211.54 226.404 209.598 226.202C210.388 226.778 211.262 227.232 212.188 227.549C213.086 227.906 214.031 228.132 214.993 228.222ZM153.701 198.452C154.389 198.889 155.122 199.25 155.887 199.53C156.798 199.884 157.757 200.102 158.733 200.176C157.937 199.607 157.066 199.154 156.143 198.829C155.379 198.548 154.588 198.35 153.782 198.237C153.75 198.306 153.723 198.378 153.701 198.452ZM195.691 252.914C194.894 252.348 194.023 251.895 193.101 251.567C192.188 251.215 191.23 250.993 190.255 250.907C191.044 251.486 191.918 251.941 192.845 252.254C193.756 252.613 194.715 252.835 195.691 252.914ZM182.499 217.055C181.704 216.486 180.832 216.033 179.91 215.708C178.998 215.354 178.039 215.136 177.064 215.062C177.86 215.628 178.732 216.081 179.653 216.409C180.565 216.763 181.524 216.981 182.499 217.055Z" fill="white"/>
<path d="M194.963 164.667H194.896C195.408 168.614 196.352 177.787 190.08 177.653C187.543 177.384 185.136 176.393 183.147 174.797C181.091 173.336 179.197 171.661 177.496 169.799C175.522 167.772 173.718 165.587 172.1 163.266C172.033 163.172 171.884 163.266 171.952 163.387C173.597 165.704 175 168.142 176.875 170.311C178.652 172.424 180.708 174.286 182.985 175.848C185.105 177.489 187.672 178.451 190.35 178.609C191.511 178.584 192.628 178.158 193.51 177.404C194.393 176.651 194.987 175.615 195.192 174.474C195.85 171.229 195.771 167.878 194.963 164.667Z" fill="#263238"/>
<path d="M205.484 262.91L250.846 273.538L274.478 211.424L229.116 200.796L205.484 262.91Z" fill="#A6A6A6"/>
<path d="M207.709 263.435L253.071 274.063L276.703 211.95L231.341 201.321L207.709 263.435Z" fill="#C7C7C7"/>
<path d="M248.836 236.278C248.432 237.443 247.615 238.421 246.539 239.026C245.464 239.632 244.203 239.823 242.996 239.564C242.42 239.45 241.876 239.211 241.402 238.865C240.928 238.52 240.535 238.075 240.25 237.563C239.965 237.05 239.795 236.481 239.752 235.897C239.709 235.312 239.794 234.725 240.001 234.176C240.425 233.031 241.251 232.077 242.325 231.493C243.398 230.909 244.648 230.732 245.842 230.997C246.405 231.115 246.936 231.351 247.4 231.689C247.864 232.028 248.251 232.462 248.534 232.961C248.818 233.461 248.991 234.015 249.043 234.587C249.095 235.159 249.025 235.735 248.836 236.278Z" fill="white"/>
<path d="M163.238 170.904C150.114 189.143 121.896 230.808 130.232 240.427C143.909 256.255 177.334 270.062 187.801 273.241C192.319 274.588 208.492 241.801 204.23 239.106C199.117 235.873 166.381 223.022 166.219 221.446C166.057 219.87 172.181 197.266 174.191 179.566C176.686 157.595 168.714 163.293 163.238 170.904Z" fill="#F7A9A0"/>
<path d="M187.774 236.804C187.774 236.804 201.545 232.762 210.704 230.567C215.789 229.327 224.719 227.994 228.873 228.789C235.091 229.987 260.328 238.972 258.278 245.129C256.43 250.705 235.725 240.239 235.725 240.239C235.725 240.239 257.55 248.954 254.083 255.259C250.617 261.563 228.792 246.624 228.792 246.624C228.792 246.624 251.021 256.053 246.408 262.021C242.928 266.507 222.412 254.087 222.412 254.087C222.412 254.087 241.458 262.358 238.072 267.113C234.336 272.38 214.67 262.115 214.67 262.115C204.041 272.784 194.815 274.239 187.828 273.242C186.182 273.013 187.774 236.804 187.774 236.804Z" fill="#F7A9A0"/>
<path d="M229.359 237.18C245.922 242.38 252.451 249.991 252.289 249.829C247.217 245.882 238.301 241.585 235.793 240.4C233.284 239.214 231.854 238.406 229.359 237.248C229.251 237.248 229.291 237.167 229.359 237.18Z" fill="#263238"/>
<path d="M223.99 245.707C230.761 247.513 237.156 250.51 242.874 254.557C243.09 254.719 242.969 254.773 242.726 254.652C239.569 253.089 227.093 247.189 223.842 245.788C223.896 245.815 223.936 245.694 223.99 245.707Z" fill="#263238"/>
<path d="M218.865 252.739C224.1 254.244 229.008 256.711 233.338 260.014C233.554 260.175 233.338 260.243 233.122 260.121C228.361 257.602 224.638 255.609 218.797 252.915C218.703 252.874 218.757 252.699 218.865 252.739Z" fill="#263238"/>
<path d="M194.167 234.029L175.729 273.283C175.729 273.283 131.797 249.641 128.519 238.528C125.241 227.415 155.078 178.543 164.155 168.574C173.233 158.606 176.174 162.688 175.917 174.07C175.661 185.453 166.678 220.895 166.934 221.568C167.19 222.242 194.167 234.029 194.167 234.029Z" fill="#38405F"/>
<path d="M162.321 217.526C162.741 218.414 163.032 219.358 163.184 220.328C162.55 219.581 162.028 218.746 161.633 217.85C161.215 216.966 160.924 216.027 160.77 215.061C161.4 215.806 161.923 216.636 162.321 217.526ZM141.562 208.434C141.892 210.366 142.725 212.177 143.976 213.687C143.822 212.722 143.532 211.783 143.113 210.899C142.711 210.006 142.189 209.172 141.562 208.42V208.434ZM148.01 240.763C148.168 241.73 148.463 242.669 148.886 243.552C149.28 244.445 149.802 245.276 150.437 246.017C150.11 244.081 149.272 242.268 148.01 240.763ZM182.5 255.029C182.633 255.859 182.868 256.668 183.201 257.44L183.592 256.605C183.291 256.022 182.924 255.475 182.5 254.975V255.029ZM162.887 235.766C163.859 235.614 164.804 235.323 165.693 234.904C166.582 234.501 167.413 233.98 168.161 233.354C167.193 233.502 166.252 233.793 165.369 234.217C164.473 234.614 163.638 235.136 162.887 235.766ZM169.901 270.022C170.131 270.157 170.347 270.291 170.562 270.399C170.979 270.148 171.372 269.86 171.736 269.537C171.101 269.638 170.481 269.815 169.888 270.062L169.901 270.022ZM170.846 176.171C171.812 176.017 172.753 175.727 173.638 175.309C174.535 174.915 175.371 174.393 176.12 173.76C175.152 173.91 174.211 174.2 173.327 174.622C172.425 175.015 171.585 175.537 170.832 176.171H170.846ZM162.995 180.818C162.428 181.614 161.974 182.485 161.646 183.405C161.292 184.315 161.074 185.273 160.999 186.247C161.569 185.453 162.023 184.582 162.348 183.661C162.698 182.75 162.911 181.792 162.982 180.818H162.995ZM151.26 221.648C150.691 222.443 150.237 223.313 149.911 224.235C149.554 225.15 149.331 226.112 149.25 227.091C149.823 226.298 150.277 225.427 150.599 224.504C150.946 223.587 151.164 222.626 151.247 221.648H151.26ZM136.423 236.17C135.856 236.961 135.402 237.827 135.074 238.743C134.721 239.658 134.503 240.62 134.427 241.599C134.994 240.803 135.448 239.932 135.775 239.012C136.113 238.099 136.318 237.141 136.382 236.17H136.423ZM151.854 259.07C151.962 259.151 152.083 259.218 152.177 259.299C152.233 259.015 152.269 258.727 152.285 258.437C152.115 258.638 151.958 258.85 151.813 259.07H151.854ZM181.178 237.423C180.611 238.218 180.157 239.089 179.829 240.009C179.476 240.925 179.258 241.887 179.181 242.865C179.749 242.069 180.202 241.199 180.53 240.278C180.87 239.361 181.074 238.399 181.137 237.423H181.178ZM168.539 252.914C167.742 252.348 166.871 251.894 165.949 251.567C165.036 251.215 164.078 250.993 163.103 250.907C163.892 251.486 164.766 251.94 165.693 252.254C166.591 252.609 167.536 252.831 168.499 252.914H168.539ZM153.702 198.452C154.389 198.888 155.122 199.25 155.887 199.529C156.798 199.884 157.758 200.101 158.733 200.176C157.938 199.607 157.066 199.154 156.143 198.829C155.38 198.548 154.588 198.349 153.783 198.236C153.75 198.306 153.723 198.378 153.702 198.452ZM131.864 226.336C132.551 226.773 133.284 227.134 134.049 227.414C134.963 227.762 135.921 227.979 136.895 228.06C136.1 227.492 135.228 227.038 134.305 226.713C133.542 226.432 132.75 226.234 131.945 226.121L131.864 226.336Z" fill="white"/>
<path d="M170.158 204.81C170.751 202.116 171.345 199.489 171.898 196.822C172.195 195.475 172.478 194.047 172.788 192.673C172.936 192.039 173.071 191.326 173.22 190.76C173.287 190.45 173.395 190.127 173.449 189.817C173.638 188.645 173.449 189.682 173.773 188.551C173.773 188.47 173.908 188.551 173.894 188.551C173.894 189.291 173.975 188.995 173.894 189.547C173.813 190.1 173.746 190.383 173.678 190.814C173.584 191.46 173.476 192.093 173.382 192.74C173.166 194.087 172.936 195.367 172.68 196.687C172.68 196.862 172.613 197.024 172.572 197.199C172.578 197.154 172.578 197.109 172.572 197.064C173.058 195.636 173.557 194.222 174.069 192.807C174.069 192.807 174.177 192.807 174.164 192.807C173.827 194.276 173.436 195.717 172.963 197.145C172.694 197.98 172.37 198.788 172.033 199.597C171.695 201.348 171.358 203.099 170.981 204.837C169.848 210.225 168.661 215.694 167.096 221.002C169.389 222.052 171.736 222.995 174.029 224.06C176.322 225.124 178.629 226.201 180.922 227.292C183.215 228.384 185.508 229.461 187.774 230.579C188.866 231.118 189.932 231.684 191.011 232.236C192.09 232.789 193.291 233.583 194.478 234.122C194.599 234.122 194.478 234.351 194.37 234.297C193.142 233.732 191.834 233.327 190.579 232.789C189.325 232.25 188.381 231.846 187.302 231.361C184.982 230.323 182.675 229.246 180.382 228.168C178.089 227.09 175.783 226.026 173.489 224.935C171.196 223.844 168.984 222.618 166.745 221.527C166.71 221.511 166.68 221.486 166.657 221.456C166.633 221.425 166.617 221.39 166.61 221.352C166.559 221.32 166.518 221.273 166.494 221.218C166.47 221.163 166.464 221.101 166.475 221.042C167.568 215.627 168.944 210.238 170.158 204.81Z" fill="#263238"/>
<path d="M175.836 249.519C177.185 246.677 182.783 235.335 184.374 232.627C184.374 232.627 184.482 232.627 184.469 232.627C183.444 235.51 178.278 246.852 176.915 249.708C174.346 255.478 171.464 261.103 168.283 266.56C168.283 266.654 168.04 266.56 168.094 266.492C170.238 260.633 173.138 255.123 175.836 249.519Z" fill="#263238"/>
<path d="M144.111 253.897C145.123 254.477 146.067 255.245 147.025 255.851L150.006 257.898C151.948 259.245 153.904 260.66 155.968 261.818C156.089 261.818 155.968 262.061 155.86 261.993C153.769 260.781 151.624 259.676 149.588 258.356C147.567 257.132 145.694 255.681 144.003 254.032C144.003 253.897 144.003 253.817 144.111 253.897Z" fill="#263238"/>
<path d="M190.134 173.423C185.67 174.177 177.657 166.364 175.041 160.747C174.865 160.356 175.702 156.477 176.484 151.721C176.943 148.825 177.401 145.592 177.59 142.615L196.002 148.381C194.689 152.034 193.828 155.834 193.439 159.696C193.404 160.109 193.404 160.523 193.439 160.936C193.439 160.936 193.439 161.057 193.439 161.138C193.722 163.481 194.437 172.695 190.134 173.423Z" fill="#F7A9A0"/>
<path d="M193.479 160.949C193.479 160.949 193.479 161.071 193.479 161.138C192.842 161.192 192.201 161.192 191.564 161.138C180.773 160.182 179.074 146.792 178.817 143.033L183.417 144.475L195.988 148.408C194.675 152.061 193.819 155.861 193.439 159.724C193.419 160.133 193.432 160.543 193.479 160.949Z" fill="#263238"/>
<path d="M196.852 112.36C196.852 112.36 203.515 114.031 205.619 120.227C207.723 126.424 207.265 133.321 206.766 133.698C206.267 134.075 196.852 112.36 196.852 112.36Z" fill="#263238"/>
<path d="M174.191 124.578C173.017 131.421 178.898 150.011 184.132 153.661C191.712 158.955 202.921 158.147 207.062 149.324C211.109 140.77 203.016 116.67 197.31 113.478C188.92 108.75 175.944 114.448 174.191 124.578Z" fill="#F7A9A0"/>
<path d="M194.518 134.547C194.518 134.547 194.437 134.628 194.518 134.682C194.95 135.921 195.233 137.376 194.235 138.184C194.235 138.184 194.235 138.278 194.235 138.251C195.516 137.632 195.125 135.651 194.518 134.547Z" fill="#263238"/>
<path d="M192.994 133.577C190.917 134.062 192.023 138.144 193.938 137.713C195.853 137.281 194.72 133.186 192.994 133.577Z" fill="#263238"/>
<path d="M201.653 132.378C201.653 132.378 201.775 132.378 201.788 132.459C202.085 133.806 202.651 135.153 203.906 135.261C203.906 135.261 203.906 135.261 203.906 135.342C202.463 135.517 201.734 133.631 201.653 132.378Z" fill="#263238"/>
<path d="M202.436 130.748C204.432 130.048 205.7 134.089 203.784 134.789C201.869 135.49 200.763 131.314 202.436 130.748Z" fill="#263238"/>
<path d="M190.863 132.149C191.389 131.852 191.82 131.502 192.306 131.165C192.792 130.829 193.331 130.532 193.574 129.818C193.624 129.627 193.611 129.425 193.535 129.243C193.46 129.06 193.327 128.907 193.156 128.808C192.786 128.666 192.385 128.626 191.994 128.69C191.603 128.753 191.236 128.92 190.93 129.172C190.234 129.587 189.716 130.244 189.473 131.017C189.419 131.201 189.42 131.396 189.476 131.579C189.533 131.762 189.642 131.924 189.79 132.045C189.939 132.166 190.12 132.241 190.311 132.259C190.502 132.277 190.694 132.239 190.863 132.149Z" fill="#263238"/>
<path d="M203.474 128.256C202.89 128.29 202.305 128.29 201.721 128.256C201.108 128.348 200.482 128.234 199.94 127.933C199.789 127.806 199.685 127.632 199.643 127.44C199.602 127.247 199.626 127.046 199.711 126.869C199.932 126.539 200.238 126.274 200.596 126.101C200.954 125.928 201.351 125.854 201.748 125.885C202.557 125.831 203.359 126.076 204 126.572C204.145 126.694 204.25 126.855 204.303 127.036C204.356 127.217 204.354 127.409 204.298 127.589C204.242 127.769 204.133 127.928 203.987 128.047C203.84 128.165 203.662 128.238 203.474 128.256Z" fill="#263238"/>
<path d="M195.894 146.28C196.251 146.574 196.699 146.735 197.162 146.738C197.656 146.61 198.117 146.376 198.511 146.051C198.511 146.051 198.591 146.051 198.511 146.051C198.395 146.348 198.201 146.609 197.949 146.806C197.698 147.002 197.398 147.128 197.081 147.169C196.795 147.189 196.51 147.117 196.267 146.965C196.025 146.812 195.837 146.586 195.732 146.32C195.745 146.307 195.84 146.253 195.894 146.28Z" fill="#263238"/>
<path d="M196.204 142.09C196.66 142.507 197.197 142.825 197.782 143.025C198.367 143.224 198.987 143.3 199.603 143.249C200.143 143.207 200.675 143.09 201.181 142.899C201.282 142.875 201.378 142.834 201.465 142.777L201.735 142.67C201.798 142.638 201.85 142.587 201.881 142.524C201.913 142.461 201.923 142.389 201.91 142.319V142.185V142.077C201.681 141.093 201.181 139.625 201.181 139.625C201.586 139.706 203.623 140.043 203.461 139.544C202.167 135.171 200.426 130.941 198.268 126.922C198.251 126.901 198.228 126.886 198.202 126.879C198.176 126.872 198.148 126.874 198.123 126.885C198.098 126.896 198.078 126.915 198.065 126.939C198.052 126.962 198.048 126.99 198.052 127.016C199.226 131.058 201.101 134.87 202.355 138.925C201.625 138.792 200.88 138.765 200.143 138.844C200.021 138.925 201.154 141.646 201.222 142.104C200.445 142.404 199.615 142.543 198.783 142.512C197.95 142.482 197.133 142.284 196.38 141.929C196.177 141.929 196.096 142.09 196.204 142.09Z" fill="#263238"/>
<path d="M200.467 142.589C200.124 143.432 199.566 144.171 198.848 144.731C198.455 145.016 197.985 145.176 197.499 145.189C196.407 145.189 196.15 144.273 196.15 143.424C196.138 142.972 196.178 142.52 196.272 142.077C197.582 142.68 199.049 142.859 200.467 142.589Z" fill="#263238"/>
<path d="M198.848 144.784C198.455 145.07 197.984 145.229 197.499 145.242C196.406 145.242 196.15 144.326 196.15 143.477C196.681 143.369 197.233 143.439 197.72 143.675C198.208 143.911 198.604 144.301 198.848 144.784Z" fill="#FF98B9"/>
<path d="M178.615 142.09C180.867 142.023 181.137 135.126 181.002 132.553C180.881 130.29 179.343 123.487 179.289 123.016C179.235 122.544 190.08 125.831 194.747 122.598C199.414 119.365 201.235 113.613 200.574 111.444C199.913 109.275 191.712 106.056 186.114 107.565C180.517 109.073 175.418 118.665 175.418 118.665C175.975 117.356 176.426 116.004 176.767 114.623C175.875 115.165 175.129 115.918 174.598 116.815C174.066 117.713 173.764 118.727 173.719 119.769C173.719 119.769 173.354 116.361 173.058 116.388C172.761 116.415 170.926 120.079 172.248 121.924C172.248 121.924 169.996 125.777 170.724 128.916C171.452 132.054 175.985 142.158 178.615 142.09Z" fill="#263238"/>
<path d="M198.025 120.294C196.779 121.622 195.343 122.757 193.762 123.662C191.931 124.464 189.929 124.802 187.935 124.645C185.944 124.548 183.982 124.134 182.122 123.419C180.476 122.8 178.911 121.911 177.225 121.426C176.807 121.305 176.578 121.938 176.888 122.18C180.262 124.64 184.338 125.952 188.515 125.925C190.452 125.907 192.351 125.385 194.026 124.412C195.7 123.439 197.092 122.048 198.065 120.375C198.065 120.375 198.038 120.281 198.025 120.294Z" fill="#263238"/>
<path d="M180.234 139.545C180.234 139.545 175.027 134.008 172.464 135.988C169.902 137.969 174.447 146.347 177.86 147.075C178.296 147.2 178.754 147.236 179.205 147.181C179.656 147.125 180.091 146.979 180.484 146.751C180.877 146.524 181.22 146.219 181.492 145.856C181.765 145.492 181.96 145.078 182.068 144.637L180.234 139.545Z" fill="#F7A9A0"/>
<path d="M193.574 160.814L189.015 171.807L175.432 157.676L171.493 162.108C171.493 162.108 184.671 184.456 184.766 183.459L189.433 174.029L195.934 180.765L195.584 164.142L193.574 160.814Z" fill="white"/>
<path d="M196.231 172.467C196.083 169.773 196.002 166.957 195.732 164.223C195.732 164.115 195.57 164.074 195.543 164.223C194.963 166.917 195.543 177.343 195.543 179.862C195.273 179.579 189.514 173.975 189.46 174.056C188.448 175.565 185.036 182.449 184.793 183.082C182.716 179.525 174.717 166.62 172.235 163.266C172.23 163.254 172.222 163.243 172.212 163.234C172.202 163.225 172.19 163.218 172.178 163.214C172.165 163.21 172.152 163.208 172.138 163.209C172.125 163.211 172.112 163.215 172.101 163.222C172.089 163.229 172.079 163.238 172.071 163.249C172.063 163.259 172.058 163.272 172.056 163.285C172.053 163.298 172.053 163.312 172.056 163.325C172.059 163.338 172.065 163.35 172.073 163.36C173.908 167.092 184.483 184.469 184.658 184.429C186.455 181.18 188.081 177.839 189.527 174.42C190.498 175.646 196.271 181.964 196.271 181.546C196.422 178.521 196.409 175.49 196.231 172.467Z" fill="#263238"/>
<path opacity="0.5" d="M475.661 126.841C476.885 118.373 471.003 110.518 462.524 109.296C454.045 108.074 446.179 113.948 444.956 122.416C443.732 130.884 449.614 138.739 458.094 139.961C466.573 141.183 474.438 135.309 475.661 126.841Z" fill="#FF0035"/>
<path d="M467.567 131.88C471.581 127.872 471.581 121.372 467.567 117.364C463.553 113.355 457.045 113.355 453.031 117.364C449.018 121.372 449.018 127.872 453.031 131.88C457.045 135.889 463.553 135.889 467.567 131.88Z" fill="#FF0035"/>
<path opacity="0.5" d="M318.831 362.167C320.198 353.72 314.45 345.767 305.993 344.402C297.536 343.037 289.572 348.778 288.205 357.224C286.838 365.67 292.586 373.623 301.044 374.988C309.501 376.353 317.465 370.613 318.831 362.167Z" fill="#FF0035"/>
<path d="M313.555 362.086C314.855 356.568 311.43 351.042 305.904 349.743C300.378 348.445 294.845 351.866 293.545 357.384C292.245 362.902 295.67 368.429 301.196 369.727C306.722 371.025 312.255 367.604 313.555 362.086Z" fill="#FF0035"/>
<path opacity="0.5" d="M339.972 114.1C341.887 102.253 333.823 91.0988 321.961 89.1864C310.098 87.274 298.93 95.3275 297.015 107.174C295.1 119.021 303.164 130.175 315.026 132.088C326.889 134 338.058 125.947 339.972 114.1Z" fill="#FF0035"/>
<path d="M332.721 113.013C334.034 105.176 328.737 97.7601 320.89 96.4487C313.043 95.1373 305.618 100.427 304.304 108.264C302.991 116.1 308.288 123.516 316.135 124.828C323.982 126.139 331.408 120.849 332.721 113.013Z" fill="#FF0035"/>
<path opacity="0.5" d="M197.472 448.173C209.488 448.173 219.229 438.444 219.229 426.444C219.229 414.444 209.488 404.716 197.472 404.716C185.456 404.716 175.715 414.444 175.715 426.444C175.715 438.444 185.456 448.173 197.472 448.173Z" fill="#FF0035"/>
<path d="M197.472 440.831C205.428 440.831 211.877 434.39 211.877 426.444C211.877 418.499 205.428 412.058 197.472 412.058C189.516 412.058 183.066 418.499 183.066 426.444C183.066 434.39 189.516 440.831 197.472 440.831Z" fill="#FF0035"/>
<path opacity="0.5" d="M107.18 305.746C115.747 305.746 122.692 298.811 122.692 290.255C122.692 281.699 115.747 274.764 107.18 274.764C98.6128 274.764 91.668 281.699 91.668 290.255C91.668 298.811 98.6128 305.746 107.18 305.746Z" fill="#FF0035"/>
<path d="M107.18 300.52C112.856 300.52 117.458 295.924 117.458 290.255C117.458 284.586 112.856 279.99 107.18 279.99C101.503 279.99 96.9014 284.586 96.9014 290.255C96.9014 295.924 101.503 300.52 107.18 300.52Z" fill="#FF0035"/>
<path opacity="0.5" d="M104.024 101.004C112.59 101.004 119.535 94.0685 119.535 85.5129C119.535 76.9572 112.59 70.0215 104.024 70.0215C95.4566 70.0215 88.5117 76.9572 88.5117 85.5129C88.5117 94.0685 95.4566 101.004 104.024 101.004Z" fill="#FF0035"/>
<path d="M104.023 95.7775C109.7 95.7775 114.302 91.1818 114.302 85.5128C114.302 79.8437 109.7 75.248 104.023 75.248C98.3468 75.248 93.7451 79.8437 93.7451 85.5128C93.7451 91.1818 98.3468 95.7775 104.023 95.7775Z" fill="#FF0035"/>
<path opacity="0.5" d="M450.017 346.226C456.834 346.226 462.359 340.707 462.359 333.9C462.359 327.093 456.834 321.574 450.017 321.574C443.201 321.574 437.675 327.093 437.675 333.9C437.675 340.707 443.201 346.226 450.017 346.226Z" fill="#FF0035"/>
<path d="M458.191 333.9C458.191 335.514 457.712 337.092 456.814 338.435C455.916 339.777 454.639 340.824 453.145 341.442C451.652 342.059 450.008 342.221 448.423 341.906C446.837 341.591 445.381 340.814 444.237 339.672C443.094 338.53 442.316 337.076 442 335.492C441.685 333.909 441.847 332.267 442.465 330.776C443.084 329.284 444.132 328.009 445.476 327.112C446.82 326.215 448.401 325.736 450.017 325.736C452.185 325.736 454.264 326.596 455.797 328.127C457.33 329.658 458.191 331.735 458.191 333.9Z" fill="#FF0035"/>
<path opacity="0.5" d="M70.2617 138.587C70.2617 140.202 69.7823 141.78 68.8841 143.122C67.9859 144.465 66.7093 145.511 65.2157 146.129C63.7221 146.747 62.0786 146.909 60.4929 146.594C58.9073 146.279 57.4509 145.501 56.3077 144.359C55.1645 143.218 54.386 141.763 54.0706 140.18C53.7552 138.596 53.9171 136.955 54.5358 135.463C55.1545 133.972 56.2022 132.697 57.5464 131.8C58.8906 130.903 60.4709 130.424 62.0876 130.424C64.2555 130.424 66.3346 131.284 67.8675 132.815C69.4005 134.346 70.2617 136.422 70.2617 138.587Z" fill="#FF0035"/>
<path d="M62.0739 143.989C65.0612 143.989 67.4828 141.571 67.4828 138.587C67.4828 135.604 65.0612 133.186 62.0739 133.186C59.0867 133.186 56.665 135.604 56.665 138.587C56.665 141.571 59.0867 143.989 62.0739 143.989Z" fill="#FF0035"/>
<path opacity="0.5" d="M448.156 259.07C448.159 260.687 447.681 262.27 446.783 263.616C445.885 264.962 444.607 266.013 443.111 266.633C441.615 267.254 439.968 267.418 438.379 267.104C436.79 266.79 435.33 266.013 434.184 264.87C433.037 263.727 432.256 262.27 431.939 260.683C431.622 259.097 431.783 257.452 432.403 255.957C433.022 254.462 434.071 253.184 435.418 252.285C436.765 251.386 438.348 250.906 439.968 250.906C441.043 250.904 442.107 251.114 443.101 251.524C444.094 251.933 444.997 252.534 445.757 253.292C446.517 254.051 447.121 254.951 447.532 255.942C447.944 256.934 448.156 257.996 448.156 259.07Z" fill="#FF0035"/>
<path d="M445.39 259.07C445.39 260.136 445.074 261.177 444.481 262.064C443.888 262.95 443.046 263.64 442.06 264.048C441.074 264.456 439.989 264.563 438.942 264.355C437.896 264.147 436.934 263.634 436.18 262.88C435.425 262.126 434.911 261.166 434.703 260.121C434.495 259.076 434.602 257.993 435.01 257.008C435.419 256.023 436.11 255.182 436.997 254.59C437.885 253.998 438.928 253.682 439.995 253.682C441.426 253.682 442.798 254.249 443.81 255.26C444.822 256.27 445.39 257.641 445.39 259.07Z" fill="#FF0035"/>
<path opacity="0.5" d="M340.261 278.118C344.775 278.118 348.435 274.463 348.435 269.954C348.435 265.446 344.775 261.791 340.261 261.791C335.747 261.791 332.087 265.446 332.087 269.954C332.087 274.463 335.747 278.118 340.261 278.118Z" fill="#FF0035"/>
<path d="M340.261 275.356C343.248 275.356 345.67 272.938 345.67 269.955C345.67 266.971 343.248 264.553 340.261 264.553C337.274 264.553 334.852 266.971 334.852 269.955C334.852 272.938 337.274 275.356 340.261 275.356Z" fill="#FF0035"/>
<path opacity="0.5" d="M102.445 370.851C102.445 372.465 101.966 374.044 101.068 375.386C100.17 376.729 98.8929 377.775 97.3993 378.393C95.9057 379.011 94.2621 379.172 92.6765 378.857C91.0909 378.542 89.6345 377.765 88.4913 376.623C87.3481 375.481 86.5696 374.027 86.2542 372.443C85.9388 370.86 86.1007 369.218 86.7194 367.727C87.3381 366.235 88.3857 364.96 89.73 364.063C91.0742 363.166 92.6545 362.688 94.2712 362.688C96.4391 362.688 98.5182 363.548 100.051 365.078C101.584 366.609 102.445 368.686 102.445 370.851Z" fill="#FF0035"/>
<path d="M99.68 370.85C99.68 371.916 99.3635 372.958 98.7707 373.844C98.1778 374.73 97.3352 375.421 96.3493 375.828C95.3634 376.236 94.2786 376.343 93.232 376.135C92.1854 375.927 91.224 375.414 90.4694 374.66C89.7149 373.907 89.201 372.947 88.9928 371.901C88.7847 370.856 88.8915 369.773 89.2999 368.788C89.7082 367.804 90.3998 366.962 91.287 366.37C92.1743 365.778 93.2175 365.462 94.2846 365.462C95.7155 365.462 97.0879 366.03 98.0997 367.04C99.1115 368.051 99.68 369.421 99.68 370.85Z" fill="#FF0035"/>
<path opacity="0.5" d="M269.366 51.6875C269.363 53.3015 268.881 54.8784 267.981 56.2191C267.082 57.5598 265.804 58.604 264.31 59.2198C262.816 59.8356 261.173 59.9953 259.589 59.6788C258.004 59.3623 256.549 58.5838 255.407 57.4416C254.265 56.2994 253.488 54.8448 253.174 53.2617C252.859 51.6785 253.022 50.0378 253.641 48.547C254.26 47.0561 255.308 45.782 256.652 44.8856C257.996 43.9892 259.576 43.5107 261.192 43.5107C262.266 43.5107 263.33 43.7223 264.323 44.1334C265.315 44.5445 266.217 45.147 266.976 45.9065C267.735 46.6659 268.337 47.5674 268.747 48.5594C269.157 49.5514 269.367 50.6144 269.366 51.6875Z" fill="#FF0035"/>
<path d="M266.614 51.6871C266.614 52.7528 266.298 53.7946 265.705 54.6807C265.112 55.5668 264.269 56.2575 263.283 56.6653C262.298 57.0731 261.213 57.1798 260.166 56.9719C259.119 56.764 258.158 56.2508 257.404 55.4973C256.649 54.7437 256.135 53.7836 255.927 52.7384C255.719 51.6931 255.826 50.6097 256.234 49.6251C256.642 48.6405 257.334 47.799 258.221 47.2069C259.108 46.6149 260.152 46.2988 261.219 46.2988C262.65 46.2988 264.022 46.8665 265.034 47.877C266.046 48.8875 266.614 50.2581 266.614 51.6871Z" fill="#FF0035"/>
<path opacity="0.5" d="M343.026 13.7668C343.026 15.3814 342.547 16.9596 341.649 18.3021C340.751 19.6445 339.474 20.6908 337.98 21.3087C336.487 21.9266 334.843 22.0882 333.258 21.7732C331.672 21.4583 330.215 20.6808 329.072 19.5391C327.929 18.3975 327.151 16.9429 326.835 15.3594C326.52 13.7759 326.682 12.1345 327.3 10.6428C327.919 9.1512 328.967 7.87627 330.311 6.97928C331.655 6.08228 333.236 5.60352 334.852 5.60352C337.02 5.60352 339.099 6.46357 340.632 7.99449C342.165 9.5254 343.026 11.6018 343.026 13.7668Z" fill="#FF0035"/>
<path d="M340.261 13.7672C340.261 14.8329 339.945 15.8747 339.352 16.7608C338.759 17.6469 337.916 18.3375 336.93 18.7454C335.944 19.1532 334.86 19.2599 333.813 19.052C332.766 18.8441 331.805 18.3309 331.05 17.5773C330.296 16.8238 329.782 15.8637 329.574 14.8184C329.366 13.7732 329.473 12.6898 329.881 11.7052C330.289 10.7206 330.981 9.87907 331.868 9.287C332.755 8.69492 333.799 8.37891 334.866 8.37891C336.297 8.37891 337.669 8.9466 338.681 9.9571C339.693 10.9676 340.261 12.3381 340.261 13.7672Z" fill="#FF0035"/>
<path d="M409.187 153.405C409.19 154.162 408.968 154.903 408.548 155.534C408.129 156.165 407.532 156.657 406.832 156.949C406.132 157.241 405.362 157.318 404.618 157.172C403.874 157.026 403.19 156.663 402.653 156.128C402.116 155.594 401.749 154.912 401.6 154.17C401.452 153.427 401.527 152.657 401.816 151.958C402.106 151.258 402.597 150.659 403.227 150.238C403.857 149.817 404.598 149.593 405.357 149.593C406.37 149.593 407.343 149.994 408.061 150.709C408.779 151.423 409.184 152.393 409.187 153.405Z" fill="#FF0035"/>
<path d="M149.035 370.85C149.035 371.607 148.81 372.346 148.389 372.976C147.968 373.605 147.37 374.095 146.67 374.385C145.97 374.674 145.2 374.75 144.456 374.602C143.713 374.455 143.031 374.09 142.495 373.555C141.959 373.02 141.594 372.339 141.447 371.596C141.299 370.854 141.375 370.085 141.665 369.386C141.955 368.687 142.446 368.09 143.076 367.669C143.705 367.249 144.446 367.024 145.204 367.024C146.22 367.024 147.194 367.427 147.913 368.145C148.631 368.862 149.035 369.835 149.035 370.85Z" fill="#FF0035"/>
<path d="M145.204 51.687C145.204 52.4443 144.979 53.1845 144.557 53.8139C144.136 54.4433 143.537 54.9337 142.836 55.2228C142.135 55.512 141.364 55.5869 140.621 55.4382C139.877 55.2895 139.195 54.9238 138.66 54.3874C138.125 53.8511 137.761 53.1681 137.614 52.4251C137.468 51.6821 137.546 50.9125 137.838 50.2137C138.13 49.5148 138.623 48.9183 139.255 48.4995C139.887 48.0808 140.628 47.8587 141.387 47.8614C141.889 47.8613 142.387 47.9604 142.851 48.1528C143.315 48.3452 143.736 48.6273 144.091 48.9827C144.445 49.3381 144.726 49.76 144.917 50.224C145.108 50.6881 145.206 51.1853 145.204 51.687Z" fill="#FF0035"/>
<path d="M94.2713 193.818C94.2713 194.575 94.0467 195.314 93.6257 195.943C93.2048 196.572 92.6065 197.063 91.9066 197.352C91.2066 197.642 90.4364 197.718 89.6933 197.57C88.9502 197.422 88.2676 197.058 87.7319 196.523C87.1961 195.988 86.8313 195.306 86.6835 194.564C86.5357 193.822 86.6115 193.053 86.9015 192.354C87.1914 191.655 87.6824 191.057 88.3124 190.637C88.9423 190.217 89.683 189.992 90.4406 189.992C91.4566 189.992 92.4309 190.395 93.1493 191.113C93.8677 191.83 94.2713 192.803 94.2713 193.818Z" fill="#FF0035"/>
<path d="M502.568 231.401C502.571 232.158 502.348 232.899 501.929 233.53C501.51 234.161 500.913 234.654 500.213 234.945C499.513 235.237 498.742 235.314 497.998 235.168C497.254 235.022 496.571 234.659 496.034 234.125C495.496 233.59 495.13 232.908 494.981 232.166C494.832 231.423 494.907 230.653 495.197 229.954C495.487 229.254 495.978 228.656 496.608 228.235C497.238 227.814 497.979 227.589 498.737 227.589C499.751 227.589 500.723 227.99 501.441 228.705C502.159 229.419 502.565 230.389 502.568 231.401Z" fill="#FF0035"/>
<path d="M182.257 251.27C182.257 252.027 182.032 252.767 181.61 253.397C181.189 254.026 180.59 254.517 179.889 254.806C179.188 255.095 178.417 255.17 177.674 255.021C176.93 254.873 176.248 254.507 175.712 253.97C175.177 253.434 174.813 252.751 174.667 252.008C174.521 251.265 174.599 250.495 174.891 249.797C175.183 249.098 175.676 248.501 176.308 248.083C176.939 247.664 177.681 247.442 178.439 247.444C179.453 247.448 180.424 247.853 181.139 248.57C181.855 249.287 182.257 250.258 182.257 251.27Z" fill="#FF0035"/>
<path d="M42.4079 271.247C44.5235 271.247 46.2386 269.534 46.2386 267.421C46.2386 265.309 44.5235 263.596 42.4079 263.596C40.2922 263.596 38.5771 265.309 38.5771 267.421C38.5771 269.534 40.2922 271.247 42.4079 271.247Z" fill="#FF0035"/>
<path d="M413.018 408.918C413.018 409.675 412.794 410.415 412.373 411.044C411.952 411.673 411.354 412.163 410.654 412.453C409.954 412.743 409.183 412.818 408.44 412.671C407.697 412.523 407.015 412.159 406.479 411.624C405.943 411.089 405.578 410.407 405.431 409.665C405.283 408.923 405.359 408.153 405.649 407.454C405.938 406.755 406.429 406.158 407.059 405.738C407.689 405.317 408.43 405.093 409.188 405.093C410.204 405.093 411.178 405.496 411.896 406.213C412.615 406.931 413.018 407.904 413.018 408.918Z" fill="#FF0035"/>
<path d="M274.545 315.324C274.545 316.08 274.321 316.82 273.9 317.449C273.479 318.078 272.88 318.569 272.181 318.858C271.481 319.148 270.71 319.224 269.967 319.076C269.224 318.928 268.542 318.564 268.006 318.029C267.47 317.494 267.105 316.812 266.957 316.07C266.81 315.328 266.885 314.559 267.175 313.86C267.465 313.161 267.956 312.563 268.586 312.143C269.216 311.722 269.957 311.498 270.715 311.498C271.731 311.498 272.705 311.901 273.423 312.619C274.142 313.336 274.545 314.309 274.545 315.324Z" fill="#FF0035"/>
<path d="M266.843 457.4C266.843 458.157 266.618 458.896 266.197 459.525C265.777 460.154 265.178 460.645 264.478 460.934C263.778 461.224 263.008 461.3 262.265 461.152C261.522 461.004 260.839 460.64 260.304 460.105C259.768 459.57 259.403 458.888 259.255 458.146C259.107 457.404 259.183 456.635 259.473 455.936C259.763 455.237 260.254 454.639 260.884 454.219C261.514 453.799 262.255 453.574 263.012 453.574C264.028 453.574 265.003 453.977 265.721 454.695C266.44 455.412 266.843 456.385 266.843 457.4Z" fill="#FF0035"/>
<path d="M229.817 120.793C229.82 121.55 229.597 122.291 229.178 122.922C228.759 123.553 228.162 124.045 227.462 124.337C226.762 124.628 225.991 124.706 225.247 124.56C224.503 124.414 223.82 124.051 223.283 123.516C222.745 122.982 222.379 122.3 222.23 121.557C222.081 120.815 222.157 120.045 222.446 119.345C222.736 118.645 223.227 118.047 223.857 117.626C224.487 117.205 225.228 116.98 225.986 116.98C227 116.98 227.972 117.382 228.69 118.096C229.408 118.811 229.814 119.78 229.817 120.793Z" fill="#FF0035"/>
<path d="M231.031 3.82572C231.031 4.58295 230.806 5.32314 230.385 5.95256C229.963 6.58198 229.364 7.07232 228.663 7.36148C227.962 7.65064 227.192 7.72561 226.448 7.5769C225.705 7.42819 225.022 7.06248 224.487 6.5261C223.952 5.98972 223.588 5.30679 223.442 4.56379C223.295 3.82079 223.373 3.05115 223.665 2.35233C223.957 1.65352 224.45 1.05696 225.082 0.638213C225.714 0.219464 226.456 -0.00264256 227.214 2.37267e-05C227.716 2.05941e-05 228.214 0.0990713 228.678 0.291496C229.142 0.48392 229.563 0.765932 229.918 1.12136C230.272 1.47678 230.553 1.89863 230.744 2.36271C230.935 2.82678 231.033 3.32396 231.031 3.82572Z" fill="#FF0035"/>
<path d="M407.299 63.6628C407.315 64.4227 407.104 65.1702 406.693 65.8099C406.282 66.4495 405.69 66.9524 404.991 67.2544C404.293 67.5564 403.52 67.6438 402.772 67.5054C402.024 67.3671 401.334 67.0092 400.79 66.4776C400.246 65.9459 399.873 65.2645 399.718 64.5203C399.564 63.776 399.635 63.0027 399.922 62.2989C400.21 61.5951 400.701 60.9928 401.332 60.5688C401.964 60.1447 402.707 59.9181 403.469 59.918C404.471 59.9177 405.433 60.3097 406.149 61.0098C406.865 61.7098 407.278 62.6623 407.299 63.6628Z" fill="#FF0035"/>
<path d="M197.445 426.66L197.35 426.552L145.082 370.958L42.2324 267.476V267.368L61.9122 138.493L103.848 85.4182L141.306 51.5526L227.295 3.59668L227.389 3.73139L261.353 51.5796L318.558 110.42L403.536 63.4608L403.63 63.5551L460.471 124.578L498.926 231.428V231.495L450.192 334.048H450.111L303.613 359.885L197.445 426.66ZM42.5831 267.368L145.352 370.729L197.526 426.229L303.545 359.562L449.936 333.738L498.589 231.361L460.187 124.672L403.441 63.8784L318.464 110.838L318.369 110.757L261.07 51.8355L227.16 4.04122L141.467 51.8355L104.145 85.6472L62.2494 138.655L42.5831 267.368Z" fill="#FF0035"/>
<path d="M409.255 409.134L409.12 409.067L303.438 359.858L270.62 315.472L178.534 251.54L145.244 371.322L145.055 370.918L107.018 290.268L90.2651 193.791L141.306 51.4854H141.454L248.607 76.083L261.097 51.5527H261.218L403.644 63.5552V63.7033L404.655 111.754L460.349 124.497V124.82L404.871 119.351L405.586 153.486L340.652 269.752L440.198 258.881V259.043L450.193 333.927L409.255 409.134ZM303.653 359.589L409.12 408.69L449.855 333.86L439.833 259.286L340.018 270.183L340.18 269.9L405.249 153.392L404.534 119.311L318.545 110.824L225.757 121.021L225.892 120.752L248.499 76.3659L141.494 51.8356L90.6158 193.831L107.355 290.268L145.123 370.433L178.291 251.055L178.493 251.203L270.795 315.216L303.653 359.589ZM404.817 118.974L457.692 124.187L404.669 112.063L404.817 118.974ZM248.782 76.4198L226.283 120.537L318.491 110.407L404.466 118.893L404.318 111.929L248.782 76.4198ZM248.944 76.1099L404.332 111.646L403.32 63.8246L261.353 51.8356L248.944 76.1099Z" fill="#FF0035"/>
<path d="M403.374 63.798L334.744 13.9022L334.946 13.6328L403.563 63.5286L403.374 63.798Z" fill="#FF0035"/>
<path d="M262.999 457.589L197.499 426.606L196.298 426.714L197.121 426.417L94.0959 370.972L42.2865 267.557L41.666 267.328L42.3135 267.26L90.2516 193.804L61.8583 138.574L62.0202 138.506L150.168 100.02L141.13 51.3236L141.481 51.62L183.12 85.5125L226.364 66.6534L227.025 3.59668H227.214L335.432 13.6055L334.92 13.8614L261.272 51.8355L226.715 66.9093L226.148 121.143L225.879 120.927L183.08 85.9031L150.545 100.101L178.628 251.365H178.453L43.1498 267.503L107.247 290.093L270.674 315.149L340.329 269.712L340.423 269.873L384.099 357.878L449.882 333.779L453.929 252.725L440.049 259.285L439.901 258.989L453.861 252.415L456.559 196.512L405.006 153.405L405.222 153.284L460.444 124.362L456.937 196.283L499.034 231.441L498.805 231.563L454.239 252.55L450.193 333.994H450.085L384.22 358.134L409.444 409H409.228L262.999 457.589ZM198.119 426.606L263.026 457.279L407.798 409.256L198.119 426.606ZM94.4061 370.783L197.485 426.323L383.748 358.067L340.207 270.197L270.795 315.499H270.728L107.207 290.443L42.7451 267.718L94.4061 370.783ZM383.896 358.363L198.699 426.229L408.931 408.811L383.896 358.363ZM62.3169 138.789L90.6428 193.952V194.033L42.7451 267.206L178.237 251.122L150.235 100.33L62.3169 138.789ZM456.937 196.714L454.239 252.186L498.454 231.361L456.937 196.714ZM405.68 153.446L456.626 195.973L460.134 124.861L405.68 153.446ZM183.43 85.8088L225.825 120.442L226.378 67.0575L183.43 85.8088ZM141.616 52.1319L150.478 99.8454L182.769 85.7549L141.616 52.1319ZM227.362 4.02774L226.715 66.5726L261.111 51.5526L334.245 13.9153L227.362 4.02774Z" fill="#FF0035"/>
<path d="M318.63 110.406L318.335 110.569L342.869 154.591L343.164 154.427L318.63 110.406Z" fill="#FF0035"/>
<path d="M449.977 334.196L420.531 313.195L420.734 312.926L450.179 333.913L449.977 334.196Z" fill="#FF0035"/>
<path d="M210.105 362.653L198.508 426.13L198.84 426.19L210.436 362.713L210.105 362.653Z" fill="#FF0035"/>
<path d="M250.846 362.512H169.901V362.848H250.846V362.512Z" fill="#FF0035"/>
<path d="M374.414 166.499C374.419 171.271 373.013 175.938 370.374 179.916C367.735 183.893 363.979 187.005 359.577 188.861L350.135 166.499H374.414Z" fill="#FF0035"/>
<path d="M346.992 164.842L356.501 187.19C355.759 187.486 355.018 187.769 354.262 187.998C350.625 189.131 346.771 189.394 343.013 188.764C339.256 188.134 335.699 186.63 332.631 184.372C329.563 182.115 327.071 179.169 325.355 175.771C323.639 172.374 322.747 168.62 322.753 164.815C322.755 162.367 323.123 159.934 323.846 157.595C325.016 153.841 327.082 150.428 329.866 147.65C332.651 144.871 336.07 142.811 339.829 141.645C342.877 140.692 346.083 140.349 349.263 140.635C352.444 140.921 355.537 141.831 358.365 143.312C361.192 144.794 363.7 146.818 365.743 149.269C367.787 151.72 369.326 154.549 370.273 157.595C370.988 159.935 371.357 162.368 371.366 164.815L346.992 164.842Z" fill="#FF0035"/>
<path d="M346.992 164.841L356.501 187.189C355.759 187.486 355.017 187.769 354.262 187.998C349.561 189.453 344.53 189.453 339.829 187.998C335.848 186.747 332.256 184.493 329.401 181.453C326.546 178.412 324.524 174.688 323.53 170.639C322.536 166.591 322.605 162.355 323.728 158.341C324.851 154.326 326.992 150.668 329.943 147.721C332.895 144.774 336.557 142.636 340.577 141.514C344.597 140.392 348.838 140.324 352.892 141.316C356.946 142.309 360.675 144.328 363.719 147.179C366.764 150.031 369.021 153.618 370.273 157.594C370.988 159.935 371.357 162.367 371.366 164.814L346.992 164.841Z" fill="#A6A6A6"/>
<path d="M347.006 164.842L331.157 183.243C328.078 180.59 325.716 177.207 324.288 173.405C322.859 169.603 322.409 165.503 322.98 161.483C323.551 157.462 325.124 153.649 327.554 150.393C329.985 147.137 333.195 144.543 336.891 142.849C340.586 141.155 344.649 140.415 348.705 140.697C352.762 140.979 356.682 142.274 360.107 144.463C363.532 146.653 366.352 149.666 368.307 153.226C370.262 156.787 371.291 160.781 371.298 164.842H347.006Z" fill="#38405F"/>
<path d="M386.756 289.77H381.441V316.738H386.756V289.77Z" fill="#FF0035"/>
<path d="M395.888 294.256H390.573V316.752H395.888V294.256Z" fill="#FF0035"/>
<path d="M405.02 302.433H399.705V316.752H405.02V302.433Z" fill="#FF0035"/>
<path d="M414.165 293.865H408.85V316.752H414.165V293.865Z" fill="#FF0035"/>
<path d="M423.296 297.623H417.982V316.752H423.296V297.623Z" fill="#FF0035"/>
<path d="M432.428 286.012H427.114V316.739H432.428V286.012Z" fill="#FF0035"/>
<path d="M378.366 284.139V292.288V300.438V316.751L378.231 316.617C391.14 316.617 404.048 316.617 416.957 316.617H427.747L437.311 316.698H427.747H416.957C404.048 316.698 391.14 316.698 378.231 316.698H378.096V316.576V300.263V292.113L378.366 284.139Z" fill="#A6A6A6"/>
<path d="M377.193 286.011C377.963 285.814 378.77 285.814 379.54 286.011C378.77 286.209 377.963 286.209 377.193 286.011Z" fill="#A6A6A6"/>
<path d="M377.193 289.244C377.577 289.148 377.971 289.099 378.366 289.096C378.762 289.092 379.157 289.142 379.54 289.244C378.77 289.441 377.963 289.441 377.193 289.244Z" fill="#A6A6A6"/>
<path d="M377.193 292.477C377.963 292.28 378.77 292.28 379.54 292.477C378.772 292.693 377.96 292.693 377.193 292.477Z" fill="#A6A6A6"/>
<path d="M377.193 295.724C377.96 295.509 378.772 295.509 379.54 295.724C378.77 295.922 377.963 295.922 377.193 295.724Z" fill="#A6A6A6"/>
<path d="M377.193 298.957C377.963 298.759 378.77 298.759 379.54 298.957C378.77 299.154 377.963 299.154 377.193 298.957Z" fill="#A6A6A6"/>
<path d="M377.193 302.19C377.963 301.993 378.77 301.993 379.54 302.19C378.77 302.387 377.963 302.387 377.193 302.19Z" fill="#A6A6A6"/>
<path d="M377.193 305.423C377.577 305.327 377.971 305.278 378.366 305.275C378.763 305.264 379.159 305.314 379.54 305.423C378.77 305.62 377.963 305.62 377.193 305.423Z" fill="#A6A6A6"/>
<path d="M377.193 308.656C377.963 308.458 378.77 308.458 379.54 308.656C378.772 308.872 377.96 308.872 377.193 308.656Z" fill="#A6A6A6"/>
<path d="M377.193 311.902C377.96 311.686 378.772 311.686 379.54 311.902C378.77 312.099 377.963 312.099 377.193 311.902Z" fill="#A6A6A6"/>
<path d="M184.321 362.687C184.314 366.175 183.038 369.542 180.73 372.16C178.422 374.778 175.239 376.468 171.775 376.916C168.311 377.363 164.802 376.538 161.903 374.593C159.003 372.647 156.911 369.716 156.016 366.344C155.122 362.972 155.485 359.39 157.039 356.266C158.593 353.142 161.232 350.689 164.463 349.365C167.694 348.04 171.298 347.934 174.601 349.067C177.905 350.199 180.683 352.493 182.419 355.52C183.668 357.703 184.324 360.173 184.321 362.687Z" fill="#DBDBDB"/>
<path d="M182.419 355.521L169.901 362.687V348.287C172.441 348.287 174.935 348.955 177.133 350.225C179.331 351.495 181.154 353.322 182.419 355.521Z" fill="#FF0035"/>
<path d="M179.752 364.304C180.632 358.876 176.94 353.764 171.506 352.885C166.071 352.006 160.952 355.693 160.072 361.12C159.192 366.548 162.884 371.66 168.318 372.539C173.753 373.418 178.872 369.731 179.752 364.304Z" fill="white"/>
<path d="M174.042 360.465H165.747V361.637H174.042V360.465Z" fill="#263238"/>
<path d="M176.106 363.725H163.697V364.897H176.106V363.725Z" fill="#A6A6A6"/>
<path d="M224.651 362.687C224.652 363.391 224.598 364.094 224.489 364.789C223.933 368.45 221.978 371.753 219.033 374.004C216.089 376.254 212.386 377.277 208.702 376.858C205.018 376.438 201.641 374.608 199.28 371.752C196.919 368.897 195.759 365.239 196.044 361.547C196.328 357.855 198.035 354.417 200.805 351.955C203.575 349.494 207.193 348.202 210.898 348.349C214.603 348.497 218.106 350.074 220.671 352.748C223.236 355.422 224.662 358.985 224.651 362.687Z" fill="#DBDBDB"/>
<path d="M224.651 362.687C224.652 363.391 224.598 364.094 224.489 364.789L210.232 362.687V348.287C212.126 348.284 214.003 348.654 215.754 349.376C217.505 350.098 219.096 351.159 220.436 352.497C221.775 353.835 222.837 355.424 223.561 357.172C224.284 358.921 224.655 360.795 224.651 362.687Z" fill="#FF0035"/>
<path d="M219.936 364.971C221.197 359.619 217.875 354.26 212.516 353.001C207.157 351.742 201.791 355.059 200.53 360.411C199.269 365.763 202.591 371.122 207.95 372.382C213.309 373.641 218.675 370.323 219.936 364.971Z" fill="white"/>
<path d="M214.373 360.465H206.078V361.637H214.373V360.465Z" fill="#263238"/>
<path d="M216.437 363.725H204.027V364.897H216.437V363.725Z" fill="#A6A6A6"/>
<path d="M265.265 362.687C265.267 366.186 263.995 369.566 261.685 372.197C259.376 374.828 256.187 376.531 252.713 376.987C249.24 377.443 245.719 376.622 242.807 374.676C239.895 372.73 237.791 369.794 236.888 366.413C235.984 363.033 236.343 359.439 237.896 356.303C239.45 353.167 242.093 350.703 245.332 349.37C248.571 348.036 252.185 347.925 255.501 349.057C258.816 350.189 261.605 352.486 263.349 355.521C264.604 357.701 265.265 360.172 265.265 362.687Z" fill="#DBDBDB"/>
<path d="M265.265 362.687C265.272 365.605 264.391 368.456 262.738 370.861C261.086 373.267 258.74 375.115 256.012 376.158L250.846 362.687V348.287C254.669 348.291 258.334 349.809 261.038 352.509C263.741 355.209 265.261 358.869 265.265 362.687Z" fill="#FF0035"/>
<path d="M260.814 362.687C260.814 364.656 260.229 366.581 259.134 368.218C258.039 369.855 256.482 371.131 254.661 371.884C252.839 372.638 250.835 372.835 248.901 372.451C246.968 372.067 245.192 371.119 243.798 369.727C242.403 368.334 241.454 366.561 241.069 364.629C240.685 362.698 240.882 360.697 241.637 358.878C242.391 357.059 243.669 355.504 245.308 354.41C246.947 353.316 248.874 352.732 250.846 352.732C253.49 352.732 256.025 353.781 257.894 355.648C259.764 357.515 260.814 360.047 260.814 362.687Z" fill="white"/>
<path d="M254.987 360.465H246.691V361.637H254.987V360.465Z" fill="#263238"/>
<path d="M257.051 363.725H244.641V364.897H257.051V363.725Z" fill="#A6A6A6"/>
<path d="M138.851 168.331H144.489V131.812H138.851V168.331Z" fill="#EBEBEB"/>
<path d="M138.851 168.331H144.489V140.581H138.851V168.331Z" fill="#FF0035"/>
<path d="M130.353 168.331H135.991V131.812H130.353V168.331Z" fill="#EBEBEB"/>
<path d="M130.353 168.331H135.991V144.286H130.353V168.331Z" fill="#38405F"/>
<path d="M121.869 168.331H127.507V131.812H121.869V168.331Z" fill="#EBEBEB"/>
<path d="M121.869 168.331H127.507V157.218H121.869V168.331Z" fill="#FF0035"/>
<path d="M113.384 168.331H119.022V131.812H113.384V168.331Z" fill="#EBEBEB"/>
<path d="M113.384 168.317H119.022V137.833H113.384V168.317Z" fill="#38405F"/>
<path d="M104.9 168.331H110.539V131.812H104.9V168.331Z" fill="#EBEBEB"/>
<path d="M104.9 168.331H110.539V135.422H104.9V168.331Z" fill="#FF0035"/>
<path d="M96.416 168.331H102.054V131.812H96.416V168.331Z" fill="#EBEBEB"/>
<path d="M96.416 168.331H102.054V147.478H96.416V168.331Z" fill="#38405F"/>
<path d="M92.6662 131.798L92.7471 140.931L92.8011 150.064L92.8685 168.331L92.6662 168.129H106.559L120.453 168.142L134.346 168.209L148.239 168.331L134.346 168.452L120.453 168.519L106.559 168.533H92.6662H92.4639V168.331L92.5178 150.064L92.5853 140.931L92.6662 131.798Z" fill="#EBEBEB"/>
<path d="M91.8569 131.798C92.1304 131.729 92.4112 131.693 92.6932 131.69C92.9753 131.692 93.2562 131.728 93.5295 131.798C93.2588 131.881 92.9761 131.917 92.6932 131.906C92.4104 131.917 92.1278 131.88 91.8569 131.798Z" fill="#EBEBEB"/>
<path d="M91.8569 135.421C92.1497 135.362 92.4488 135.339 92.7472 135.354C93.0293 135.356 93.3101 135.392 93.5835 135.462C93.3128 135.545 93.03 135.581 92.7472 135.57C92.444 135.573 92.1425 135.523 91.8569 135.421Z" fill="#EBEBEB"/>
<path d="M91.8569 139.046C92.1291 138.97 92.4107 138.934 92.6932 138.938C92.9758 138.933 93.2575 138.969 93.5295 139.046C93.2575 139.122 92.9758 139.158 92.6932 139.153C92.4107 139.157 92.1291 139.121 91.8569 139.046Z" fill="#EBEBEB"/>
<path d="M91.8569 142.669C92.1291 142.593 92.4107 142.557 92.6932 142.561C92.9758 142.556 93.2575 142.592 93.5295 142.669C93.2575 142.745 92.9758 142.781 92.6932 142.777C92.4107 142.781 92.1291 142.744 91.8569 142.669Z" fill="#EBEBEB"/>
<path d="M91.8569 146.293C92.1437 146.194 92.4439 146.139 92.7472 146.131C93.0297 146.126 93.3115 146.163 93.5835 146.239C93.3115 146.316 93.0297 146.352 92.7472 146.347C92.4494 146.374 92.1493 146.356 91.8569 146.293Z" fill="#EBEBEB"/>
<path d="M91.8569 149.916C92.1278 149.834 92.4104 149.798 92.6932 149.809C92.9761 149.797 93.2588 149.834 93.5295 149.916C93.2562 149.986 92.9753 150.022 92.6932 150.024C92.4112 150.021 92.1304 149.985 91.8569 149.916Z" fill="#EBEBEB"/>
<path d="M91.8569 153.54C92.1278 153.457 92.4104 153.421 92.6932 153.432C92.9761 153.42 93.2588 153.457 93.5295 153.54C93.2562 153.609 92.9753 153.645 92.6932 153.647C92.4112 153.645 92.1304 153.608 91.8569 153.54Z" fill="#EBEBEB"/>
<path d="M91.8569 157.15C92.1304 157.081 92.4112 157.045 92.6932 157.042C92.9753 157.044 93.2562 157.08 93.5295 157.15C93.2588 157.233 92.9761 157.269 92.6932 157.258C92.4104 157.268 92.1278 157.232 91.8569 157.15Z" fill="#EBEBEB"/>
<path d="M91.8569 160.774C92.1304 160.705 92.4112 160.669 92.6932 160.666C92.9753 160.668 93.2562 160.704 93.5295 160.774C93.2588 160.857 92.9761 160.893 92.6932 160.882C92.4104 160.892 92.1278 160.856 91.8569 160.774Z" fill="#EBEBEB"/>
<path d="M91.8569 164.397C92.1291 164.322 92.4107 164.285 92.6932 164.29C92.9758 164.285 93.2575 164.321 93.5295 164.397C93.2575 164.474 92.9758 164.51 92.6932 164.505C92.4107 164.509 92.1291 164.473 91.8569 164.397Z" fill="#EBEBEB"/>
<path d="M503 188.523H465.313V207.989H503V188.523Z" fill="#FF0035"/>
<path d="M498.657 192.996H469.656V193.791H498.657V192.996Z" fill="white"/>
<path d="M498.657 196.242H469.656V197.037H498.657V196.242Z" fill="white"/>
<path d="M498.657 199.488H469.656V200.283H498.657V199.488Z" fill="white"/>
<path d="M498.657 202.722H469.656V203.516H498.657V202.722Z" fill="white"/>
<path d="M98.5067 322.935H60.8198V342.4H98.5067V322.935Z" fill="#FF0035"/>
<path d="M94.1497 327.407H65.1494V328.202H94.1497V327.407Z" fill="white"/>
<path d="M94.1497 330.653H65.1494V331.448H94.1497V330.653Z" fill="white"/>
<path d="M94.1497 333.887H65.1494V334.682H94.1497V333.887Z" fill="white"/>
<path d="M94.1497 337.133H65.1494V337.928H94.1497V337.133Z" fill="white"/>
<path d="M244.708 63.2725H207.021V82.7377H244.708V63.2725Z" fill="#FF0035"/>
<path d="M240.365 67.7441H211.365V68.5389H240.365V67.7441Z" fill="white"/>
<path d="M240.365 70.9912H211.365V71.786H240.365V70.9912Z" fill="white"/>
<path d="M240.365 74.2373H211.365V75.0321H240.365V74.2373Z" fill="white"/>
<path d="M240.365 77.4844H211.365V78.2791H240.365V77.4844Z" fill="white"/>
<path d="M319.003 412.731H281.316V432.197H319.003V412.731Z" fill="#FF0035"/>
<path d="M314.66 417.217H285.66V418.012H314.66V417.217Z" fill="white"/>
<path d="M314.66 420.45H285.66V421.245H314.66V420.45Z" fill="white"/>
<path d="M314.66 423.696H285.66V424.491H314.66V423.696Z" fill="white"/>
<path d="M314.66 426.942H285.66V427.737H314.66V426.942Z" fill="white"/>
</g>
<defs>
<clipPath id="clip0">
<rect width="503" height="575" fill="white"/>
</clipPath>
</defs>
</svg>
