<svg width="512" height="342" viewBox="0 0 512 342" fill="none" xmlns="http://www.w3.org/2000/svg">
<path d="M77.6778 194.653C77.679 196.681 77.2807 198.689 76.5054 200.562C75.7302 202.436 74.5933 204.139 73.1598 205.572C71.7263 207.006 70.0243 208.143 68.1511 208.919C66.2779 209.694 64.2703 210.093 62.243 210.092C61.9673 210.092 61.7105 210.092 61.4537 210.092L33.9888 210.149C29.9603 210.049 26.1305 208.378 23.3166 205.492C20.5027 202.607 18.9277 198.736 18.9277 194.705C18.9277 190.674 20.5027 186.803 23.3166 183.918C26.1305 181.033 29.9603 179.362 33.9888 179.262H61.1969C61.5488 179.262 61.8912 179.262 62.243 179.262C66.3276 179.264 70.2448 180.885 73.1375 183.77C76.0302 186.654 77.6627 190.567 77.6778 194.653Z" fill="#A6A6A6"/>
<path d="M34.1606 195.157C34.1884 194.581 34.3761 194.024 34.7027 193.549C34.8358 193.331 34.988 193.121 35.1307 192.912L36.0817 191.961C36.4335 191.704 36.7949 191.428 37.1563 191.19C38.6476 190.239 40.312 189.593 42.0539 189.288C46.0658 188.489 50.1958 188.489 54.2077 189.288C55.9233 189.602 57.561 190.249 59.0293 191.19C59.4192 191.447 59.7806 191.732 60.1515 191.999L61.1025 192.893C61.3405 193.239 61.5595 193.598 61.7587 193.968C61.9142 194.346 62.0445 194.733 62.1486 195.128H61.8728H54.1982C54.1314 195.151 54.0589 195.151 53.992 195.129C53.925 195.107 53.8672 195.063 53.8273 195.005C53.6125 194.584 53.2898 194.227 52.8921 193.971C52.4945 193.716 52.0362 193.57 51.5639 193.549C49.2522 193.402 46.9334 193.402 44.6217 193.549C44.1489 193.568 43.6898 193.713 43.2918 193.969C42.8939 194.225 42.5716 194.582 42.3583 195.005C42.2917 195.109 42.2441 195.186 42.092 195.186H34.1701L34.1606 195.157Z" fill="white"/>
<path d="M34.1504 199.647V196.907C34.1504 196.841 34.1504 196.774 34.1504 196.727H42.0152C42.0152 196.898 42.0152 197.098 42.0152 197.297C42.0152 198.068 42.0152 198.838 42.0152 199.609C42.0362 199.745 42.0249 199.884 41.9822 200.015C41.9395 200.145 41.8665 200.264 41.7692 200.362C41.6719 200.459 41.5531 200.532 41.4223 200.575C41.2916 200.617 41.1526 200.629 41.0166 200.608H35.1584C35.0254 200.629 34.8891 200.619 34.7604 200.579C34.6317 200.539 34.514 200.47 34.4164 200.377C34.3188 200.284 34.244 200.17 34.1979 200.043C34.1518 199.916 34.1355 199.781 34.1504 199.647Z" fill="white"/>
<path d="M54.1783 199.685C54.1783 198.733 54.1783 197.716 54.2544 196.736H62.0051C62.0051 196.783 62.0051 196.85 62.0051 196.907C62.0051 197.858 62.0051 198.743 62.0051 199.666C62.0204 199.794 62.0063 199.925 61.9639 200.047C61.9215 200.169 61.8519 200.281 61.7604 200.372C61.6688 200.464 61.5577 200.533 61.4353 200.576C61.313 200.618 61.1826 200.632 61.0541 200.617H55.1198C54.9934 200.632 54.8652 200.618 54.7447 200.577C54.6243 200.536 54.5148 200.467 54.4243 200.378C54.3338 200.288 54.2647 200.179 54.2221 200.059C54.1795 199.939 54.1645 199.811 54.1783 199.685Z" fill="white"/>
<path d="M283.025 97.449C290.487 67.4679 272.238 37.1126 242.264 29.6486C212.291 22.1846 181.943 40.4383 174.481 70.4194C167.019 100.401 185.268 130.756 215.242 138.22C245.215 145.684 275.563 127.43 283.025 97.449Z" fill="#EBEBEB"/>
<path d="M270.124 94.2708C275.852 71.394 261.955 48.2042 239.084 42.4749C216.213 36.7457 193.029 50.6465 187.301 73.5232C181.573 96.4 195.471 119.59 218.342 125.319C241.213 131.048 264.397 117.148 270.124 94.2708Z" fill="white"/>
<path d="M258.323 91.3865C262.442 75.0444 252.537 58.4566 236.199 54.3366C219.861 50.2166 203.277 60.1245 199.158 76.4666C195.039 92.8087 204.945 109.397 221.283 113.517C237.621 117.637 254.204 107.729 258.323 91.3865Z" fill="#EBEBEB"/>
<path d="M245.073 88.0584C247.364 79.03 241.904 69.8536 232.878 67.5624C223.852 65.2712 214.678 70.7327 212.387 79.7611C210.096 88.7894 215.556 97.9658 224.582 100.257C233.609 102.548 242.783 97.0867 245.073 88.0584Z" fill="white"/>
<path d="M236.144 85.8165C237.185 81.7339 234.72 77.58 230.639 76.5386C226.557 75.4972 222.404 77.9626 221.363 82.0452C220.322 86.1279 222.787 90.2817 226.868 91.3231C230.95 92.3645 235.103 89.8991 236.144 85.8165Z" fill="#EBEBEB"/>
<path d="M296.437 14.6529L232.372 78.7344L233.912 80.2747L297.977 16.1932L296.437 14.6529Z" fill="#C7C7C7"/>
<path d="M237.104 81.6736L228.735 83.9185L230.97 75.5381L237.104 81.6736Z" fill="#A6A6A6"/>
<path d="M307.925 11.2533L295.914 23.2675L286.489 26.1402L289.361 16.7134L301.372 4.69922L298.5 14.126L307.925 11.2533Z" fill="#A6A6A6"/>
<path d="M141.205 318.582H10.1472L0 229.555H131.057L141.205 318.582Z" fill="#37474F"/>
<path d="M134.063 312.617H15.9293L7.14209 235.519H125.275L134.063 312.617Z" fill="white"/>
<path d="M215.288 312.617H80.7686V318.591H215.288V312.617Z" fill="#37474F"/>
<path d="M215.278 312.617H147.576V318.591H215.278V312.617Z" fill="#263238"/>
<path d="M92.3325 235.528L15.8625 312.018L13.5801 292.013L70.041 235.528H92.3325Z" fill="#EBEBEB"/>
<path d="M132.066 295.057L114.51 312.617H92.2188L129.783 275.043L132.066 295.057Z" fill="#EBEBEB"/>
<path d="M21.7779 235.528L8.64457 248.665L7.86475 241.845L14.1794 235.528H21.7779Z" fill="#EBEBEB"/>
<path d="M128.319 262.182L77.8966 312.617H70.2886L127.539 255.353L128.319 262.182Z" fill="#EBEBEB"/>
<path d="M31.6873 235.528L9.6526 257.569L9.4624 255.856L29.7853 235.528H31.6873Z" fill="#EBEBEB"/>
<path d="M103.26 235.528L26.1906 312.617H24.2886L101.358 235.528H103.26Z" fill="#EBEBEB"/>
<path d="M127.035 250.91L65.3434 312.617H63.4414L126.845 249.198L127.035 250.91Z" fill="#EBEBEB"/>
<path d="M370.795 318.582H501.853L512 229.555H380.943L370.795 318.582Z" fill="#37474F"/>
<path d="M377.938 312.617H496.08L504.858 235.519H386.725L377.938 312.617Z" fill="white"/>
<path d="M431.241 312.617H296.722V318.591H431.241V312.617Z" fill="#37474F"/>
<path d="M364.423 312.617H296.722V318.591H364.423V312.617Z" fill="#263238"/>
<path d="M501.463 265.388L498.591 290.558L476.537 312.617H454.246L501.463 265.388Z" fill="#EBEBEB"/>
<path d="M459.571 235.528L382.512 312.617H377.938L380.22 292.612L437.289 235.528H459.571Z" fill="#EBEBEB"/>
<path d="M409.368 235.528L383.814 261.088L384.794 252.499L401.76 235.528H409.368Z" fill="#EBEBEB"/>
<path d="M493.427 235.528L416.358 312.617H408.75L485.819 235.528H493.427Z" fill="#EBEBEB"/>
<path d="M502.556 255.78L502.319 257.93L447.646 312.617H445.744L502.556 255.78Z" fill="#EBEBEB"/>
<path d="M501.406 235.528L424.346 312.617H422.444L499.513 235.528H501.406Z" fill="#EBEBEB"/>
<path d="M429.624 235.528L381.199 283.966L381.446 281.816L427.722 235.528H429.624Z" fill="#EBEBEB"/>
<path d="M131.923 184.541C148.175 217.369 172.245 250.177 178.693 256.322C196.02 272.95 242.277 284.907 255.914 285.288C261.801 285.449 269.942 246.334 265.596 241.778C261.249 237.221 204.142 224.788 201.08 222.448C198.959 220.784 171.751 194.881 153.682 179.5C131.21 160.389 127.643 175.885 131.923 184.541Z" fill="#F7A9A0"/>
<path d="M252.985 236.308L238.235 282.871C238.235 282.871 189.905 270.153 176.972 257.711C164.038 245.269 137.248 200.731 132.018 186.044C126.787 171.357 130.192 159.761 153.891 178.815C177.59 197.868 197.684 217.359 201.878 220.498C206.072 223.637 252.985 236.308 252.985 236.308Z" fill="#38405F"/>
<path d="M238.016 238.172C238.088 238.637 238.295 239.071 238.613 239.418C238.93 239.765 239.344 240.01 239.801 240.121C240.257 240.233 240.737 240.207 241.179 240.046C241.621 239.886 242.005 239.597 242.284 239.218C242.562 238.839 242.721 238.385 242.742 237.915C242.762 237.445 242.643 236.98 242.399 236.578C242.155 236.176 241.797 235.855 241.371 235.656C240.944 235.457 240.469 235.39 240.004 235.461C239.381 235.557 238.822 235.897 238.449 236.405C238.076 236.914 237.921 237.549 238.016 238.172Z" fill="#263238"/>
<path d="M226.176 234.757C226.246 235.223 226.452 235.658 226.769 236.006C227.086 236.354 227.499 236.601 227.956 236.714C228.413 236.827 228.893 236.803 229.336 236.643C229.778 236.483 230.164 236.195 230.443 235.815C230.722 235.436 230.882 234.983 230.903 234.512C230.924 234.042 230.805 233.576 230.561 233.173C230.317 232.77 229.959 232.449 229.532 232.25C229.105 232.051 228.629 231.984 228.164 232.056C227.856 232.102 227.56 232.209 227.293 232.37C227.027 232.531 226.794 232.743 226.61 232.994C226.425 233.245 226.292 233.53 226.217 233.833C226.143 234.135 226.129 234.449 226.176 234.757Z" fill="#263238"/>
<path d="M202.582 271.333C191.997 267.223 181.907 262.439 176.971 257.711C164.038 245.345 137.248 200.731 132.018 186.044C128.67 176.656 128.851 168.532 135.603 168.865L202.582 271.333Z" fill="#263238"/>
<path d="M54.8345 312.598H176.848C177.342 308.136 152.236 183.78 140.282 168.19C137.724 164.851 129.288 163.928 122.127 164.822C120.257 165.035 118.408 165.411 116.602 165.945C116.544 165.971 116.484 165.99 116.421 166.002C114.962 166.421 113.587 167.094 112.361 167.99C92.4181 183.942 53.874 311.504 54.8345 312.598Z" fill="#38405F"/>
<path d="M130.354 196.327L135.546 186.225L142.232 193.531L140.596 200.808L133.986 201.654L130.354 196.327Z" fill="#263238"/>
<path d="M133.986 201.654L130.829 275.975L144.752 300.545L151.979 272.893L140.596 200.808L133.986 201.654Z" fill="#263238"/>
<path d="M133.796 184.874C131.894 184.798 119.132 174.829 115.214 167.057C114.947 166.525 115.936 161.045 116.821 154.32C117.334 150.239 117.772 145.683 117.962 141.497C117.962 140.632 120.863 142.315 120.863 142.315L126.236 143.799L144.019 148.755C144.019 148.755 141.166 157.45 140.938 164.755C140.93 165.335 140.971 165.914 141.062 166.487C141.068 166.582 141.068 166.677 141.062 166.772C141.518 170.054 136.944 184.998 133.796 184.874Z" fill="#F7A9A0"/>
<path d="M141.062 166.468C141.069 166.563 141.069 166.658 141.062 166.753C140.165 166.842 139.261 166.858 138.361 166.801C120.682 165.85 119.227 143.248 119.227 143.248L126.207 143.781L143.991 148.737C143.991 148.737 141.138 157.431 140.91 164.737C140.911 165.317 140.962 165.896 141.062 166.468Z" fill="#263238"/>
<path d="M113.834 110.716C111.162 120.085 116.602 146.92 123.345 152.799C133.111 161.36 148.86 161.854 156.03 150.154C162.982 138.825 155.289 103.981 147.776 98.6633C136.725 90.8346 117.772 96.8655 113.834 110.716Z" fill="#F7A9A0"/>
<path d="M140.368 126.335C140.368 126.268 140.244 126.449 140.263 126.516C140.672 128.313 140.853 130.444 139.312 131.367C139.265 131.367 139.312 131.491 139.312 131.472C141.319 130.787 141.081 127.971 140.368 126.335Z" fill="#263238"/>
<path d="M138.409 124.765C135.46 125.117 136.383 130.996 139.112 130.673C141.842 130.349 140.881 124.461 138.409 124.765Z" fill="#263238"/>
<path d="M150.99 124.975C150.99 124.899 151.142 125.032 151.152 125.108C151.38 126.944 151.951 128.999 153.691 129.341C153.748 129.341 153.758 129.446 153.691 129.446C151.637 129.484 150.914 126.744 150.99 124.975Z" fill="#263238"/>
<path d="M152.312 122.816C155.165 122.131 156.363 127.971 153.682 128.599C151 129.227 149.878 123.386 152.312 122.816Z" fill="#263238"/>
<path d="M135.67 122.434C136.408 122.089 137.125 121.701 137.819 121.274C138.633 120.973 139.325 120.411 139.788 119.676C139.887 119.416 139.898 119.131 139.818 118.864C139.739 118.598 139.575 118.365 139.35 118.201C138.856 117.946 138.303 117.827 137.748 117.857C137.193 117.887 136.656 118.065 136.193 118.373C135.16 118.852 134.341 119.695 133.891 120.741C133.803 120.986 133.788 121.251 133.847 121.505C133.907 121.758 134.039 121.989 134.228 122.168C134.416 122.348 134.653 122.469 134.909 122.516C135.165 122.563 135.429 122.535 135.67 122.434Z" fill="#263238"/>
<path d="M154.119 119.496C153.282 119.496 152.512 119.343 151.694 119.258C150.825 119.295 149.968 119.04 149.26 118.535C149.064 118.337 148.941 118.08 148.91 117.804C148.879 117.528 148.942 117.249 149.088 117.013C149.445 116.587 149.909 116.264 150.432 116.077C150.955 115.889 151.519 115.845 152.065 115.948C153.204 115.99 154.288 116.45 155.108 117.241C155.282 117.434 155.397 117.674 155.438 117.93C155.479 118.187 155.446 118.45 155.341 118.688C155.237 118.926 155.066 119.129 154.849 119.272C154.633 119.415 154.379 119.493 154.119 119.496Z" fill="#263238"/>
<path d="M141.366 143.505C141.87 143.856 142.403 144.38 143.069 144.332C143.75 144.214 144.399 143.952 144.971 143.562C144.983 143.557 144.996 143.556 145.008 143.559C145.02 143.562 145.032 143.568 145.041 143.577C145.05 143.586 145.056 143.597 145.059 143.61C145.062 143.622 145.061 143.635 145.056 143.647C144.853 144.046 144.547 144.382 144.168 144.619C143.79 144.857 143.354 144.988 142.907 144.998C142.519 144.959 142.152 144.806 141.851 144.559C141.55 144.312 141.328 143.982 141.214 143.609C141.167 143.514 141.319 143.447 141.366 143.505Z" fill="#263238"/>
<path d="M148.308 139.024C147.696 140.147 146.805 141.094 145.722 141.773C145.122 142.126 144.426 142.279 143.734 142.211C142.212 142.059 141.975 140.737 142.06 139.548C142.111 138.92 142.236 138.301 142.431 137.702C144.2 138.757 146.258 139.22 148.308 139.024Z" fill="white"/>
<path d="M142.431 137.749C143.012 138.394 143.72 138.912 144.51 139.27C145.301 139.629 146.157 139.82 147.024 139.833C147.784 139.856 148.543 139.77 149.278 139.576C149.421 139.552 149.562 139.514 149.697 139.462C149.82 139.462 149.944 139.395 150.087 139.338C150.18 139.303 150.259 139.239 150.312 139.155C150.366 139.07 150.39 138.971 150.381 138.872C150.376 138.809 150.36 138.748 150.334 138.691V138.529C150.153 137.122 149.678 135.01 149.678 135.01C150.229 135.191 153.025 135.961 152.873 135.229C151.561 129.217 150.096 122.539 147.519 116.832C147.501 116.794 147.47 116.763 147.432 116.747C147.394 116.73 147.351 116.728 147.311 116.741C147.271 116.754 147.237 116.781 147.216 116.817C147.195 116.853 147.188 116.895 147.196 116.936C148.223 122.758 150.277 128.351 151.418 134.201C150.42 133.913 149.386 133.765 148.346 133.764C148.156 133.859 149.297 137.835 149.364 138.472V138.539C147.053 139.214 145.16 138.777 142.631 137.588C142.422 137.474 142.269 137.616 142.431 137.749Z" fill="#263238"/>
<path d="M116.992 131.643C123.392 130.692 122.936 118.868 122.936 118.868C122.936 118.868 133.673 115.453 134.062 106.939C134.062 106.939 145.474 112.085 153.254 107.89C161.033 103.695 157.952 94.6775 156.753 92.8225C155.555 90.9676 151.542 95.3243 151.542 95.3243C151.542 95.3243 150.249 90.14 148.774 89.8071C147.3 89.4742 146.226 92.8796 146.226 92.8796C146.226 92.8796 135.128 90.882 125.57 92.5562C116.012 94.2304 112.674 104.637 112.674 104.637C112.674 104.637 107.701 106.473 106.569 110.344C105.437 114.216 112.903 132.223 116.992 131.643Z" fill="#263238"/>
<path d="M120.397 119.324C129.07 119.21 133.891 112.732 133.939 104.399C133.945 104.382 133.956 104.368 133.97 104.358C133.985 104.347 134.002 104.342 134.02 104.342C134.037 104.342 134.055 104.347 134.069 104.358C134.084 104.368 134.095 104.382 134.101 104.399C134.956 112.009 129.108 121.522 120.368 119.724C120.121 119.667 120.13 119.324 120.397 119.324Z" fill="#263238"/>
<path d="M112.884 104.428C112.904 104.424 112.925 104.426 112.944 104.435C112.962 104.443 112.978 104.458 112.987 104.476C112.997 104.495 113.001 104.516 112.997 104.536C112.994 104.556 112.984 104.575 112.969 104.59C110.744 106.045 108.138 107.263 106.778 109.679C105.142 112.599 106.074 115.976 107.273 118.849C109.108 123.291 112.37 128.941 116.887 131.053C117.154 131.177 116.954 131.557 116.697 131.453C111.314 129.255 107.301 121.893 105.827 116.556C104.172 110.582 107.453 106.54 112.884 104.428Z" fill="#263238"/>
<path d="M143.734 107.956C147.814 109.669 153.387 108.908 156.687 105.845C160.7 102.04 158.998 97.0457 156.43 93.0219C156.306 92.8317 156.582 92.5558 156.753 92.7366C159.958 96.1325 161.014 101.849 157.828 105.635C154.642 109.421 147.947 110.392 143.449 108.489C143.078 108.365 143.354 107.795 143.734 107.956Z" fill="#263238"/>
<path d="M138.884 136.979C137.407 137.036 135.944 136.678 134.661 135.944C133.378 135.21 132.327 134.131 131.627 132.829C130.927 131.527 130.606 130.055 130.702 128.579C130.797 127.104 131.305 125.685 132.167 124.485C133.029 123.284 134.211 122.349 135.577 121.787C136.944 121.225 138.442 121.058 139.899 121.306C141.356 121.553 142.714 122.204 143.819 123.186C144.925 124.168 145.732 125.44 146.15 126.858C146.739 128.865 146.509 131.024 145.509 132.861C144.508 134.698 142.82 136.063 140.815 136.656C140.187 136.842 139.538 136.95 138.884 136.979ZM138.323 122.254C137.756 122.281 137.195 122.374 136.649 122.53C134.983 123.023 133.568 124.133 132.692 125.634C131.815 127.134 131.544 128.912 131.932 130.606C132.321 132.3 133.341 133.782 134.783 134.75C136.226 135.718 137.984 136.1 139.698 135.818C141.412 135.535 142.954 134.61 144.01 133.23C145.066 131.849 145.556 130.119 145.381 128.39C145.206 126.661 144.378 125.064 143.067 123.924C141.756 122.784 140.059 122.186 138.323 122.254Z" fill="#38405F"/>
<path d="M156.753 134.125C153.739 134.239 150.886 131.271 150.248 127.191C149.914 125.251 150.193 123.256 151.047 121.483C151.393 120.714 151.919 120.04 152.582 119.518C153.244 118.996 154.023 118.642 154.851 118.487C155.685 118.381 156.532 118.479 157.319 118.774C158.106 119.069 158.81 119.552 159.369 120.18C160.719 121.611 161.593 123.425 161.87 125.374C162.535 129.673 160.481 133.583 157.286 134.078C157.11 134.108 156.932 134.124 156.753 134.125ZM155.403 119.485H155.003C154.344 119.623 153.726 119.915 153.202 120.339C152.678 120.762 152.262 121.304 151.989 121.921C151.236 123.497 150.993 125.27 151.295 126.991C151.875 130.71 154.471 133.412 157.105 133.003C159.739 132.594 161.394 129.198 160.814 125.497C160.578 123.769 159.81 122.156 158.617 120.884C158.207 120.441 157.709 120.088 157.156 119.846C156.603 119.604 156.006 119.478 155.403 119.476V119.485Z" fill="#38405F"/>
<path d="M146.073 127.828L145.284 127.133C146.311 125.954 148.831 124.194 151.057 125.935L150.41 126.762C148.375 125.202 146.121 127.723 146.073 127.828Z" fill="#38405F"/>
<path d="M111.609 135.248L110.658 134.915C110.81 134.448 112.246 130.339 114.462 129.597C116.678 128.855 130.762 128.037 131.362 127.999L131.428 129.055C127.358 129.302 116.431 130.063 114.795 130.596C113.159 131.129 111.99 134.125 111.609 135.248Z" fill="#38405F"/>
<path d="M121.062 132.831C121.062 132.831 114.643 124.365 110.773 126.696C106.902 129.026 111.98 141.45 116.688 143C117.278 143.233 117.908 143.346 118.542 143.331C119.176 143.316 119.801 143.175 120.38 142.916C120.959 142.656 121.479 142.283 121.912 141.819C122.344 141.355 122.679 140.809 122.898 140.213L121.062 132.831Z" fill="#F7A9A0"/>
<path d="M112.322 130.226C112.246 130.226 112.237 130.321 112.322 130.349C115.632 131.538 117.458 134.487 118.78 137.56C117.762 136.399 116.421 135.79 114.852 136.998C114.838 137.015 114.83 137.035 114.828 137.056C114.826 137.077 114.83 137.098 114.84 137.117C114.851 137.136 114.866 137.151 114.886 137.16C114.905 137.169 114.926 137.173 114.947 137.17C115.512 136.967 116.127 136.944 116.706 137.104C117.285 137.264 117.8 137.599 118.181 138.064C118.815 138.841 119.361 139.686 119.807 140.585C119.978 140.87 120.492 140.689 120.368 140.356V140.29C120.225 136.142 116.783 130.463 112.322 130.226Z" fill="#263238"/>
<path d="M141.157 167.115L134.804 182.705L115.556 163.015L110.069 169.321C110.069 169.321 128.88 200.579 128.994 199.171L135.423 185.797L144.638 195.129L143.944 171.747L141.157 167.115Z" fill="#38405F"/>
<path d="M144.952 183.59C144.704 179.728 144.562 175.837 144.143 172.004C144.143 171.861 143.915 171.804 143.877 172.004C143.097 175.723 144.115 190.468 144.086 193.997C143.706 193.597 135.527 185.787 135.461 185.911C134.072 188.032 129.355 197.773 129.032 198.658C126.055 193.692 114.662 175.638 111.134 170.939C111.114 170.913 111.086 170.895 111.054 170.889C111.022 170.882 110.989 170.888 110.961 170.904C110.933 170.921 110.912 170.947 110.902 170.978C110.892 171.008 110.893 171.042 110.906 171.072C113.531 176.323 128.613 200.627 128.851 200.56C131.329 195.966 133.569 191.248 135.565 186.425C136.944 188.118 145.18 196.889 145.208 196.356C145.349 192.099 145.263 187.838 144.952 183.59Z" fill="#263238"/>
<path d="M181.042 329.758L86.0275 339.166L85.7231 265.482L180.738 256.075L181.042 329.758Z" fill="#FF0035"/>
<path d="M116.735 254.268L85.6372 257.34L85.7228 265.483L118.998 262.191L116.735 254.268Z" fill="#FF0035"/>
<g opacity="0.1">
<path opacity="0.1" d="M181.042 329.758L86.027 339.166L85.7227 265.482L180.737 256.075L181.042 329.758Z" fill="black"/>
<path opacity="0.1" d="M116.735 254.268L85.6372 257.34L85.7228 265.483L118.998 262.191L116.735 254.268Z" fill="black"/>
</g>
<path d="M180.975 329.768L89.3367 338.833L76.2319 264.96L173.909 256.75L180.975 329.768Z" fill="#EBEBEB"/>
<path d="M180.975 329.768L87.0067 339.071L72.9604 268.061L171.731 258.282L180.975 329.768Z" fill="white"/>
<path d="M180.804 329.777L85.5802 339.213L71.686 269.735L166.91 260.298L180.804 329.777Z" fill="#FF0035"/>
<path d="M99.5887 179.119C67.112 208.608 43.6698 259.404 44.4306 273.093C45.3816 291.166 78.1341 322.101 99.465 331.052C104.857 333.316 125.722 289.14 117.829 286.838C109.498 284.412 90.2498 266.947 89.2988 266.148C87.3017 264.455 102.822 225.806 109.317 202.349C116.593 175.856 113.255 166.715 99.5887 179.119Z" fill="#F7A9A0"/>
<path d="M87.3682 324.298C108.033 339.214 136.107 342.448 140.948 341.953C145.084 341.544 147.205 341.297 147.205 341.297C154.632 340.716 157.295 337.197 157.295 337.197C157.295 337.197 166.083 339.042 168.08 333.925C170.343 328.217 157.562 326.705 151.038 321.558C136.078 309.849 118.086 289.016 114.11 285.211L87.3682 324.298Z" fill="#F7A9A0"/>
<path d="M126.74 320.341C131.21 323.699 135.518 327.114 140.415 329.853C145.798 332.85 151.475 334.838 157.21 337.007C157.241 337.023 157.265 337.05 157.278 337.082C157.291 337.115 157.293 337.15 157.283 337.184C157.273 337.217 157.252 337.246 157.223 337.266C157.194 337.286 157.159 337.295 157.124 337.292C145.574 334.675 134.96 328.945 126.436 320.721C126.236 320.569 126.512 320.179 126.74 320.341Z" fill="#263238"/>
<path d="M118.361 328.35C122.888 331.375 130.886 336.645 147.253 341.126C147.31 341.126 147.3 341.23 147.253 341.221C136.569 339.883 126.468 335.602 118.076 328.855C117.8 328.607 118.057 328.179 118.361 328.35Z" fill="#263238"/>
<path d="M133.901 306.348C132.56 304.046 133.758 303.323 138.152 305.054C142.545 306.786 158.513 317.421 161.736 311.504C164.96 305.587 142.269 291.005 134.661 288.684C127.053 286.362 114.091 285.25 114.091 285.25C117.962 288.988 126.435 298.928 133.901 306.348Z" fill="#F7A9A0"/>
<path d="M88.1101 327.618L113.987 284.174C113.987 284.174 89.7743 267.185 89.6602 265.492C89.5461 263.799 106.674 216.979 111.847 193.94C117.02 170.9 114.462 159.914 91.7904 185.597C69.1186 211.281 40.0465 254.496 41.5871 273.016C43.1277 291.537 88.1101 327.618 88.1101 327.618Z" fill="#38405F"/>
<path d="M107.549 215.933C106.598 217.578 105.599 219.195 104.753 220.889C104.467 221.44 104.192 221.992 103.916 222.544C104.125 221.878 104.344 221.221 104.562 220.556C105.884 216.38 107.168 212.185 108.29 207.942C108.299 207.918 108.298 207.892 108.287 207.868C108.277 207.845 108.257 207.827 108.233 207.818C108.209 207.81 108.183 207.811 108.16 207.821C108.136 207.832 108.118 207.852 108.11 207.876C105.124 215.067 102.651 222.477 100.197 229.868C97.7437 237.259 95.4423 244.803 93.1979 252.318C91.9616 256.522 90.6873 260.746 89.7173 265.017C89.7227 265.031 89.7324 265.044 89.7452 265.053C89.7579 265.062 89.7731 265.066 89.7886 265.066C89.8041 265.066 89.8193 265.062 89.832 265.053C89.8448 265.044 89.8545 265.031 89.8599 265.017C91.2864 261.354 92.4942 257.597 93.7305 253.868C94.9668 250.139 96.2221 246.42 97.4299 242.691C99.3319 236.736 101.234 230.778 103.136 224.817C103.949 223.7 104.644 222.501 105.209 221.24C106.094 219.509 106.797 217.702 107.577 215.933H107.549Z" fill="#263238"/>
<path d="M83.5167 316.707C83.3705 317.154 83.3602 317.635 83.487 318.088C83.6139 318.541 83.8723 318.946 84.2295 319.252C84.5866 319.558 85.0266 319.752 85.4936 319.808C85.9606 319.864 86.4337 319.78 86.8531 319.567C87.2725 319.354 87.6192 319.021 87.8495 318.611C88.0798 318.201 88.1832 317.731 88.1468 317.262C88.1103 316.793 87.9355 316.345 87.6446 315.976C87.3537 315.606 86.9596 315.331 86.5124 315.185C85.9133 314.993 85.2625 315.045 84.7015 315.33C84.1405 315.615 83.7147 316.11 83.5167 316.707Z" fill="#263238"/>
<path d="M74.4729 308.346C74.3285 308.793 74.3199 309.273 74.4483 309.726C74.5766 310.178 74.8362 310.582 75.1941 310.887C75.5521 311.192 75.9924 311.384 76.4593 311.438C76.9262 311.493 77.3988 311.408 77.8174 311.194C78.236 310.98 78.5818 310.647 78.8111 310.236C79.0403 309.826 79.1427 309.356 79.1054 308.887C79.0681 308.419 78.8927 307.972 78.6013 307.603C78.31 307.233 77.9158 306.959 77.4686 306.814C77.1714 306.718 76.8581 306.681 76.5466 306.706C76.2351 306.731 75.9316 306.817 75.6534 306.959C75.3752 307.101 75.1277 307.297 74.9252 307.535C74.7226 307.773 74.5689 308.048 74.4729 308.346Z" fill="#263238"/>
<path d="M58.2104 299.775C61.2061 302.324 64.0211 305.064 66.7695 307.822C68.1579 309.211 69.5369 310.6 70.8968 312.008C72.2567 313.416 73.5976 314.862 74.9386 316.298C71.8419 313.904 68.9183 311.294 66.1893 308.488C63.3721 305.732 60.7085 302.823 58.2104 299.775Z" fill="#263238"/>
<path d="M389.53 103.685C391.565 97.1408 400.466 82.758 414.836 87.0861C435.292 93.2692 434.512 133.849 443.737 147.443C460.437 171.985 458.953 194.567 443.128 196.707C425.43 199.095 410.338 178.919 414.779 138.758C417.556 113.645 411.517 101.83 406.439 102.106C401.36 102.382 397.994 108.442 397.994 108.442L389.53 103.685Z" fill="#263238"/>
<path d="M390.415 101.222C391.742 98.2091 393.431 95.3693 395.445 92.7654C397.469 90.0832 400.032 87.854 402.968 86.2208C405.992 84.5609 409.463 83.8953 412.887 84.3183C416.302 84.7365 419.565 85.9769 422.397 87.933C425.127 89.9453 427.396 92.517 429.054 95.4764C430.688 98.3816 431.983 101.465 432.915 104.665C434.654 111.002 435.675 117.515 435.958 124.08C434.967 117.637 433.492 111.277 431.545 105.055C430.518 102.02 429.183 99.0968 427.561 96.3325C425.98 93.6047 423.845 91.2389 421.294 89.3885C418.726 87.5947 415.77 86.4343 412.668 86.002C409.577 85.5467 406.422 86.048 403.624 87.4384C400.775 88.8835 398.234 90.8669 396.14 93.279C395.048 94.4865 394.029 95.757 393.087 97.084C392.149 98.4475 391.258 99.8268 390.415 101.222Z" fill="#263238"/>
<path d="M415.949 124.842C415.787 128.856 415.178 132.832 414.732 136.808C414.285 140.785 413.723 144.742 413.343 148.708C412.963 152.675 412.715 156.651 412.744 160.618C412.701 164.565 413.048 168.506 413.781 172.385C414.451 176.23 415.845 179.913 417.889 183.239C420.055 186.49 422.775 189.336 425.925 191.648C429.077 193.995 432.74 195.563 436.614 196.223C438.56 196.563 440.543 196.646 442.51 196.47C443.496 196.378 444.475 196.219 445.439 195.995C446.432 195.796 447.392 195.46 448.292 194.996C446.543 196.03 444.602 196.697 442.586 196.956C440.577 197.274 438.534 197.332 436.509 197.127C434.474 196.891 432.475 196.409 430.556 195.69C428.641 194.948 426.816 193.99 425.116 192.837C423.41 191.685 421.818 190.373 420.361 188.918L419.306 187.805L418.288 186.654C417.599 185.877 416.963 185.054 416.386 184.19C414.184 180.705 412.67 176.83 411.926 172.775C410.404 164.718 410.87 156.537 411.879 148.585C412.383 144.59 413.077 140.632 413.781 136.694C414.484 132.756 415.378 128.808 415.949 124.842Z" fill="#263238"/>
<path d="M388.275 103.686C388.218 101.783 389.578 99.3765 390.795 99.0436C392.012 98.7106 401.028 102.582 401.807 104.903C402.587 107.224 398.565 109.26 398.565 109.26L388.275 103.686Z" fill="#38405F"/>
<path d="M395.236 186.729C389.872 198.392 350.006 253.212 330.216 254.705C309.503 256.275 259.842 222.42 255.087 219.595C242.03 211.871 278.443 176.218 284.739 182.496C295.257 193.084 320.411 213.022 326.583 211.68C339.517 208.827 366.44 186.225 385.545 174.449C396.995 167.419 401.161 173.821 395.236 186.729Z" fill="#F7A9A0"/>
<path d="M258.178 221.412C255.933 219.918 237.807 209.845 231.007 200.142C227.413 195.005 219.11 179.785 221.963 177.16C224.569 174.801 227.869 178.425 227.869 178.425C227.869 178.425 224.265 171.567 227.926 168.332C231.588 165.098 236.847 171.5 236.847 171.5C236.847 171.5 233.661 164.185 237.541 161.227C241.421 158.268 245.624 165.574 245.624 165.574C245.624 165.574 242.4 159.029 246.623 157.964C251.711 156.642 256.295 169.379 261.221 174.287C262.333 175.4 285.5 195.215 285.5 195.215L258.178 221.412Z" fill="#F7A9A0"/>
<path d="M245.928 165.574C249.324 174.934 252.424 178.444 260.194 184.456C260.346 184.57 260.194 184.827 260.032 184.713C251.92 179.519 247.393 175.676 245.491 165.688C245.358 165.222 245.748 165.126 245.928 165.574Z" fill="#263238"/>
<path d="M237.132 171.452C241.497 180.87 244.835 184.703 252.481 191.6C252.586 191.695 252.434 191.885 252.319 191.799C244.245 185.664 239.823 181.735 236.685 171.747C236.542 171.3 236.932 171.024 237.132 171.452Z" fill="#263238"/>
<path d="M228.249 178.748C233.138 187.557 236.609 191.923 244.892 197.659C244.934 197.684 244.963 197.725 244.975 197.772C244.987 197.819 244.979 197.869 244.954 197.911C244.929 197.953 244.888 197.982 244.841 197.994C244.793 198.006 244.743 197.998 244.702 197.973C235.686 192.941 231.312 187.509 227.993 178.948C227.774 178.339 227.945 178.187 228.249 178.748Z" fill="#263238"/>
<path d="M293.346 192.332C293.346 192.332 288.21 180.965 284.844 176.465C281.477 171.966 262.8 159.828 259.947 163.719C256.266 168.732 265.653 177.873 270.864 181.745C270.864 181.745 262.305 193.35 267.669 201.369C273.032 209.388 293.346 192.332 293.346 192.332Z" fill="#F7A9A0"/>
<path d="M259.385 165.421C259.328 172.423 266.47 177.074 271.225 181.203C271.301 181.259 271.361 181.334 271.401 181.419C271.441 181.505 271.459 181.599 271.453 181.694C271.447 181.788 271.418 181.879 271.369 181.96C271.319 182.04 271.25 182.107 271.168 182.154C267.925 187.262 264.825 195.405 267.279 201.302C267.296 201.336 267.3 201.376 267.288 201.413C267.277 201.449 267.251 201.48 267.217 201.497C267.183 201.515 267.143 201.518 267.107 201.507C267.07 201.495 267.04 201.47 267.022 201.436C263.532 195.471 265.919 187.224 269.875 181.859C264.93 177.702 257.968 172.727 259.357 165.431C259.328 165.383 259.385 165.383 259.385 165.421Z" fill="#263238"/>
<path d="M394.694 190.04C388.484 202.406 352.289 255.209 332.736 256.046C313.184 256.884 272.233 240.199 272.233 240.199L302.57 193.978C302.57 193.978 323.578 209.141 326.878 209.255C330.178 209.369 374.314 180.232 384.585 173.821C394.856 167.41 404.746 169.911 394.694 190.04Z" fill="#FF0035"/>
<path d="M299.936 240.541C299.789 239.134 299.824 237.715 300.041 236.317C300.216 234.915 300.567 233.541 301.087 232.227C301.233 233.634 301.198 235.053 300.982 236.451C300.804 237.852 300.453 239.226 299.936 240.541Z" fill="white"/>
<path d="M360.334 231.286C360.193 229.879 360.228 228.46 360.439 227.062C360.613 225.659 360.968 224.284 361.494 222.972C361.734 225.795 361.338 228.636 360.334 231.286Z" fill="white"/>
<path d="M363.682 196.118C362.275 196.261 360.856 196.223 359.459 196.004C358.056 195.835 356.682 195.483 355.37 194.957C356.776 194.816 358.195 194.851 359.593 195.062C360.995 195.237 362.37 195.592 363.682 196.118Z" fill="white"/>
<path d="M315 212.07C313.596 212.209 312.181 212.171 310.787 211.956C309.384 211.79 308.009 211.438 306.698 210.91C308.101 210.768 309.516 210.803 310.911 211.014C312.314 211.188 313.688 211.543 315 212.07Z" fill="white"/>
<path d="M322.102 255.009C322.047 255.086 321.987 255.159 321.922 255.228H321.676L322.102 255.009Z" fill="white"/>
<path d="M287.773 223.942C289.589 221.782 291.863 220.053 294.43 218.881C293.537 219.977 292.508 220.956 291.368 221.792C290.267 222.66 289.058 223.383 287.773 223.942Z" fill="white"/>
<path d="M338.395 213.44C339.29 212.346 340.319 211.369 341.457 210.529C342.572 209.662 343.793 208.94 345.09 208.379C344.199 209.478 343.169 210.456 342.027 211.29C340.912 212.158 339.691 212.88 338.395 213.44Z" fill="white"/>
<path d="M321.6 227.937C323.772 229.742 325.502 232.02 326.659 234.596C324.493 232.785 322.764 230.509 321.6 227.937Z" fill="white"/>
<path d="M369.664 206.258C371.827 208.069 373.553 210.345 374.713 212.917C373.619 212.029 372.644 211.003 371.813 209.864C370.946 208.758 370.224 207.546 369.664 206.258Z" fill="white"/>
<path d="M309.142 201.483C305.338 208.399 301.638 215.381 297.511 222.116C293.522 228.841 289.179 235.35 284.501 241.616C284.48 241.636 284.453 241.648 284.424 241.651C284.395 241.654 284.366 241.647 284.342 241.632C284.317 241.617 284.298 241.594 284.287 241.567C284.277 241.54 284.275 241.511 284.283 241.483C287.934 234.586 292.109 227.928 296.17 221.269C300.231 214.61 304.625 208.009 308.704 201.293C308.866 201.026 309.284 201.217 309.142 201.483Z" fill="#263238"/>
<path d="M394.694 190.04C388.484 202.406 352.289 255.209 332.736 256.046C327.981 256.246 321.98 255.418 315.618 254.039C330.834 237.782 373.315 191.932 392.992 170.71C398.954 170.349 401.893 175.752 394.694 190.04Z" fill="#E71742"/>
<path d="M358.622 312.598H473.38C473.38 312.598 428.759 199.6 404.993 176.865C398.536 170.691 382.578 171.157 374.761 181.574C368.351 190.135 350.558 224.132 349.75 236.375C348.941 248.617 358.537 260.689 358.537 260.689L358.622 312.598Z" fill="#FF0035"/>
<path d="M373.287 270.258C373.145 268.854 373.18 267.439 373.392 266.044C373.566 264.641 373.921 263.266 374.447 261.954C374.591 263.357 374.552 264.774 374.333 266.168C374.158 267.57 373.806 268.944 373.287 270.258Z" fill="white"/>
<path d="M452.144 291.527C452.015 290.109 452.066 288.681 452.296 287.275C452.47 285.872 452.825 284.497 453.351 283.185C453.495 284.592 453.456 286.011 453.237 287.409C453.049 288.822 452.681 290.206 452.144 291.527Z" fill="white"/>
<path d="M402.635 310.106C402.493 308.702 402.528 307.286 402.739 305.892C402.913 304.488 403.268 303.113 403.795 301.801C403.938 303.205 403.9 304.621 403.681 306.015C403.505 307.417 403.154 308.792 402.635 310.106Z" fill="white"/>
<path d="M391.223 224.817C391.084 223.413 391.122 221.997 391.337 220.603C391.503 219.199 391.855 217.824 392.383 216.513C392.634 219.333 392.237 222.174 391.223 224.817Z" fill="white"/>
<path d="M421.721 259.167C421.591 257.755 421.639 256.333 421.864 254.934C422.035 253.531 422.386 252.156 422.91 250.843C423.162 253.667 422.766 256.511 421.75 259.157L421.721 259.167Z" fill="white"/>
<path d="M360.334 231.286C360.193 229.879 360.228 228.46 360.439 227.062C360.613 225.659 360.968 224.284 361.494 222.972C361.734 225.795 361.338 228.636 360.334 231.286Z" fill="white"/>
<path d="M400.695 265.055C397.873 265.304 395.031 264.91 392.383 263.904C393.789 263.757 395.208 263.792 396.605 264.008C398.007 264.185 399.38 264.536 400.695 265.055Z" fill="white"/>
<path d="M435.311 232.227C433.905 232.369 432.486 232.334 431.089 232.122C429.686 231.948 428.311 231.593 427 231.067C429.822 230.827 432.662 231.223 435.311 232.227Z" fill="white"/>
<path d="M373.543 303.666C372.14 303.805 370.724 303.766 369.331 303.552C367.927 303.385 366.552 303.034 365.241 302.505C366.644 302.363 368.06 302.399 369.454 302.61C370.857 302.784 372.232 303.139 373.543 303.666Z" fill="white"/>
<path d="M437.936 275.224C436.53 275.37 435.111 275.335 433.713 275.119C432.312 274.942 430.938 274.591 429.624 274.073C431.03 273.926 432.449 273.961 433.846 274.177C435.248 274.354 436.622 274.705 437.936 275.224Z" fill="white"/>
<path d="M383.605 290.824C384.501 289.733 385.53 288.758 386.667 287.922C387.78 287.052 389.001 286.329 390.3 285.772C388.486 287.933 386.212 289.659 383.643 290.824H383.605Z" fill="white"/>
<path d="M427 299.119C427.891 298.02 428.92 297.042 430.062 296.208C431.177 295.341 432.398 294.618 433.695 294.058C431.885 296.225 429.609 297.954 427.038 299.119H427Z" fill="white"/>
<path d="M438.487 258.51C439.383 257.419 440.412 256.445 441.55 255.609C442.662 254.738 443.884 254.015 445.182 253.459C444.294 254.557 443.264 255.532 442.12 256.36C441.007 257.231 439.786 257.954 438.487 258.51Z" fill="white"/>
<path d="M369.968 243.918C370.864 242.824 371.892 241.846 373.03 241.007C374.145 240.14 375.366 239.418 376.663 238.857C375.772 239.956 374.743 240.934 373.601 241.768C372.485 242.636 371.265 243.358 369.968 243.918Z" fill="white"/>
<path d="M414.342 215.933C415.238 214.839 416.266 213.861 417.404 213.022C418.519 212.155 419.74 211.432 421.037 210.872C420.146 211.97 419.116 212.949 417.975 213.783C416.859 214.65 415.639 215.373 414.342 215.933Z" fill="white"/>
<path d="M361.58 277.345C360.699 278.419 359.686 279.378 358.565 280.198V279.038C359.501 278.358 360.513 277.79 361.58 277.345Z" fill="white"/>
<path d="M391.736 198.068C392.632 196.974 393.661 195.996 394.799 195.157C395.914 194.29 397.134 193.567 398.431 193.007C396.621 195.174 394.346 196.904 391.774 198.068H391.736Z" fill="white"/>
<path d="M353.896 249.711C354.989 250.607 355.967 251.636 356.806 252.774C357.673 253.889 358.395 255.11 358.955 256.408C356.789 254.597 355.06 252.321 353.896 249.749V249.711Z" fill="white"/>
<path d="M369.664 206.258C371.827 208.069 373.553 210.345 374.713 212.917C373.619 212.029 372.644 211.003 371.813 209.864C370.946 208.758 370.224 207.546 369.664 206.258Z" fill="white"/>
<path d="M409.501 276.527C411.661 278.341 413.386 280.616 414.551 283.186C413.475 282.289 412.516 281.26 411.698 280.123C410.813 279.024 410.075 277.815 409.501 276.527Z" fill="white"/>
<path d="M450.774 304.122C451.868 305.018 452.845 306.047 453.684 307.185C454.552 308.301 455.274 309.522 455.834 310.819C454.733 309.93 453.755 308.9 452.924 307.756C452.057 306.64 451.334 305.419 450.774 304.122Z" fill="white"/>
<path d="M408.692 185.74C410.856 187.551 412.582 189.827 413.742 192.398C411.579 190.588 409.853 188.311 408.692 185.74Z" fill="white"/>
<path d="M401.284 239.295C402.382 240.186 403.36 241.216 404.194 242.358C405.066 243.47 405.789 244.692 406.343 245.992C404.178 244.181 402.448 241.905 401.284 239.333V239.295Z" fill="white"/>
<path d="M397.366 177.958C396.739 179.661 386.905 189.925 378.983 188.508C376.397 188.042 378.299 173.82 378.299 173.82L378.204 172.736L376.825 157.592L395.55 148.736L398.241 147.595C398.241 147.595 398.346 151.761 398.422 156.955C398.422 157.202 398.422 157.44 398.422 157.697C398.422 157.954 398.422 158.268 398.422 158.544C398.422 159.314 398.422 160.113 398.422 160.903C398.422 161.502 398.422 162.082 398.422 162.719V164.622C398.382 169.087 398.03 173.543 397.366 177.958Z" fill="#F7A9A0"/>
<path d="M398.422 156.955C396.4 160.896 393.544 164.35 390.052 167.075C386.561 169.801 382.517 171.732 378.204 172.736L376.825 157.592L395.55 148.736L398.241 147.595C398.241 147.595 398.346 151.761 398.422 156.955Z" fill="#263238"/>
<path d="M357.557 135.277C355.446 161.912 371.138 166.164 376.882 166.611C382.084 167.02 399.877 167.752 404.727 141.498C409.577 115.244 397.88 105.855 386.021 104.285C374.162 102.716 359.678 108.661 357.557 135.277Z" fill="#F7A9A0"/>
<path d="M362.046 129.616C362.654 129.53 363.258 129.409 363.853 129.255C364.507 129.219 365.13 128.965 365.622 128.532C365.75 128.366 365.819 128.162 365.819 127.952C365.819 127.742 365.75 127.538 365.622 127.371C365.322 127.079 364.95 126.872 364.544 126.772C364.137 126.671 363.712 126.681 363.311 126.801C362.458 126.921 361.68 127.351 361.123 128.009C361.005 128.167 360.935 128.356 360.923 128.552C360.911 128.749 360.956 128.946 361.055 129.117C361.153 129.288 361.299 129.427 361.475 129.515C361.651 129.604 361.85 129.639 362.046 129.616Z" fill="#263238"/>
<path d="M379.754 129.997C379.136 129.921 378.565 129.74 377.956 129.607C377.302 129.554 376.684 129.286 376.197 128.846C376.069 128.68 376 128.476 376 128.266C376 128.056 376.069 127.852 376.197 127.686C376.503 127.398 376.881 127.198 377.29 127.106C377.7 127.014 378.127 127.033 378.527 127.163C379.376 127.29 380.146 127.731 380.686 128.399C380.798 128.559 380.861 128.747 380.87 128.941C380.878 129.136 380.83 129.329 380.732 129.497C380.634 129.665 380.489 129.802 380.316 129.891C380.143 129.979 379.947 130.016 379.754 129.997Z" fill="#263238"/>
<path d="M375.588 136.713C375.588 136.637 375.731 136.799 375.721 136.875C375.607 138.692 375.778 140.785 377.405 141.441C377.452 141.441 377.405 141.555 377.405 141.546C375.388 141.194 375.189 138.406 375.588 136.713Z" fill="#263238"/>
<path d="M377.271 134.867C380.2 134.734 380.238 140.575 377.528 140.727C374.818 140.879 374.818 134.972 377.271 134.867Z" fill="#263238"/>
<path d="M378.422 135.172C378.945 135.495 379.449 136.123 380.067 136.123C380.685 136.123 381.313 135.571 381.779 134.981C381.779 134.924 381.874 134.981 381.884 135.048C381.884 136.17 381.475 137.331 380.277 137.502C379.078 137.673 378.375 136.675 378.089 135.543C378.042 135.343 378.222 135.077 378.422 135.172Z" fill="#263238"/>
<path d="M365.498 136.304C365.498 136.237 365.365 136.399 365.365 136.475C365.451 138.292 365.241 140.385 363.606 141.012C363.549 141.012 363.558 141.117 363.606 141.108C365.622 140.784 365.869 138.016 365.498 136.304Z" fill="#263238"/>
<path d="M363.853 134.43C360.924 134.249 360.781 140.137 363.492 140.29C366.202 140.442 366.306 134.582 363.853 134.43Z" fill="#263238"/>
<path d="M362.617 134.791C362.151 135.086 361.666 135.637 361.123 135.666C360.581 135.695 360.02 135.038 359.63 134.42C359.583 134.363 359.535 134.42 359.535 134.486C359.478 135.609 359.821 136.779 360.886 137.026C361.951 137.274 362.607 136.303 362.902 135.19C362.959 134.991 362.807 134.667 362.617 134.791Z" fill="#263238"/>
<path d="M375.722 151.095C375.313 151.542 374.904 152.151 374.247 152.237C373.574 152.258 372.903 152.138 372.279 151.885C372.266 151.882 372.253 151.882 372.241 151.886C372.229 151.89 372.218 151.898 372.21 151.908C372.202 151.918 372.197 151.93 372.196 151.943C372.194 151.956 372.197 151.969 372.203 151.98C372.481 152.322 372.845 152.583 373.259 152.735C373.672 152.887 374.119 152.926 374.552 152.846C374.921 152.735 375.248 152.515 375.489 152.214C375.73 151.913 375.874 151.546 375.902 151.162C375.921 151.057 375.779 151.029 375.722 151.095Z" fill="#263238"/>
<path d="M368.161 144.475C368.161 144.475 367.771 147.196 367.762 148.471C367.762 148.594 368.075 148.651 368.503 148.68C368.503 148.68 368.503 148.68 368.56 148.68C369.657 148.888 370.789 148.79 371.833 148.395C372.877 148.001 373.791 147.326 374.476 146.444C374.49 146.419 374.495 146.39 374.491 146.362C374.487 146.333 374.473 146.307 374.453 146.286C374.433 146.266 374.406 146.253 374.378 146.249C374.349 146.245 374.32 146.25 374.295 146.264C372.654 147.37 370.699 147.917 368.722 147.824C368.637 147.472 369.55 143.201 369.34 143.182C368.346 143.271 367.368 143.488 366.43 143.829C367.086 138.121 368.637 132.632 369.198 126.973C369.209 126.928 369.202 126.882 369.179 126.842C369.156 126.803 369.118 126.775 369.074 126.763C369.03 126.752 368.983 126.759 368.944 126.782C368.905 126.805 368.876 126.843 368.865 126.887C366.83 132.594 365.936 139.072 365.118 144.961C365.004 145.645 367.657 144.694 368.161 144.475Z" fill="#263238"/>
<path d="M368.779 148.394C369.547 149.419 370.566 150.228 371.737 150.744C372.38 151.005 373.088 151.058 373.763 150.896C375.246 150.525 375.294 149.174 375.037 148.043C374.894 147.427 374.68 146.83 374.4 146.264C372.802 147.556 370.832 148.303 368.779 148.394Z" fill="#263238"/>
<path d="M371.737 150.763C372.38 151.024 373.088 151.077 373.762 150.915C375.246 150.544 375.294 149.193 375.037 148.062C373.458 148.176 371.889 149.232 371.737 150.763Z" fill="#EB9481"/>
<path d="M403.548 144.151C401.846 143.316 400.389 142.053 399.322 140.486C398.255 138.918 397.614 137.1 397.462 135.209C392.826 133.157 388.824 129.903 385.869 125.783C386.04 126.334 387.305 130.292 388.018 132.289C371.185 129.064 366.031 116.118 366.031 116.118C360.544 121.55 359.441 125.031 358.642 126.762C358.642 126.762 358.566 116.432 363.91 109.535C370.453 101.088 392.44 98.9005 402.53 110.002C413.419 121.997 403.548 144.151 403.548 144.151Z" fill="#263238"/>
<path d="M375.265 129.446C377.964 130.938 380.872 132.019 383.89 132.651C379.146 131.345 374.863 128.735 371.527 125.117C370.111 123.578 368.897 121.865 367.913 120.019C366.762 118.042 366.012 115.856 365.707 113.588C365.707 113.553 365.693 113.519 365.668 113.494C365.643 113.469 365.609 113.455 365.574 113.455C365.539 113.455 365.505 113.469 365.48 113.494C365.455 113.519 365.441 113.553 365.441 113.588C365.503 115.866 365.946 118.116 366.753 120.247C367.636 122.325 368.897 124.222 370.472 125.84C371.878 127.269 373.479 128.492 375.227 129.474" fill="#263238"/>
<path d="M400.343 143.21C400.343 143.21 406.106 134.829 409.853 136.884C413.6 138.939 409.349 151.048 404.927 152.732C404.374 152.986 403.774 153.127 403.166 153.144C402.557 153.161 401.951 153.055 401.384 152.832C400.817 152.609 400.301 152.273 399.868 151.846C399.434 151.418 399.091 150.908 398.859 150.344L400.343 143.21Z" fill="#F7A9A0"/>
<path d="M408.55 140.327C408.626 140.327 408.635 140.413 408.55 140.441C405.45 141.725 403.795 144.627 402.701 147.623C403.652 146.463 404.879 145.825 406.429 146.919C406.505 146.976 406.429 147.1 406.343 147.081C405.799 146.906 405.213 146.903 404.667 147.073C404.12 147.243 403.64 147.578 403.291 148.032C402.727 148.809 402.243 149.641 401.845 150.515C401.703 150.8 401.199 150.648 401.303 150.334V150.258C401.284 146.329 404.327 140.784 408.55 140.327Z" fill="#263238"/>
<path d="M401.265 152.123C401.265 152.499 401.377 152.867 401.586 153.18C401.795 153.493 402.092 153.737 402.439 153.881C402.787 154.025 403.169 154.063 403.538 153.989C403.907 153.916 404.246 153.735 404.512 153.468C404.778 153.202 404.959 152.863 405.033 152.494C405.106 152.125 405.068 151.743 404.924 151.395C404.78 151.048 404.537 150.75 404.224 150.541C403.911 150.332 403.543 150.221 403.167 150.221C402.667 150.233 402.19 150.437 401.836 150.791C401.481 151.145 401.277 151.622 401.265 152.123Z" fill="white"/>
<path d="M369.644 183.39C369.644 183.39 364.205 198.858 374.048 199.952C383.89 201.045 409.596 182.03 409.596 182.03C409.596 182.03 402.464 170.482 391.07 171.719C381.608 172.736 369.644 183.39 369.644 183.39Z" fill="#F7A9A0"/>
<path d="M416.158 201.502C416.158 220.603 405.183 277.878 394.646 285.592C373.563 301.031 324.12 299.965 310.483 300.203C304.596 300.298 296.864 261.098 301.248 256.589C305.633 252.08 365.917 250.406 368.96 248.094C371.099 246.487 388.103 218.606 397.946 200.684C411.222 176.456 416.158 191.876 416.158 201.502Z" fill="#AD6359"/>
<path d="M311.709 254.496C311.709 254.496 293.916 252.527 282.228 251.794C275.695 251.376 264.445 251.671 259.509 253.554C252.129 256.408 223.076 272.931 226.928 280.065C230.418 286.515 239.291 279.381 239.291 279.381C239.291 279.381 228.83 286.268 234.288 291.613C239.747 296.959 250.455 286.572 250.455 286.572C250.455 286.572 238.863 293.116 245.206 298.272C250.712 302.734 264.292 292.061 264.292 292.061C264.292 292.061 251.378 297.606 256.57 302.734C262.276 308.441 284.672 294.952 284.672 294.952C299.232 299.804 308.628 300.745 319.774 300.042C321.79 299.918 311.709 254.496 311.709 254.496Z" fill="#F7A9A0"/>
<path d="M247.184 288.921L249.818 286.6C251.496 285.053 253.261 283.605 255.106 282.263C256.932 280.978 258.805 279.789 260.717 278.657C262.628 277.525 264.892 276.45 266.879 275.195C266.894 275.183 266.912 275.175 266.93 275.171C266.948 275.167 266.967 275.166 266.986 275.17C267.004 275.174 267.022 275.181 267.037 275.192C267.053 275.203 267.066 275.217 267.075 275.234C267.085 275.25 267.091 275.268 267.093 275.287C267.095 275.306 267.092 275.325 267.087 275.342C267.081 275.36 267.071 275.377 267.058 275.391C267.045 275.405 267.03 275.416 267.012 275.423C265.038 276.641 263.133 277.968 261.306 279.399C259.471 280.741 257.645 282.11 255.819 283.471C253.993 284.831 252.186 286.01 250.37 287.276C249.419 287.913 248.582 288.598 247.707 289.273C246.913 289.978 246.06 290.615 245.158 291.176C245.073 291.223 244.987 291.1 245.044 291.024C245.683 290.25 246.4 289.546 247.184 288.921Z" fill="#263238"/>
<path d="M237.142 280.855C238.349 279.285 244.997 273.863 246.775 272.579C250.213 270.079 253.893 267.931 257.759 266.167C257.787 266.16 257.817 266.161 257.844 266.172C257.871 266.183 257.893 266.202 257.908 266.227C257.924 266.251 257.93 266.28 257.927 266.309C257.924 266.338 257.912 266.365 257.893 266.386C254.459 268.897 250.988 271.352 247.517 273.815C245.815 275.014 238.283 280.712 237.417 281.207C237.208 281.33 237.018 281.026 237.142 280.855Z" fill="#263238"/>
<path d="M256.39 296.788C259.283 294.05 262.355 291.508 265.586 289.178C269.094 287.099 272.753 285.287 276.532 283.756C276.675 283.709 276.789 283.899 276.665 283.975C273.166 286.058 269.647 288.065 266.204 290.31C264.549 291.404 258.216 296.151 256.542 297.054C256.466 297.102 256.314 296.883 256.39 296.788Z" fill="#263238"/>
<path d="M323.711 303.085L307.449 251.395C307.449 251.395 366.621 247.59 368.542 246.638C370.463 245.687 391.556 208.37 399.925 193.873C408.293 179.376 421.189 185.312 416.367 218.063C411.527 250.967 406.201 276.536 398.831 284.146C389.854 293.354 357.139 302.866 323.711 303.085Z" fill="#FF0035"/>
<path d="M373.287 270.258C373.145 268.854 373.18 267.439 373.392 266.044C373.566 264.641 373.921 263.266 374.447 261.954C374.591 263.357 374.552 264.774 374.333 266.168C374.158 267.57 373.806 268.944 373.287 270.258Z" fill="white"/>
<path d="M340.592 299.842C340.445 298.435 340.48 297.016 340.696 295.618C340.874 294.217 341.225 292.843 341.742 291.528C341.889 292.934 341.854 294.354 341.638 295.751C341.462 297.153 341.111 298.528 340.592 299.842Z" fill="white"/>
<path d="M391.223 224.817C391.084 223.413 391.122 221.997 391.337 220.603C391.503 219.199 391.855 217.824 392.383 216.513C392.634 219.333 392.237 222.174 391.223 224.817Z" fill="white"/>
<path d="M400.695 265.055C397.873 265.304 395.031 264.91 392.383 263.904C393.789 263.757 395.208 263.792 396.605 264.008C398.007 264.185 399.38 264.536 400.695 265.055Z" fill="white"/>
<path d="M343.882 266.681C342.476 266.828 341.057 266.792 339.66 266.576C338.258 266.401 336.884 266.049 335.57 265.53C336.976 265.384 338.396 265.419 339.793 265.635C341.194 265.812 342.568 266.164 343.882 266.681Z" fill="white"/>
<path d="M383.605 290.824C384.501 289.733 385.53 288.758 386.667 287.922C387.78 287.052 389.001 286.329 390.3 285.772C388.486 287.933 386.212 289.659 383.643 290.824H383.605Z" fill="white"/>
<path d="M315.409 260.06C316.305 258.97 317.333 257.995 318.471 257.159C319.584 256.288 320.805 255.566 322.104 255.009C321.215 256.107 320.185 257.082 319.042 257.911C317.929 258.781 316.707 259.504 315.409 260.06Z" fill="white"/>
<path d="M376.663 238.857C375.772 239.956 374.743 240.934 373.601 241.768C372.738 242.424 371.822 243.006 370.862 243.509C371.157 243.052 371.48 242.558 371.813 242.006C372.203 241.664 372.612 241.331 373.021 241.055C374.136 240.17 375.36 239.432 376.663 238.857Z" fill="white"/>
<path d="M416.909 213.45C416.909 213.849 416.833 214.249 416.786 214.658C416.018 215.177 415.199 215.617 414.342 215.971C415.101 215.037 415.962 214.191 416.909 213.45Z" fill="white"/>
<path d="M354.885 282.405C355.781 281.312 356.809 280.334 357.947 279.495C359.062 278.627 360.283 277.905 361.58 277.345C360.689 278.443 359.66 279.421 358.518 280.256C357.402 281.123 356.182 281.845 354.885 282.405Z" fill="white"/>
<path d="M353.896 249.711C354.989 250.607 355.967 251.636 356.806 252.774C357.673 253.889 358.395 255.11 358.955 256.408C356.789 254.597 355.06 252.321 353.896 249.749V249.711Z" fill="white"/>
<path d="M413.743 192.427C412.65 191.537 411.675 190.511 410.842 189.374C410.13 188.452 409.512 187.461 408.997 186.416C409.171 186.406 409.346 186.406 409.52 186.416C410.273 187.141 410.967 187.927 411.593 188.765C412.464 189.888 413.186 191.119 413.743 192.427Z" fill="white"/>
<path d="M401.284 239.295C402.382 240.186 403.36 241.216 404.194 242.358C405.066 243.47 405.789 244.692 406.343 245.992C404.178 244.181 402.448 241.905 401.284 239.333V239.295Z" fill="white"/>
<path d="M387.067 215.723C385.165 218.577 383.348 221.602 381.57 224.579L381.418 224.826C381.503 224.598 381.599 224.37 381.684 224.151C382.264 222.667 382.778 221.155 383.405 219.699C383.405 219.614 383.32 219.538 383.282 219.623C382.635 221.06 381.922 222.477 381.313 223.913C380.904 224.865 380.533 225.882 380.182 226.881C378.86 229.088 377.538 231.295 376.235 233.54C374.485 236.527 372.745 239.533 370.985 242.52C370.548 243.252 370.129 243.985 369.683 244.717C369.369 245.366 368.822 245.872 368.151 246.134C367.356 246.323 366.543 246.432 365.726 246.458C364.861 246.543 363.996 246.648 363.13 246.753C359.193 247.238 355.284 247.885 351.347 248.398C351.252 248.398 351.252 248.56 351.347 248.55C354.961 248.275 358.584 248.141 362.198 247.847C363.986 247.704 365.774 247.58 367.543 247.352C368.227 247.316 368.887 247.085 369.445 246.686C369.935 246.241 370.338 245.709 370.634 245.116C374.216 238.914 377.798 232.709 381.38 226.501C383.405 222.981 385.46 219.48 387.324 215.875C387.344 215.841 387.35 215.801 387.34 215.762C387.33 215.724 387.305 215.691 387.271 215.671C387.237 215.651 387.197 215.645 387.158 215.655C387.12 215.664 387.087 215.689 387.067 215.723Z" fill="#263238"/>
<path d="M416.453 229.526C416.27 230.711 415.987 231.879 415.607 233.017C415.321 234.034 415.045 235.052 414.741 236.061C414.437 237.069 413.99 238.334 413.6 239.466C414.399 234.431 415.033 229.358 415.502 224.246C415.502 224.094 415.255 224.065 415.226 224.246C414.275 231.352 412.972 238.429 411.479 245.43C409.986 252.432 408.179 259.423 406.135 266.301C405.127 269.687 404.061 273.064 402.882 276.393C401.96 279.31 400.559 282.052 398.736 284.507C396.579 286.958 393.879 288.871 390.852 290.091C387.7 291.542 384.467 292.812 381.171 293.896C373.677 296.35 365.955 297.91 358.29 299.746C358.204 299.746 358.223 299.908 358.29 299.899C365.324 298.915 372.292 297.505 379.155 295.675C382.631 294.749 386.045 293.605 389.378 292.251C392.431 290.976 395.578 289.597 398.042 287.333C400.296 285.111 402.036 282.423 403.139 279.456C404.423 276.346 405.431 273.112 406.429 269.944C408.617 262.924 410.443 255.847 411.936 248.646C412.36 246.559 412.757 244.47 413.124 242.377C413.98 240.388 414.673 238.333 415.198 236.232C415.483 235.138 415.759 234.044 415.977 232.931C416.196 231.818 416.263 230.658 416.577 229.583C416.624 229.44 416.462 229.411 416.453 229.526Z" fill="#263238"/>
<path d="M334.001 298.919C331.319 291.49 328.485 284.118 326.136 276.584C323.701 269.15 321.66 261.593 320.021 253.944C320.022 253.915 320.032 253.887 320.05 253.864C320.067 253.842 320.092 253.825 320.12 253.818C320.148 253.81 320.178 253.812 320.204 253.823C320.231 253.833 320.254 253.853 320.269 253.878C323.055 261.164 325.319 268.688 327.658 276.127C329.998 283.566 332.071 291.223 334.439 298.719C334.524 299.005 334.115 299.204 334.001 298.919Z" fill="#263238"/>
<path d="M324.034 250.177C322.618 250.101 321.199 250.101 319.783 250.177C318.366 250.177 316.93 250.272 315.532 250.329C312.679 250.453 309.874 250.662 307.05 250.9C306.994 250.902 306.94 250.917 306.891 250.943C306.843 250.969 306.801 251.006 306.768 251.051C306.736 251.096 306.715 251.148 306.706 251.203C306.697 251.257 306.701 251.313 306.717 251.366C307.061 252.414 307.547 253.409 308.162 254.325C308.21 254.372 308.305 254.325 308.305 254.277C308.181 253.35 307.931 252.445 307.563 251.585C310.264 251.404 312.965 251.243 315.666 251.033L319.907 250.729C321.286 250.615 322.693 250.577 324.063 250.358C324.177 250.358 324.129 250.177 324.034 250.177Z" fill="#263238"/>
<path d="M260.194 239.104C263.722 240.855 279.842 241.521 284.539 247.304C287.668 251.109 287.392 255.038 289.18 266.519C290.769 276.488 282.523 274.129 280.136 269.012C276.408 260.993 273.204 252.203 273.204 252.203C270.452 252.067 267.695 252.108 264.949 252.327L260.194 239.104Z" fill="#F7A9A0"/>
<path d="M271.777 276.812C277.359 273.273 295.21 295.837 286.289 301.782C277.369 307.727 265.453 280.807 271.777 276.812Z" fill="#F7A9A0"/>
<path d="M262.733 281.568C268.306 278.03 286.165 300.593 277.245 306.538C268.325 312.484 256.39 285.611 262.733 281.568Z" fill="#F7A9A0"/>
<path d="M256.323 282.519C261.886 280.075 274.982 303.047 266.042 307.252C257.103 311.456 250.028 285.25 256.323 282.519Z" fill="#F7A9A0"/>
<path d="M249.733 281.854C255.581 281.159 261.268 306.177 251.787 307.537C242.305 308.897 243.142 282.643 249.733 281.854Z" fill="#F7A9A0"/>
<path d="M270.503 284.603C271.526 285.732 272.455 286.944 273.28 288.227C274.231 289.568 275.115 290.928 275.914 292.355C276.693 293.715 277.391 295.119 278.006 296.56C278.634 298.091 279.071 299.727 279.746 301.24C279.755 301.256 279.76 301.275 279.761 301.293C279.762 301.312 279.759 301.33 279.752 301.348C279.745 301.365 279.735 301.381 279.722 301.394C279.709 301.407 279.693 301.418 279.675 301.424C279.658 301.431 279.64 301.434 279.621 301.433C279.602 301.432 279.584 301.427 279.568 301.419C279.551 301.41 279.536 301.399 279.524 301.384C279.513 301.37 279.504 301.353 279.499 301.335C278.849 299.861 278.093 298.437 277.236 297.073C276.447 295.694 275.733 294.277 274.963 292.888C274.193 291.499 273.498 290.167 272.728 288.826C271.958 287.485 271.035 286.153 270.322 284.736C270.31 284.712 270.307 284.685 270.314 284.659C270.32 284.633 270.335 284.61 270.357 284.594C270.378 284.578 270.405 284.57 270.431 284.572C270.458 284.574 270.483 284.584 270.503 284.603Z" fill="#263238"/>
<path d="M261.211 284.479C261.782 286.172 263.703 292.64 264.35 294.315C264.996 295.989 265.71 297.663 266.442 299.318C267.174 300.973 267.802 302.771 268.753 304.398C268.761 304.427 268.759 304.458 268.747 304.486C268.735 304.513 268.714 304.536 268.688 304.551C268.661 304.565 268.631 304.57 268.601 304.565C268.571 304.559 268.544 304.544 268.524 304.521C267.631 302.904 266.622 301.401 265.767 299.765C264.911 298.129 264.235 296.445 263.579 294.733C262.5 291.397 261.626 287.998 260.964 284.555C260.916 284.346 261.145 284.336 261.211 284.479Z" fill="#263238"/>
<path d="M254.202 286.087C254.649 288.503 254.944 290.948 255.401 293.364C255.619 294.553 255.857 295.742 256.076 296.94C256.18 297.511 256.275 298.091 256.38 298.672C256.436 299.342 256.56 300.005 256.751 300.65C256.818 300.812 256.513 300.888 256.494 300.65C256.319 299.927 256.09 299.218 255.809 298.529C255.648 297.968 255.486 297.416 255.343 296.845C255.049 295.666 254.811 294.486 254.621 293.278C254.193 290.91 253.945 288.512 253.879 286.106C253.879 285.954 254.174 285.906 254.202 286.087Z" fill="#263238"/>
<path d="M341.229 126.125C343.584 122.625 344.857 118.51 344.89 114.291C344.89 99.2997 328.428 87.1523 308.143 87.1523C287.859 87.1523 271.425 99.2997 271.425 114.291C271.425 129.283 287.859 141.43 308.143 141.43C317.986 141.43 326.897 138.577 333.488 133.925L346.145 137.14L341.229 126.125Z" fill="#FF0035"/>
<path d="M294.934 114.291C294.934 115.044 294.711 115.78 294.293 116.405C293.875 117.031 293.281 117.519 292.586 117.807C291.891 118.095 291.126 118.17 290.388 118.023C289.65 117.876 288.972 117.514 288.44 116.982C287.908 116.45 287.546 115.772 287.399 115.034C287.252 114.296 287.328 113.53 287.616 112.835C287.904 112.14 288.391 111.546 289.017 111.128C289.642 110.709 290.378 110.486 291.13 110.486C292.139 110.486 293.107 110.887 293.82 111.601C294.533 112.314 294.934 113.282 294.934 114.291Z" fill="#263238"/>
<path d="M308.153 118.097C310.259 118.097 311.966 116.389 311.966 114.282C311.966 112.176 310.259 110.468 308.153 110.468C306.047 110.468 304.339 112.176 304.339 114.282C304.339 116.389 306.047 118.097 308.153 118.097Z" fill="#263238"/>
<path d="M328.98 114.291C328.98 115.044 328.757 115.78 328.339 116.405C327.921 117.031 327.327 117.519 326.632 117.807C325.937 118.095 325.172 118.17 324.434 118.023C323.696 117.876 323.018 117.514 322.486 116.982C321.954 116.45 321.592 115.772 321.445 115.034C321.298 114.296 321.374 113.53 321.662 112.835C321.95 112.14 322.437 111.546 323.063 111.128C323.688 110.709 324.424 110.486 325.176 110.486C326.185 110.486 327.153 110.887 327.866 111.601C328.579 112.314 328.98 113.282 328.98 114.291Z" fill="#263238"/>
<path d="M208.621 44.7083C206.5 62.4489 195.098 65.6356 193.177 70.3918C192.207 73.3691 191.407 76.3989 190.78 79.4667H172.236C171.62 76.3971 170.823 73.3668 169.848 70.3918C167.946 65.6356 156.534 62.3633 154.537 44.6036C153.196 32.9414 162.012 14.5443 181.631 14.5919C201.251 14.6395 210 33.0555 208.621 44.7083Z" fill="#FF0035"/>
<path d="M171.985 51.0749L171.049 51.2471L176.481 80.7629L177.416 80.5907L171.985 51.0749Z" fill="white"/>
<path d="M191.154 51.1077L185.589 80.5986L186.523 80.7751L192.089 51.2842L191.154 51.1077Z" fill="white"/>
<path d="M181.565 60.9937C180.11 60.9937 178.646 59.8331 177.447 57.7309C177.39 57.6358 177.333 57.5406 177.286 57.4455C177.095 57.6913 176.855 57.895 176.582 58.0439C176.308 58.1928 176.007 58.2838 175.697 58.3112C172.92 58.3112 171.817 52.6037 171.779 52.3278L172.245 52.2422C172.245 52.2993 173.31 57.826 175.697 57.8355C175.969 57.7975 176.23 57.7025 176.463 57.5566C176.696 57.4107 176.895 57.2172 177.048 56.9889C175.878 54.5728 175.222 51.4146 176.097 49.9783C176.222 49.7477 176.408 49.5558 176.634 49.4233C176.86 49.2908 177.119 49.2228 177.381 49.2268C177.692 49.2168 178 49.2932 178.27 49.4477C178.54 49.6022 178.762 49.8287 178.912 50.1019C179.749 51.5573 179.131 54.5632 178.027 56.4562C177.911 56.6591 177.784 56.8559 177.647 57.046C177.723 57.1982 177.809 57.3504 177.894 57.4931C178.541 58.6251 179.882 60.518 181.603 60.518C182.754 60.518 183.905 59.5668 184.856 57.9782C184.939 57.8428 185.015 57.7031 185.084 57.5597C184.837 57.2652 184.62 56.9465 184.437 56.6084C183.286 54.6108 183.058 51.6524 183.933 50.1495C184.072 49.8685 184.286 49.6311 184.551 49.4634C184.816 49.2956 185.122 49.2039 185.436 49.1982C185.678 49.1987 185.916 49.2666 186.123 49.3942C186.329 49.5218 186.496 49.7043 186.605 49.9212C187.423 51.3481 186.967 54.744 185.654 57.417C185.904 57.6666 186.201 57.8641 186.527 57.998C186.854 58.1319 187.203 58.1995 187.556 58.197C189.249 58.197 190.761 54.1542 191.199 52.5942L191.655 52.7178C191.589 52.9652 189.953 58.6726 187.556 58.6726C186.789 58.6708 186.049 58.3825 185.483 57.8641L185.312 58.1685C184.494 59.4812 183.258 60.9937 181.565 60.9937ZM185.369 49.7214C185.139 49.7255 184.915 49.7936 184.722 49.9179C184.529 50.0423 184.374 50.218 184.275 50.4253C183.496 51.7761 183.724 54.5728 184.779 56.4087C184.916 56.6514 185.075 56.8807 185.255 57.0936C186.415 54.6013 186.853 51.4717 186.13 50.2066C186.062 50.0622 185.954 49.94 185.819 49.8541C185.685 49.7683 185.529 49.7223 185.369 49.7214ZM177.305 49.7214C177.125 49.7157 176.948 49.7609 176.793 49.8518C176.638 49.9427 176.512 50.0756 176.43 50.2351C175.774 51.3766 176.201 54.1542 177.333 56.5704L177.542 56.2374C178.55 54.4967 179.159 51.6525 178.427 50.3588C178.319 50.1573 178.157 49.9904 177.958 49.8776C177.759 49.7648 177.533 49.7106 177.305 49.7214Z" fill="white"/>
<path d="M192.944 78.7278L170.073 78.6719L170.062 83.1427L192.933 83.1986L192.944 78.7278Z" fill="#38405F"/>
<path d="M192.922 83.9211L170.05 83.8652L170.039 88.3361L192.911 88.392L192.922 83.9211Z" fill="#38405F"/>
<path d="M192.936 89.0734L170.064 89.0215L170.054 93.4923L192.925 93.5442L192.936 89.0734Z" fill="#38405F"/>
<path d="M182.516 0C183.113 2.43268 183.074 4.97807 182.402 7.39116C181.806 4.95843 181.845 2.41315 182.516 0Z" fill="#263238"/>
<path d="M161.775 5.08008C162.655 5.96597 163.401 6.97537 163.991 8.0765C164.616 9.15867 165.084 10.3246 165.379 11.539C164.511 10.657 163.774 9.65423 163.192 8.56163C162.553 7.47589 162.076 6.30312 161.775 5.08008Z" fill="#263238"/>
<path d="M146.359 19.8428C148.767 20.5406 150.953 21.8517 152.702 23.6477C151.496 23.3152 150.343 22.8124 149.278 22.1543C148.199 21.5281 147.216 20.7496 146.359 19.8428Z" fill="#263238"/>
<path d="M140.368 40.3322C142.8 39.7357 145.344 39.775 147.757 40.4464C145.325 41.0429 142.78 41.0036 140.368 40.3322Z" fill="#263238"/>
<path d="M145.446 61.0791C146.331 60.1987 147.341 59.4521 148.441 58.8627C149.521 58.2348 150.688 57.77 151.903 57.4834C150.091 59.211 147.869 60.4485 145.446 61.0791Z" fill="#263238"/>
<path d="M216.847 62.6585C214.443 61.9508 212.26 60.6411 210.504 58.8535C212.912 59.5514 215.098 60.8624 216.847 62.6585Z" fill="#263238"/>
<path d="M222.829 42.1594C221.619 42.4724 220.37 42.6133 219.12 42.5779C217.874 42.583 216.634 42.4034 215.44 42.0452C216.646 41.728 217.892 41.587 219.139 41.6267C220.388 41.631 221.63 41.8103 222.829 42.1594Z" fill="#263238"/>
<path d="M217.76 21.4219C216.872 22.2964 215.863 23.0395 214.764 23.6288C213.684 24.2581 212.518 24.726 211.303 25.0176C212.19 24.1473 213.199 23.4103 214.298 22.8297C215.379 22.1974 216.545 21.7233 217.76 21.4219Z" fill="#263238"/>
<path d="M203.001 5.99316C202.303 8.40176 200.992 10.588 199.197 12.338C199.529 11.1343 200.032 9.98436 200.69 8.92299C201.318 7.84222 202.096 6.85584 203.001 5.99316Z" fill="#263238"/>
</svg>
