<svg width="512" height="491" viewBox="0 0 512 491" fill="none" xmlns="http://www.w3.org/2000/svg">
<g clip-path="url(#clip0)">
<path d="M255.994 491C377.114 491 475.302 486.455 475.302 480.848C475.302 475.242 377.114 470.697 255.994 470.697C134.873 470.697 36.686 475.242 36.686 480.848C36.686 486.455 134.873 491 255.994 491Z" fill="#EBEBEB"/>
<path d="M278.252 341.259H257.166V423.351H278.252V341.259Z" fill="#232A3F"/>
<path d="M278.252 427.403H257.166V440.918H278.252V427.403Z" fill="#232A3F"/>
<path d="M278.035 445.246H256.949V453.577H278.035V445.246Z" fill="#455A64"/>
<path d="M278.035 457.64H256.949V461.776H278.035V457.64Z" fill="#232A3F"/>
<path d="M285.273 341.247H250.133L267.703 316.989L285.273 341.247Z" fill="#232A3F"/>
<path d="M320.219 315.169H299.133V423.352H320.219V315.169Z" fill="#232A3F"/>
<path d="M320.219 427.403H299.133V440.918H320.219V427.403Z" fill="#232A3F"/>
<path d="M320.219 444.981H299.133V453.312H320.219V444.981Z" fill="#232A3F"/>
<path d="M320.002 457.64H298.916V461.776H320.002V457.64Z" fill="#232A3F"/>
<path d="M327.252 315.157H292.1L309.682 290.899L327.252 315.157Z" fill="#232A3F"/>
<path d="M362.198 289.078H341.112V423.351H362.198V289.078Z" fill="#232A3F"/>
<path d="M362.198 427.403H341.112V440.918H362.198V427.403Z" fill="#232A3F"/>
<path d="M362.198 444.981H341.112V453.312H362.198V444.981Z" fill="#232A3F"/>
<path d="M361.981 457.64H340.895V461.776H361.981V457.64Z" fill="#455A64"/>
<path d="M369.231 289.066H334.079L351.661 264.809L369.231 289.066Z" fill="#232A3F"/>
<path d="M404.177 262.988H383.091V423.352H404.177V262.988Z" fill="#232A3F"/>
<path d="M404.177 427.403H383.091V440.918H404.177V427.403Z" fill="#232A3F"/>
<path d="M404.177 444.981H383.091V453.312H404.177V444.981Z" fill="#232A3F"/>
<path d="M403.959 457.64H382.873V461.776H403.959V457.64Z" fill="#232A3F"/>
<path d="M411.21 262.976H376.058L393.628 238.719L411.21 262.976Z" fill="#232A3F"/>
<path d="M0 461.775L63.9955 461.474L128.003 461.377L255.994 461.172L383.997 461.365L448.005 461.474L512 461.775L448.005 462.065L383.997 462.173L255.994 462.366L128.003 462.173L63.9955 462.065L0 461.775Z" fill="#263238"/>
<path d="M443.328 148.162L56.5034 461.775H6.92383V406.785H61.7598V362.321H116.608V317.869H171.456V273.405H226.292V228.94H281.14V184.476H335.976V140.012L390.812 95.5595V95.5475L393.748 93.1724L443.328 148.162Z" fill="#FF0035"/>
<path opacity="0.1" d="M443.328 148.162L56.5034 461.775H6.92383V406.785H61.7598V362.321H116.608V317.869H171.456V273.405H226.292V228.94H281.14V184.476H335.976V140.012L390.812 95.5595V95.5475L393.748 93.1724L443.328 148.162Z" fill="black"/>
<path d="M430.084 204.574L400.636 135.177L330.659 97.9466L505.076 50.5044L430.084 204.574Z" fill="#FF0035"/>
<g opacity="0.1">
<path opacity="0.1" d="M430.084 204.574L400.636 135.177L330.659 97.9466L505.076 50.5044L430.084 204.574Z" fill="black"/>
</g>
<g opacity="0.1">
<path opacity="0.1" d="M80.5983 362.321H61.7598V406.773H80.5983V362.321Z" fill="black"/>
<path opacity="0.1" d="M135.446 317.869H116.608V362.321H135.446V317.869Z" fill="black"/>
<path opacity="0.1" d="M190.307 273.404H171.468V317.857H190.307V273.404Z" fill="black"/>
<path opacity="0.1" d="M245.155 228.952H226.316V273.404H245.155V228.952Z" fill="black"/>
<path opacity="0.1" d="M300.003 184.5H281.164V228.952H300.003V184.5Z" fill="black"/>
<path opacity="0.1" d="M354.851 184.5H336.012V140.036L354.851 124.712V184.5Z" fill="black"/>
<path opacity="0.1" d="M25.7624 406.773H6.92383V461.775H25.7624V406.773Z" fill="black"/>
</g>
<path d="M107.884 43.4276C82.8945 47.2736 58.2074 55.0741 55.0656 62.1272C50.8484 71.6156 52.1535 96.1264 54.0023 108.786C54.546 112.499 83.4745 107.689 82.8945 103.71C82.1936 98.8874 78.1818 74.0992 78.2664 73.5688C78.4356 72.544 102.857 56.7861 108.778 53.1572C118.687 47.2133 118.977 41.7276 107.884 43.4276Z" fill="#D3766A"/>
<path d="M57.8205 127.63C54.8479 122.096 53.3254 108.46 54.1954 105.084C55.0655 101.708 78.2662 98.2964 80.8884 100.828C83.5106 103.36 91.8725 122.747 90.6521 129.004C89.4316 135.262 60.7811 133.369 57.8205 127.63Z" fill="#D3766A"/>
<path d="M90.6159 118.937C87.7763 117.225 87.3775 121.554 87.3775 121.554C87.3775 121.554 86.447 115.188 82.834 114.561C79.221 113.934 79.0518 119.191 79.0276 119.564C79.0276 119.227 77.9643 113.415 74.2666 113.15C70.569 112.885 71.0403 118.19 71.0765 118.527C70.9315 118.226 68.8894 114.271 66.0376 114.706C61.1316 115.465 66.0376 125.713 64.5755 129.439C64.5755 129.439 57.9657 127.642 57.7603 127.63C57.7603 127.63 62.2554 137.48 67.4272 139.204C68.1716 139.468 68.9841 139.47 69.7294 139.209C70.4748 138.948 71.108 138.44 71.5236 137.77C71.5236 137.77 72.6233 141.109 75.5233 141.387C77.0217 141.531 78.5805 139.289 78.5805 139.289C78.8707 140.036 79.3635 140.687 80.0037 141.171C80.644 141.654 81.4064 141.95 82.2057 142.026C84.272 142.122 85.5287 139.855 85.5287 139.855C85.5287 139.855 87.6554 141.941 89.8063 141.35C94.0719 140.181 96.694 122.615 90.6159 118.937Z" fill="#D3766A"/>
<path d="M85.7344 139.554C85.7344 139.554 85.7948 139.638 85.819 139.554C88.1968 133.768 88.7572 127.399 87.4261 121.288C87.4261 121.095 87.0394 121.095 87.0515 121.288C87.5013 127.408 87.0577 133.561 85.7344 139.554Z" fill="#263238"/>
<path d="M78.5806 139.409C78.5806 139.469 78.6772 139.505 78.7014 139.409C81.2618 133.005 81.4461 125.899 79.221 119.371C79.1364 119.154 78.8343 119.033 78.9068 119.299C80.2119 123.82 79.9098 133.815 78.5806 139.409Z" fill="#263238"/>
<path d="M70.7505 118.13C72.8651 124.532 72.7201 130.958 71.6084 137.541C71.6084 137.625 71.7172 137.637 71.7534 137.541C73.1672 134.466 73.4331 130.198 73.3606 126.859C73.3447 123.756 72.5112 120.713 70.9438 118.033C70.9076 117.949 70.7022 117.997 70.7505 118.13Z" fill="#263238"/>
<path d="M87.3774 121.553C87.0805 120.35 86.6761 119.176 86.169 118.045C85.7179 116.929 84.9802 115.952 84.0302 115.212C83.578 114.902 83.0276 114.769 82.4835 114.838C81.9302 114.912 81.4055 115.128 80.9609 115.465C80.5443 115.833 80.2114 116.287 79.9842 116.794C79.7571 117.301 79.641 117.851 79.6438 118.407L79.523 121.119L78.6892 118.539C78.3319 117.384 77.7847 116.296 77.07 115.32C76.7681 114.847 76.3701 114.443 75.9017 114.134C75.4334 113.824 74.9051 113.616 74.3511 113.524C73.8427 113.461 73.3279 113.571 72.8896 113.836C72.4513 114.1 72.1149 114.504 71.9344 114.982C71.5558 116.083 71.4602 117.26 71.6565 118.407L72.0915 121.589L70.6414 118.744C70.234 117.95 69.7308 117.209 69.1431 116.538C68.6049 115.884 67.8865 115.402 67.0767 115.151C66.7069 115.054 66.3171 115.062 65.9518 115.175C65.5865 115.288 65.2603 115.501 65.0104 115.79C64.5454 116.509 64.2978 117.346 64.2975 118.202C64.2708 120.064 64.388 121.927 64.6479 123.772C64.7446 124.712 64.8412 125.652 64.9017 126.593C65.0107 127.538 64.9159 128.496 64.6237 129.402C64.8045 128.482 64.8045 127.537 64.6237 126.617C64.5029 125.689 64.3337 124.76 64.1645 123.844C63.7632 121.977 63.5447 120.075 63.512 118.165C63.4681 117.135 63.7331 116.115 64.2733 115.236C64.6169 114.786 65.0846 114.446 65.6191 114.257C66.1536 114.069 66.7316 114.04 67.2822 114.175C68.3057 114.463 69.2191 115.051 69.9043 115.863C70.5824 116.586 71.1596 117.397 71.6202 118.274L70.6052 118.611C70.3457 117.259 70.4457 115.862 70.8952 114.56C71.1671 113.844 71.6795 113.243 72.3452 112.861C73.008 112.509 73.7623 112.366 74.5082 112.451C75.2099 112.561 75.8804 112.818 76.4759 113.204C77.0714 113.59 77.5786 114.098 77.9642 114.693C78.7453 115.79 79.3299 117.014 79.6921 118.31L78.7375 118.431C78.7629 117.741 78.9394 117.065 79.2546 116.45C79.5699 115.836 80.0162 115.298 80.5622 114.874C81.1328 114.484 81.7945 114.247 82.4835 114.187C83.1683 114.133 83.8499 114.325 84.4048 114.729C85.3929 115.576 86.1216 116.683 86.5074 117.924C86.9301 119.098 87.2218 120.315 87.3774 121.553Z" fill="#263238"/>
<path d="M82.9186 103.879C82.9186 103.879 103.546 120.601 93.0448 125.448C89.9151 126.883 75.3784 129.065 74.9192 126.171C74.2788 122.422 80.1756 120.372 84.0787 119.673C84.0787 119.673 76.2605 114.971 77.9281 108.569C78.2494 107.406 78.8848 106.353 79.7649 105.526C80.645 104.699 81.7359 104.129 82.9186 103.879Z" fill="#D3766A"/>
<path d="M93.8907 124.93C92.7345 125.638 91.4807 126.175 90.1689 126.521C88.865 126.9 87.5368 127.19 86.1934 127.389C83.5065 127.839 80.7853 128.052 78.061 128.028C77.3401 128.023 76.6237 127.913 75.9343 127.703C75.5349 127.579 75.1678 127.369 74.8588 127.088C74.6877 126.937 74.5446 126.757 74.4359 126.557C74.3337 126.355 74.2605 126.14 74.2184 125.918C74.0956 125.114 74.2672 124.292 74.7017 123.603C75.108 122.978 75.6189 122.428 76.2122 121.976C77.3468 121.143 78.6187 120.515 79.9702 120.119C81.273 119.697 82.6061 119.375 83.9579 119.154L83.8129 120.023C82.9466 119.455 82.1373 118.805 81.3961 118.081C80.6472 117.371 79.9711 116.587 79.3781 115.743C78.7971 114.889 78.3451 113.955 78.0368 112.97C77.7281 111.992 77.6092 110.965 77.6864 109.943C77.7408 110.946 77.9655 111.933 78.351 112.861C78.7382 113.769 79.2463 114.62 79.8615 115.393C80.4738 116.167 81.162 116.877 81.9157 117.515C82.6649 118.157 83.4742 118.727 84.3325 119.215L85.3837 119.806L84.1754 120.083C82.8805 120.342 81.6048 120.688 80.3569 121.12C79.1369 121.517 77.987 122.103 76.9493 122.856C76.4654 123.159 76.0672 123.581 75.7923 124.081C75.5175 124.581 75.375 125.143 75.3784 125.713C75.463 126.63 76.913 126.919 78.1698 126.919C79.4941 126.985 80.8209 126.985 82.1453 126.919C83.4866 126.919 84.8158 126.798 86.145 126.654C88.8016 126.488 91.4154 125.906 93.8907 124.93Z" fill="#263238"/>
<path d="M83.8734 102.769L51.3561 102.299C51.3561 102.299 48.9393 67.89 56.0083 60.2342C60.7451 55.1102 86.0364 45.5614 103.497 43.3551C120.958 41.1488 120.765 46.6706 105.612 56.147C90.459 65.6234 79.3057 73.4601 79.3057 73.9424C79.3057 74.4246 83.8734 102.769 83.8734 102.769Z" fill="#FF0035"/>
<path d="M79.5717 69.8915C79.0401 68.3856 79.0401 66.7436 79.5717 65.2377C80.1193 66.7409 80.1193 68.3883 79.5717 69.8915ZM52.3591 81.948C52.3748 81.1531 52.2353 80.3627 51.9483 79.6211C51.4007 81.1242 51.4007 82.7717 51.9483 84.2749C52.2203 83.5222 52.3394 82.723 52.2987 81.9239L52.3591 81.948ZM92.6947 63.6101C92.9838 63.726 93.2832 63.8148 93.5888 63.8753L94.5918 63.2122C93.9227 63.2244 93.2606 63.3508 92.6342 63.586L92.6947 63.6101ZM76.6958 84.8415C77.4882 84.8524 78.2754 84.7133 79.0159 84.4316C78.277 84.1444 77.4886 84.0051 76.6958 84.0217C75.8995 84.0108 75.1083 84.1499 74.3636 84.4316C75.0923 84.6922 75.8613 84.8228 76.6354 84.8174L76.6958 84.8415ZM57.0355 63.9959C57.8284 64.0125 58.6167 63.8732 59.3556 63.586C58.6167 63.2987 57.8284 63.1594 57.0355 63.176C56.2392 63.1643 55.4478 63.3034 54.7034 63.586C55.4493 63.8629 56.2396 64.0018 57.0355 63.9959ZM60.6607 93.4378C60.1114 92.8653 59.4544 92.4064 58.7273 92.0875C59.0543 92.8119 59.5178 93.4668 60.0927 94.0165C60.6476 94.5825 61.3032 95.0404 62.0261 95.3668C61.6991 94.6424 61.2355 93.9875 60.6607 93.4378ZM70.9923 56.5691C70.439 55.9982 69.7831 55.536 69.0589 55.2067C69.3785 55.9322 69.8384 56.5878 70.4122 57.1358C70.9632 57.7093 71.6196 58.1719 72.3456 58.4981C72.0184 57.7769 71.5595 57.1227 70.9923 56.5691ZM107.848 52.4337C108.096 53.0028 108.434 53.5281 108.851 53.989C109.08 53.8323 109.298 53.6876 109.503 53.5309C109.017 53.0745 108.458 52.7036 107.848 52.4337ZM72.0556 101.009C71.5773 101.469 71.17 101.997 70.8472 102.577H71.3668C71.8024 102.284 72.2072 101.949 72.5752 101.576C73.1474 101.026 73.607 100.371 73.9286 99.6469C73.2256 99.9822 72.5906 100.444 72.0556 101.009ZM88.5983 52.8557C88.0233 53.41 87.5598 54.0688 87.2328 54.7968C88.6786 54.1101 89.8435 52.9479 90.5317 51.5054C89.8088 51.8319 89.1531 52.2898 88.5983 52.8557ZM64.4308 75.4375C63.8569 75.9855 63.397 76.641 63.0774 77.3665C64.5255 76.6932 65.6893 75.532 66.3642 74.0872C65.6345 74.408 64.9739 74.8665 64.4187 75.4375H64.4308Z" fill="white"/>
<path d="M80.7801 96.7775C80.8767 96.7775 80.8767 96.6208 80.7801 96.6087C71.7316 95.7482 62.6445 95.3578 53.5554 95.4393C53.4587 95.4393 53.4587 95.596 53.5554 95.608C62.6034 96.4744 71.6909 96.8647 80.7801 96.7775Z" fill="#263238"/>
<path opacity="0.1" d="M105.612 56.1111C90.4469 65.5754 79.3057 73.4242 79.3057 73.9065C79.3057 74.3887 83.8733 102.77 83.8733 102.77L51.356 102.299C51.356 102.299 50.921 96.1386 50.9572 88.4586L112.935 42.9937C120.028 43.922 117.188 48.8772 105.612 56.1111Z" fill="black"/>
<path d="M186.501 318.207C184.277 318.942 120.946 318.448 118.542 316.893C117.623 316.326 124.427 260.227 124.427 260.227L165.185 260.613L157.754 296.216C157.754 296.216 181.921 307.223 184.338 309.2C186.754 311.178 188.712 317.495 186.501 318.207Z" fill="#D3766A"/>
<path d="M186.5 318.207C184.277 318.942 120.946 318.448 118.542 316.892C118.094 316.615 119.484 303.112 121.019 289.355H159.179L157.753 296.167C157.753 296.167 181.921 307.175 184.337 309.152C186.754 311.129 188.712 317.495 186.5 318.207Z" fill="#EBEBEB"/>
<path d="M187.431 318.484C185.171 319.244 120.644 319.219 118.191 317.652C117.248 317.073 119.907 295.794 119.907 295.673L158.007 295.541V296.252C158.007 296.252 182.706 307.284 185.219 309.285C187.733 311.286 189.69 317.724 187.431 318.484Z" fill="#FF0035"/>
<path d="M186.706 315.976C175.831 315.711 131.931 315.639 121.152 316.193C121.067 316.193 121.067 316.193 121.152 316.266C131.931 316.76 175.831 316.483 186.706 316.157C186.936 316.145 186.936 315.988 186.706 315.976Z" fill="#263238"/>
<path d="M162.635 295.649C158.358 294.853 153.125 295.504 149.851 298.542C149.718 298.663 149.851 298.844 150.032 298.796C154.124 297.482 158.345 296.609 162.623 296.191C162.686 296.18 162.743 296.147 162.784 296.098C162.825 296.05 162.848 295.989 162.85 295.925C162.851 295.861 162.831 295.799 162.792 295.749C162.753 295.699 162.697 295.663 162.635 295.649Z" fill="#263238"/>
<path d="M165.729 297.506C161.439 296.71 156.207 297.361 152.932 300.399C152.811 300.52 152.932 300.701 153.113 300.653C157.205 299.34 161.426 298.467 165.704 298.048C165.768 298.038 165.825 298.007 165.868 297.959C165.91 297.911 165.935 297.851 165.938 297.787C165.941 297.723 165.921 297.66 165.883 297.609C165.845 297.558 165.791 297.521 165.729 297.506Z" fill="#263238"/>
<path d="M168.81 299.374C164.533 298.567 159.3 299.218 156.026 302.268C155.893 302.377 156.026 302.557 156.207 302.521C160.299 301.205 164.52 300.328 168.798 299.905C168.869 299.907 168.937 299.88 168.988 299.832C169.039 299.783 169.068 299.716 169.07 299.646C169.072 299.575 169.045 299.507 168.996 299.456C168.948 299.406 168.881 299.376 168.81 299.374Z" fill="#263238"/>
<path d="M161.318 295.179L118.59 294.95C118.59 294.95 131.169 206.636 130.082 202.995C129.646 201.584 83.3658 156.758 83.3658 156.758C64.926 138.613 70.4603 109.34 70.4603 109.34H123.629C123.629 109.34 121.212 122.277 123.955 125.098C127.314 128.522 167.457 171.733 172.677 185.501C179.697 203.947 161.318 295.179 161.318 295.179Z" fill="#38405F"/>
<path d="M160.774 286.727C154.201 286.305 156.098 286.317 149.512 285.979C146.298 285.823 125.151 284.774 122.118 285.268C122.058 285.268 122.046 285.413 122.118 285.437C125.103 286.16 146.286 286.751 149.488 286.835C156.062 287.016 154.176 286.835 160.762 286.968C160.883 286.968 160.895 286.739 160.774 286.727Z" fill="#263238"/>
<path d="M126.263 127.497L106.156 178.894C94.6884 167.67 83.4263 156.758 83.4263 156.758C64.9865 138.613 70.5209 109.34 70.5209 109.34H123.689C123.689 109.34 121.273 122.277 124.016 125.098C124.354 125.472 125.139 126.292 126.263 127.497Z" fill="#232A3F"/>
<path d="M90.5438 362.695C88.2358 362.972 26.2824 349.794 24.2403 347.793C23.4549 347.046 24.8566 337.931 26.8625 326.96C26.8625 326.851 26.8625 326.73 26.8625 326.622C27.2733 324.355 38.1849 286.534 38.1849 286.534L78.5567 296.023L66.9321 334.676L66.763 335.351C66.763 335.351 88.2237 351.024 90.2296 353.436C92.2355 355.847 92.8638 362.442 90.5438 362.695Z" fill="#D3766A"/>
<path d="M90.5438 362.695C88.2358 362.972 26.2824 349.794 24.2403 347.793C23.4549 347.046 24.8566 337.931 26.8625 326.959C26.8625 326.851 26.8625 326.73 26.8625 326.622C26.9712 326.031 27.805 323.005 28.9771 318.785L69.083 327.514L66.9321 334.676L66.763 335.351C66.763 335.351 88.2237 351.024 90.2296 353.435C92.2355 355.847 92.8638 362.442 90.5438 362.695Z" fill="#EBEBEB"/>
<path d="M91.1357 362.948C88.7189 363.213 25.6901 349.686 23.6238 347.6C22.8263 346.841 24.2643 337.557 26.3427 326.381V326.031L67.1374 334.338L66.9803 335.025C66.9803 335.025 88.8518 351.036 90.894 353.448C92.9361 355.859 93.492 362.683 91.1357 362.948Z" fill="#FF0035"/>
<path d="M90.9424 360.356C80.3692 357.8 37.4719 348.517 26.8261 346.805C26.7295 346.805 26.7174 346.805 26.8261 346.865C37.2544 349.626 80.2362 358.56 90.9304 360.525C91.1358 360.561 91.172 360.404 90.9424 360.356Z" fill="#263238"/>
<path d="M71.7052 335.423C67.6934 333.747 62.437 333.289 58.5944 335.568C58.4494 335.664 58.5944 335.869 58.7152 335.857C62.9921 335.431 67.3024 335.463 71.5723 335.954C71.6378 335.959 71.7029 335.94 71.7562 335.902C71.8095 335.864 71.8474 335.808 71.8634 335.744C71.8793 335.681 71.8722 335.614 71.8432 335.555C71.8143 335.496 71.7654 335.449 71.7052 335.423Z" fill="#263238"/>
<path d="M74.327 337.895C70.3152 336.207 65.0588 335.749 61.2161 338.039C61.0711 338.124 61.2161 338.341 61.3491 338.329C65.6255 337.899 69.9358 337.927 74.2061 338.413C74.2403 338.421 74.2756 338.422 74.3102 338.416C74.3447 338.411 74.3778 338.398 74.4075 338.38C74.4373 338.361 74.4631 338.337 74.4835 338.309C74.5039 338.28 74.5184 338.248 74.5264 338.214C74.5343 338.18 74.5354 338.145 74.5297 338.11C74.524 338.076 74.5115 338.043 74.493 338.013C74.4745 337.983 74.4503 337.958 74.4218 337.937C74.3933 337.917 74.3611 337.902 74.327 337.895Z" fill="#263238"/>
<path d="M76.9615 340.354C72.9497 338.678 67.6933 338.22 63.8507 340.499C63.6936 340.595 63.8507 340.8 63.9715 340.788C68.2484 340.362 72.5587 340.395 76.8286 340.885C76.8941 340.89 76.9592 340.872 77.0125 340.833C77.0658 340.795 77.1038 340.739 77.1197 340.676C77.1356 340.612 77.1285 340.545 77.0995 340.486C77.0706 340.427 77.0217 340.381 76.9615 340.354Z" fill="#263238"/>
<path d="M113.479 109.34C113.479 109.34 116.935 138.891 110.82 145.618C110.82 145.618 99.9448 213.665 96.1264 233.269C91.0149 259.142 70.4605 334.013 70.4605 334.013L25.1948 326.381C25.1948 326.381 51.8636 229.338 52.0811 227.651C53.2895 218.09 64.1649 151.695 63.5728 150.043C57.9055 133.164 66.0862 109.34 66.0862 109.34H113.479Z" fill="#38405F"/>
<path d="M123.665 109.34C123.665 109.34 119.351 140.567 110.82 145.618C110.82 145.618 99.9448 213.665 96.1264 233.269C91.0149 259.142 70.4605 334.013 70.4605 334.013L25.1948 326.381C25.1948 326.381 51.8636 229.338 52.0811 227.651C53.2895 218.09 64.1649 151.695 63.5728 150.043C57.9055 133.164 66.0862 109.34 66.0862 109.34H123.665Z" fill="#38405F"/>
<path d="M70.2673 324.717C63.5729 323.234 65.5184 323.511 58.8119 322.137C55.5372 321.45 33.9677 316.965 30.7776 316.953C30.7051 316.953 30.681 317.097 30.7776 317.121C33.7381 318.327 55.3922 322.378 58.679 322.993C65.4217 324.199 63.5125 323.789 70.2552 324.958C70.3398 324.97 70.3881 324.753 70.2673 324.717Z" fill="#263238"/>
<path d="M117.031 142.23C112.262 143.957 107.653 146.095 103.256 148.62C103.217 148.638 103.187 148.67 103.173 148.709C103.158 148.749 103.159 148.793 103.177 148.831C103.195 148.869 103.227 148.899 103.267 148.914C103.306 148.929 103.35 148.927 103.389 148.909C108.029 146.92 112.753 145.015 117.285 142.773C117.348 142.734 117.394 142.673 117.416 142.603C117.437 142.532 117.431 142.456 117.4 142.389C117.369 142.322 117.314 142.269 117.246 142.239C117.178 142.21 117.101 142.207 117.031 142.23Z" fill="#263238"/>
<path d="M118.457 110.462C118.457 110.305 118.167 110.269 118.167 110.462C118.167 115.959 117.853 120.794 117.393 125.93C117.176 128.341 115.255 141.495 111.11 140.53C110.409 140.374 110.059 139.686 109.902 138.65C109.914 137.281 110.101 135.92 110.457 134.599C110.917 131.85 111.279 129.077 111.521 126.292C111.996 121.103 111.939 115.88 111.352 110.703C111.352 110.667 111.338 110.634 111.313 110.609C111.288 110.584 111.254 110.57 111.219 110.57C111.183 110.57 111.15 110.584 111.125 110.609C111.1 110.634 111.086 110.667 111.086 110.703C111.208 117.898 110.784 125.092 109.817 132.223C109.297 135.648 107.569 140.808 111.17 141.338C114.771 141.869 117.212 133.236 117.635 130.873C118.791 124.133 119.068 117.272 118.457 110.462Z" fill="#263238"/>
<path d="M111.219 140.856C110.849 141.747 110.538 142.661 110.288 143.593C110.018 144.309 109.887 145.07 109.902 145.835C109.902 145.98 110.107 145.992 110.179 145.835C110.616 145.164 110.942 144.427 111.146 143.653C111.46 142.809 111.799 141.965 112.089 141.121C112.106 141.012 112.084 140.9 112.025 140.806C111.966 140.712 111.876 140.643 111.77 140.61C111.663 140.578 111.549 140.585 111.448 140.63C111.347 140.675 111.265 140.756 111.219 140.856Z" fill="#263238"/>
<path d="M69.0103 127.557C70.0133 127.377 71.4271 127.738 75.8497 127.437C77.0721 127.338 78.2844 127.14 79.4748 126.846C80.6711 126.661 81.8083 126.203 82.7979 125.508C84.3791 124.02 85.6662 122.249 86.5922 120.287C87.7505 118.268 88.644 116.108 89.2506 113.861C89.2506 113.717 89.4802 113.789 89.456 113.922C89.2264 115.127 89.0935 116.465 88.7551 117.719C88.4421 118.902 88.0381 120.059 87.5468 121.18C86.7507 123.39 85.4082 125.364 83.6437 126.918C81.6741 128.401 78.9311 128.667 76.5506 128.835C75.173 128.932 69.7595 128.835 69.0345 128.016C68.8049 127.883 68.817 127.582 69.0103 127.557Z" fill="#263238"/>
<path d="M125.018 121.505C123.81 122.349 65.506 109.533 65.2764 109.075C64.6239 107.869 93.6732 49.4195 110.313 41.2332C113.938 39.4729 122.868 43.1502 124.716 45.7182C125.864 47.3338 127.206 56.569 127.967 64.1887C129.502 79.3316 126.07 120.758 125.018 121.505Z" fill="#FF0035"/>
<path d="M109.503 73.9059C108.955 72.4028 108.955 70.7553 109.503 69.2521C110.05 70.7553 110.05 72.4028 109.503 73.9059ZM123.484 98.0912C123.502 97.2961 123.362 96.5053 123.073 95.7643C122.783 96.5053 122.644 97.2961 122.662 98.0912C122.657 98.8813 122.796 99.6656 123.073 100.406C123.355 99.6672 123.495 98.8818 123.484 98.0912ZM91.3893 96.0295C91.4052 95.2357 91.2699 94.4461 90.9905 93.7026C90.4428 95.2016 90.4428 96.8454 90.9905 98.3444C91.269 97.6049 91.4043 96.8194 91.3893 96.0295ZM95.0144 63.9955C95.8072 64.0121 96.5956 63.8728 97.3345 63.5856C96.5956 63.2984 95.8072 63.1591 95.0144 63.1757C94.218 63.1639 93.4266 63.303 92.6822 63.5856C93.413 63.8568 94.1864 63.9956 94.966 63.9955H95.0144ZM92.6822 113.728C93.4789 113.744 94.271 113.605 95.0144 113.319C93.5078 112.772 91.8566 112.772 90.3501 113.319C91.0776 113.601 91.8532 113.74 92.6339 113.728H92.6822ZM77.7226 84.0695C77.6017 84.3106 77.4688 84.5518 77.3238 84.7809C77.9004 84.749 78.4679 84.6227 79.0034 84.4071C78.5779 84.2345 78.1307 84.1209 77.6742 84.0695H77.7226ZM123.46 44.4761C122.83 44.4999 122.209 44.6303 121.623 44.8619C122.365 45.1507 123.158 45.29 123.955 45.2718H124.281C124.009 44.9879 123.718 44.7221 123.411 44.4761H123.46ZM108.717 88.5666C109.491 88.5899 110.261 88.4672 110.989 88.2049C109.483 87.6586 107.831 87.6586 106.325 88.2049C107.075 88.4788 107.871 88.6018 108.669 88.5666H108.717ZM119.871 114.85C120.667 114.865 121.459 114.726 122.203 114.44C120.693 113.909 119.048 113.909 117.538 114.44C118.266 114.722 119.042 114.862 119.822 114.85H119.871ZM94.6156 79.9944C94.0664 79.4219 93.4094 78.963 92.6822 78.6441C93.0051 79.3678 93.4646 80.0227 94.0356 80.5731C94.5926 81.1366 95.2478 81.5941 95.969 81.9235C95.635 81.1938 95.1585 80.538 94.5673 79.9944H94.6156ZM109.781 53.7957C109.225 53.222 108.565 52.7596 107.835 52.4333C108.514 53.8823 109.682 55.0473 111.134 55.7248C110.807 55.0035 110.348 54.3493 109.781 53.7957ZM123.605 80.8866C123.053 80.3169 122.396 79.8584 121.671 79.5363C122.355 80.979 123.522 82.1386 124.97 82.8156C124.647 82.0922 124.187 81.4374 123.617 80.8866H123.605ZM123.073 62.3438C122.498 62.8935 122.034 63.5484 121.707 64.2728C123.153 63.5862 124.318 62.4239 125.006 60.9814C124.28 61.3076 123.624 61.7702 123.073 62.3438ZM72.0795 101.009C71.5085 101.559 71.049 102.214 70.7261 102.938C72.1742 102.265 73.338 101.103 74.0129 99.6585C73.2807 99.9812 72.6164 100.439 72.0553 101.009H72.0795ZM106.869 102.673C106.293 103.224 105.833 103.884 105.515 104.614C106.241 104.287 106.898 103.825 107.449 103.251C108.016 102.698 108.475 102.044 108.802 101.322C108.079 101.649 107.423 102.107 106.869 102.673Z" fill="white"/>
<path d="M122.493 52.1323C122.312 57.9074 122.022 63.6704 121.708 69.4454C121.393 75.2205 121.007 80.9594 120.656 86.7224C120.306 92.4854 119.835 98.2484 119.351 103.999L118.626 112.632C118.348 115.501 118.094 118.383 117.78 121.252C117.865 118.359 118.01 115.477 118.119 112.596L118.566 103.939C118.88 98.176 119.279 92.4251 119.629 86.6621C119.98 80.8991 120.451 75.1361 120.922 69.3851C121.393 63.6342 121.865 57.8833 122.493 52.1323Z" fill="#263238"/>
<path d="M125.562 70.1208C125.552 70.3355 125.479 70.5425 125.351 70.7155C125.223 70.8884 125.046 71.0196 124.843 71.0922C124.64 71.1648 124.42 71.1757 124.211 71.1235C124.002 71.0712 123.814 70.9582 123.669 70.7987C123.525 70.6392 123.431 70.4405 123.4 70.2277C123.368 70.015 123.401 69.7978 123.494 69.6038C123.587 69.4097 123.735 69.2475 123.921 69.1378C124.106 69.0281 124.32 68.9757 124.535 68.9875C124.821 69.003 125.09 69.1309 125.282 69.3432C125.475 69.5554 125.575 69.8349 125.562 70.1208Z" fill="#263238"/>
<path d="M124.584 81.2124C124.574 81.4267 124.501 81.6334 124.373 81.8062C124.246 81.979 124.07 82.1102 123.868 82.1833C123.666 82.2564 123.446 82.2681 123.238 82.2169C123.029 82.1657 122.84 82.0539 122.695 81.8956C122.55 81.7374 122.455 81.5397 122.422 81.3277C122.39 81.1157 122.421 80.8987 122.512 80.7043C122.603 80.5099 122.749 80.3468 122.933 80.2355C123.117 80.1243 123.33 80.0698 123.544 80.0791C123.687 80.0853 123.828 80.1196 123.957 80.1799C124.087 80.2403 124.203 80.3255 124.3 80.4308C124.396 80.536 124.471 80.6592 124.52 80.7934C124.568 80.9275 124.59 81.0699 124.584 81.2124Z" fill="#263238"/>
<path d="M123.593 92.3163C123.587 92.4588 123.552 92.5988 123.492 92.7281C123.431 92.8574 123.346 92.9735 123.24 93.0698C123.135 93.1661 123.011 93.2407 122.877 93.2893C122.742 93.3379 122.6 93.3596 122.457 93.3532C122.314 93.346 122.174 93.3109 122.045 93.2498C121.916 93.1887 121.8 93.1028 121.704 92.997C121.608 92.8912 121.534 92.7676 121.486 92.6332C121.438 92.4988 121.417 92.3563 121.424 92.2138C121.431 92.0713 121.466 91.9316 121.527 91.8027C121.589 91.6738 121.675 91.5582 121.781 91.4624C121.887 91.3667 122.011 91.2928 122.145 91.2448C122.28 91.1969 122.423 91.1759 122.566 91.183C122.708 91.1892 122.848 91.2235 122.977 91.284C123.106 91.3444 123.221 91.4299 123.317 91.5353C123.412 91.6408 123.486 91.7641 123.533 91.8982C123.581 92.0323 123.601 92.1744 123.593 92.3163Z" fill="#263238"/>
<path d="M122.614 103.433C122.604 103.648 122.53 103.855 122.402 104.028C122.274 104.2 122.098 104.332 121.895 104.404C121.692 104.477 121.472 104.488 121.263 104.435C121.054 104.383 120.865 104.27 120.721 104.111C120.576 103.951 120.483 103.753 120.451 103.54C120.42 103.327 120.453 103.11 120.546 102.916C120.639 102.722 120.787 102.56 120.972 102.45C121.158 102.34 121.372 102.288 121.587 102.299C121.729 102.306 121.869 102.34 121.998 102.4C122.127 102.461 122.242 102.546 122.338 102.652C122.433 102.757 122.507 102.881 122.554 103.015C122.602 103.149 122.622 103.291 122.614 103.433Z" fill="#263238"/>
<path d="M121.635 114.537C121.62 114.823 121.492 115.093 121.28 115.286C121.067 115.48 120.787 115.583 120.499 115.573C120.211 115.559 119.94 115.431 119.746 115.217C119.553 115.004 119.452 114.722 119.466 114.434C119.481 114.146 119.609 113.876 119.823 113.683C120.037 113.489 120.32 113.389 120.608 113.403C120.893 113.422 121.16 113.551 121.352 113.762C121.544 113.974 121.645 114.251 121.635 114.537Z" fill="#263238"/>
<path d="M119.557 53.2417C115.932 53.1091 111.485 46.2851 110.337 41.4143C110.264 41.0888 111.545 38.147 112.947 34.518C113.781 32.3117 114.663 29.828 115.364 27.5132L128.97 35.0605C127.336 37.7332 126.038 40.596 125.103 43.5845C125.013 43.9033 124.957 44.2306 124.934 44.561C124.934 44.561 124.934 44.6575 124.934 44.7298C124.656 46.6348 123.073 53.3984 119.557 53.2417Z" fill="#D3766A"/>
<path d="M115.956 27.9229C115.605 30.949 114.953 41.9445 123.339 44.4523C123.839 44.5974 124.347 44.7102 124.862 44.7899C124.872 44.7341 124.872 44.6769 124.862 44.6211C124.886 44.2917 124.939 43.965 125.019 43.6445C125.96 40.6566 127.263 37.7943 128.898 35.1206L115.956 27.9229Z" fill="#263238"/>
<path d="M115.207 13.0694C113.189 18.2899 114.88 33.9271 118.433 37.6405C123.581 43.0298 132.583 44.1751 137.308 37.8696C141.9 31.757 139.338 11.4177 135.314 7.9816C129.393 2.91788 118.24 5.36534 115.207 13.0694Z" fill="#D3766A"/>
<path d="M129.538 23.5947C129.538 23.5947 129.453 23.5947 129.465 23.6912C129.598 24.7401 129.586 25.9699 128.668 26.4159C128.668 26.4159 128.668 26.4883 128.668 26.4159C129.84 26.1869 129.84 24.5592 129.538 23.5947Z" fill="#263238"/>
<path d="M128.475 22.5818C126.771 22.5818 126.988 26.042 128.571 26.0059C130.154 25.9697 129.913 22.5457 128.475 22.5818Z" fill="#263238"/>
<path d="M135.398 23.2451C135.398 23.2451 135.483 23.2451 135.495 23.3295C135.495 24.3905 135.737 25.5961 136.703 25.8855C136.703 25.8855 136.703 25.9578 136.703 25.8855C135.531 25.8614 135.265 24.3061 135.398 23.2451Z" fill="#263238"/>
<path d="M136.28 22.0874C137.972 21.8463 138.323 25.2462 136.752 25.4632C135.181 25.6803 134.855 22.2803 136.28 22.0874Z" fill="#263238"/>
<path d="M127.024 21.1111C127.465 20.9552 127.897 20.774 128.317 20.5685C128.8 20.4363 129.225 20.148 129.525 19.7487C129.595 19.6053 129.617 19.443 129.586 19.2865C129.556 19.1299 129.475 18.9874 129.356 18.8806C129.079 18.7208 128.764 18.6367 128.444 18.6367C128.124 18.6367 127.809 18.7208 127.532 18.8806C126.916 19.091 126.4 19.5202 126.082 20.0863C126.028 20.2212 126.013 20.3687 126.039 20.5116C126.065 20.6546 126.131 20.7873 126.23 20.8944C126.328 21.0014 126.455 21.0786 126.596 21.1169C126.736 21.1553 126.885 21.1532 127.024 21.1111Z" fill="#263238"/>
<path d="M137.489 20.279C137.025 20.215 136.565 20.1265 136.111 20.0138C135.608 19.9907 135.127 19.7996 134.746 19.4712C134.651 19.3441 134.599 19.1898 134.599 19.0312C134.599 18.8725 134.651 18.7182 134.746 18.5911C134.973 18.3671 135.257 18.2077 135.567 18.1293C135.877 18.0509 136.203 18.0563 136.51 18.145C137.164 18.2241 137.764 18.5471 138.19 19.0492C138.28 19.1695 138.333 19.3134 138.342 19.4633C138.352 19.6132 138.317 19.7626 138.243 19.8931C138.168 20.0237 138.057 20.1298 137.923 20.1983C137.789 20.2668 137.638 20.2949 137.489 20.279Z" fill="#263238"/>
<path d="M129.779 30.262C130.076 30.6628 130.452 30.9982 130.885 31.2472C131.317 31.4962 131.797 31.6533 132.293 31.7087C132.725 31.7749 133.165 31.7749 133.598 31.7087H133.84H134.069C134.125 31.6931 134.173 31.6599 134.208 31.6143C134.243 31.5686 134.262 31.5129 134.263 31.4555C134.268 31.4196 134.268 31.383 134.263 31.347V31.2506C134.263 30.4428 134.081 29.213 134.081 29.213C134.383 29.3336 135.942 29.9244 135.894 29.5024C135.567 25.8241 134.867 22.1885 133.803 18.6516C133.803 18.531 133.586 18.5792 133.61 18.6516C133.888 22.0394 134.818 25.355 135.108 28.7549C134.555 28.5356 133.973 28.3975 133.38 28.345C133.26 28.345 133.731 30.7563 133.707 31.0818C133.042 31.1906 132.363 31.1644 131.709 31.0049C131.055 30.8454 130.439 30.5558 129.9 30.1534C129.792 30.1052 129.707 30.1776 129.779 30.262Z" fill="#263238"/>
<path d="M132.982 31.5399C132.514 32.0833 131.915 32.4984 131.242 32.7455C130.849 32.871 130.426 32.871 130.033 32.7455C129.199 32.5044 129.199 31.7328 129.369 31.0817C129.459 30.7328 129.593 30.3965 129.767 30.0811C130.649 30.906 131.779 31.4186 132.982 31.5399Z" fill="#263238"/>
<path d="M131.242 32.7453C130.849 32.8708 130.426 32.8708 130.033 32.7453C129.199 32.5042 129.199 31.7326 129.369 31.0815C129.827 31.0963 130.265 31.2709 130.607 31.5749C130.949 31.8789 131.174 32.2931 131.242 32.7453Z" fill="#F291B8"/>
<path d="M138.226 14.07C133.235 18.0968 125.574 13.214 125.574 13.214C125.217 14.401 124.486 15.4412 123.489 16.1799C122.492 16.9185 121.282 17.316 120.04 17.3132C120.04 17.3132 119.726 26.3073 117.369 26.4761C113.744 26.7413 111.69 14.6728 112.633 12.1892C113.021 11.3934 113.57 10.6868 114.246 10.114C114.922 9.54115 115.71 9.11469 116.56 8.86158C116.775 7.38219 117.549 6.04082 118.723 5.11202C121.019 3.05036 129.683 4.895 129.683 4.895C130.079 3.7274 130.741 2.66701 131.616 1.79649C131.826 1.58101 132.076 1.4097 132.353 1.29272C132.631 1.17573 132.928 1.11546 133.229 1.11546C133.53 1.11546 133.828 1.17573 134.105 1.29272C134.382 1.4097 134.633 1.58101 134.842 1.79649C134.44 2.493 134.204 3.27282 134.154 4.07516C133.936 6.71553 136.075 6.48645 135.87 4.17161C135.827 3.27125 135.462 2.41589 134.842 1.76031C135.773 0.132689 137.453 -0.506302 138.564 0.241199C140.582 1.66386 142.407 10.7183 138.226 14.07Z" fill="#263238"/>
<path d="M118.626 25.5118C118.626 25.5118 115.388 20.3275 113.043 21.4608C110.699 22.5941 112.959 29.9004 115.569 31.106C115.891 31.2753 116.243 31.3785 116.606 31.4094C116.968 31.4403 117.333 31.3983 117.679 31.2859C118.025 31.1734 118.345 30.9929 118.62 30.7549C118.894 30.5169 119.119 30.2263 119.279 29.9004L118.626 25.5118Z" fill="#D3766A"/>
<path d="M113.744 23.4985C113.744 23.4985 113.744 23.4985 113.744 23.5709C114.578 24.0421 115.304 24.6825 115.874 25.4509C116.444 26.2193 116.847 27.0985 117.055 28.0318C116.955 27.8396 116.815 27.6711 116.644 27.5377C116.474 27.4044 116.276 27.3093 116.065 27.2589C115.854 27.2086 115.635 27.2042 115.422 27.246C115.209 27.2878 115.008 27.3749 114.832 27.5013C114.832 27.5013 114.832 27.6218 114.832 27.6098C115.165 27.523 115.517 27.5414 115.839 27.6623C116.162 27.7832 116.439 28.0007 116.632 28.285C116.956 28.7649 117.228 29.2783 117.442 29.8161C117.514 29.9849 117.828 29.9126 117.768 29.7197C117.961 27.2963 116.294 23.8723 113.744 23.4985Z" fill="#263238"/>
<path d="M124.861 44.8021L122.022 51.7707L110.687 39.9795L107.364 43.3915C107.364 43.3915 117.031 61.6932 117.176 60.8975L122.276 53.4827L126.191 59.1011L126.602 47.8885L124.861 44.8021Z" fill="#FF0035"/>
<path d="M126.698 52.5543C126.698 50.36 126.807 50.143 126.698 48.009C126.698 47.9367 126.577 47.9005 126.553 48.009C125.997 50.0948 126.021 56.4485 125.901 58.4258C125.695 58.1847 122.275 53.4706 122.275 53.5308C121.418 54.7365 117.442 60.1016 117.188 60.5959C115.654 57.6903 109.757 47.0927 107.896 44.3318C107.888 44.3142 107.873 44.3005 107.855 44.2937C107.837 44.2869 107.817 44.2876 107.799 44.2956C107.782 44.3036 107.768 44.3182 107.761 44.3363C107.754 44.3544 107.755 44.3745 107.763 44.392C109.092 47.4423 116.886 61.6931 117.019 61.669C118.958 59.1787 120.726 56.5605 122.312 53.8323C123.049 54.8329 126.42 60.1257 126.456 59.8605C126.668 57.4311 126.748 54.9922 126.698 52.5543Z" fill="#263238"/>
<path d="M205.224 122.483L143.843 172.985L174.51 210.09L235.891 159.588L205.224 122.483Z" fill="#FF0035"/>
<path opacity="0.1" d="M205.232 122.481L143.851 172.983L158.288 190.452L219.669 139.95L205.232 122.481Z" fill="black"/>
<path d="M202.154 115.845L137.873 168.733L152.188 186.053L216.468 133.165L202.154 115.845Z" fill="#FF0035"/>
<path d="M175.396 121.288L183.552 131.174L178.9 134.996L174.26 129.378L156.497 143.99L161.137 149.609L156.485 153.443L148.328 143.556L175.396 121.288Z" fill="#263238"/>
<path d="M161.785 171.195L157.599 174.639L164.433 182.908L168.619 179.464L161.785 171.195Z" fill="#263238"/>
<path d="M204.233 136.287L200.047 139.731L206.881 148.001L211.067 144.557L204.233 136.287Z" fill="#263238"/>
<path d="M98.0961 56.6654C88.0304 78.7529 85.6136 102.673 90.4471 108.135C97.3348 115.923 121.128 129.149 133.236 133.345C136.788 134.55 145.863 106.76 142.057 105.434C137.465 103.842 111.763 93.1966 111.364 92.9072C110.53 92.2803 109.902 65.2738 109.999 58.4739C110.168 46.0075 103.558 44.6572 98.0961 56.6654Z" fill="#D3766A"/>
<path d="M177.365 120.227C177.332 121.141 177.02 122.023 176.472 122.755C175.923 123.487 175.164 124.036 174.296 124.327C175.122 125.641 175.46 127.202 175.25 128.739C174.755 131.428 170.32 131.838 170.32 131.838C170.891 133.382 170.984 135.063 170.586 136.66C169.849 139.192 165.426 140.277 165.426 140.277C165.167 141.976 164.311 143.528 163.01 144.654C159.384 147.511 152.738 145.124 148.509 143.653C144.28 142.182 133.634 134.008 131.447 132.706L140.679 105.482C140.679 105.482 161.559 106.688 166.296 109.099C170.199 111.113 177.353 116.731 177.365 120.227Z" fill="#D3766A"/>
<path d="M174.26 123.82C170.538 120.625 166.079 118.696 161.729 116.586C161.719 116.577 161.708 116.571 161.695 116.567C161.682 116.563 161.669 116.562 161.656 116.565C161.643 116.567 161.631 116.572 161.62 116.58C161.61 116.588 161.601 116.598 161.595 116.61C161.589 116.622 161.586 116.635 161.586 116.648C161.586 116.661 161.59 116.674 161.595 116.686C161.601 116.698 161.61 116.708 161.621 116.716C161.631 116.723 161.643 116.729 161.656 116.731C166.007 118.841 169.873 121.795 174.127 124.073C174.16 124.091 174.2 124.094 174.236 124.083C174.254 124.078 174.271 124.069 174.285 124.056C174.299 124.044 174.311 124.03 174.32 124.013C174.329 123.996 174.334 123.978 174.336 123.96C174.338 123.941 174.336 123.922 174.33 123.904C174.324 123.886 174.315 123.87 174.303 123.855C174.291 123.841 174.276 123.829 174.26 123.82Z" fill="#263238"/>
<path d="M170.344 131.452C169.434 130.8 168.438 130.276 167.384 129.896C166.296 129.414 165.209 128.956 164.109 128.522C161.91 127.63 159.687 126.798 157.439 126.026C157.342 126.026 157.258 126.147 157.366 126.183C159.554 127.063 161.741 127.98 163.892 128.956L167.118 130.451C168.095 130.992 169.128 131.425 170.199 131.741C170.235 131.747 170.272 131.742 170.305 131.726C170.337 131.709 170.364 131.683 170.38 131.65C170.396 131.618 170.402 131.581 170.395 131.545C170.389 131.509 170.371 131.477 170.344 131.452Z" fill="#263238"/>
<path d="M165.366 140.18C164.527 139.626 163.599 139.218 162.623 138.975L159.602 137.769C157.584 136.986 155.566 136.19 153.56 135.358C153.463 135.358 153.379 135.466 153.488 135.515C155.493 136.395 157.499 137.299 159.529 138.155C160.52 138.589 161.523 138.999 162.514 139.361C163.388 139.825 164.337 140.131 165.318 140.265C165.327 140.264 165.336 140.261 165.344 140.255C165.352 140.25 165.358 140.243 165.363 140.235C165.368 140.227 165.371 140.217 165.371 140.208C165.371 140.199 165.37 140.189 165.366 140.18Z" fill="#263238"/>
<path d="M141.199 104.819L123.871 132.621C123.871 132.621 89.71 113.138 87.9458 106.399C86.1815 99.6591 88.8641 74.7022 96.5131 58.8841C104.162 43.066 110.772 44.561 110.446 62.4046C110.119 80.2481 111.412 92.2926 111.823 92.5457C112.234 92.7989 141.199 104.819 141.199 104.819Z" fill="#FF0035"/>
<path d="M109.503 73.9064C108.956 72.4033 108.956 70.7558 109.503 69.2526C110.051 70.7558 110.051 72.4033 109.503 73.9064ZM123.46 97.4648L122.723 97.1634C122.685 97.4714 122.664 97.7814 122.662 98.0917C122.658 98.8818 122.797 99.6661 123.073 100.407C123.356 99.6678 123.495 98.8823 123.484 98.0917C123.484 97.8506 123.472 97.6818 123.46 97.4648ZM91.3896 96.0301C91.4056 95.2363 91.2703 94.4466 90.9909 93.7032C90.4431 95.2022 90.4431 96.8459 90.9909 98.3449C91.2693 97.6054 91.4047 96.8199 91.3896 96.0301ZM106.337 118.937C106.055 119.68 105.915 120.47 105.926 121.264C105.926 121.397 105.926 121.53 105.926 121.662L106.663 122.156C106.681 121.859 106.681 121.561 106.663 121.264C106.71 120.471 106.599 119.676 106.337 118.925V118.937ZM94.9664 63.1882H94.6039C94.4952 63.4414 94.3985 63.7067 94.3018 63.9599H94.9664C95.7593 63.9764 96.5476 63.8372 97.2865 63.5499C96.5451 63.275 95.7569 63.148 94.9664 63.1762V63.1882ZM93.891 113.042L94.4589 113.5C94.6276 113.454 94.7931 113.398 94.9544 113.331C94.6138 113.187 94.2566 113.086 93.891 113.03V113.042ZM108.669 88.5792C109.46 88.6048 110.247 88.4779 110.989 88.2054C109.483 87.6591 107.832 87.6591 106.325 88.2054C107.075 88.4794 107.872 88.6023 108.669 88.5671V88.5792ZM119.823 114.862C120.619 114.878 121.411 114.739 122.155 114.452C120.646 113.922 119 113.922 117.491 114.452C118.234 114.737 119.027 114.872 119.823 114.85V114.862ZM121.72 130.536C121.168 129.966 120.512 129.508 119.786 129.185C120.102 129.9 120.553 130.547 121.116 131.09L122.88 132.127C122.581 131.524 122.189 130.971 121.72 130.487V130.536ZM94.5677 80.0432C94.0184 79.4707 93.3614 79.0118 92.6343 78.6929C92.9572 79.4166 93.4166 80.0715 93.9877 80.6219C94.5447 81.1853 95.1998 81.6429 95.921 81.9722C95.607 81.2295 95.1468 80.5571 94.5677 79.995V80.0432ZM109.854 53.9168L109.793 53.8565C109.238 53.2828 108.577 52.8204 107.848 52.4941C108.178 53.2204 108.641 53.8787 109.213 54.4352C109.474 54.6914 109.753 54.9291 110.047 55.1466C109.999 54.6643 109.926 54.2544 109.854 53.8686V53.9168ZM135.544 107.411C134.989 106.845 134.333 106.388 133.61 106.061C133.937 106.785 134.401 107.44 134.976 107.99C135.525 108.563 136.182 109.021 136.909 109.34C136.584 108.601 136.121 107.929 135.544 107.363V107.411ZM106.869 102.673C106.294 103.225 105.834 103.884 105.516 104.614C106.242 104.288 106.898 103.825 107.449 103.252C108.016 102.698 108.475 102.044 108.802 101.323C108.079 101.649 107.424 102.107 106.869 102.673Z" fill="white"/>
<path d="M133.61 104.204C133.61 104.12 133.525 104.035 133.465 104.107C128.398 111.151 123.719 118.464 119.448 126.014C119.448 126.098 119.532 126.183 119.593 126.111C124.659 119.067 129.339 111.754 133.61 104.204Z" fill="#263238"/>
<path d="M98.7482 116.381C95.7734 114.51 93.0419 112.278 90.6159 109.738C89.2622 108.514 88.3529 106.878 88.03 105.084C87.8425 103.387 87.794 101.677 87.885 99.9722C88.0189 92.6396 88.8279 85.3348 90.3017 78.15C91.151 74.1594 92.2077 70.2156 93.4676 66.3346C93.4676 66.2623 93.3831 66.2382 93.3589 66.3346C92.2249 69.1465 91.2526 72.0206 90.4467 74.9429C90.5674 73.1601 90.7852 71.3852 91.0992 69.626C91.0992 69.5537 90.9905 69.5175 90.9784 69.626C90.7066 70.791 90.5008 71.9704 90.3621 73.1586C90.2775 74.0628 90.2292 74.967 90.205 75.8713C89.0957 80.039 88.2442 84.2707 87.6554 88.5426C87.1425 92.259 86.864 96.0039 86.8216 99.7552C86.7145 101.553 86.7711 103.357 86.9908 105.144C87.2453 106.723 87.9549 108.193 89.0329 109.376C91.848 112.27 95.1122 114.692 98.6999 116.55C98.7183 116.547 98.7354 116.539 98.7493 116.527C98.7633 116.515 98.7734 116.499 98.7785 116.481C98.7836 116.463 98.7834 116.444 98.7781 116.427C98.7727 116.409 98.7624 116.393 98.7482 116.381Z" fill="#263238"/>
<path d="M127.411 98.9477C122.578 96.7173 117.744 94.6677 112.79 92.6663C112.564 92.5888 112.349 92.4835 112.149 92.3528C111.995 92.1946 111.878 92.0047 111.805 91.7965C111.732 91.5883 111.705 91.3667 111.726 91.1472C111.666 90.4961 111.618 89.8571 111.569 89.2061C111.461 87.8558 111.364 86.5175 111.267 85.1672C111.098 82.5268 110.977 79.8864 110.844 77.2461C110.844 77.1134 110.844 76.9688 110.844 76.8361C111.098 75.1482 111.376 73.4483 111.509 71.7483C111.509 71.7291 111.501 71.7107 111.488 71.6971C111.474 71.6836 111.456 71.676 111.436 71.676C111.417 71.676 111.399 71.6836 111.385 71.6971C111.372 71.7107 111.364 71.7291 111.364 71.7483C111.11 73.0263 110.941 74.3404 110.796 75.6425C110.663 73.1348 110.542 70.6391 110.421 68.1313H110.349C110.18 73.8341 110.349 79.5127 110.723 85.2033C110.82 86.5898 110.917 87.9884 111.026 89.3749C111.086 90.0741 111.134 90.7734 111.207 91.4727C111.21 91.8379 111.31 92.1957 111.497 92.5096C111.827 92.8548 112.245 93.1047 112.705 93.2329L114.772 94.101L118.626 95.6925C121.538 96.8981 124.463 98.0194 127.423 99.1044C127.447 99.1647 127.508 99.0562 127.411 98.9477Z" fill="#263238"/>
</g>
<defs>
<clipPath id="clip0">
<rect width="512" height="491" fill="white"/>
</clipPath>
</defs>
</svg>
